<?xml version="1.0" standalone="no"?>
<!DOCTYPE svg PUBLIC "-//W3C//DTD SVG 20010904//EN"
 "http://www.w3.org/TR/2001/REC-SVG-20010904/DTD/svg10.dtd">
<svg version="1.0" xmlns="http://www.w3.org/2000/svg"
 width="600.000000pt" height="400.000000pt" viewBox="0 0 600.000000 400.000000"
 preserveAspectRatio="xMidYMid meet">
<metadata>
Created by potrace 1.13, written by Peter Selinger 2001-2015
</metadata>
<g transform="translate(0.000000,400.000000) scale(0.100000,-0.100000)"
fill="#000000" stroke="none">
<path d="M3376 3754 c-4 -14 -4 -41 0 -60 5 -30 4 -34 -15 -34 -28 0 -27 -18
2 -22 16 -2 23 -11 25 -30 4 -35 22 -37 22 -3 0 14 6 25 13 25 6 0 26 -7 42
-16 19 -10 43 -14 64 -10 19 3 42 1 52 -5 24 -12 24 -4 1 19 -45 42 -95 55
-106 26 -5 -12 -13 -14 -34 -10 -15 4 -33 14 -39 23 -7 9 -13 37 -13 61 l0 45
33 -7 c30 -5 31 -5 13 9 -30 23 -53 18 -60 -11z m154 -114 c13 -9 13 -11 0
-20 -8 -5 -18 -10 -22 -10 -11 0 -20 19 -13 30 8 12 16 12 35 0z"/>
<path d="M5020 3730 c-12 -25 -31 -57 -41 -72 -20 -27 -25 -48 -11 -48 11 0
84 139 79 153 -2 7 -14 -8 -27 -33z"/>
<path d="M5273 3695 c-24 -41 -43 -77 -43 -80 0 -3 4 -5 9 -5 13 0 83 128 79
145 -2 8 -22 -19 -45 -60z"/>
<path d="M2393 3743 c-6 -4 12 -8 42 -8 30 0 58 -4 64 -10 5 -5 11 -35 13 -65
l3 -55 -53 2 c-32 2 -50 -1 -47 -7 4 -6 58 -9 128 -8 97 1 109 3 58 7 l-64 6
-4 63 -5 62 45 0 c27 0 47 -5 50 -12 4 -10 7 -10 18 -1 7 7 10 15 6 19 -9 10
-241 16 -254 7z"/>
<path d="M4844 3726 c-8 -11 -14 -24 -14 -28 0 -5 15 -8 34 -8 35 0 63 -21 51
-40 -10 -17 -67 -12 -81 8 -12 16 -13 16 -14 0 0 -23 34 -40 73 -36 29 3 32 6
32 38 0 26 -6 37 -22 46 -13 6 -20 14 -16 17 3 4 22 7 40 7 20 0 32 4 28 10
-3 5 -26 9 -51 8 -33 -2 -50 -8 -60 -22z"/>
<path d="M2912 3714 c3 -25 -1 -29 -30 -35 -49 -10 -51 -19 -3 -19 35 0 43 -4
51 -25 13 -34 32 -33 24 1 -5 20 -3 25 7 22 8 -3 16 -13 17 -24 5 -27 31 -44
66 -43 32 1 29 3 -16 13 -19 4 -28 13 -28 25 0 20 19 31 53 31 21 0 21 -1 -3
-20 -28 -22 -24 -25 14 -10 44 16 28 50 -18 41 -6 -1 -27 -3 -48 -3 -43 0 -68
15 -68 43 0 10 -5 21 -11 25 -7 4 -10 -4 -7 -22z"/>
<path d="M5528 3723 c-37 -42 -33 -103 5 -103 29 0 69 28 61 42 -4 6 -22 8
-40 5 -19 -3 -34 -1 -34 4 0 5 7 21 16 35 20 29 14 42 -8 17z"/>
<path d="M5096 3711 c-13 -14 -14 -24 -7 -43 11 -29 30 -39 60 -31 28 7 27 37
-1 56 l-23 16 30 1 c17 1 39 5 50 10 14 6 5 9 -36 9 -42 1 -60 -3 -73 -18z
m47 -46 c-4 -15 -36 -12 -41 3 -3 9 3 13 19 10 13 -1 23 -7 22 -13z"/>
<path d="M5385 3713 c-22 -3 -44 -9 -50 -15 -7 -7 4 -9 38 -5 28 3 47 1 47 -6
0 -5 -11 -20 -25 -33 -26 -24 -33 -44 -15 -44 13 0 71 81 67 94 -4 12 -12 13
-62 9z"/>
<path d="M866 3682 c-25 -48 -49 -143 -38 -154 6 -6 15 5 26 31 14 37 19 41
50 41 36 0 46 -12 46 -56 0 -13 5 -24 11 -24 8 0 10 13 6 37 -5 27 -2 39 11
49 16 12 15 13 -5 14 -12 0 -24 8 -28 19 -8 25 -44 71 -55 71 -5 0 -16 -12
-24 -28z m64 -58 c0 -15 -35 -20 -43 -6 -3 4 -3 20 0 36 l6 29 18 -22 c11 -13
19 -29 19 -37z"/>
<path d="M1701 3683 c-1 -27 -5 -33 -23 -34 -21 -1 -20 -2 5 -11 16 -6 27 -17
27 -29 0 -11 7 -19 16 -19 11 0 13 6 9 19 -4 15 0 21 17 24 l23 4 -23 8 c-13
4 -29 22 -37 39 l-13 31 -1 -32z"/>
<path d="M1838 3698 c-9 -22 2 -118 13 -118 5 0 9 6 9 14 0 26 23 30 41 8 9
-12 22 -22 29 -22 21 0 -35 59 -57 59 -18 1 -22 8 -25 39 -2 26 -5 32 -10 20z"/>
<path d="M1066 3635 c3 -33 10 -64 15 -69 5 -5 10 -8 12 -5 1 2 -5 33 -15 69
l-18 65 6 -60z"/>
<path d="M1553 3673 c4 -3 10 -3 14 0 3 4 0 7 -7 7 -7 0 -10 -3 -7 -7z"/>
<path d="M3191 3656 c-8 -9 -8 -21 -1 -40 13 -36 28 -33 26 7 -1 31 0 32 37
30 23 -2 35 1 32 7 -9 15 -81 12 -94 -4z"/>
<path d="M2720 3652 c0 -2 9 -15 19 -28 18 -23 20 -24 30 -7 10 17 12 17 30
-4 30 -36 45 -27 17 9 -19 25 -33 33 -60 34 -20 0 -36 -1 -36 -4z"/>
<path d="M3646 3641 c-24 -27 -17 -56 14 -58 16 -1 18 0 7 3 -12 4 -17 13 -15
27 2 17 10 22 31 22 15 -1 26 4 24 10 -6 18 -43 16 -61 -4z"/>
<path d="M3759 3642 c-13 -11 -20 -25 -17 -34 7 -18 45 -30 54 -17 3 5 -4 9
-15 9 -12 0 -21 5 -21 11 0 6 10 10 23 9 42 -4 57 0 57 14 0 14 -21 26 -45 26
-7 0 -23 -8 -36 -18z"/>
<path d="M1174 3625 c-8 -20 13 -45 38 -45 23 0 35 -27 19 -43 -9 -9 -16 -9
-31 1 -10 6 -21 8 -24 3 -9 -14 21 -33 46 -29 21 3 23 8 21 51 -1 26 -7 54
-13 62 -16 19 -49 19 -56 0z m41 -15 c3 -5 -1 -10 -9 -10 -9 0 -16 5 -16 10 0
6 4 10 9 10 6 0 13 -4 16 -10z"/>
<path d="M1998 3632 c-10 -2 -18 -12 -18 -23 0 -24 9 -24 25 -2 12 17 14 17
34 -1 19 -17 21 -17 21 -3 0 24 19 21 40 -5 10 -13 22 -20 26 -15 4 4 -3 18
-15 31 -16 17 -32 23 -59 22 -20 0 -45 -2 -54 -4z"/>
<path d="M1323 3623 c-16 -6 -17 -35 -1 -51 15 -15 45 -16 53 -1 4 5 4 21 1
35 -6 23 -24 29 -53 17z m42 -33 c0 -22 -29 -18 -33 3 -3 14 1 18 15 15 10 -2
18 -10 18 -18z"/>
<path d="M1426 3615 c-3 -9 -12 -12 -23 -8 -17 6 -16 5 1 -15 11 -12 23 -22
28 -22 4 0 8 9 8 21 0 18 4 20 25 15 27 -7 35 8 9 18 -26 10 -42 7 -48 -9z"/>
<path d="M1560 3609 c0 -8 7 -24 15 -35 11 -15 14 -16 15 -3 0 8 -7 24 -15 35
-11 15 -14 16 -15 3z"/>
<path d="M3260 3506 c-3 -2 -316 -7 -695 -11 -412 -3 -787 -11 -930 -20 -446
-27 -613 -35 -744 -36 -75 0 -131 -4 -131 -10 0 -5 27 -9 60 -9 52 0 460 20
710 35 368 21 1395 39 1505 25 33 -4 102 -3 153 3 70 8 95 8 104 -1 9 -9 5
-62 -16 -228 -27 -206 -28 -227 -23 -512 3 -163 12 -380 21 -482 8 -102 18
-238 21 -302 4 -65 10 -118 13 -118 10 0 4 145 -13 340 -25 287 -38 589 -32
765 3 94 15 237 27 319 11 81 20 169 18 195 -2 37 -7 47 -23 49 -12 2 -23 1
-25 -2z"/>
<path d="M3777 3482 c-22 -24 -69 -132 -64 -146 3 -6 10 1 17 17 11 22 20 27
52 27 27 0 38 -4 38 -15 0 -8 5 -15 10 -15 13 0 13 31 -1 85 -14 56 -30 71
-52 47z m28 -53 c0 -24 -5 -35 -18 -37 -23 -5 -32 23 -18 54 15 35 36 25 36
-17z"/>
<path d="M3910 3477 c-14 -7 -26 -20 -28 -28 -7 -35 93 -120 121 -102 6 4 34
7 61 7 27 1 51 6 53 11 2 7 -12 9 -35 7 -42 -4 -66 14 -60 45 3 14 12 18 41
16 40 -3 48 10 17 27 -22 12 -47 3 -69 -24 -10 -12 -18 -13 -32 -5 -11 5 -17
14 -13 20 6 10 -13 39 -25 39 -3 0 -17 -6 -31 -13z m33 -15 c7 -10 -29 -53
-37 -45 -11 11 -7 41 7 46 18 8 25 8 30 -1z m38 -52 c22 -12 26 -50 5 -50 -17
0 -48 39 -40 52 7 10 11 10 35 -2z"/>
<path d="M5170 3410 c0 -40 4 -70 10 -70 6 0 10 30 10 70 0 40 -4 70 -10 70
-6 0 -10 -30 -10 -70z"/>
<path d="M4458 3419 c-10 -5 -18 -19 -18 -29 0 -16 7 -20 34 -20 22 0 36 -6
40 -16 11 -29 6 -43 -16 -46 -16 -2 -24 -11 -26 -29 -4 -31 28 -62 60 -57 18
2 24 10 26 35 2 18 -4 48 -14 68 -9 20 -20 50 -23 68 -7 35 -32 45 -63 26z
m37 -19 c3 -6 -1 -13 -10 -16 -19 -8 -30 0 -20 15 8 14 22 14 30 1z m51 -126
c8 -32 -10 -53 -33 -38 -9 6 -21 18 -27 27 -8 13 -7 20 4 27 27 17 49 11 56
-16z"/>
<path d="M724 3400 c4 -14 13 -74 22 -135 8 -60 26 -173 39 -250 13 -77 31
-192 39 -255 35 -264 105 -852 111 -936 4 -50 10 -96 14 -102 5 -9 46 -8 167
2 87 8 238 17 334 20 96 4 222 10 280 16 292 27 379 32 665 40 314 9 866 38
874 46 13 13 -22 14 -160 4 -319 -22 -681 -40 -800 -40 -114 0 -358 -16 -621
-40 -58 -6 -217 -15 -352 -20 -134 -5 -269 -13 -300 -16 -74 -9 -86 2 -86 76
0 54 -17 212 -40 375 -5 39 -14 108 -19 155 -24 216 -74 584 -91 668 -10 51
-27 158 -36 238 -11 84 -24 153 -32 162 -12 15 -13 14 -8 -8z"/>
<path d="M4190 3404 c0 -8 5 -12 10 -9 6 4 8 11 5 16 -9 14 -15 11 -15 -7z"/>
<path d="M4574 3394 c-16 -24 -16 -26 4 -47 17 -17 24 -19 34 -9 9 9 9 12 -2
12 -10 0 -8 5 5 20 19 21 14 50 -9 50 -9 0 -23 -12 -32 -26z m36 -4 c0 -5 -5
-10 -11 -10 -5 0 -7 5 -4 10 3 6 8 10 11 10 2 0 4 -4 4 -10z"/>
<path d="M4813 3403 c-19 -7 -16 -40 4 -47 11 -5 22 -1 30 11 7 9 12 22 10 28
-4 12 -26 16 -44 8z"/>
<path d="M4944 3378 l-17 -33 -10 25 c-8 20 -11 22 -14 8 -5 -20 13 -58 27
-58 5 0 16 16 24 35 8 19 20 35 26 35 6 0 8 5 5 10 -11 18 -24 11 -41 -22z"/>
<path d="M4670 3390 c0 -8 4 -21 9 -29 8 -12 12 -12 25 -2 13 11 19 11 31 1
25 -21 31 -2 7 22 -16 17 -24 19 -35 10 -10 -9 -16 -9 -25 0 -9 9 -12 9 -12
-2z"/>
<path d="M5031 3382 c-8 -15 -7 -23 3 -31 7 -6 21 -9 30 -5 9 3 23 1 30 -5 20
-17 27 0 13 30 -16 31 -61 38 -76 11z m39 -12 c0 -5 -7 -10 -15 -10 -8 0 -15
5 -15 10 0 6 7 10 15 10 8 0 15 -4 15 -10z"/>
<path d="M4220 3360 c0 -5 5 -10 10 -10 6 0 10 5 10 10 0 6 -4 10 -10 10 -5 0
-10 -4 -10 -10z"/>
<path d="M1938 3304 c-37 -7 -78 -19 -90 -25 -44 -24 -254 -185 -316 -243 -35
-33 -75 -79 -89 -103 -95 -163 -105 -362 -26 -521 46 -92 140 -195 224 -245
66 -39 220 -92 299 -102 135 -18 346 -9 473 20 38 9 98 29 133 45 65 29 128
69 121 76 -2 2 -32 -12 -68 -31 -89 -47 -219 -82 -352 -96 -268 -27 -511 28
-666 152 -63 50 -142 160 -172 238 -29 79 -36 217 -15 301 26 103 63 169 135
240 70 69 239 200 304 237 22 12 82 32 133 44 88 21 102 22 207 12 147 -16
253 -43 357 -95 64 -31 102 -59 156 -112 39 -39 80 -91 92 -116 34 -72 53
-157 59 -266 4 -76 1 -120 -12 -180 -9 -43 -28 -103 -42 -132 -27 -58 -108
-145 -174 -189 -23 -15 -36 -29 -30 -31 17 -6 77 37 138 97 64 63 106 148 129
261 12 63 15 109 10 180 -6 104 -26 193 -56 255 -25 52 -87 126 -144 174 -51
42 -149 93 -234 122 -134 46 -347 61 -484 33z"/>
<path d="M5144 3080 c44 -47 59 -80 35 -80 -5 0 -7 -5 -4 -10 12 -19 36 10 29
34 -7 23 -83 106 -97 106 -6 0 11 -22 37 -50z"/>
<path d="M4391 3104 c-24 -17 -27 -52 -7 -80 13 -17 15 -18 21 -2 5 13 15 16
38 12 29 -5 30 -4 15 9 -10 8 -18 26 -18 40 0 31 -21 40 -49 21z m34 -15 c10
-15 -1 -23 -20 -15 -9 3 -13 10 -10 16 8 13 22 13 30 -1z"/>
<path d="M4047 3092 c-18 -20 -23 -82 -7 -82 6 0 8 10 5 23 -4 15 1 32 15 50
24 30 13 37 -13 9z"/>
<path d="M4142 3068 c3 -44 22 -62 31 -28 3 12 13 20 25 20 18 0 19 3 9 25 -9
18 -20 25 -40 25 -27 0 -28 -2 -25 -42z m45 15 c-4 -3 -10 -3 -14 0 -3 4 0 7
7 7 7 0 10 -3 7 -7z"/>
<path d="M4672 3098 c-13 -13 -16 -74 -4 -82 4 -2 28 -2 52 1 38 5 41 7 21 14
-20 8 -21 10 -7 30 8 12 12 28 9 35 -6 17 -55 18 -71 2z m53 -8 c3 -6 -1 -13
-10 -16 -19 -8 -30 0 -20 15 8 14 22 14 30 1z"/>
<path d="M4510 3092 c0 -6 12 -12 28 -14 21 -2 28 -9 30 -30 2 -16 9 -28 17
-28 8 0 11 7 8 21 -4 12 0 25 8 29 7 5 11 11 9 14 -3 2 -26 7 -52 11 -31 5
-48 4 -48 -3z"/>
<path d="M4821 3063 c-13 -47 -13 -53 -1 -53 6 0 10 7 10 15 0 8 9 15 19 15
10 0 21 -7 25 -15 7 -18 26 -20 26 -2 0 15 -49 77 -61 77 -4 0 -13 -17 -18
-37z"/>
<path d="M5028 3070 c-2 -19 -9 -35 -15 -38 -7 -2 -18 9 -25 25 -16 38 -16 37
-33 23 -8 -7 -15 -23 -15 -36 0 -25 15 -33 23 -11 3 9 7 9 20 -1 9 -8 26 -12
39 -10 17 2 24 11 26 32 2 16 -1 33 -6 38 -7 7 -12 0 -14 -22z"/>
<path d="M4264 3082 c-19 -13 -23 -40 -9 -52 18 -15 65 -5 65 14 0 15 -26 46
-38 46 -4 0 -12 -4 -18 -8z m36 -27 c0 -8 -9 -15 -20 -15 -20 0 -26 11 -13 23
12 13 33 7 33 -8z"/>
<path d="M5111 2890 c-1 -17 25 -105 35 -122 5 -7 11 -5 20 7 12 16 14 17 20
2 8 -21 24 -22 24 -2 0 8 -16 21 -35 29 -19 8 -35 21 -35 28 -1 20 -28 75 -29
58z"/>
<path d="M4503 2828 c7 -23 18 -43 25 -46 8 -2 7 5 -3 25 -8 15 -15 36 -15 46
0 9 -4 17 -9 17 -6 0 -5 -18 2 -42z"/>
<path d="M5041 2848 c-1 -16 -6 -28 -13 -28 -6 0 -2 -9 10 -20 12 -12 22 -25
22 -30 0 -6 4 -10 9 -10 13 0 23 32 12 39 -5 3 -16 22 -24 41 -15 34 -15 35
-16 8z"/>
<path d="M4935 2840 c3 -5 8 -10 11 -10 2 0 4 5 4 10 0 6 -5 10 -11 10 -5 0
-7 -4 -4 -10z"/>
<path d="M2225 2796 c-18 -18 -25 -35 -23 -53 4 -34 44 -59 81 -49 40 10 34
30 -7 22 -24 -5 -39 -2 -50 9 -19 20 -20 26 -2 50 8 11 20 16 29 12 22 -8 30
8 12 23 -11 9 -19 7 -40 -14z"/>
<path d="M4380 2805 c-8 -10 -9 -19 -4 -24 10 -9 84 -22 84 -15 0 3 -7 16 -16
29 -19 28 -46 32 -64 10z m30 -15 c0 -5 -4 -10 -10 -10 -5 0 -10 5 -10 10 0 6
5 10 10 10 6 0 10 -4 10 -10z"/>
<path d="M4620 2800 c0 -5 -8 -10 -17 -11 -14 0 -13 -2 4 -9 12 -5 33 -26 47
-47 22 -32 24 -39 11 -41 -25 -6 -45 6 -55 30 l-9 23 0 -22 c-1 -25 33 -53 66
-53 29 0 30 28 3 63 -23 29 -25 44 -8 49 6 2 8 10 4 16 -9 15 -46 16 -46 2z"/>
<path d="M4753 2794 c-7 -18 11 -39 26 -30 17 11 13 46 -4 46 -9 0 -18 -7 -22
-16z"/>
<path d="M4832 2791 c-11 -6 -10 -10 0 -19 11 -8 17 -6 26 9 10 15 10 19 0 19
-7 0 -19 -4 -26 -9z"/>
<path d="M4930 2791 c0 -13 26 -32 33 -24 8 7 -11 33 -24 33 -5 0 -9 -4 -9 -9z"/>
<path d="M5288 2793 c-10 -2 -18 -11 -18 -20 0 -10 6 -14 20 -10 11 3 23 1 26
-4 3 -5 10 -7 15 -3 5 3 16 0 24 -6 12 -10 16 -9 21 5 4 9 3 20 -2 25 -12 11
-65 19 -86 13z"/>
<path d="M2030 2773 c-41 -21 -48 -48 -25 -92 14 -28 20 -31 63 -31 27 0 53 5
60 12 17 17 15 55 -3 62 -10 4 -15 16 -13 33 3 23 -1 28 -22 31 -14 1 -41 -6
-60 -15z m60 -13 c0 -14 -68 -45 -77 -36 -5 4 3 16 16 27 25 20 61 26 61 9z
m14 -50 c17 -6 24 -15 20 -24 -8 -21 -42 -30 -58 -16 -8 6 -18 9 -24 8 -21 -6
-14 18 9 29 13 7 25 13 26 13 1 0 13 -4 27 -10z"/>
<path d="M1792 2712 c-7 -32 -12 -74 -11 -93 l1 -34 10 33 c9 27 16 32 43 32
25 0 34 -5 40 -22 8 -22 8 -22 12 5 2 15 9 27 14 27 5 0 9 4 9 10 0 5 -6 7
-14 4 -17 -6 -27 8 -41 56 -7 23 -17 36 -31 38 -17 2 -22 -6 -32 -56z m52 -4
c9 -35 8 -38 -14 -38 -14 0 -20 7 -20 23 0 41 24 51 34 15z"/>
<path d="M4986 2298 c-9 -12 -16 -36 -16 -53 1 -24 2 -27 10 -13 6 10 22 16
39 16 21 -1 31 -7 35 -22 4 -15 8 -18 16 -10 8 8 4 23 -13 55 -14 24 -32 45
-40 47 -8 2 -22 -7 -31 -20z m43 -27 c-3 -6 -10 -7 -18 -2 -7 5 -10 14 -6 21
5 8 11 8 17 2 6 -6 9 -15 7 -21z"/>
<path d="M4870 2302 c-23 -8 -37 -32 -33 -56 4 -19 11 -22 56 -23 45 -1 49 1
33 12 -12 9 -16 20 -11 34 4 13 0 23 -12 29 -10 5 -25 7 -33 4z m17 -28 c-3
-3 -12 -4 -19 -1 -8 3 -5 6 6 6 11 1 17 -2 13 -5z"/>
<path d="M5205 2281 c5 -24 3 -31 -9 -31 -9 0 -23 11 -32 25 -16 24 -38 33
-47 18 -2 -5 -7 -20 -11 -35 -5 -21 -3 -28 9 -28 8 0 15 9 15 20 0 11 4 20 8
20 5 0 18 -12 31 -26 12 -14 30 -24 39 -22 13 2 17 14 17 42 0 24 -5 41 -14
44 -10 3 -12 -3 -6 -27z"/>
<path d="M4403 2290 c-24 -10 -27 -26 -17 -79 8 -40 24 -40 24 -1 0 23 4 30
20 30 11 0 20 5 20 10 0 6 -12 10 -26 10 -14 0 -23 4 -19 10 3 6 17 10 31 10
13 0 24 5 24 10 0 12 -27 12 -57 0z"/>
<path d="M4702 2291 c-8 -5 8 -11 43 -18 59 -10 89 1 33 12 -18 4 -40 8 -48
11 -8 2 -21 0 -28 -5z"/>
<path d="M4615 2277 c-11 -7 -21 -12 -22 -13 -2 0 3 -12 10 -27 13 -28 22 -33
32 -18 3 5 22 7 42 4 26 -4 34 -3 29 5 -4 7 -14 12 -22 12 -8 0 -14 10 -14 25
0 17 -5 25 -17 24 -10 0 -27 -6 -38 -12z"/>
<path d="M4500 2255 c-6 -8 -10 -22 -8 -32 3 -19 38 -29 64 -19 12 4 12 10 4
26 -6 11 -19 24 -29 30 -14 7 -22 6 -31 -5z m31 -28 c-1 -12 -15 -9 -19 4 -3
6 1 10 8 8 6 -3 11 -8 11 -12z"/>
<path d="M3768 2253 c-26 -6 -22 -41 8 -80 27 -36 52 -46 34 -14 -22 42 -3 54
38 25 18 -13 21 -19 11 -30 -9 -11 -8 -14 4 -14 36 0 31 39 -9 60 -13 7 -24
19 -24 26 0 11 -32 36 -42 33 -2 -1 -11 -3 -20 -6z m42 -23 c0 -5 -9 -10 -20
-10 -11 0 -20 5 -20 10 0 6 9 10 20 10 11 0 20 -4 20 -10z"/>
<path d="M4745 2238 c9 -29 23 -44 32 -35 8 9 -17 57 -29 57 -5 0 -6 -10 -3
-22z"/>
<path d="M3618 2194 l-24 -56 -24 20 c-22 18 -23 22 -12 47 16 34 8 45 -10 16
-7 -12 -18 -21 -24 -21 -6 0 -23 9 -38 21 -14 11 -26 16 -26 10 0 -5 13 -19
30 -31 29 -21 29 -22 15 -50 -17 -33 -19 -50 -6 -50 5 0 14 14 21 30 7 17 16
30 20 30 4 0 13 -7 20 -15 18 -21 57 -19 70 5 13 24 28 25 51 4 16 -15 20 -15
34 -1 8 9 15 18 15 21 0 2 -10 6 -22 8 -15 2 -25 13 -32 36 -5 17 -14 32 -21
32 -7 0 -23 -25 -37 -56z m42 6 c0 -5 -5 -10 -11 -10 -5 0 -7 5 -4 10 3 6 8
10 11 10 2 0 4 -4 4 -10z"/>
<path d="M3908 2243 c-9 -2 -19 -12 -23 -21 -9 -23 38 -62 76 -62 16 0 29 4
29 8 0 5 -14 9 -30 9 -34 0 -66 25 -55 43 4 6 18 10 30 8 13 -2 25 2 27 7 3
11 -27 16 -54 8z"/>
<path d="M4070 2220 c0 -5 5 -10 11 -10 5 0 7 5 4 10 -3 6 -8 10 -11 10 -2 0
-4 -4 -4 -10z"/>
<path d="M4090 2170 c0 -7 3 -10 7 -7 3 4 3 10 0 14 -4 3 -7 0 -7 -7z"/>
<path d="M5390 2036 c0 -7 -10 -17 -22 -21 l-23 -8 23 -4 c13 -3 22 -12 22
-23 0 -27 20 -36 27 -11 7 29 39 27 47 -3 7 -30 43 -44 62 -24 8 8 12 22 8 31
-6 16 -61 37 -97 37 -11 0 -21 9 -24 20 -6 23 -23 27 -23 6z m130 -66 c0 -5
-5 -12 -11 -16 -14 -8 -33 11 -25 25 7 11 36 4 36 -9z"/>
<path d="M4310 2034 c0 -3 7 -31 16 -61 l16 -55 36 5 c19 4 40 11 45 16 16 16
-22 51 -54 51 -22 0 -30 6 -35 25 -3 14 -10 25 -15 25 -5 0 -9 -3 -9 -6z m88
-82 c3 -9 -2 -13 -14 -10 -9 1 -19 9 -22 16 -3 9 2 13 14 10 9 -1 19 -9 22
-16z"/>
<path d="M4827 2034 c-4 -4 -7 -16 -7 -26 0 -10 -7 -18 -17 -19 -14 0 -15 -2
-3 -6 8 -3 25 -17 37 -32 22 -25 22 -25 23 -4 0 12 8 27 18 32 16 10 15 11 -4
17 -12 3 -26 15 -31 26 -4 10 -12 16 -16 12z"/>
<path d="M4920 2010 c0 -5 5 -10 10 -10 6 0 10 5 10 10 0 6 -4 10 -10 10 -5 0
-10 -4 -10 -10z"/>
<path d="M4102 1981 c-9 -5 -11 -17 -6 -34 4 -20 13 -27 29 -27 31 0 43 20 22
35 -10 7 -17 17 -17 24 0 13 -10 14 -28 2z"/>
<path d="M4498 1983 c-19 -5 -22 -12 -12 -37 8 -21 20 -20 28 2 3 9 9 23 12
30 6 12 2 13 -28 5z"/>
<path d="M4591 1971 c-14 -26 -7 -41 19 -41 29 0 35 20 12 42 l-20 20 -11 -21z"/>
<path d="M5130 1977 c-14 -6 -27 -12 -29 -14 -3 -2 6 -14 19 -28 24 -25 64
-33 75 -15 3 6 -4 10 -16 10 l-21 0 22 18 c25 20 20 42 -8 41 -9 0 -28 -5 -42
-12z"/>
<path d="M4226 1972 c-4 -6 -14 -8 -22 -5 -14 5 -15 3 -5 -15 12 -22 45 -30
55 -13 3 4 -1 16 -8 26 -9 12 -15 14 -20 7z"/>
<path d="M4682 1953 c2 -9 16 -20 32 -24 17 -5 32 -7 34 -4 2 2 -1 11 -6 21
-5 9 -22 18 -36 20 -21 2 -26 -1 -24 -13z"/>
<path d="M4910 1958 c0 -19 18 -43 25 -36 9 9 -4 48 -16 48 -5 0 -9 -6 -9 -12z"/>
<path d="M4997 1963 c-4 -3 -7 -14 -7 -23 0 -12 9 -17 30 -17 31 0 34 4 24 31
-6 16 -35 22 -47 9z"/>
<path d="M5204 1775 c-4 -8 -4 -24 -1 -35 3 -12 -1 -24 -11 -30 -10 -5 -12
-10 -5 -10 20 0 43 -30 43 -57 0 -20 3 -23 13 -15 7 6 23 11 35 12 55 1 62 2
62 9 0 4 -10 17 -21 30 -15 16 -29 21 -46 18 -31 -6 -53 16 -53 53 0 22 5 30
23 33 19 4 18 4 -6 6 -16 0 -30 -5 -33 -14z m94 -106 c-2 -6 -8 -10 -13 -10
-5 0 -11 4 -13 10 -2 6 4 11 13 11 9 0 15 -5 13 -11z"/>
<path d="M4881 1738 c-9 -24 -7 -31 13 -53 27 -29 36 -31 36 -10 0 23 22 18
45 -12 14 -17 26 -23 34 -18 11 6 11 9 0 16 -11 6 -10 9 4 15 9 3 17 13 17 21
0 12 -8 14 -37 10 -48 -7 -72 2 -88 34 l-13 24 -11 -27z"/>
<path d="M4390 1735 c0 -8 -9 -15 -20 -15 -26 0 -37 -27 -19 -45 8 -7 30 -14
49 -15 52 -3 55 -2 37 18 -8 9 -19 29 -22 45 -8 29 -25 37 -25 12z m10 -51 c0
-9 -7 -14 -17 -12 -25 5 -28 28 -4 28 12 0 21 -6 21 -16z"/>
<path d="M3967 1723 c-10 -10 -8 -53 2 -53 5 0 11 8 15 18 3 9 9 23 12 30 6
12 -18 17 -29 5z"/>
<path d="M4660 1720 c0 -5 5 -10 10 -10 6 0 10 5 10 10 0 6 -4 10 -10 10 -5 0
-10 -4 -10 -10z"/>
<path d="M3847 1714 c-10 -11 -9 -40 5 -69 13 -30 33 -34 25 -5 -4 15 2 24 25
36 16 8 28 21 25 27 -4 13 -69 22 -80 11z m54 -19 c0 -5 -9 -11 -21 -13 -20
-3 -27 8 -13 22 10 9 34 3 34 -9z"/>
<path d="M4047 1713 c-4 -3 -7 -14 -7 -24 0 -22 46 -37 62 -21 9 9 7 17 -7 32
-18 20 -36 25 -48 13z m30 -30 c-4 -3 -10 -3 -14 0 -3 4 0 7 7 7 7 0 10 -3 7
-7z"/>
<path d="M4472 1708 c-22 -22 -14 -46 19 -53 17 -4 33 -4 36 -1 4 3 -3 6 -15
6 -31 0 -36 17 -6 24 14 4 24 12 21 19 -5 17 -40 20 -55 5z"/>
<path d="M4160 1698 c0 -10 30 -38 41 -38 5 0 9 11 9 24 0 19 -5 24 -25 22
-14 0 -25 -4 -25 -8z"/>
<path d="M4270 1692 c0 -5 6 -17 14 -28 19 -25 31 -12 14 15 -13 21 -28 28
-28 13z"/>
<path d="M4739 1677 c10 -27 31 -34 31 -10 1 16 3 16 19 -4 11 -13 24 -23 30
-23 16 0 14 7 -10 34 -14 16 -31 24 -49 24 -24 -1 -27 -4 -21 -21z"/>
<path d="M5071 1686 c-14 -16 -8 -46 8 -46 5 0 11 9 14 20 3 11 10 19 15 18 6
-2 12 2 14 7 5 17 -38 17 -51 1z"/>
<path d="M5370 1677 c0 -24 17 -47 34 -47 5 0 2 8 -7 18 -20 22 -8 46 18 36
13 -5 16 -4 11 4 -4 7 -18 12 -32 12 -18 0 -24 -5 -24 -23z"/>
<path d="M5502 1688 c-16 -8 -21 -17 -16 -32 9 -34 64 -74 64 -47 0 5 -7 11
-15 15 -25 9 -17 24 16 31 21 5 29 12 27 23 -4 20 -44 25 -76 10z"/>
<path d="M4670 1682 c0 -15 28 -47 35 -40 8 8 -13 48 -25 48 -6 0 -10 -4 -10
-8z"/>
<path d="M1263 1589 c-18 -5 -33 -16 -33 -24 0 -11 5 -11 30 1 16 9 40 14 52
11 22 -3 22 -4 -5 -15 -31 -13 -29 -33 3 -25 11 3 31 2 45 -1 34 -9 34 -43 -1
-56 -27 -11 -48 -5 -39 11 4 5 1 9 -5 9 -6 0 -10 -8 -8 -17 4 -25 55 -29 79
-7 24 22 24 39 0 63 -11 11 -21 27 -23 38 -4 21 -46 27 -95 12z"/>
<path d="M1042 1578 c-32 -41 -57 -129 -32 -113 6 3 10 15 10 26 0 11 7 34 16
50 12 24 21 30 42 27 19 -2 28 -10 30 -25 3 -20 -1 -23 -30 -24 l-33 -1 28
-11 c15 -6 27 -17 27 -24 0 -7 7 -13 15 -13 11 0 15 12 15 44 0 35 -5 48 -22
60 -27 19 -52 20 -66 4z"/>
<path d="M1467 1563 c-4 -3 -7 -21 -7 -39 0 -27 6 -37 30 -49 33 -17 70 -20
70 -5 0 6 -10 10 -23 10 -29 0 -67 26 -67 47 0 8 9 17 20 20 11 3 17 9 14 14
-6 11 -28 12 -37 2z"/>
<path d="M891 1543 c-8 -15 -13 -15 -36 -5 -15 7 -30 10 -33 8 -3 -3 6 -14 19
-25 21 -17 22 -21 11 -46 -17 -37 -5 -46 18 -15 18 24 19 24 39 6 30 -27 39
-11 11 19 -20 21 -22 28 -12 50 13 28 -2 35 -17 8z"/>
<path d="M1261 1508 c-1 -21 4 -38 9 -38 11 0 11 14 0 50 -7 22 -8 21 -9 -12z"/>
<path d="M4924 1488 c-26 -36 -45 -88 -41 -109 4 -23 5 -22 17 9 9 25 17 32
34 30 11 -2 20 -9 19 -16 -2 -6 4 -12 12 -12 8 0 15 7 15 15 0 8 5 15 10 15
18 0 11 18 -9 23 -11 2 -21 15 -23 28 -4 26 -21 35 -34 17z m20 -39 c-3 -5
-10 -7 -15 -3 -5 3 -7 10 -3 15 3 5 10 7 15 3 5 -3 7 -10 3 -15z"/>
<path d="M5037 1483 c-9 -18 -7 -77 4 -89 15 -18 29 -18 29 0 0 24 39 30 61
10 10 -9 19 -21 19 -26 0 -12 -34 -10 -48 4 -9 9 -12 8 -12 -5 0 -18 40 -33
65 -23 8 3 15 14 15 25 0 29 -122 124 -133 104z"/>
<path d="M5216 1457 c-13 -10 -16 -20 -11 -36 9 -29 75 -56 75 -31 0 6 -8 10
-19 10 -22 0 -45 25 -36 40 8 14 38 13 53 -2 9 -9 12 -8 12 4 0 9 -10 18 -22
22 -31 8 -32 8 -52 -7z"/>
<path d="M3851 1445 c-1 -11 4 -37 10 -57 8 -31 15 -38 35 -38 47 0 42 59 -6
70 -13 3 -27 14 -31 25 -8 20 -8 20 -8 0z m59 -65 c0 -11 -4 -20 -10 -20 -5 0
-10 9 -10 20 0 11 5 20 10 20 6 0 10 -9 10 -20z"/>
<path d="M4120 1435 c0 -20 -5 -25 -27 -26 -25 -2 -25 -2 -5 -6 13 -3 28 -15
34 -29 13 -28 30 -32 26 -7 -4 23 29 29 50 10 9 -8 42 -17 72 -19 52 -3 55 -2
55 21 0 13 -6 26 -14 29 -10 3 -12 -1 -8 -17 6 -23 -11 -29 -31 -9 -8 8 -15 8
-26 -1 -11 -9 -17 -8 -29 4 -9 8 -22 15 -30 15 -31 0 -47 13 -47 36 0 13 -4
24 -10 24 -5 0 -10 -11 -10 -25z"/>
<path d="M5510 1445 c-9 -11 -6 -21 16 -51 23 -30 30 -33 39 -21 6 8 19 16 30
18 23 5 34 39 12 39 -9 0 -18 -6 -20 -12 -4 -9 -14 -4 -31 15 -14 15 -27 27
-29 27 -3 0 -10 -7 -17 -15z"/>
<path d="M3975 1397 c-21 -16 -13 -37 14 -37 20 0 54 33 44 43 -11 11 -38 8
-58 -6z"/>
<path d="M4363 1394 c-8 -22 8 -34 53 -39 21 -3 32 -3 24 1 -41 15 -59 28 -53
37 3 5 9 4 13 -3 4 -7 15 -10 24 -7 28 11 17 27 -19 27 -23 0 -38 -6 -42 -16z"/>
<path d="M4507 1404 c-4 -4 -7 -15 -7 -25 0 -17 19 -29 49 -29 12 0 17 8 16
28 0 21 -5 28 -25 30 -14 2 -29 0 -33 -4z"/>
<path d="M4620 1370 c11 -21 25 -26 34 -11 3 4 18 6 33 4 l28 -4 -25 15 c-14
8 -38 15 -53 16 -25 0 -27 -2 -17 -20z"/>
<path d="M5321 1197 c-21 -79 -30 -142 -20 -151 5 -6 9 -8 10 -5 0 2 2 25 5
51 2 25 11 67 18 92 8 25 11 48 6 51 -4 2 -13 -14 -19 -38z"/>
<path d="M3882 1118 c3 -52 4 -53 36 -56 18 -2 44 3 56 11 15 10 28 12 37 6
18 -12 59 -12 59 0 0 5 -12 19 -27 31 -24 19 -29 20 -39 6 -7 -10 -26 -16 -52
-16 -41 0 -52 11 -52 51 0 10 -5 19 -11 19 -6 0 -9 -21 -7 -52z"/>
<path d="M5247 1128 c4 -21 3 -29 -5 -24 -6 3 -16 -3 -22 -14 -9 -16 -15 -18
-30 -10 -27 15 -60 12 -60 -4 0 -19 17 -29 25 -15 4 5 14 7 24 4 32 -14 58
-13 80 4 22 17 22 19 7 54 -8 20 -17 37 -20 37 -3 0 -3 -14 1 -32z"/>
<path d="M5502 1120 c-23 -19 -29 -45 -13 -54 5 -3 12 6 15 20 6 21 12 25 31
21 29 -5 33 8 7 22 -12 6 -23 4 -40 -9z"/>
<path d="M4222 1118 c-20 -20 -14 -32 25 -53 21 -11 39 -29 41 -39 3 -14 0
-17 -13 -12 -11 4 -15 2 -13 -6 3 -7 13 -13 24 -13 14 0 19 7 19 25 0 17 -11
31 -35 48 -19 13 -36 27 -38 33 -5 14 25 11 32 -3 3 -7 5 -4 3 7 -3 23 -27 31
-45 13z"/>
<path d="M5394 1115 c-8 -20 13 -45 37 -45 19 0 24 16 13 44 -8 20 -43 21 -50
1z m36 -15 c0 -5 -4 -10 -10 -10 -5 0 -10 5 -10 10 0 6 5 10 10 10 6 0 10 -4
10 -10z"/>
<path d="M4110 1103 c0 -19 20 -26 36 -12 11 9 18 9 26 1 20 -20 32 -13 13 8
-11 12 -28 18 -46 17 -16 -1 -29 -7 -29 -14z"/>
<path d="M4317 1103 c-4 -6 -1 -17 6 -26 9 -12 20 -14 46 -9 30 7 32 9 17 21
-12 10 -19 11 -30 2 -11 -10 -16 -9 -24 5 -5 9 -12 12 -15 7z"/>
<path d="M4422 1088 c2 -18 11 -24 36 -26 17 -2 32 1 32 6 0 15 -35 42 -54 42
-12 0 -16 -7 -14 -22z m35 -5 c-4 -3 -10 -3 -14 0 -3 4 0 7 7 7 7 0 10 -3 7
-7z"/>
<path d="M4541 1096 c-8 -10 -9 -16 -1 -21 5 -3 10 -1 10 4 0 23 16 8 38 -34
27 -56 28 -74 2 -50 -11 10 -20 13 -20 7 0 -11 38 -42 52 -42 5 0 8 8 7 18 -1
24 -51 125 -65 129 -6 2 -16 -3 -23 -11z"/>
<path d="M4983 1103 c-20 -8 -15 -41 7 -48 11 -3 25 -3 30 0 6 4 17 1 25 -5 8
-6 22 -10 32 -7 16 4 15 6 -4 12 -12 4 -24 18 -27 31 -5 17 -13 24 -29 23 -12
0 -28 -3 -34 -6z m37 -23 c0 -5 -7 -10 -15 -10 -8 0 -15 5 -15 10 0 6 7 10 15
10 8 0 15 -4 15 -10z"/>
<path d="M4629 1084 c-12 -14 -10 -19 10 -35 25 -21 71 -26 71 -8 0 6 -7 9
-15 6 -8 -4 -17 -2 -20 3 -4 6 1 10 10 10 10 0 15 7 13 18 -4 23 -51 28 -69 6z"/>
<path d="M4294 845 c10 -58 16 -75 27 -75 12 0 11 4 -3 54 -16 57 -32 71 -24
21z"/>
<path d="M4510 865 c0 -9 -10 -20 -22 -25 -18 -7 -19 -9 -5 -9 9 -1 25 -10 34
-21 21 -24 33 -26 33 -5 0 8 8 15 18 16 11 0 7 4 -10 11 -17 6 -28 17 -28 29
0 10 -4 19 -10 19 -5 0 -10 -7 -10 -15z"/>
<path d="M4070 855 c0 -8 -4 -15 -10 -15 -5 0 -10 -4 -10 -10 0 -5 6 -10 14
-10 7 0 17 -10 20 -22 l7 -23 9 23 c7 17 5 30 -6 48 -9 13 -18 24 -20 24 -2 0
-4 -7 -4 -15z"/>
<path d="M4166 861 c-3 -5 1 -11 9 -15 8 -3 15 -1 15 4 0 13 -18 22 -24 11z"/>
<path d="M4390 860 c0 -5 7 -10 16 -10 8 0 12 5 9 10 -3 6 -10 10 -16 10 -5 0
-9 -4 -9 -10z"/>
<path d="M5763 855 c-4 -13 4 -26 28 -46 31 -26 32 -28 12 -29 -13 0 -23 -5
-23 -11 0 -14 62 -7 68 8 2 7 -13 22 -32 34 -45 26 -47 44 -4 35 39 -8 26 9
-14 19 -21 6 -29 3 -35 -10z"/>
<path d="M4890 835 c-10 -12 -10 -19 -2 -27 9 -9 12 -8 12 5 0 10 8 17 19 17
30 0 51 -11 51 -26 0 -17 -37 -19 -43 -1 -2 6 -8 9 -12 5 -10 -9 19 -80 31
-76 5 2 7 10 6 19 -2 10 6 19 18 22 27 7 26 42 -2 61 -29 20 -62 20 -78 1z"/>
<path d="M5475 840 c-3 -5 -19 -7 -34 -4 -16 3 -32 1 -35 -5 -4 -5 -13 -8 -21
-4 -18 6 -18 2 -3 -32 13 -30 28 -33 28 -6 0 28 17 35 43 18 12 -7 41 -17 65
-21 42 -6 43 -6 31 16 -21 40 -60 60 -74 38z m35 -25 c0 -8 -7 -15 -15 -15
-16 0 -20 12 -8 23 11 12 23 8 23 -8z"/>
<path d="M4600 834 c0 -18 23 -44 40 -44 14 0 22 -11 29 -37 13 -45 14 -63 4
-63 -5 0 -27 11 -51 25 -24 14 -42 19 -40 12 5 -17 95 -60 112 -54 12 5 11 16
-7 72 -14 44 -25 64 -34 61 -7 -3 -19 3 -25 14 -12 19 -28 27 -28 14z"/>
<path d="M5060 825 c-7 -9 -19 -14 -27 -11 -10 4 -10 -1 2 -24 9 -17 20 -30
25 -30 6 0 10 14 10 30 0 17 5 30 10 30 6 0 10 5 10 10 0 15 -16 12 -30 -5z"/>
<path d="M5173 824 c-28 -29 -10 -64 33 -64 20 0 18 44 -3 63 -15 13 -20 13
-30 1z m27 -29 c0 -8 -4 -15 -10 -15 -5 0 -10 7 -10 15 0 8 5 15 10 15 6 0 10
-7 10 -15z"/>
<path d="M5263 824 c-3 -8 -1 -20 6 -27 8 -8 11 -7 11 6 0 37 18 14 39 -48 11
-36 21 -68 21 -70 0 -3 -5 -5 -10 -5 -6 0 -19 15 -30 33 -14 22 -20 26 -20 14
0 -10 11 -29 25 -42 24 -25 55 -33 55 -16 0 5 -12 46 -27 90 -20 63 -30 81
-45 81 -10 0 -21 -7 -25 -16z"/>
<path d="M5613 832 c-24 -4 -31 -26 -13 -37 6 -4 17 -2 24 4 10 9 15 7 21 -6
6 -17 7 -17 16 0 9 14 14 16 25 6 19 -15 29 -5 16 17 -9 17 -46 23 -89 16z"/>
<path d="M3910 802 c0 -17 25 -32 52 -32 26 0 28 2 18 21 -10 17 -14 18 -27 7
-13 -10 -17 -10 -20 0 -5 13 -23 17 -23 4z"/>
<path d="M4400 796 c0 -15 18 -31 26 -23 7 7 -7 37 -17 37 -5 0 -9 -6 -9 -14z"/>
<path d="M4160 788 c0 -18 18 -34 28 -24 3 4 -2 14 -11 23 -16 16 -17 16 -17
1z"/>
<path d="M1195 543 c-24 -36 -32 -84 -19 -118 6 -15 73 -55 94 -55 21 0 9 21
-17 31 -45 17 -63 39 -63 76 0 25 8 43 30 65 17 16 30 31 30 34 0 2 -7 4 -15
4 -8 0 -26 -17 -40 -37z"/>
<path d="M2413 559 c-51 -19 -71 -105 -35 -150 25 -30 55 -20 46 16 -3 14 -4
25 -1 25 3 0 32 -16 64 -35 37 -22 61 -31 67 -25 5 5 8 11 5 12 -2 2 -26 14
-54 28 -27 14 -49 30 -48 35 1 6 12 12 24 15 12 3 27 13 33 23 9 15 6 21 -14
37 -30 23 -60 29 -87 19z m82 -39 c9 -15 -34 -31 -73 -28 -43 4 -50 26 -13 44
17 9 32 9 52 2 16 -5 31 -14 34 -18z m-95 -94 c0 -28 -17 -8 -25 29 -6 29 -6
29 9 11 9 -11 16 -29 16 -40z"/>
<path d="M2921 526 c-12 -18 -21 -40 -21 -48 0 -9 9 -27 21 -42 24 -30 63 -34
97 -10 40 28 21 89 -38 119 -16 8 -31 15 -34 15 -2 0 -14 -15 -25 -34z m78
-17 c40 -38 12 -89 -42 -75 -35 8 -46 49 -22 76 10 11 23 20 30 20 6 0 21 -9
34 -21z"/>
<path d="M3260 553 c0 -15 150 -27 163 -14 8 8 -6 11 -45 11 -30 0 -70 3 -87
6 -18 4 -31 2 -31 -3z"/>
<path d="M3964 497 c31 -29 56 -60 56 -69 0 -10 -8 -21 -17 -27 -25 -14 -9
-25 16 -11 34 18 27 60 -16 102 -35 33 -73 58 -88 58 -4 0 18 -24 49 -53z"/>
<path d="M3455 527 c-17 -13 -17 -15 9 -33 59 -42 71 -53 64 -60 -5 -4 -20 -2
-34 5 -15 6 -29 9 -32 6 -17 -17 63 -41 87 -26 21 14 7 37 -41 68 l-43 28 33
3 c18 2 30 8 27 13 -9 13 -48 11 -70 -4z"/>
<path d="M3560 530 c0 -5 17 -10 38 -10 37 0 39 -2 48 -42 5 -23 15 -44 23
-46 11 -4 12 1 7 19 -20 65 -20 69 7 69 14 0 29 5 32 10 4 6 -23 10 -74 10
-47 0 -81 -4 -81 -10z"/>
<path d="M3750 519 c-14 -25 -5 -66 20 -99 l20 -25 6 23 c4 12 9 22 13 22 3
-1 17 -7 31 -15 30 -17 50 -19 50 -5 0 6 -18 17 -40 26 -22 9 -40 20 -40 25 0
5 4 9 8 9 5 0 17 6 27 14 16 12 17 16 6 30 -8 10 -29 16 -52 16 -28 0 -41 -5
-49 -21z m80 -8 c0 -15 -39 -19 -51 -5 -9 11 -6 14 20 14 17 0 31 -4 31 -9z"/>
<path d="M1960 515 c-11 -13 -9 -20 10 -39 12 -14 35 -30 51 -36 45 -19 35
-32 -17 -24 -31 4 -45 3 -41 -4 11 -16 75 -24 98 -12 16 9 18 14 8 26 -6 8
-29 24 -50 36 -46 26 -52 50 -11 48 41 -3 49 -1 32 10 -23 15 -66 12 -80 -5z"/>
<path d="M2188 517 c-82 -10 -109 -29 -35 -25 42 3 42 3 43 -32 2 -55 3 -60
14 -60 6 0 10 22 10 49 l0 48 40 7 c23 4 38 11 35 16 -3 6 -12 9 -18 9 -7 -1
-47 -6 -89 -12z"/>
<path d="M1435 513 c-22 -2 -44 -9 -50 -15 -7 -7 4 -8 37 -4 39 6 48 4 56 -11
10 -17 15 -54 13 -80 -1 -8 -17 -13 -43 -14 l-43 -1 39 -9 c23 -6 61 -5 98 1
34 5 63 12 66 15 3 3 -15 5 -39 5 -44 0 -45 1 -56 42 -6 23 -9 46 -6 51 3 5
24 7 47 5 22 -2 43 2 46 7 5 11 -94 15 -165 8z"/>
<path d="M1824 486 c4 -22 3 -36 -3 -36 -6 0 -27 11 -47 25 -67 45 -102 24
-70 -42 11 -24 20 -33 27 -26 6 6 6 19 0 36 -9 22 -8 27 4 27 9 0 35 -18 59
-40 42 -39 66 -50 66 -30 0 5 -5 32 -11 59 -12 60 -36 84 -25 27z"/>
<path d="M3100 510 c0 -5 5 -21 12 -35 12 -27 45 -41 79 -32 15 4 23 0 26 -14
3 -10 12 -19 20 -19 10 0 13 6 8 18 -4 9 -9 34 -12 55 -7 43 -20 49 -25 10 -2
-22 -9 -29 -31 -31 -22 -3 -31 3 -45 27 -17 30 -32 40 -32 21z"/>
<path d="M3340 473 c0 -24 5 -43 10 -43 13 0 13 50 0 70 -7 11 -10 4 -10 -27z"/>
<path d="M858 474 c-37 -19 -47 -60 -21 -85 22 -22 94 -31 100 -11 3 8 -6 12
-27 12 -38 0 -70 16 -70 34 0 20 27 39 55 39 15 0 25 5 25 13 0 18 -28 17 -62
-2z"/>
<path d="M394 455 c-26 -18 -54 -74 -54 -109 0 -41 17 -30 25 15 4 22 18 52
31 67 l24 27 20 -24 c11 -13 20 -27 20 -32 0 -4 -17 -9 -37 -11 -20 -2 -38 -8
-40 -15 -3 -8 8 -10 36 -6 41 6 46 1 42 -34 -1 -7 5 -13 14 -13 20 0 20 49 0
97 -23 55 -44 64 -81 38z"/>
<path d="M595 456 c-19 -14 -19 -15 4 -65 24 -51 46 -61 35 -15 -6 22 -3 24
26 24 38 0 70 -16 70 -34 0 -17 -25 -27 -45 -20 -9 4 -15 0 -15 -10 0 -10 9
-16 24 -16 27 0 56 24 56 45 0 8 -12 25 -27 39 -15 14 -24 28 -20 32 4 4 2 13
-4 21 -15 17 -80 17 -104 -1z m75 -15 c0 -10 -61 -24 -69 -16 -8 9 21 25 47
25 12 0 22 -4 22 -9z"/>
<path d="M76 431 c-3 -5 10 -22 30 -38 l37 -29 -42 -44 c-23 -24 -38 -47 -33
-52 5 -5 28 12 51 37 l43 46 33 -26 c19 -14 38 -25 44 -25 22 0 10 20 -24 42
-19 13 -35 27 -35 31 0 4 7 19 16 33 24 36 7 43 -20 9 l-24 -29 -35 27 c-20
15 -38 23 -41 18z"/>
<path d="M2731 371 c20 -16 21 -21 10 -35 -12 -14 -11 -16 7 -16 11 0 22 6 25
14 8 20 -21 56 -45 56 -19 0 -19 -1 3 -19z"/>
</g>
</svg>
