<svg version="1.1" viewBox="0.0 0.0 960.0 540.0" fill="none" stroke="none" stroke-linecap="square" stroke-miterlimit="10" xmlns:xlink="http://www.w3.org/1999/xlink" xmlns="http://www.w3.org/2000/svg"><clipPath id="p.0"><path d="m0 0l960.0 0l0 540.0l-960.0 0l0 -540.0z" clip-rule="nonzero"/></clipPath><g clip-path="url(#p.0)"><path fill="#ffffff" d="m0 0l960.0 0l0 540.0l-960.0 0z" fill-rule="evenodd"/><path fill="#efefef" d="m37.65354 95.291336l0 0c0 -24.039604 19.487953 -43.527557 43.527557 -43.527557l0 0c11.544228 0 22.615631 4.585926 30.778633 12.748924c8.163002 8.163002 12.748932 19.234406 12.748932 30.778633l0 0c0 24.039612 -19.487953 43.527557 -43.527565 43.527557l0 0c-24.039604 0 -43.527557 -19.487946 -43.527557 -43.527557z" fill-rule="evenodd"/><path stroke="#666666" stroke-width="3.0" stroke-linejoin="round" stroke-linecap="butt" d="m37.65354 95.291336l0 0c0 -24.039604 19.487953 -43.527557 43.527557 -43.527557l0 0c11.544228 0 22.615631 4.585926 30.778633 12.748924c8.163002 8.163002 12.748932 19.234406 12.748932 30.778633l0 0c0 24.039612 -19.487953 43.527557 -43.527565 43.527557l0 0c-24.039604 0 -43.527557 -19.487946 -43.527557 -43.527557z" fill-rule="evenodd"/><path fill="#666666" d="m90.88423 99.85509q0 1.734375 -0.65625 3.0625q-0.65625 1.328125 -1.765625 2.1875q-1.3125 1.03125 -2.890625 1.46875q-1.5625 0.4375 -3.984375 0.4375l-8.25 0l0 -23.265625l6.890625 0q2.546875 0 3.8125 0.1875q1.265625 0.1875 2.421875 0.78125q1.28125 0.671875 1.859375 1.734375q0.578125 1.046875 0.578125 2.515625q0 1.65625 -0.84375 2.828125q-0.84375 1.15625 -2.25 1.859375l0 0.125q2.359375 0.484375 3.71875 2.078125q1.359375 1.578125 1.359375 4.0zm-5.203125 -10.484375q0 -0.84375 -0.28125 -1.421875q-0.28125 -0.578125 -0.90625 -0.9375q-0.734375 -0.421875 -1.78125 -0.515625q-1.046875 -0.109375 -2.59375 -0.109375l-3.6875 0l0 6.71875l4.0 0q1.453125 0 2.3125 -0.140625q0.859375 -0.15625 1.59375 -0.625q0.734375 -0.46875 1.03125 -1.203125q0.3125 -0.75 0.3125 -1.765625zm1.984375 10.609375q0 -1.40625 -0.421875 -2.234375q-0.421875 -0.828125 -1.53125 -1.40625q-0.75 -0.390625 -1.828125 -0.5q-1.0625 -0.125 -2.59375 -0.125l-4.859375 0l0 8.65625l4.09375 0q2.03125 0 3.328125 -0.203125q1.296875 -0.21875 2.125 -0.78125q0.875 -0.609375 1.28125 -1.390625q0.40625 -0.78125 0.40625 -2.015625z" fill-rule="nonzero"/><path fill="#ffffff" d="m151.29921 95.291336l0 0c0 -24.039604 19.48796 -43.527557 43.527557 -43.527557l0 0c11.544235 0 22.615631 4.585926 30.77864 12.748924c8.162994 8.163002 12.748917 19.234406 12.748917 30.778633l0 0c0 24.039612 -19.487946 43.527557 -43.527557 43.527557l0 0c-24.039597 0 -43.527557 -19.487946 -43.527557 -43.527557z" fill-rule="evenodd"/><path stroke="#666666" stroke-width="3.0" stroke-linejoin="round" stroke-linecap="butt" d="m151.29921 95.291336l0 0c0 -24.039604 19.48796 -43.527557 43.527557 -43.527557l0 0c11.544235 0 22.615631 4.585926 30.77864 12.748924c8.162994 8.163002 12.748917 19.234406 12.748917 30.778633l0 0c0 24.039612 -19.487946 43.527557 -43.527557 43.527557l0 0c-24.039597 0 -43.527557 -19.487946 -43.527557 -43.527557z" fill-rule="evenodd"/><path fill="#666666" d="m205.35802 107.01134l-3.296875 0l-2.28125 -6.484375l-10.0625 0l-2.28125 6.484375l-3.140625 0l8.46875 -23.265625l4.125 0l8.46875 23.265625zm-6.53125 -9.140625l-4.078125 -11.421875l-4.09375 11.421875l8.171875 0z" fill-rule="nonzero"/><path fill="#efefef" d="m282.48425 95.291336l0 0c0 -24.039604 19.487946 -43.527557 43.527557 -43.527557l0 0c11.54422 0 22.615631 4.585926 30.778625 12.748924c8.162994 8.163002 12.748932 19.234406 12.748932 30.778633l0 0c0 24.039612 -19.487946 43.527557 -43.527557 43.527557l0 0c-24.039612 0 -43.527557 -19.487946 -43.527557 -43.527557z" fill-rule="evenodd"/><path stroke="#666666" stroke-width="3.0" stroke-linejoin="round" stroke-linecap="butt" d="m282.48425 95.291336l0 0c0 -24.039604 19.487946 -43.527557 43.527557 -43.527557l0 0c11.54422 0 22.615631 4.585926 30.778625 12.748924c8.162994 8.163002 12.748932 19.234406 12.748932 30.778633l0 0c0 24.039612 -19.487946 43.527557 -43.527557 43.527557l0 0c-24.039612 0 -43.527557 -19.487946 -43.527557 -43.527557z" fill-rule="evenodd"/><path fill="#666666" d="m335.71494 99.85509q0 1.734375 -0.65625 3.0625q-0.65625 1.328125 -1.765625 2.1875q-1.3125 1.03125 -2.890625 1.46875q-1.5625 0.4375 -3.984375 0.4375l-8.25 0l0 -23.265625l6.890625 0q2.546875 0 3.8125 0.1875q1.265625 0.1875 2.421875 0.78125q1.28125 0.671875 1.859375 1.734375q0.578125 1.046875 0.578125 2.515625q0 1.65625 -0.84375 2.828125q-0.84375 1.15625 -2.25 1.859375l0 0.125q2.359375 0.484375 3.71875 2.078125q1.359375 1.578125 1.359375 4.0zm-5.203125 -10.484375q0 -0.84375 -0.28125 -1.421875q-0.28125 -0.578125 -0.90625 -0.9375q-0.734375 -0.421875 -1.78125 -0.515625q-1.046875 -0.109375 -2.59375 -0.109375l-3.6875 0l0 6.71875l4.0 0q1.453125 0 2.3125 -0.140625q0.859375 -0.15625 1.59375 -0.625q0.734375 -0.46875 1.03125 -1.203125q0.3125 -0.75 0.3125 -1.765625zm1.984375 10.609375q0 -1.40625 -0.421875 -2.234375q-0.421875 -0.828125 -1.53125 -1.40625q-0.75 -0.390625 -1.828125 -0.5q-1.0625 -0.125 -2.59375 -0.125l-4.859375 0l0 8.65625l4.09375 0q2.03125 0 3.328125 -0.203125q1.296875 -0.21875 2.125 -0.78125q0.875 -0.609375 1.28125 -1.390625q0.40625 -0.78125 0.40625 -2.015625z" fill-rule="nonzero"/><path fill="#000000" fill-opacity="0.0" d="m369.53937 95.291336l0 0c0 -24.039604 19.487946 -43.527557 43.527557 -43.527557l0 0c11.54422 0 22.615631 4.585926 30.778625 12.748924c8.163025 8.163002 12.748932 19.234406 12.748932 30.778633l0 0c0 24.039612 -19.487946 43.527557 -43.527557 43.527557l0 0c-24.039612 0 -43.527557 -19.487946 -43.527557 -43.527557z" fill-rule="evenodd"/><path stroke="#666666" stroke-width="3.0" stroke-linejoin="round" stroke-linecap="butt" d="m369.53937 95.291336l0 0c0 -24.039604 19.487946 -43.527557 43.527557 -43.527557l0 0c11.54422 0 22.615631 4.585926 30.778625 12.748924c8.163025 8.163002 12.748932 19.234406 12.748932 30.778633l0 0c0 24.039612 -19.487946 43.527557 -43.527557 43.527557l0 0c-24.039612 0 -43.527557 -19.487946 -43.527557 -43.527557z" fill-rule="evenodd"/><path fill="#666666" d="m423.59818 107.01134l-3.296875 0l-2.28125 -6.484375l-10.0625 0l-2.28125 6.484375l-3.140625 0l8.46875 -23.265625l4.125 0l8.46875 23.265625zm-6.53125 -9.140625l-4.078125 -11.421875l-4.09375 11.421875l8.171875 0z" fill-rule="nonzero"/><path fill="#efefef" d="m523.31757 95.291336l0 0c0 -24.039604 19.487976 -43.527557 43.527588 -43.527557l0 0c11.544189 0 22.6156 4.585926 30.778625 12.748924c8.163025 8.163002 12.748901 19.234406 12.748901 30.778633l0 0c0 24.039612 -19.487915 43.527557 -43.527527 43.527557l0 0c-24.039612 0 -43.527588 -19.487946 -43.527588 -43.527557z" fill-rule="evenodd"/><path stroke="#666666" stroke-width="3.0" stroke-linejoin="round" stroke-linecap="butt" d="m523.31757 95.291336l0 0c0 -24.039604 19.487976 -43.527557 43.527588 -43.527557l0 0c11.544189 0 22.6156 4.585926 30.778625 12.748924c8.163025 8.163002 12.748901 19.234406 12.748901 30.778633l0 0c0 24.039612 -19.487915 43.527557 -43.527527 43.527557l0 0c-24.039612 0 -43.527588 -19.487946 -43.527588 -43.527557z" fill-rule="evenodd"/><path fill="#666666" d="m576.5483 99.85509q0 1.734375 -0.65625 3.0625q-0.65625 1.328125 -1.765625 2.1875q-1.3125 1.03125 -2.890625 1.46875q-1.5625 0.4375 -3.984375 0.4375l-8.25 0l0 -23.265625l6.890625 0q2.546875 0 3.8125 0.1875q1.265625 0.1875 2.421875 0.78125q1.28125 0.671875 1.859375 1.734375q0.578125 1.046875 0.578125 2.515625q0 1.65625 -0.84375 2.828125q-0.84375 1.15625 -2.25 1.859375l0 0.125q2.359375 0.484375 3.71875 2.078125q1.359375 1.578125 1.359375 4.0zm-5.203125 -10.484375q0 -0.84375 -0.28125 -1.421875q-0.28125 -0.578125 -0.90625 -0.9375q-0.734375 -0.421875 -1.78125 -0.515625q-1.046875 -0.109375 -2.59375 -0.109375l-3.6875 0l0 6.71875l4.0 0q1.453125 0 2.3125 -0.140625q0.859375 -0.15625 1.59375 -0.625q0.734375 -0.46875 1.03125 -1.203125q0.3125 -0.75 0.3125 -1.765625zm1.984375 10.609375q0 -1.40625 -0.421875 -2.234375q-0.421875 -0.828125 -1.53125 -1.40625q-0.75 -0.390625 -1.828125 -0.5q-1.0625 -0.125 -2.59375 -0.125l-4.859375 0l0 8.65625l4.09375 0q2.03125 0 3.328125 -0.203125q1.296875 -0.21875 2.125 -0.78125q0.875 -0.609375 1.28125 -1.390625q0.40625 -0.78125 0.40625 -2.015625z" fill-rule="nonzero"/><path fill="#000000" fill-opacity="0.0" d="m589.19684 95.291336l0 0c0 -24.039604 19.487976 -43.527557 43.527588 -43.527557l0 0c11.544189 0 22.6156 4.585926 30.778625 12.748924c8.162964 8.163002 12.748901 19.234406 12.748901 30.778633l0 0c0 24.039612 -19.487915 43.527557 -43.527527 43.527557l0 0c-24.039612 0 -43.527588 -19.487946 -43.527588 -43.527557z" fill-rule="evenodd"/><path stroke="#666666" stroke-width="3.0" stroke-linejoin="round" stroke-linecap="butt" d="m589.19684 95.291336l0 0c0 -24.039604 19.487976 -43.527557 43.527588 -43.527557l0 0c11.544189 0 22.6156 4.585926 30.778625 12.748924c8.162964 8.163002 12.748901 19.234406 12.748901 30.778633l0 0c0 24.039612 -19.487915 43.527557 -43.527527 43.527557l0 0c-24.039612 0 -43.527588 -19.487946 -43.527588 -43.527557z" fill-rule="evenodd"/><path fill="#666666" d="m643.2557 107.01134l-3.296875 0l-2.28125 -6.484375l-10.0625 0l-2.28125 6.484375l-3.140625 0l8.46875 -23.265625l4.125 0l8.46875 23.265625zm-6.53125 -9.140625l-4.078125 -11.421875l-4.09375 11.421875l8.171875 0z" fill-rule="nonzero"/><path fill="#efefef" d="m785.6457 95.291336l0 0c0 -24.039604 19.487915 -43.527557 43.527527 -43.527557l0 0c11.5442505 0 22.615662 4.585926 30.778625 12.748924c8.163025 8.163002 12.748962 19.234406 12.748962 30.778633l0 0c0 24.039612 -19.487976 43.527557 -43.527588 43.527557l0 0c-24.039612 0 -43.527527 -19.487946 -43.527527 -43.527557z" fill-rule="evenodd"/><path stroke="#666666" stroke-width="3.0" stroke-linejoin="round" stroke-linecap="butt" d="m785.6457 95.291336l0 0c0 -24.039604 19.487915 -43.527557 43.527527 -43.527557l0 0c11.5442505 0 22.615662 4.585926 30.778625 12.748924c8.163025 8.163002 12.748962 19.234406 12.748962 30.778633l0 0c0 24.039612 -19.487976 43.527557 -43.527588 43.527557l0 0c-24.039612 0 -43.527527 -19.487946 -43.527527 -43.527557z" fill-rule="evenodd"/><path fill="#666666" d="m838.87634 99.85509q0 1.734375 -0.65625 3.0625q-0.65625 1.328125 -1.765625 2.1875q-1.3125 1.03125 -2.890625 1.46875q-1.5625 0.4375 -3.984375 0.4375l-8.25 0l0 -23.265625l6.890625 0q2.546875 0 3.8125 0.1875q1.265625 0.1875 2.421875 0.78125q1.28125 0.671875 1.859375 1.734375q0.578125 1.046875 0.578125 2.515625q0 1.65625 -0.84375 2.828125q-0.84375 1.15625 -2.25 1.859375l0 0.125q2.359375 0.484375 3.71875 2.078125q1.359375 1.578125 1.359375 4.0zm-5.203125 -10.484375q0 -0.84375 -0.28125 -1.421875q-0.28125 -0.578125 -0.90625 -0.9375q-0.734375 -0.421875 -1.78125 -0.515625q-1.046875 -0.109375 -2.59375 -0.109375l-3.6875 0l0 6.71875l4.0 0q1.453125 0 2.3125 -0.140625q0.859375 -0.15625 1.59375 -0.625q0.734375 -0.46875 1.03125 -1.203125q0.3125 -0.75 0.3125 -1.765625zm1.984375 10.609375q0 -1.40625 -0.421875 -2.234375q-0.421875 -0.828125 -1.53125 -1.40625q-0.75 -0.390625 -1.828125 -0.5q-1.0625 -0.125 -2.59375 -0.125l-4.859375 0l0 8.65625l4.09375 0q2.03125 0 3.328125 -0.203125q1.296875 -0.21875 2.125 -0.78125q0.875 -0.609375 1.28125 -1.390625q0.40625 -0.78125 0.40625 -2.015625z" fill-rule="nonzero"/><path fill="#efefef" d="m94.47769 301.87927l0 0c0 -24.039612 19.487953 -43.527557 43.527557 -43.527557l0 0c11.54422 0 22.615631 4.585907 30.778625 12.748932c8.16301 8.162994 12.748932 19.234406 12.748932 30.778625l0 0c0 24.039612 -19.487946 43.527557 -43.527557 43.527557l0 0c-24.039604 0 -43.527557 -19.487946 -43.527557 -43.527557z" fill-rule="evenodd"/><path stroke="#666666" stroke-width="3.0" stroke-linejoin="round" stroke-linecap="butt" d="m94.47769 301.87927l0 0c0 -24.039612 19.487953 -43.527557 43.527557 -43.527557l0 0c11.54422 0 22.615631 4.585907 30.778625 12.748932c8.16301 8.162994 12.748932 19.234406 12.748932 30.778625l0 0c0 24.039612 -19.487946 43.527557 -43.527557 43.527557l0 0c-24.039604 0 -43.527557 -19.487946 -43.527557 -43.527557z" fill-rule="evenodd"/><path fill="#666666" d="m147.70837 306.44302q0 1.734375 -0.65625 3.0625q-0.65625 1.328125 -1.765625 2.1875q-1.3125 1.03125 -2.890625 1.46875q-1.5625 0.4375 -3.984375 0.4375l-8.25 0l0 -23.265625l6.890625 0q2.546875 0 3.8125 0.1875q1.265625 0.1875 2.421875 0.78125q1.28125 0.671875 1.859375 1.734375q0.578125 1.046875 0.578125 2.515625q0 1.65625 -0.84375 2.828125q-0.84375 1.15625 -2.25 1.859375l0 0.125q2.359375 0.484375 3.71875 2.078125q1.359375 1.578125 1.359375 4.0zm-5.203125 -10.484375q0 -0.84375 -0.28125 -1.421875q-0.28125 -0.578125 -0.90625 -0.9375q-0.734375 -0.421875 -1.78125 -0.515625q-1.046875 -0.109375 -2.59375 -0.109375l-3.6875 0l0 6.71875l4.0 0q1.453125 0 2.3125 -0.140625q0.859375 -0.15625 1.59375 -0.625q0.734375 -0.46875 1.03125 -1.203125q0.3125 -0.75 0.3125 -1.765625zm1.984375 10.609375q0 -1.40625 -0.421875 -2.234375q-0.421875 -0.828125 -1.53125 -1.40625q-0.75 -0.390625 -1.828125 -0.5q-1.0625 -0.125 -2.59375 -0.125l-4.859375 0l0 8.65625l4.09375 0q2.03125 0 3.328125 -0.203125q1.296875 -0.21875 2.125 -0.78125q0.875 -0.609375 1.28125 -1.390625q0.40625 -0.78125 0.40625 -2.015625z" fill-rule="nonzero"/><path fill="#ffffff" d="m111.89501 301.87927l0 0c0 -14.420288 11.689949 -26.11023 26.110237 -26.11023l0 0c6.9248657 0 13.566101 2.750885 18.462723 7.6474915c4.8966217 4.896637 7.6475067 11.537872 7.6475067 18.462738l0 0c0 14.420288 -11.689941 26.11023 -26.11023 26.11023l0 0c-14.420288 0 -26.110237 -11.689941 -26.110237 -26.11023z" fill-rule="evenodd"/><path stroke="#666666" stroke-width="3.0" stroke-linejoin="round" stroke-linecap="butt" d="m111.89501 301.87927l0 0c0 -14.420288 11.689949 -26.11023 26.110237 -26.11023l0 0c6.9248657 0 13.566101 2.750885 18.462723 7.6474915c4.8966217 4.896637 7.6475067 11.537872 7.6475067 18.462738l0 0c0 14.420288 -11.689941 26.11023 -26.11023 26.11023l0 0c-14.420288 0 -26.110237 -11.689941 -26.110237 -26.11023z" fill-rule="evenodd"/><path fill="#666666" d="m145.9115 310.41925l-2.484375 0l-1.703125 -4.859375l-7.546875 0l-1.71875 4.859375l-2.34375 0l6.34375 -17.453125l3.09375 0l6.359375 17.453125zm-4.90625 -6.859375l-3.0625 -8.5625l-3.0625 8.5625l6.125 0z" fill-rule="nonzero"/><path fill="#efefef" d="m556.2572 301.87927l0 0c0 -24.039612 19.487976 -43.527557 43.527588 -43.527557l0 0c11.544189 0 22.6156 4.585907 30.778625 12.748932c8.162964 8.162994 12.748901 19.234406 12.748901 30.778625l0 0c0 24.039612 -19.487915 43.527557 -43.527527 43.527557l0 0c-24.039612 0 -43.527588 -19.487946 -43.527588 -43.527557z" fill-rule="evenodd"/><path stroke="#666666" stroke-width="3.0" stroke-linejoin="round" stroke-linecap="butt" d="m556.2572 301.87927l0 0c0 -24.039612 19.487976 -43.527557 43.527588 -43.527557l0 0c11.544189 0 22.6156 4.585907 30.778625 12.748932c8.162964 8.162994 12.748901 19.234406 12.748901 30.778625l0 0c0 24.039612 -19.487915 43.527557 -43.527527 43.527557l0 0c-24.039612 0 -43.527588 -19.487946 -43.527588 -43.527557z" fill-rule="evenodd"/><path fill="#666666" d="m609.4879 306.44302q0 1.734375 -0.65625 3.0625q-0.65625 1.328125 -1.765625 2.1875q-1.3125 1.03125 -2.890625 1.46875q-1.5625 0.4375 -3.984375 0.4375l-8.25 0l0 -23.265625l6.890625 0q2.546875 0 3.8125 0.1875q1.265625 0.1875 2.421875 0.78125q1.28125 0.671875 1.859375 1.734375q0.578125 1.046875 0.578125 2.515625q0 1.65625 -0.84375 2.828125q-0.84375 1.15625 -2.25 1.859375l0 0.125q2.359375 0.484375 3.71875 2.078125q1.359375 1.578125 1.359375 4.0zm-5.203125 -10.484375q0 -0.84375 -0.28125 -1.421875q-0.28125 -0.578125 -0.90625 -0.9375q-0.734375 -0.421875 -1.78125 -0.515625q-1.046875 -0.109375 -2.59375 -0.109375l-3.6875 0l0 6.71875l4.0 0q1.453125 0 2.3125 -0.140625q0.859375 -0.15625 1.59375 -0.625q0.734375 -0.46875 1.03125 -1.203125q0.3125 -0.75 0.3125 -1.765625zm1.984375 10.609375q0 -1.40625 -0.421875 -2.234375q-0.421875 -0.828125 -1.53125 -1.40625q-0.75 -0.390625 -1.828125 -0.5q-1.0625 -0.125 -2.59375 -0.125l-4.859375 0l0 8.65625l4.09375 0q2.03125 0 3.328125 -0.203125q1.296875 -0.21875 2.125 -0.78125q0.875 -0.609375 1.28125 -1.390625q0.40625 -0.78125 0.40625 -2.015625z" fill-rule="nonzero"/><path fill="#ffffff" d="m590.6037 301.87927l0 0c0 -14.420288 11.689941 -26.11023 26.11023 -26.11023l0 0c6.9248657 0 13.566101 2.750885 18.462708 7.6474915c4.8966064 4.896637 7.647522 11.537872 7.647522 18.462738l0 0c0 14.420288 -11.689941 26.11023 -26.11023 26.11023l0 0c-14.420288 0 -26.11023 -11.689941 -26.11023 -26.11023z" fill-rule="evenodd"/><path stroke="#666666" stroke-width="3.0" stroke-linejoin="round" stroke-linecap="butt" d="m590.6037 301.87927l0 0c0 -14.420288 11.689941 -26.11023 26.11023 -26.11023l0 0c6.9248657 0 13.566101 2.750885 18.462708 7.6474915c4.8966064 4.896637 7.647522 11.537872 7.647522 18.462738l0 0c0 14.420288 -11.689941 26.11023 -26.11023 26.11023l0 0c-14.420288 0 -26.11023 -11.689941 -26.11023 -26.11023z" fill-rule="evenodd"/><path fill="#666666" d="m624.6202 310.41925l-2.484375 0l-1.703125 -4.859375l-7.546875 0l-1.71875 4.859375l-2.34375 0l6.34375 -17.453125l3.09375 0l6.359375 17.453125zm-4.90625 -6.859375l-3.0625 -8.5625l-3.0625 8.5625l6.125 0z" fill-rule="nonzero"/><path fill="#000000" fill-opacity="0.0" d="m785.6457 301.87927l0 0c0 -24.039612 19.487915 -43.527557 43.527527 -43.527557l0 0c11.5442505 0 22.615662 4.585907 30.778625 12.748932c8.163025 8.162994 12.748962 19.234406 12.748962 30.778625l0 0c0 24.039612 -19.487976 43.527557 -43.527588 43.527557l0 0c-24.039612 0 -43.527527 -19.487946 -43.527527 -43.527557z" fill-rule="evenodd"/><path stroke="#666666" stroke-width="3.0" stroke-linejoin="round" stroke-linecap="butt" d="m785.6457 301.87927l0 0c0 -24.039612 19.487915 -43.527557 43.527527 -43.527557l0 0c11.5442505 0 22.615662 4.585907 30.778625 12.748932c8.163025 8.162994 12.748962 19.234406 12.748962 30.778625l0 0c0 24.039612 -19.487976 43.527557 -43.527588 43.527557l0 0c-24.039612 0 -43.527527 -19.487946 -43.527527 -43.527557z" fill-rule="evenodd"/><path fill="#000000" fill-opacity="0.0" d="m50.95013 152.93964l174.11023 0l0 49.417313l-174.11023 0z" fill-rule="evenodd"/><path fill="#000000" d="m86.86072 181.19838q0 1.796875 -1.484375 2.953125q-1.46875 1.140625 -4.046875 1.140625q-1.453125 0 -2.671875 -0.34375q-1.203125 -0.34375 -2.015625 -0.75l0 -2.484375l0.109375 0q1.046875 0.796875 2.3125 1.265625q1.28125 0.453125 2.453125 0.453125q1.453125 0 2.265625 -0.46875q0.828125 -0.46875 0.828125 -1.484375q0 -0.765625 -0.4375 -1.171875q-0.453125 -0.390625 -1.71875 -0.671875q-0.46875 -0.109375 -1.21875 -0.25q-0.75 -0.140625 -1.375 -0.296875q-1.71875 -0.46875 -2.453125 -1.34375q-0.71875 -0.890625 -0.71875 -2.171875q0 -0.8125 0.328125 -1.53125q0.34375 -0.71875 1.03125 -1.28125q0.65625 -0.546875 1.65625 -0.859375q1.015625 -0.328125 2.28125 -0.328125q1.171875 0 2.359375 0.296875q1.203125 0.28125 2.0 0.6875l0 2.359375l-0.109375 0q-0.84375 -0.625 -2.0625 -1.046875q-1.203125 -0.4375 -2.359375 -0.4375q-1.203125 0 -2.046875 0.46875q-0.828125 0.453125 -0.828125 1.375q0 0.8125 0.515625 1.21875q0.484375 0.40625 1.59375 0.671875q0.609375 0.140625 1.359375 0.28125q0.75 0.140625 1.265625 0.25q1.53125 0.359375 2.359375 1.203125q0.828125 0.875 0.828125 2.296875zm9.957031 3.65625q-0.625 0.171875 -1.359375 0.28125q-0.734375 0.109375 -1.296875 0.109375q-2.015625 0 -3.0625 -1.078125q-1.03125 -1.09375 -1.03125 -3.46875l0 -6.953125l-1.484375 0l0 -1.859375l1.484375 0l0 -3.765625l2.203125 0l0 3.765625l4.546875 0l0 1.859375l-4.546875 0l0 5.953125q0 1.03125 0.046875 1.625q0.046875 0.578125 0.328125 1.078125q0.25 0.46875 0.703125 0.6875q0.453125 0.21875 1.375 0.21875q0.546875 0 1.125 -0.15625q0.59375 -0.171875 0.84375 -0.265625l0.125 0l0 1.96875zm15.800781 3.640625l-15.359375 0l0 -1.40625l15.359375 0l0 1.40625zm12.7265625 -3.515625l-2.203125 0l0 -1.375q-0.9375 0.828125 -1.96875 1.28125q-1.03125 0.453125 -2.25 0.453125q-2.34375 0 -3.71875 -1.796875q-1.375 -1.8125 -1.375 -5.015625q0 -1.65625 0.46875 -2.953125q0.484375 -1.3125 1.296875 -2.21875q0.796875 -0.890625 1.84375 -1.359375q1.0625 -0.46875 2.203125 -0.46875q1.03125 0 1.828125 0.21875q0.796875 0.21875 1.671875 0.671875l0 -5.671875l2.203125 0l0 18.234375zm-2.203125 -3.21875l0 -7.515625q-0.890625 -0.40625 -1.59375 -0.546875q-0.703125 -0.15625 -1.53125 -0.15625q-1.84375 0 -2.875 1.296875q-1.03125 1.28125 -1.03125 3.640625q0 2.34375 0.796875 3.5625q0.796875 1.203125 2.546875 1.203125q0.9375 0 1.890625 -0.40625q0.96875 -0.421875 1.796875 -1.078125zm8.90625 -12.0625l-2.484375 0l0 -2.28125l2.484375 0l0 2.28125zm-0.140625 15.28125l-2.203125 0l0 -13.09375l2.203125 0l0 13.09375zm13.7109375 -3.78125q0 1.796875 -1.484375 2.953125q-1.46875 1.140625 -4.046875 1.140625q-1.453125 0 -2.671875 -0.34375q-1.203125 -0.34375 -2.015625 -0.75l0 -2.484375l0.109375 0q1.046875 0.796875 2.3125 1.265625q1.28125 0.453125 2.453125 0.453125q1.453125 0 2.265625 -0.46875q0.828125 -0.46875 0.828125 -1.484375q0 -0.765625 -0.4375 -1.171875q-0.453125 -0.390625 -1.71875 -0.671875q-0.46875 -0.109375 -1.21875 -0.25q-0.75 -0.140625 -1.375 -0.296875q-1.71875 -0.46875 -2.453125 -1.34375q-0.71875 -0.890625 -0.71875 -2.171875q0 -0.8125 0.328125 -1.53125q0.34375 -0.71875 1.03125 -1.28125q0.65625 -0.546875 1.65625 -0.859375q1.015625 -0.328125 2.28125 -0.328125q1.171875 0 2.359375 0.296875q1.203125 0.28125 2.0 0.6875l0 2.359375l-0.109375 0q-0.84375 -0.625 -2.0625 -1.046875q-1.203125 -0.4375 -2.359375 -0.4375q-1.203125 0 -2.046875 0.46875q-0.828125 0.453125 -0.828125 1.375q0 0.8125 0.515625 1.21875q0.484375 0.40625 1.59375 0.671875q0.609375 0.140625 1.359375 0.28125q0.75 0.140625 1.265625 0.25q1.53125 0.359375 2.359375 1.203125q0.828125 0.875 0.828125 2.296875zm7.2382812 -11.5l-2.484375 0l0 -2.28125l2.484375 0l0 2.28125zm-0.140625 15.59375q0 2.296875 -1.171875 3.46875q-1.171875 1.171875 -3.140625 1.171875q-0.46875 0 -1.25 -0.09375q-0.765625 -0.09375 -1.28125 -0.234375l0 -2.09375l0.125 0q0.328125 0.125 0.875 0.28125q0.5625 0.171875 1.09375 0.171875q0.84375 0 1.359375 -0.234375q0.515625 -0.234375 0.78125 -0.703125q0.25 -0.46875 0.328125 -1.125q0.078125 -0.65625 0.078125 -1.609375l0 -10.546875l-2.734375 0l0 -1.859375l4.9375 0l0 13.40625zm15.480469 -6.859375q0 3.203125 -1.640625 5.0625q-1.640625 1.84375 -4.390625 1.84375q-2.78125 0 -4.421875 -1.84375q-1.625 -1.859375 -1.625 -5.0625q0 -3.1875 1.625 -5.046875q1.640625 -1.859375 4.421875 -1.859375q2.75 0 4.390625 1.859375q1.640625 1.859375 1.640625 5.046875zm-2.28125 0q0 -2.53125 -1.0 -3.765625q-0.984375 -1.25 -2.75 -1.25q-1.796875 0 -2.796875 1.25q-0.984375 1.234375 -0.984375 3.765625q0 2.46875 1.0 3.75q1.0 1.265625 2.78125 1.265625q1.75 0 2.75 -1.265625q1.0 -1.265625 1.0 -3.75zm8.050781 -8.734375l-2.484375 0l0 -2.28125l2.484375 0l0 2.28125zm-0.140625 15.28125l-2.203125 0l0 -13.09375l2.203125 0l0 13.09375zm15.3046875 0l-2.203125 0l0 -7.453125q0 -0.90625 -0.109375 -1.6875q-0.09375 -0.796875 -0.375 -1.25q-0.296875 -0.484375 -0.84375 -0.71875q-0.546875 -0.25 -1.4375 -0.25q-0.890625 0 -1.875 0.453125q-0.984375 0.4375 -1.890625 1.125l0 9.78125l-2.203125 0l0 -13.09375l2.203125 0l0 1.453125q1.03125 -0.859375 2.125 -1.328125q1.109375 -0.484375 2.265625 -0.484375q2.125 0 3.234375 1.28125q1.109375 1.265625 1.109375 3.671875l0 8.5zm11.046875 -0.125q-0.625 0.171875 -1.359375 0.28125q-0.734375 0.109375 -1.296875 0.109375q-2.015625 0 -3.0625 -1.078125q-1.03125 -1.09375 -1.03125 -3.46875l0 -6.953125l-1.484375 0l0 -1.859375l1.484375 0l0 -3.765625l2.203125 0l0 3.765625l4.546875 0l0 1.859375l-4.546875 0l0 5.953125q0 1.03125 0.046875 1.625q0.046875 0.578125 0.328125 1.078125q0.25 0.46875 0.703125 0.6875q0.453125 0.21875 1.375 0.21875q0.546875 0 1.125 -0.15625q0.59375 -0.171875 0.84375 -0.265625l0.125 0l0 1.96875z" fill-rule="nonzero"/><path fill="#000000" fill-opacity="0.0" d="m284.59973 152.93964l174.11023 0l0 49.417313l-174.11023 0z" fill-rule="evenodd"/><path fill="#000000" d="m317.70953 181.19838q0 1.796875 -1.484375 2.953125q-1.46875 1.140625 -4.046875 1.140625q-1.453125 0 -2.671875 -0.34375q-1.203125 -0.34375 -2.015625 -0.75l0 -2.484375l0.109375 0q1.046875 0.796875 2.3125 1.265625q1.28125 0.453125 2.453125 0.453125q1.453125 0 2.265625 -0.46875q0.828125 -0.46875 0.828125 -1.484375q0 -0.765625 -0.4375 -1.171875q-0.453125 -0.390625 -1.71875 -0.671875q-0.46875 -0.109375 -1.21875 -0.25q-0.75 -0.140625 -1.375 -0.296875q-1.71875 -0.46875 -2.453125 -1.34375q-0.71875 -0.890625 -0.71875 -2.171875q0 -0.8125 0.328125 -1.53125q0.34375 -0.71875 1.03125 -1.28125q0.65625 -0.546875 1.65625 -0.859375q1.015625 -0.328125 2.28125 -0.328125q1.171875 0 2.359375 0.296875q1.203125 0.28125 2.0 0.6875l0 2.359375l-0.109375 0q-0.84375 -0.625 -2.0625 -1.046875q-1.203125 -0.4375 -2.359375 -0.4375q-1.203125 0 -2.046875 0.46875q-0.828125 0.453125 -0.828125 1.375q0 0.8125 0.515625 1.21875q0.484375 0.40625 1.59375 0.671875q0.609375 0.140625 1.359375 0.28125q0.75 0.140625 1.265625 0.25q1.53125 0.359375 2.359375 1.203125q0.828125 0.875 0.828125 2.296875zm9.957031 3.65625q-0.625 0.171875 -1.359375 0.28125q-0.734375 0.109375 -1.296875 0.109375q-2.015625 0 -3.0625 -1.078125q-1.03125 -1.09375 -1.03125 -3.46875l0 -6.953125l-1.484375 0l0 -1.859375l1.484375 0l0 -3.765625l2.203125 0l0 3.765625l4.546875 0l0 1.859375l-4.546875 0l0 5.953125q0 1.03125 0.046875 1.625q0.046875 0.578125 0.328125 1.078125q0.25 0.46875 0.703125 0.6875q0.453125 0.21875 1.375 0.21875q0.546875 0 1.125 -0.15625q0.59375 -0.171875 0.84375 -0.265625l0.125 0l0 1.96875zm15.800781 3.640625l-15.359375 0l0 -1.40625l15.359375 0l0 1.40625zm8.9140625 -3.640625q-0.625 0.171875 -1.359375 0.28125q-0.734375 0.109375 -1.296875 0.109375q-2.015625 0 -3.0625 -1.078125q-1.03125 -1.09375 -1.03125 -3.46875l0 -6.953125l-1.484375 0l0 -1.859375l1.484375 0l0 -3.765625l2.203125 0l0 3.765625l4.546875 0l0 1.859375l-4.546875 0l0 5.953125q0 1.03125 0.046875 1.625q0.046875 0.578125 0.328125 1.078125q0.25 0.46875 0.703125 0.6875q0.453125 0.21875 1.375 0.21875q0.546875 0 1.125 -0.15625q0.59375 -0.171875 0.84375 -0.265625l0.125 0l0 1.96875zm13.816406 -6.421875q0 3.203125 -1.640625 5.0625q-1.640625 1.84375 -4.390625 1.84375q-2.78125 0 -4.421875 -1.84375q-1.625 -1.859375 -1.625 -5.0625q0 -3.1875 1.625 -5.046875q1.640625 -1.859375 4.421875 -1.859375q2.75 0 4.390625 1.859375q1.640625 1.859375 1.640625 5.046875zm-2.28125 0q0 -2.53125 -1.0 -3.765625q-0.984375 -1.25 -2.75 -1.25q-1.796875 0 -2.796875 1.25q-0.984375 1.234375 -0.984375 3.765625q0 2.46875 1.0 3.75q1.0 1.265625 2.78125 1.265625q1.75 0 2.75 -1.265625q1.0 -1.265625 1.0 -3.75zm16.535156 6.546875l-2.203125 0l0 -1.453125q-1.109375 0.875 -2.125 1.34375q-1.015625 0.46875 -2.25 0.46875q-2.0625 0 -3.21875 -1.25q-1.140625 -1.265625 -1.140625 -3.703125l0 -8.5l2.203125 0l0 7.453125q0 1.0 0.09375 1.71875q0.09375 0.703125 0.390625 1.203125q0.328125 0.515625 0.828125 0.75q0.5 0.234375 1.46875 0.234375q0.84375 0 1.859375 -0.4375q1.015625 -0.453125 1.890625 -1.140625l0 -9.78125l2.203125 0l0 13.09375zm14.015625 -0.828125q-1.09375 0.53125 -2.09375 0.828125q-0.984375 0.296875 -2.09375 0.296875q-1.421875 0 -2.609375 -0.421875q-1.171875 -0.421875 -2.015625 -1.265625q-0.859375 -0.84375 -1.328125 -2.125q-0.46875 -1.296875 -0.46875 -3.015625q0 -3.203125 1.765625 -5.03125q1.765625 -1.828125 4.65625 -1.828125q1.125 0 2.203125 0.3125q1.09375 0.3125 1.984375 0.765625l0 2.453125l-0.109375 0q-1.015625 -0.78125 -2.09375 -1.203125q-1.0625 -0.421875 -2.078125 -0.421875q-1.875 0 -2.96875 1.265625q-1.078125 1.25 -1.078125 3.6875q0 2.375 1.0625 3.640625q1.0625 1.265625 2.984375 1.265625q0.671875 0 1.359375 -0.171875q0.6875 -0.171875 1.234375 -0.453125q0.484375 -0.25 0.90625 -0.515625q0.421875 -0.28125 0.671875 -0.484375l0.109375 0l0 2.421875zm13.769531 0.828125l-2.203125 0l0 -7.453125q0 -0.90625 -0.109375 -1.6875q-0.09375 -0.796875 -0.375 -1.25q-0.296875 -0.484375 -0.84375 -0.71875q-0.546875 -0.25 -1.4375 -0.25q-0.890625 0 -1.875 0.453125q-0.984375 0.4375 -1.890625 1.125l0 9.78125l-2.203125 0l0 -18.234375l2.203125 0l0 6.59375q1.03125 -0.859375 2.125 -1.328125q1.109375 -0.484375 2.265625 -0.484375q2.125 0 3.234375 1.28125q1.109375 1.265625 1.109375 3.671875l0 8.5zm15.203125 -6.3125l-9.640625 0q0 1.203125 0.359375 2.109375q0.359375 0.890625 1.0 1.453125q0.609375 0.5625 1.4375 0.84375q0.84375 0.28125 1.859375 0.28125q1.328125 0 2.671875 -0.53125q1.359375 -0.53125 1.9375 -1.046875l0.125 0l0 2.40625q-1.125 0.46875 -2.28125 0.796875q-1.15625 0.3125 -2.4375 0.3125q-3.25 0 -5.078125 -1.765625q-1.828125 -1.765625 -1.828125 -5.015625q0 -3.21875 1.75 -5.09375q1.75 -1.890625 4.609375 -1.890625q2.640625 0 4.078125 1.546875q1.4375 1.546875 1.4375 4.390625l0 1.203125zm-2.140625 -1.6875q-0.015625 -1.734375 -0.875 -2.6875q-0.859375 -0.953125 -2.625 -0.953125q-1.765625 0 -2.8125 1.046875q-1.046875 1.046875 -1.1875 2.59375l7.5 0zm14.828125 4.21875q0 1.796875 -1.484375 2.953125q-1.46875 1.140625 -4.046875 1.140625q-1.453125 0 -2.671875 -0.34375q-1.203125 -0.34375 -2.015625 -0.75l0 -2.484375l0.109375 0q1.046875 0.796875 2.3125 1.265625q1.28125 0.453125 2.453125 0.453125q1.453125 0 2.265625 -0.46875q0.828125 -0.46875 0.828125 -1.484375q0 -0.765625 -0.4375 -1.171875q-0.453125 -0.390625 -1.71875 -0.671875q-0.46875 -0.109375 -1.21875 -0.25q-0.75 -0.140625 -1.375 -0.296875q-1.71875 -0.46875 -2.453125 -1.34375q-0.71875 -0.890625 -0.71875 -2.171875q0 -0.8125 0.328125 -1.53125q0.34375 -0.71875 1.03125 -1.28125q0.65625 -0.546875 1.65625 -0.859375q1.015625 -0.328125 2.28125 -0.328125q1.171875 0 2.359375 0.296875q1.203125 0.28125 2.0 0.6875l0 2.359375l-0.109375 0q-0.84375 -0.625 -2.0625 -1.046875q-1.203125 -0.4375 -2.359375 -0.4375q-1.203125 0 -2.046875 0.46875q-0.828125 0.453125 -0.828125 1.375q0 0.8125 0.515625 1.21875q0.484375 0.40625 1.59375 0.671875q0.609375 0.140625 1.359375 0.28125q0.75 0.140625 1.265625 0.25q1.53125 0.359375 2.359375 1.203125q0.828125 0.875 0.828125 2.296875z" fill-rule="nonzero"/><path fill="#000000" fill-opacity="0.0" d="m512.7297 152.93964l174.11023 0l0 49.417313l-174.11023 0z" fill-rule="evenodd"/><path fill="#000000" d="m548.1305 181.19838q0 1.796875 -1.484375 2.953125q-1.46875 1.140625 -4.046875 1.140625q-1.453125 0 -2.671875 -0.34375q-1.203125 -0.34375 -2.015625 -0.75l0 -2.484375l0.109375 0q1.046875 0.796875 2.3125 1.265625q1.28125 0.453125 2.453125 0.453125q1.453125 0 2.265625 -0.46875q0.828125 -0.46875 0.828125 -1.484375q0 -0.765625 -0.4375 -1.171875q-0.453125 -0.390625 -1.71875 -0.671875q-0.46875 -0.109375 -1.21875 -0.25q-0.75 -0.140625 -1.375 -0.296875q-1.71875 -0.46875 -2.453125 -1.34375q-0.71875 -0.890625 -0.71875 -2.171875q0 -0.8125 0.328125 -1.53125q0.34375 -0.71875 1.03125 -1.28125q0.65625 -0.546875 1.65625 -0.859375q1.015625 -0.328125 2.28125 -0.328125q1.171875 0 2.359375 0.296875q1.203125 0.28125 2.0 0.6875l0 2.359375l-0.109375 0q-0.84375 -0.625 -2.0625 -1.046875q-1.203125 -0.4375 -2.359375 -0.4375q-1.203125 0 -2.046875 0.46875q-0.828125 0.453125 -0.828125 1.375q0 0.8125 0.515625 1.21875q0.484375 0.40625 1.59375 0.671875q0.609375 0.140625 1.359375 0.28125q0.75 0.140625 1.265625 0.25q1.53125 0.359375 2.359375 1.203125q0.828125 0.875 0.828125 2.296875zm9.957031 3.65625q-0.625 0.171875 -1.359375 0.28125q-0.734375 0.109375 -1.296875 0.109375q-2.015625 0 -3.0625 -1.078125q-1.03125 -1.09375 -1.03125 -3.46875l0 -6.953125l-1.484375 0l0 -1.859375l1.484375 0l0 -3.765625l2.203125 0l0 3.765625l4.546875 0l0 1.859375l-4.546875 0l0 5.953125q0 1.03125 0.046875 1.625q0.046875 0.578125 0.328125 1.078125q0.25 0.46875 0.703125 0.6875q0.453125 0.21875 1.375 0.21875q0.546875 0 1.125 -0.15625q0.59375 -0.171875 0.84375 -0.265625l0.125 0l0 1.96875zm15.800781 3.640625l-15.359375 0l0 -1.40625l15.359375 0l0 1.40625zm11.7890625 -4.34375q-1.09375 0.53125 -2.09375 0.828125q-0.984375 0.296875 -2.09375 0.296875q-1.421875 0 -2.609375 -0.421875q-1.171875 -0.421875 -2.015625 -1.265625q-0.859375 -0.84375 -1.328125 -2.125q-0.46875 -1.296875 -0.46875 -3.015625q0 -3.203125 1.765625 -5.03125q1.765625 -1.828125 4.65625 -1.828125q1.125 0 2.203125 0.3125q1.09375 0.3125 1.984375 0.765625l0 2.453125l-0.109375 0q-1.015625 -0.78125 -2.09375 -1.203125q-1.0625 -0.421875 -2.078125 -0.421875q-1.875 0 -2.96875 1.265625q-1.078125 1.25 -1.078125 3.6875q0 2.375 1.0625 3.640625q1.0625 1.265625 2.984375 1.265625q0.671875 0 1.359375 -0.171875q0.6875 -0.171875 1.234375 -0.453125q0.484375 -0.25 0.90625 -0.515625q0.421875 -0.28125 0.671875 -0.484375l0.109375 0l0 2.421875zm11.003906 -9.859375l-0.125 0q-0.484375 -0.125 -0.953125 -0.171875q-0.46875 -0.046875 -1.09375 -0.046875q-1.015625 0 -1.96875 0.453125q-0.953125 0.4375 -1.828125 1.15625l0 9.296875l-2.203125 0l0 -13.09375l2.203125 0l0 1.9375q1.3125 -1.0625 2.3125 -1.5q1.0 -0.4375 2.046875 -0.4375q0.578125 0 0.828125 0.03125q0.265625 0.03125 0.78125 0.109375l0 2.265625zm13.2265625 4.140625q0 3.203125 -1.640625 5.0625q-1.640625 1.84375 -4.390625 1.84375q-2.78125 0 -4.421875 -1.84375q-1.625 -1.859375 -1.625 -5.0625q0 -3.1875 1.625 -5.046875q1.640625 -1.859375 4.421875 -1.859375q2.75 0 4.390625 1.859375q1.640625 1.859375 1.640625 5.046875zm-2.28125 0q0 -2.53125 -1.0 -3.765625q-0.984375 -1.25 -2.75 -1.25q-1.796875 0 -2.796875 1.25q-0.984375 1.234375 -0.984375 3.765625q0 2.46875 1.0 3.75q1.0 1.265625 2.78125 1.265625q1.75 0 2.75 -1.265625q1.0 -1.265625 1.0 -3.75zm15.035156 2.765625q0 1.796875 -1.484375 2.953125q-1.46875 1.140625 -4.046875 1.140625q-1.453125 0 -2.671875 -0.34375q-1.203125 -0.34375 -2.015625 -0.75l0 -2.484375l0.109375 0q1.046875 0.796875 2.3125 1.265625q1.28125 0.453125 2.453125 0.453125q1.453125 0 2.265625 -0.46875q0.828125 -0.46875 0.828125 -1.484375q0 -0.765625 -0.4375 -1.171875q-0.453125 -0.390625 -1.71875 -0.671875q-0.46875 -0.109375 -1.21875 -0.25q-0.75 -0.140625 -1.375 -0.296875q-1.71875 -0.46875 -2.453125 -1.34375q-0.71875 -0.890625 -0.71875 -2.171875q0 -0.8125 0.328125 -1.53125q0.34375 -0.71875 1.03125 -1.28125q0.65625 -0.546875 1.65625 -0.859375q1.015625 -0.328125 2.28125 -0.328125q1.171875 0 2.359375 0.296875q1.203125 0.28125 2.0 0.6875l0 2.359375l-0.109375 0q-0.84375 -0.625 -2.0625 -1.046875q-1.203125 -0.4375 -2.359375 -0.4375q-1.203125 0 -2.046875 0.46875q-0.828125 0.453125 -0.828125 1.375q0 0.8125 0.515625 1.21875q0.484375 0.40625 1.59375 0.671875q0.609375 0.140625 1.359375 0.28125q0.75 0.140625 1.265625 0.25q1.53125 0.359375 2.359375 1.203125q0.828125 0.875 0.828125 2.296875zm12.503906 0q0 1.796875 -1.484375 2.953125q-1.46875 1.140625 -4.046875 1.140625q-1.453125 0 -2.671875 -0.34375q-1.203125 -0.34375 -2.015625 -0.75l0 -2.484375l0.109375 0q1.046875 0.796875 2.3125 1.265625q1.28125 0.453125 2.453125 0.453125q1.453125 0 2.265625 -0.46875q0.828125 -0.46875 0.828125 -1.484375q0 -0.765625 -0.4375 -1.171875q-0.453125 -0.390625 -1.71875 -0.671875q-0.46875 -0.109375 -1.21875 -0.25q-0.75 -0.140625 -1.375 -0.296875q-1.71875 -0.46875 -2.453125 -1.34375q-0.71875 -0.890625 -0.71875 -2.171875q0 -0.8125 0.328125 -1.53125q0.34375 -0.71875 1.03125 -1.28125q0.65625 -0.546875 1.65625 -0.859375q1.015625 -0.328125 2.28125 -0.328125q1.171875 0 2.359375 0.296875q1.203125 0.28125 2.0 0.6875l0 2.359375l-0.109375 0q-0.84375 -0.625 -2.0625 -1.046875q-1.203125 -0.4375 -2.359375 -0.4375q-1.203125 0 -2.046875 0.46875q-0.828125 0.453125 -0.828125 1.375q0 0.8125 0.515625 1.21875q0.484375 0.40625 1.59375 0.671875q0.609375 0.140625 1.359375 0.28125q0.75 0.140625 1.265625 0.25q1.53125 0.359375 2.359375 1.203125q0.828125 0.875 0.828125 2.296875zm14.113281 -2.53125l-9.640625 0q0 1.203125 0.359375 2.109375q0.359375 0.890625 1.0 1.453125q0.609375 0.5625 1.4375 0.84375q0.84375 0.28125 1.859375 0.28125q1.328125 0 2.671875 -0.53125q1.359375 -0.53125 1.9375 -1.046875l0.125 0l0 2.40625q-1.125 0.46875 -2.28125 0.796875q-1.15625 0.3125 -2.4375 0.3125q-3.25 0 -5.078125 -1.765625q-1.828125 -1.765625 -1.828125 -5.015625q0 -3.21875 1.75 -5.09375q1.75 -1.890625 4.609375 -1.890625q2.640625 0 4.078125 1.546875q1.4375 1.546875 1.4375 4.390625l0 1.203125zm-2.140625 -1.6875q-0.015625 -1.734375 -0.875 -2.6875q-0.859375 -0.953125 -2.625 -0.953125q-1.765625 0 -2.8125 1.046875q-1.046875 1.046875 -1.1875 2.59375l7.5 0zm14.828125 4.21875q0 1.796875 -1.484375 2.953125q-1.46875 1.140625 -4.046875 1.140625q-1.453125 0 -2.671875 -0.34375q-1.203125 -0.34375 -2.015625 -0.75l0 -2.484375l0.109375 0q1.046875 0.796875 2.3125 1.265625q1.28125 0.453125 2.453125 0.453125q1.453125 0 2.265625 -0.46875q0.828125 -0.46875 0.828125 -1.484375q0 -0.765625 -0.4375 -1.171875q-0.453125 -0.390625 -1.71875 -0.671875q-0.46875 -0.109375 -1.21875 -0.25q-0.75 -0.140625 -1.375 -0.296875q-1.71875 -0.46875 -2.453125 -1.34375q-0.71875 -0.890625 -0.71875 -2.171875q0 -0.8125 0.328125 -1.53125q0.34375 -0.71875 1.03125 -1.28125q0.65625 -0.546875 1.65625 -0.859375q1.015625 -0.328125 2.28125 -0.328125q1.171875 0 2.359375 0.296875q1.203125 0.28125 2.0 0.6875l0 2.359375l-0.109375 0q-0.84375 -0.625 -2.0625 -1.046875q-1.203125 -0.4375 -2.359375 -0.4375q-1.203125 0 -2.046875 0.46875q-0.828125 0.453125 -0.828125 1.375q0 0.8125 0.515625 1.21875q0.484375 0.40625 1.59375 0.671875q0.609375 0.140625 1.359375 0.28125q0.75 0.140625 1.265625 0.25q1.53125 0.359375 2.359375 1.203125q0.828125 0.875 0.828125 2.296875z" fill-rule="nonzero"/><path fill="#000000" fill-opacity="0.0" d="m742.1181 152.93964l174.11023 0l0 49.417313l-174.11023 0z" fill-rule="evenodd"/><path fill="#000000" d="m783.10876 181.19838q0 1.796875 -1.484375 2.953125q-1.46875 1.140625 -4.046875 1.140625q-1.453125 0 -2.671875 -0.34375q-1.203125 -0.34375 -2.015625 -0.75l0 -2.484375l0.109375 0q1.046875 0.796875 2.3125 1.265625q1.28125 0.453125 2.453125 0.453125q1.453125 0 2.265625 -0.46875q0.828125 -0.46875 0.828125 -1.484375q0 -0.765625 -0.4375 -1.171875q-0.453125 -0.390625 -1.71875 -0.671875q-0.46875 -0.109375 -1.21875 -0.25q-0.75 -0.140625 -1.375 -0.296875q-1.71875 -0.46875 -2.453125 -1.34375q-0.71875 -0.890625 -0.71875 -2.171875q0 -0.8125 0.328125 -1.53125q0.34375 -0.71875 1.03125 -1.28125q0.65625 -0.546875 1.65625 -0.859375q1.015625 -0.328125 2.28125 -0.328125q1.171875 0 2.359375 0.296875q1.203125 0.28125 2.0 0.6875l0 2.359375l-0.109375 0q-0.84375 -0.625 -2.0625 -1.046875q-1.203125 -0.4375 -2.359375 -0.4375q-1.203125 0 -2.046875 0.46875q-0.828125 0.453125 -0.828125 1.375q0 0.8125 0.515625 1.21875q0.484375 0.40625 1.59375 0.671875q0.609375 0.140625 1.359375 0.28125q0.75 0.140625 1.265625 0.25q1.53125 0.359375 2.359375 1.203125q0.828125 0.875 0.828125 2.296875zm9.957031 3.65625q-0.625 0.171875 -1.359375 0.28125q-0.734375 0.109375 -1.296875 0.109375q-2.015625 0 -3.0625 -1.078125q-1.03125 -1.09375 -1.03125 -3.46875l0 -6.953125l-1.484375 0l0 -1.859375l1.484375 0l0 -3.765625l2.203125 0l0 3.765625l4.546875 0l0 1.859375l-4.546875 0l0 5.953125q0 1.03125 0.046875 1.625q0.046875 0.578125 0.328125 1.078125q0.25 0.46875 0.703125 0.6875q0.453125 0.21875 1.375 0.21875q0.546875 0 1.125 -0.15625q0.59375 -0.171875 0.84375 -0.265625l0.125 0l0 1.96875zm15.800781 3.640625l-15.359375 0l0 -1.40625l15.359375 0l0 1.40625zm13.0703125 -9.828125l-9.640625 0q0 1.203125 0.359375 2.109375q0.359375 0.890625 1.0 1.453125q0.609375 0.5625 1.4375 0.84375q0.84375 0.28125 1.859375 0.28125q1.328125 0 2.671875 -0.53125q1.359375 -0.53125 1.9375 -1.046875l0.125 0l0 2.40625q-1.125 0.46875 -2.28125 0.796875q-1.15625 0.3125 -2.4375 0.3125q-3.25 0 -5.078125 -1.765625q-1.828125 -1.765625 -1.828125 -5.015625q0 -3.21875 1.75 -5.09375q1.75 -1.890625 4.609375 -1.890625q2.640625 0 4.078125 1.546875q1.4375 1.546875 1.4375 4.390625l0 1.203125zm-2.140625 -1.6875q-0.015625 -1.734375 -0.875 -2.6875q-0.859375 -0.953125 -2.625 -0.953125q-1.765625 0 -2.8125 1.046875q-1.046875 1.046875 -1.1875 2.59375l7.5 0zm16.09375 12.828125l-2.203125 0l0 -6.3125q-1.015625 0.890625 -2.03125 1.328125q-1.0 0.421875 -2.171875 0.421875q-2.328125 0 -3.71875 -1.796875q-1.390625 -1.8125 -1.390625 -4.96875q0 -1.6875 0.484375 -2.984375q0.484375 -1.296875 1.28125 -2.171875q0.78125 -0.859375 1.8125 -1.328125q1.046875 -0.46875 2.21875 -0.46875q1.046875 0 1.859375 0.234375q0.8125 0.234375 1.65625 0.6875l0.140625 -0.5625l2.0625 0l0 17.921875zm-2.203125 -8.15625l0 -7.40625q-0.90625 -0.40625 -1.609375 -0.5625q-0.703125 -0.171875 -1.53125 -0.171875q-1.90625 0 -2.90625 1.296875q-0.984375 1.28125 -0.984375 3.5625q0 2.296875 0.796875 3.53125q0.796875 1.234375 2.53125 1.234375q0.953125 0 1.90625 -0.40625q0.96875 -0.421875 1.796875 -1.078125zm17.390625 3.328125l-2.203125 0l0 -1.453125q-1.109375 0.875 -2.125 1.34375q-1.015625 0.46875 -2.25 0.46875q-2.0625 0 -3.21875 -1.25q-1.140625 -1.265625 -1.140625 -3.703125l0 -8.5l2.203125 0l0 7.453125q0 1.0 0.09375 1.71875q0.09375 0.703125 0.390625 1.203125q0.328125 0.515625 0.828125 0.75q0.5 0.234375 1.46875 0.234375q0.84375 0 1.859375 -0.4375q1.015625 -0.453125 1.890625 -1.140625l0 -9.78125l2.203125 0l0 13.09375zm14.515625 0l-2.1875 0l0 -1.390625q-0.296875 0.1875 -0.796875 0.546875q-0.5 0.359375 -0.96875 0.578125q-0.546875 0.265625 -1.265625 0.4375q-0.71875 0.1875 -1.671875 0.1875q-1.765625 0 -3.0 -1.171875q-1.234375 -1.171875 -1.234375 -2.984375q0 -1.484375 0.640625 -2.40625q0.640625 -0.921875 1.828125 -1.453125q1.1875 -0.53125 2.859375 -0.71875q1.6875 -0.1875 3.609375 -0.28125l0 -0.328125q0 -0.75 -0.265625 -1.234375q-0.265625 -0.5 -0.765625 -0.78125q-0.46875 -0.28125 -1.125 -0.375q-0.65625 -0.09375 -1.359375 -0.09375q-0.875 0 -1.9375 0.234375q-1.0625 0.234375 -2.203125 0.65625l-0.125 0l0 -2.234375q0.65625 -0.171875 1.875 -0.375q1.21875 -0.21875 2.390625 -0.21875q1.390625 0 2.40625 0.234375q1.03125 0.21875 1.78125 0.765625q0.734375 0.546875 1.125 1.40625q0.390625 0.84375 0.390625 2.109375l0 8.890625zm-2.1875 -3.21875l0 -3.65625q-1.015625 0.0625 -2.390625 0.1875q-1.359375 0.109375 -2.15625 0.328125q-0.9375 0.28125 -1.53125 0.84375q-0.578125 0.5625 -0.578125 1.5625q0 1.125 0.671875 1.703125q0.6875 0.5625 2.078125 0.5625q1.15625 0 2.109375 -0.453125q0.96875 -0.453125 1.796875 -1.078125zm8.6484375 3.21875l-2.203125 0l0 -18.234375l2.203125 0l0 18.234375zm13.7109375 -3.78125q0 1.796875 -1.484375 2.953125q-1.46875 1.140625 -4.046875 1.140625q-1.453125 0 -2.671875 -0.34375q-1.203125 -0.34375 -2.015625 -0.75l0 -2.484375l0.109375 0q1.046875 0.796875 2.3125 1.265625q1.28125 0.453125 2.453125 0.453125q1.453125 0 2.265625 -0.46875q0.828125 -0.46875 0.828125 -1.484375q0 -0.765625 -0.4375 -1.171875q-0.453125 -0.390625 -1.71875 -0.671875q-0.46875 -0.109375 -1.21875 -0.25q-0.75 -0.140625 -1.375 -0.296875q-1.71875 -0.46875 -2.453125 -1.34375q-0.71875 -0.890625 -0.71875 -2.171875q0 -0.8125 0.328125 -1.53125q0.34375 -0.71875 1.03125 -1.28125q0.65625 -0.546875 1.65625 -0.859375q1.015625 -0.328125 2.28125 -0.328125q1.171875 0 2.359375 0.296875q1.203125 0.28125 2.0 0.6875l0 2.359375l-0.109375 0q-0.84375 -0.625 -2.0625 -1.046875q-1.203125 -0.4375 -2.359375 -0.4375q-1.203125 0 -2.046875 0.46875q-0.828125 0.453125 -0.828125 1.375q0 0.8125 0.515625 1.21875q0.484375 0.40625 1.59375 0.671875q0.609375 0.140625 1.359375 0.28125q0.75 0.140625 1.265625 0.25q1.53125 0.359375 2.359375 1.203125q0.828125 0.875 0.828125 2.296875z" fill-rule="nonzero"/><path fill="#000000" fill-opacity="0.0" d="m23.532808 358.3517l225.88977 0l0 49.417328l-225.88977 0z" fill-rule="evenodd"/><path fill="#000000" d="m47.48746 386.61044q0 1.796875 -1.484375 2.953125q-1.46875 1.140625 -4.046875 1.140625q-1.453125 0 -2.671875 -0.34375q-1.203125 -0.34375 -2.015625 -0.75l0 -2.484375l0.109375 0q1.046875 0.796875 2.3125 1.265625q1.28125 0.453125 2.453125 0.453125q1.453125 0 2.265625 -0.46875q0.828125 -0.46875 0.828125 -1.484375q0 -0.765625 -0.4375 -1.171875q-0.453125 -0.390625 -1.71875 -0.671875q-0.46875 -0.109375 -1.21875 -0.25q-0.75 -0.140625 -1.375 -0.296875q-1.71875 -0.46875 -2.453125 -1.34375q-0.71875 -0.890625 -0.71875 -2.171875q0 -0.8125 0.328125 -1.53125q0.34375 -0.71875 1.03125 -1.28125q0.65625 -0.546875 1.65625 -0.859375q1.015625 -0.328125 2.28125 -0.328125q1.171875 0 2.359375 0.296875q1.203125 0.28125 2.0 0.6875l0 2.359375l-0.109375 0q-0.84375 -0.625 -2.0625 -1.046875q-1.203125 -0.4375 -2.359375 -0.4375q-1.203125 0 -2.046875 0.46875q-0.828125 0.453125 -0.828125 1.375q0 0.8125 0.515625 1.21875q0.484375 0.40625 1.59375 0.671875q0.609375 0.140625 1.359375 0.28125q0.75 0.140625 1.265625 0.25q1.53125 0.359375 2.359375 1.203125q0.828125 0.875 0.828125 2.296875zm9.957031 3.65625q-0.625 0.171875 -1.359375 0.28125q-0.734375 0.109375 -1.296875 0.109375q-2.015625 0 -3.0625 -1.078125q-1.03125 -1.09375 -1.03125 -3.46875l0 -6.953125l-1.484375 0l0 -1.859375l1.484375 0l0 -3.765625l2.203125 0l0 3.765625l4.546875 0l0 1.859375l-4.546875 0l0 5.953125q0 1.03125 0.046875 1.625q0.046875 0.578125 0.328125 1.078125q0.25 0.46875 0.703125 0.6875q0.453125 0.21875 1.375 0.21875q0.546875 0 1.125 -0.15625q0.59375 -0.171875 0.84375 -0.265625l0.125 0l0 1.96875zm15.800777 3.640625l-15.359371 0l0 -1.40625l15.359371 0l0 1.40625zm11.7890625 -4.34375q-1.09375 0.53125 -2.09375 0.828125q-0.984375 0.296875 -2.09375 0.296875q-1.421875 0 -2.609375 -0.421875q-1.171875 -0.421875 -2.015625 -1.265625q-0.859375 -0.84375 -1.328125 -2.125q-0.46875 -1.296875 -0.46875 -3.015625q0 -3.203125 1.765625 -5.03125q1.765625 -1.828125 4.65625 -1.828125q1.125 0 2.203125 0.3125q1.09375 0.3125 1.984375 0.765625l0 2.453125l-0.109375 0q-1.015625 -0.78125 -2.09375 -1.203125q-1.0625 -0.421875 -2.078125 -0.421875q-1.875 0 -2.96875 1.265625q-1.078125 1.25 -1.078125 3.6875q0 2.375 1.0625 3.640625q1.0625 1.265625 2.984375 1.265625q0.671875 0 1.359375 -0.171875q0.6875 -0.171875 1.234375 -0.453125q0.484375 -0.25 0.90625 -0.515625q0.421875 -0.28125 0.671875 -0.484375l0.109375 0l0 2.421875zm13.988281 -5.71875q0 3.203125 -1.640625 5.0625q-1.640625 1.84375 -4.390625 1.84375q-2.78125 0 -4.421875 -1.84375q-1.625 -1.859375 -1.625 -5.0625q0 -3.1875 1.625 -5.046875q1.640625 -1.859375 4.421875 -1.859375q2.75 0 4.390625 1.859375q1.640625 1.859375 1.640625 5.046875zm-2.28125 0q0 -2.53125 -1.0 -3.765625q-0.984375 -1.25 -2.75 -1.25q-1.796875 0 -2.796875 1.25q-0.984375 1.234375 -0.984375 3.765625q0 2.46875 1.0 3.75q1.0 1.265625 2.78125 1.265625q1.75 0 2.75 -1.265625q1.0 -1.265625 1.0 -3.75zm16.628906 6.546875l-2.203125 0l0 -7.453125q0 -0.90625 -0.109375 -1.6875q-0.09375 -0.796875 -0.375 -1.25q-0.296875 -0.484375 -0.84375 -0.71875q-0.546875 -0.25 -1.4375 -0.25q-0.890625 0 -1.875 0.453125q-0.984375 0.4375 -1.890625 1.125l0 9.78125l-2.203125 0l0 -13.09375l2.203125 0l0 1.453125q1.03125 -0.859375 2.125 -1.328125q1.109375 -0.484375 2.265625 -0.484375q2.125 0 3.234375 1.28125q1.109375 1.265625 1.109375 3.671875l0 8.5zm11.046875 -0.125q-0.625 0.171875 -1.359375 0.28125q-0.734375 0.109375 -1.296875 0.109375q-2.015625 0 -3.0625 -1.078125q-1.03125 -1.09375 -1.03125 -3.46875l0 -6.953125l-1.484375 0l0 -1.859375l1.484375 0l0 -3.765625l2.203125 0l0 3.765625l4.546875 0l0 1.859375l-4.546875 0l0 5.953125q0 1.03125 0.046875 1.625q0.046875 0.578125 0.328125 1.078125q0.25 0.46875 0.703125 0.6875q0.453125 0.21875 1.375 0.21875q0.546875 0 1.125 -0.15625q0.59375 -0.171875 0.84375 -0.265625l0.125 0l0 1.96875zm12.832031 0.125l-2.1875 0l0 -1.390625q-0.296875 0.1875 -0.796875 0.546875q-0.5 0.359375 -0.96875 0.578125q-0.546875 0.265625 -1.265625 0.4375q-0.71875 0.1875 -1.671875 0.1875q-1.765625 0 -3.0 -1.171875q-1.234375 -1.171875 -1.234375 -2.984375q0 -1.484375 0.640625 -2.40625q0.640625 -0.921875 1.828125 -1.453125q1.1875 -0.53125 2.859375 -0.71875q1.6875 -0.1875 3.609375 -0.28125l0 -0.328125q0 -0.75 -0.265625 -1.234375q-0.265625 -0.5 -0.765625 -0.78125q-0.46875 -0.28125 -1.125 -0.375q-0.65625 -0.09375 -1.359375 -0.09375q-0.875 0 -1.9375 0.234375q-1.0625 0.234375 -2.203125 0.65625l-0.125 0l0 -2.234375q0.65625 -0.171875 1.875 -0.375q1.21875 -0.21875 2.390625 -0.21875q1.390625 0 2.40625 0.234375q1.03125 0.21875 1.78125 0.765625q0.734375 0.546875 1.125 1.40625q0.390625 0.84375 0.390625 2.109375l0 8.890625zm-2.1875 -3.21875l0 -3.65625q-1.015625 0.0625 -2.390625 0.1875q-1.359375 0.109375 -2.15625 0.328125q-0.9375 0.28125 -1.53125 0.84375q-0.578125 0.5625 -0.578125 1.5625q0 1.125 0.671875 1.703125q0.6875 0.5625 2.078125 0.5625q1.15625 0 2.109375 -0.453125q0.96875 -0.453125 1.796875 -1.078125zm8.7890625 -12.0625l-2.484375 0l0 -2.28125l2.484375 0l0 2.28125zm-0.140625 15.28125l-2.203125 0l0 -13.09375l2.203125 0l0 13.09375zm15.3046875 0l-2.203125 0l0 -7.453125q0 -0.90625 -0.109375 -1.6875q-0.09375 -0.796875 -0.375 -1.25q-0.296875 -0.484375 -0.84375 -0.71875q-0.546875 -0.25 -1.4375 -0.25q-0.890625 0 -1.875 0.453125q-0.984375 0.4375 -1.890625 1.125l0 9.78125l-2.203125 0l0 -13.09375l2.203125 0l0 1.453125q1.03125 -0.859375 2.125 -1.328125q1.109375 -0.484375 2.265625 -0.484375q2.125 0 3.234375 1.28125q1.109375 1.265625 1.109375 3.671875l0 8.5zm13.59375 -3.78125q0 1.796875 -1.484375 2.953125q-1.46875 1.140625 -4.046875 1.140625q-1.453125 0 -2.671875 -0.34375q-1.203125 -0.34375 -2.015625 -0.75l0 -2.484375l0.109375 0q1.046875 0.796875 2.3125 1.265625q1.28125 0.453125 2.453125 0.453125q1.453125 0 2.265625 -0.46875q0.828125 -0.46875 0.828125 -1.484375q0 -0.765625 -0.4375 -1.171875q-0.453125 -0.390625 -1.71875 -0.671875q-0.46875 -0.109375 -1.21875 -0.25q-0.75 -0.140625 -1.375 -0.296875q-1.71875 -0.46875 -2.453125 -1.34375q-0.71875 -0.890625 -0.71875 -2.171875q0 -0.8125 0.328125 -1.53125q0.34375 -0.71875 1.03125 -1.28125q0.65625 -0.546875 1.65625 -0.859375q1.015625 -0.328125 2.28125 -0.328125q1.171875 0 2.359375 0.296875q1.203125 0.28125 2.0 0.6875l0 2.359375l-0.109375 0q-0.84375 -0.625 -2.0625 -1.046875q-1.203125 -0.4375 -2.359375 -0.4375q-1.203125 0 -2.046875 0.46875q-0.828125 0.453125 -0.828125 1.375q0 0.8125 0.515625 1.21875q0.484375 0.40625 1.59375 0.671875q0.609375 0.140625 1.359375 0.28125q0.75 0.140625 1.265625 0.25q1.53125 0.359375 2.359375 1.203125q0.828125 0.875 0.828125 2.296875zm10.160156 8.609375l-2.671875 0q-2.078125 -2.375 -3.234375 -5.1875q-1.140625 -2.8125 -1.140625 -6.34375q0 -3.53125 1.140625 -6.34375q1.15625 -2.8125 3.234375 -5.1875l2.671875 0l0 0.109375q-0.9375 0.859375 -1.8125 1.984375q-0.859375 1.109375 -1.59375 2.609375q-0.703125 1.4375 -1.140625 3.171875q-0.4375 1.734375 -0.4375 3.65625q0 2.0 0.421875 3.671875q0.4375 1.65625 1.15625 3.15625q0.703125 1.453125 1.609375 2.609375q0.90625 1.171875 1.796875 1.984375l0 0.109375zm17.226562 -10.203125q0 1.3125 -0.5 2.3125q-0.484375 0.984375 -1.3125 1.625q-0.984375 0.78125 -2.171875 1.109375q-1.171875 0.328125 -2.984375 0.328125l-6.1875 0l0 -17.453125l5.171875 0q1.90625 0 2.859375 0.140625q0.953125 0.140625 1.8125 0.59375q0.96875 0.5 1.390625 1.296875q0.4375 0.78125 0.4375 1.890625q0 1.234375 -0.640625 2.109375q-0.625 0.875 -1.671875 1.40625l0 0.09375q1.765625 0.359375 2.78125 1.546875q1.015625 1.1875 1.015625 3.0zm-3.890625 -7.859375q0 -0.625 -0.21875 -1.0625q-0.203125 -0.4375 -0.671875 -0.703125q-0.5625 -0.3125 -1.34375 -0.390625q-0.78125 -0.078125 -1.9375 -0.078125l-2.765625 0l0 5.03125l3.0 0q1.078125 0 1.71875 -0.109375q0.65625 -0.109375 1.203125 -0.453125q0.546875 -0.359375 0.78125 -0.90625q0.234375 -0.5625 0.234375 -1.328125zm1.484375 7.953125q0 -1.046875 -0.328125 -1.671875q-0.3125 -0.625 -1.140625 -1.046875q-0.5625 -0.296875 -1.375 -0.375q-0.796875 -0.09375 -1.9375 -0.09375l-3.640625 0l0 6.484375l3.0625 0q1.53125 0 2.5 -0.15625q0.96875 -0.15625 1.59375 -0.578125q0.65625 -0.453125 0.953125 -1.03125q0.3125 -0.59375 0.3125 -1.53125zm10.09375 1.9375l-3.296875 7.6875l-1.71875 0l2.046875 -7.6875l2.96875 0zm18.105469 3.34375l-2.484375 0l-1.703125 -4.859375l-7.546875 0l-1.71875 4.859375l-2.34375 0l6.34375 -17.453125l3.09375 0l6.359375 17.453125zm-4.90625 -6.859375l-3.0625 -8.5625l-3.0625 8.5625l6.125 0zm13.984375 0.15625q0 3.53125 -1.15625 6.34375q-1.140625 2.8125 -3.21875 5.1875l-2.6875 0l0 -0.109375q0.90625 -0.8125 1.8125 -1.984375q0.90625 -1.15625 1.609375 -2.609375q0.71875 -1.5 1.140625 -3.15625q0.4375 -1.671875 0.4375 -3.671875q0 -1.921875 -0.4375 -3.65625q-0.4375 -1.734375 -1.140625 -3.171875q-0.75 -1.5 -1.609375 -2.609375q-0.859375 -1.125 -1.8125 -1.984375l0 -0.109375l2.6875 0q2.078125 2.375 3.21875 5.1875q1.15625 2.8125 1.15625 6.34375z" fill-rule="nonzero"/><path fill="#000000" fill-opacity="0.0" d="m275.0105 358.3517l192.94489 0l0 49.417328l-192.94489 0z" fill-rule="evenodd"/><path fill="#000000" d="m296.37357 386.61044q0 1.796875 -1.484375 2.953125q-1.46875 1.140625 -4.046875 1.140625q-1.453125 0 -2.671875 -0.34375q-1.203125 -0.34375 -2.015625 -0.75l0 -2.484375l0.109375 0q1.046875 0.796875 2.3125 1.265625q1.28125 0.453125 2.453125 0.453125q1.453125 0 2.265625 -0.46875q0.828125 -0.46875 0.828125 -1.484375q0 -0.765625 -0.4375 -1.171875q-0.453125 -0.390625 -1.71875 -0.671875q-0.46875 -0.109375 -1.21875 -0.25q-0.75 -0.140625 -1.375 -0.296875q-1.71875 -0.46875 -2.453125 -1.34375q-0.71875 -0.890625 -0.71875 -2.171875q0 -0.8125 0.328125 -1.53125q0.34375 -0.71875 1.03125 -1.28125q0.65625 -0.546875 1.65625 -0.859375q1.015625 -0.328125 2.28125 -0.328125q1.171875 0 2.359375 0.296875q1.203125 0.28125 2.0 0.6875l0 2.359375l-0.109375 0q-0.84375 -0.625 -2.0625 -1.046875q-1.203125 -0.4375 -2.359375 -0.4375q-1.203125 0 -2.046875 0.46875q-0.828125 0.453125 -0.828125 1.375q0 0.8125 0.515625 1.21875q0.484375 0.40625 1.59375 0.671875q0.609375 0.140625 1.359375 0.28125q0.75 0.140625 1.265625 0.25q1.53125 0.359375 2.359375 1.203125q0.828125 0.875 0.828125 2.296875zm9.957031 3.65625q-0.625 0.171875 -1.359375 0.28125q-0.734375 0.109375 -1.296875 0.109375q-2.015625 0 -3.0625 -1.078125q-1.03125 -1.09375 -1.03125 -3.46875l0 -6.953125l-1.484375 0l0 -1.859375l1.484375 0l0 -3.765625l2.203125 0l0 3.765625l4.546875 0l0 1.859375l-4.546875 0l0 5.953125q0 1.03125 0.046875 1.625q0.046875 0.578125 0.328125 1.078125q0.25 0.46875 0.703125 0.6875q0.453125 0.21875 1.375 0.21875q0.546875 0 1.125 -0.15625q0.59375 -0.171875 0.84375 -0.265625l0.125 0l0 1.96875zm15.800781 3.640625l-15.359375 0l0 -1.40625l15.359375 0l0 1.40625zm18.585938 -16.609375l-3.421875 13.09375l-2.03125 0l-3.359375 -10.09375l-3.34375 10.09375l-2.03125 0l-3.4375 -13.09375l2.296875 0l2.390625 10.140625l3.28125 -10.140625l1.8125 0l3.34375 10.140625l2.28125 -10.140625l2.21875 0zm5.53125 -2.1875l-2.484375 0l0 -2.28125l2.484375 0l0 2.28125zm-0.140625 15.28125l-2.203125 0l0 -13.09375l2.203125 0l0 13.09375zm11.1640625 -0.125q-0.625 0.171875 -1.359375 0.28125q-0.734375 0.109375 -1.296875 0.109375q-2.015625 0 -3.0625 -1.078125q-1.03125 -1.09375 -1.03125 -3.46875l0 -6.953125l-1.484375 0l0 -1.859375l1.484375 0l0 -3.765625l2.203125 0l0 3.765625l4.546875 0l0 1.859375l-4.546875 0l0 5.953125q0 1.03125 0.046875 1.625q0.046875 0.578125 0.328125 1.078125q0.25 0.46875 0.703125 0.6875q0.453125 0.21875 1.375 0.21875q0.546875 0 1.125 -0.15625q0.59375 -0.171875 0.84375 -0.265625l0.125 0l0 1.96875zm13.597656 0.125l-2.203125 0l0 -7.453125q0 -0.90625 -0.109375 -1.6875q-0.09375 -0.796875 -0.375 -1.25q-0.296875 -0.484375 -0.84375 -0.71875q-0.546875 -0.25 -1.4375 -0.25q-0.890625 0 -1.875 0.453125q-0.984375 0.4375 -1.890625 1.125l0 9.78125l-2.203125 0l0 -18.234375l2.203125 0l0 6.59375q1.03125 -0.859375 2.125 -1.328125q1.109375 -0.484375 2.265625 -0.484375q2.125 0 3.234375 1.28125q1.109375 1.265625 1.109375 3.671875l0 8.5zm6.609375 -15.28125l-2.484375 0l0 -2.28125l2.484375 0l0 2.28125zm-0.140625 15.28125l-2.203125 0l0 -13.09375l2.203125 0l0 13.09375zm15.3046875 0l-2.203125 0l0 -7.453125q0 -0.90625 -0.109375 -1.6875q-0.09375 -0.796875 -0.375 -1.25q-0.296875 -0.484375 -0.84375 -0.71875q-0.546875 -0.25 -1.4375 -0.25q-0.890625 0 -1.875 0.453125q-0.984375 0.4375 -1.890625 1.125l0 9.78125l-2.203125 0l0 -13.09375l2.203125 0l0 1.453125q1.03125 -0.859375 2.125 -1.328125q1.109375 -0.484375 2.265625 -0.484375q2.125 0 3.234375 1.28125q1.109375 1.265625 1.109375 3.671875l0 8.5zm11.25 4.828125l-2.671875 0q-2.078125 -2.375 -3.234375 -5.1875q-1.140625 -2.8125 -1.140625 -6.34375q0 -3.53125 1.140625 -6.34375q1.15625 -2.8125 3.234375 -5.1875l2.671875 0l0 0.109375q-0.9375 0.859375 -1.8125 1.984375q-0.859375 1.109375 -1.59375 2.609375q-0.703125 1.4375 -1.140625 3.171875q-0.4375 1.734375 -0.4375 3.65625q0 2.0 0.421875 3.671875q0.4375 1.65625 1.15625 3.15625q0.703125 1.453125 1.609375 2.609375q0.90625 1.171875 1.796875 1.984375l0 0.109375zm17.226562 -10.203125q0 1.3125 -0.5 2.3125q-0.484375 0.984375 -1.3125 1.625q-0.984375 0.78125 -2.171875 1.109375q-1.171875 0.328125 -2.984375 0.328125l-6.1875 0l0 -17.453125l5.171875 0q1.90625 0 2.859375 0.140625q0.953125 0.140625 1.8125 0.59375q0.96875 0.5 1.390625 1.296875q0.4375 0.78125 0.4375 1.890625q0 1.234375 -0.640625 2.109375q-0.625 0.875 -1.671875 1.40625l0 0.09375q1.765625 0.359375 2.78125 1.546875q1.015625 1.1875 1.015625 3.0zm-3.890625 -7.859375q0 -0.625 -0.21875 -1.0625q-0.203125 -0.4375 -0.671875 -0.703125q-0.5625 -0.3125 -1.34375 -0.390625q-0.78125 -0.078125 -1.9375 -0.078125l-2.765625 0l0 5.03125l3.0 0q1.078125 0 1.71875 -0.109375q0.65625 -0.109375 1.203125 -0.453125q0.546875 -0.359375 0.78125 -0.90625q0.234375 -0.5625 0.234375 -1.328125zm1.484375 7.953125q0 -1.046875 -0.328125 -1.671875q-0.3125 -0.625 -1.140625 -1.046875q-0.5625 -0.296875 -1.375 -0.375q-0.796875 -0.09375 -1.9375 -0.09375l-3.640625 0l0 6.484375l3.0625 0q1.53125 0 2.5 -0.15625q0.96875 -0.15625 1.59375 -0.578125q0.65625 -0.453125 0.953125 -1.03125q0.3125 -0.59375 0.3125 -1.53125zm10.09375 1.9375l-3.296875 7.6875l-1.71875 0l2.046875 -7.6875l2.96875 0zm18.105469 3.34375l-2.484375 0l-1.703125 -4.859375l-7.546875 0l-1.71875 4.859375l-2.34375 0l6.34375 -17.453125l3.09375 0l6.359375 17.453125zm-4.90625 -6.859375l-3.0625 -8.5625l-3.0625 8.5625l6.125 0zm13.984375 0.15625q0 3.53125 -1.15625 6.34375q-1.140625 2.8125 -3.21875 5.1875l-2.6875 0l0 -0.109375q0.90625 -0.8125 1.8125 -1.984375q0.90625 -1.15625 1.609375 -2.609375q0.71875 -1.5 1.140625 -3.15625q0.4375 -1.671875 0.4375 -3.671875q0 -1.921875 -0.4375 -3.65625q-0.4375 -1.734375 -1.140625 -3.171875q-0.75 -1.5 -1.609375 -2.609375q-0.859375 -1.125 -1.8125 -1.984375l0 -0.109375l2.6875 0q2.078125 2.375 3.21875 5.1875q1.15625 2.8125 1.15625 6.34375z" fill-rule="nonzero"/><path fill="#000000" fill-opacity="0.0" d="m500.72702 358.3517l211.2756 0l0 49.417328l-211.2756 0z" fill-rule="evenodd"/><path fill="#000000" d="m528.4195 386.61044q0 1.796875 -1.484375 2.953125q-1.46875 1.140625 -4.046875 1.140625q-1.453125 0 -2.671875 -0.34375q-1.203125 -0.34375 -2.015625 -0.75l0 -2.484375l0.109375 0q1.046875 0.796875 2.3125 1.265625q1.28125 0.453125 2.453125 0.453125q1.453125 0 2.265625 -0.46875q0.828125 -0.46875 0.828125 -1.484375q0 -0.765625 -0.4375 -1.171875q-0.453125 -0.390625 -1.71875 -0.671875q-0.46875 -0.109375 -1.21875 -0.25q-0.75 -0.140625 -1.375 -0.296875q-1.71875 -0.46875 -2.453125 -1.34375q-0.71875 -0.890625 -0.71875 -2.171875q0 -0.8125 0.328125 -1.53125q0.34375 -0.71875 1.03125 -1.28125q0.65625 -0.546875 1.65625 -0.859375q1.015625 -0.328125 2.28125 -0.328125q1.171875 0 2.359375 0.296875q1.203125 0.28125 2.0 0.6875l0 2.359375l-0.109375 0q-0.84375 -0.625 -2.0625 -1.046875q-1.203125 -0.4375 -2.359375 -0.4375q-1.203125 0 -2.046875 0.46875q-0.828125 0.453125 -0.828125 1.375q0 0.8125 0.515625 1.21875q0.484375 0.40625 1.59375 0.671875q0.609375 0.140625 1.359375 0.28125q0.75 0.140625 1.265625 0.25q1.53125 0.359375 2.359375 1.203125q0.828125 0.875 0.828125 2.296875zm9.957031 3.65625q-0.625 0.171875 -1.359375 0.28125q-0.734375 0.109375 -1.296875 0.109375q-2.015625 0 -3.0625 -1.078125q-1.03125 -1.09375 -1.03125 -3.46875l0 -6.953125l-1.484375 0l0 -1.859375l1.484375 0l0 -3.765625l2.203125 0l0 3.765625l4.546875 0l0 1.859375l-4.546875 0l0 5.953125q0 1.03125 0.046875 1.625q0.046875 0.578125 0.328125 1.078125q0.25 0.46875 0.703125 0.6875q0.453125 0.21875 1.375 0.21875q0.546875 0 1.125 -0.15625q0.59375 -0.171875 0.84375 -0.265625l0.125 0l0 1.96875zm15.800781 3.640625l-15.359375 0l0 -1.40625l15.359375 0l0 1.40625zm11.7890625 -4.34375q-1.09375 0.53125 -2.09375 0.828125q-0.984375 0.296875 -2.09375 0.296875q-1.421875 0 -2.609375 -0.421875q-1.171875 -0.421875 -2.015625 -1.265625q-0.859375 -0.84375 -1.328125 -2.125q-0.46875 -1.296875 -0.46875 -3.015625q0 -3.203125 1.765625 -5.03125q1.765625 -1.828125 4.65625 -1.828125q1.125 0 2.203125 0.3125q1.09375 0.3125 1.984375 0.765625l0 2.453125l-0.109375 0q-1.015625 -0.78125 -2.09375 -1.203125q-1.0625 -0.421875 -2.078125 -0.421875q-1.875 0 -2.96875 1.265625q-1.078125 1.25 -1.078125 3.6875q0 2.375 1.0625 3.640625q1.0625 1.265625 2.984375 1.265625q0.671875 0 1.359375 -0.171875q0.6875 -0.171875 1.234375 -0.453125q0.484375 -0.25 0.90625 -0.515625q0.421875 -0.28125 0.671875 -0.484375l0.109375 0l0 2.421875zm13.988281 -5.71875q0 3.203125 -1.640625 5.0625q-1.640625 1.84375 -4.390625 1.84375q-2.78125 0 -4.421875 -1.84375q-1.625 -1.859375 -1.625 -5.0625q0 -3.1875 1.625 -5.046875q1.640625 -1.859375 4.421875 -1.859375q2.75 0 4.390625 1.859375q1.640625 1.859375 1.640625 5.046875zm-2.28125 0q0 -2.53125 -1.0 -3.765625q-0.984375 -1.25 -2.75 -1.25q-1.796875 0 -2.796875 1.25q-0.984375 1.234375 -0.984375 3.765625q0 2.46875 1.0 3.75q1.0 1.265625 2.78125 1.265625q1.75 0 2.75 -1.265625q1.0 -1.265625 1.0 -3.75zm17.003906 -6.546875l-5.296875 13.09375l-2.203125 0l-5.265625 -13.09375l2.390625 0l4.046875 10.421875l4.03125 -10.421875l2.296875 0zm13.84375 6.78125l-9.640625 0q0 1.203125 0.359375 2.109375q0.359375 0.890625 1.0 1.453125q0.609375 0.5625 1.4375 0.84375q0.84375 0.28125 1.859375 0.28125q1.328125 0 2.671875 -0.53125q1.359375 -0.53125 1.9375 -1.046875l0.125 0l0 2.40625q-1.125 0.46875 -2.28125 0.796875q-1.15625 0.3125 -2.4375 0.3125q-3.25 0 -5.078125 -1.765625q-1.828125 -1.765625 -1.828125 -5.015625q0 -3.21875 1.75 -5.09375q1.75 -1.890625 4.609375 -1.890625q2.640625 0 4.078125 1.546875q1.4375 1.546875 1.4375 4.390625l0 1.203125zm-2.140625 -1.6875q-0.015625 -1.734375 -0.875 -2.6875q-0.859375 -0.953125 -2.625 -0.953125q-1.765625 0 -2.8125 1.046875q-1.046875 1.046875 -1.1875 2.59375l7.5 0zm13.65625 -2.6875l-0.125 0q-0.484375 -0.125 -0.953125 -0.171875q-0.46875 -0.046875 -1.09375 -0.046875q-1.015625 0 -1.96875 0.453125q-0.953125 0.4375 -1.828125 1.15625l0 9.296875l-2.203125 0l0 -13.09375l2.203125 0l0 1.9375q1.3125 -1.0625 2.3125 -1.5q1.0 -0.4375 2.046875 -0.4375q0.578125 0 0.828125 0.03125q0.265625 0.03125 0.78125 0.109375l0 2.265625zm11.4140625 6.90625q0 1.796875 -1.484375 2.953125q-1.46875 1.140625 -4.046875 1.140625q-1.453125 0 -2.671875 -0.34375q-1.203125 -0.34375 -2.015625 -0.75l0 -2.484375l0.109375 0q1.046875 0.796875 2.3125 1.265625q1.28125 0.453125 2.453125 0.453125q1.453125 0 2.265625 -0.46875q0.828125 -0.46875 0.828125 -1.484375q0 -0.765625 -0.4375 -1.171875q-0.453125 -0.390625 -1.71875 -0.671875q-0.46875 -0.109375 -1.21875 -0.25q-0.75 -0.140625 -1.375 -0.296875q-1.71875 -0.46875 -2.453125 -1.34375q-0.71875 -0.890625 -0.71875 -2.171875q0 -0.8125 0.328125 -1.53125q0.34375 -0.71875 1.03125 -1.28125q0.65625 -0.546875 1.65625 -0.859375q1.015625 -0.328125 2.28125 -0.328125q1.171875 0 2.359375 0.296875q1.203125 0.28125 2.0 0.6875l0 2.359375l-0.109375 0q-0.84375 -0.625 -2.0625 -1.046875q-1.203125 -0.4375 -2.359375 -0.4375q-1.203125 0 -2.046875 0.46875q-0.828125 0.453125 -0.828125 1.375q0 0.8125 0.515625 1.21875q0.484375 0.40625 1.59375 0.671875q0.609375 0.140625 1.359375 0.28125q0.75 0.140625 1.265625 0.25q1.53125 0.359375 2.359375 1.203125q0.828125 0.875 0.828125 2.296875zm10.160156 8.609375l-2.671875 0q-2.078125 -2.375 -3.234375 -5.1875q-1.140625 -2.8125 -1.140625 -6.34375q0 -3.53125 1.140625 -6.34375q1.15625 -2.8125 3.234375 -5.1875l2.671875 0l0 0.109375q-0.9375 0.859375 -1.8125 1.984375q-0.859375 1.109375 -1.59375 2.609375q-0.703125 1.4375 -1.140625 3.171875q-0.4375 1.734375 -0.4375 3.65625q0 2.0 0.421875 3.671875q0.4375 1.65625 1.15625 3.15625q0.703125 1.453125 1.609375 2.609375q0.90625 1.171875 1.796875 1.984375l0 0.109375zm17.226562 -10.203125q0 1.3125 -0.5 2.3125q-0.484375 0.984375 -1.3125 1.625q-0.984375 0.78125 -2.171875 1.109375q-1.171875 0.328125 -2.984375 0.328125l-6.1875 0l0 -17.453125l5.171875 0q1.90625 0 2.859375 0.140625q0.953125 0.140625 1.8125 0.59375q0.96875 0.5 1.390625 1.296875q0.4375 0.78125 0.4375 1.890625q0 1.234375 -0.640625 2.109375q-0.625 0.875 -1.671875 1.40625l0 0.09375q1.765625 0.359375 2.78125 1.546875q1.015625 1.1875 1.015625 3.0zm-3.890625 -7.859375q0 -0.625 -0.21875 -1.0625q-0.203125 -0.4375 -0.671875 -0.703125q-0.5625 -0.3125 -1.34375 -0.390625q-0.78125 -0.078125 -1.9375 -0.078125l-2.765625 0l0 5.03125l3.0 0q1.078125 0 1.71875 -0.109375q0.65625 -0.109375 1.203125 -0.453125q0.546875 -0.359375 0.78125 -0.90625q0.234375 -0.5625 0.234375 -1.328125zm1.484375 7.953125q0 -1.046875 -0.328125 -1.671875q-0.3125 -0.625 -1.140625 -1.046875q-0.5625 -0.296875 -1.375 -0.375q-0.796875 -0.09375 -1.9375 -0.09375l-3.640625 0l0 6.484375l3.0625 0q1.53125 0 2.5 -0.15625q0.96875 -0.15625 1.59375 -0.578125q0.65625 -0.453125 0.953125 -1.03125q0.3125 -0.59375 0.3125 -1.53125zm10.09375 1.9375l-3.296875 7.6875l-1.71875 0l2.046875 -7.6875l2.96875 0zm18.105469 3.34375l-2.484375 0l-1.703125 -4.859375l-7.546875 0l-1.71875 4.859375l-2.34375 0l6.34375 -17.453125l3.09375 0l6.359375 17.453125zm-4.90625 -6.859375l-3.0625 -8.5625l-3.0625 8.5625l6.125 0zm13.984375 0.15625q0 3.53125 -1.15625 6.34375q-1.140625 2.8125 -3.21875 5.1875l-2.6875 0l0 -0.109375q0.90625 -0.8125 1.8125 -1.984375q0.90625 -1.15625 1.609375 -2.609375q0.71875 -1.5 1.140625 -3.15625q0.4375 -1.671875 0.4375 -3.671875q0 -1.921875 -0.4375 -3.65625q-0.4375 -1.734375 -1.140625 -3.171875q-0.75 -1.5 -1.609375 -2.609375q-0.859375 -1.125 -1.8125 -1.984375l0 -0.109375l2.6875 0q2.078125 2.375 3.21875 5.1875q1.15625 2.8125 1.15625 6.34375z" fill-rule="nonzero"/><path fill="#000000" fill-opacity="0.0" d="m707.05774 358.3517l252.94489 0l0 49.417328l-252.94489 0z" fill-rule="evenodd"/><path fill="#000000" d="m732.2587 386.61044q0 1.796875 -1.484375 2.953125q-1.46875 1.140625 -4.046875 1.140625q-1.453125 0 -2.671875 -0.34375q-1.203125 -0.34375 -2.015625 -0.75l0 -2.484375l0.109375 0q1.046875 0.796875 2.3125 1.265625q1.28125 0.453125 2.453125 0.453125q1.453125 0 2.265625 -0.46875q0.828125 -0.46875 0.828125 -1.484375q0 -0.765625 -0.4375 -1.171875q-0.453125 -0.390625 -1.71875 -0.671875q-0.46875 -0.109375 -1.21875 -0.25q-0.75 -0.140625 -1.375 -0.296875q-1.71875 -0.46875 -2.453125 -1.34375q-0.71875 -0.890625 -0.71875 -2.171875q0 -0.8125 0.328125 -1.53125q0.34375 -0.71875 1.03125 -1.28125q0.65625 -0.546875 1.65625 -0.859375q1.015625 -0.328125 2.28125 -0.328125q1.171875 0 2.359375 0.296875q1.203125 0.28125 2.0 0.6875l0 2.359375l-0.109375 0q-0.84375 -0.625 -2.0625 -1.046875q-1.203125 -0.4375 -2.359375 -0.4375q-1.203125 0 -2.046875 0.46875q-0.828125 0.453125 -0.828125 1.375q0 0.8125 0.515625 1.21875q0.484375 0.40625 1.59375 0.671875q0.609375 0.140625 1.359375 0.28125q0.75 0.140625 1.265625 0.25q1.53125 0.359375 2.359375 1.203125q0.828125 0.875 0.828125 2.296875zm9.957031 3.65625q-0.625 0.171875 -1.359375 0.28125q-0.734375 0.109375 -1.296875 0.109375q-2.015625 0 -3.0625 -1.078125q-1.03125 -1.09375 -1.03125 -3.46875l0 -6.953125l-1.484375 0l0 -1.859375l1.484375 0l0 -3.765625l2.203125 0l0 3.765625l4.546875 0l0 1.859375l-4.546875 0l0 5.953125q0 1.03125 0.046875 1.625q0.046875 0.578125 0.328125 1.078125q0.25 0.46875 0.703125 0.6875q0.453125 0.21875 1.375 0.21875q0.546875 0 1.125 -0.15625q0.59375 -0.171875 0.84375 -0.265625l0.125 0l0 1.96875zm15.800781 3.640625l-15.359375 0l0 -1.40625l15.359375 0l0 1.40625zm11.7890625 -4.34375q-1.09375 0.53125 -2.09375 0.828125q-0.984375 0.296875 -2.09375 0.296875q-1.421875 0 -2.609375 -0.421875q-1.171875 -0.421875 -2.015625 -1.265625q-0.859375 -0.84375 -1.328125 -2.125q-0.46875 -1.296875 -0.46875 -3.015625q0 -3.203125 1.765625 -5.03125q1.765625 -1.828125 4.65625 -1.828125q1.125 0 2.203125 0.3125q1.09375 0.3125 1.984375 0.765625l0 2.453125l-0.109375 0q-1.015625 -0.78125 -2.09375 -1.203125q-1.0625 -0.421875 -2.078125 -0.421875q-1.875 0 -2.96875 1.265625q-1.078125 1.25 -1.078125 3.6875q0 2.375 1.0625 3.640625q1.0625 1.265625 2.984375 1.265625q0.671875 0 1.359375 -0.171875q0.6875 -0.171875 1.234375 -0.453125q0.484375 -0.25 0.90625 -0.515625q0.421875 -0.28125 0.671875 -0.484375l0.109375 0l0 2.421875zm13.988281 -5.71875q0 3.203125 -1.640625 5.0625q-1.640625 1.84375 -4.390625 1.84375q-2.78125 0 -4.421875 -1.84375q-1.625 -1.859375 -1.625 -5.0625q0 -3.1875 1.625 -5.046875q1.640625 -1.859375 4.421875 -1.859375q2.75 0 4.390625 1.859375q1.640625 1.859375 1.640625 5.046875zm-2.28125 0q0 -2.53125 -1.0 -3.765625q-0.984375 -1.25 -2.75 -1.25q-1.796875 0 -2.796875 1.25q-0.984375 1.234375 -0.984375 3.765625q0 2.46875 1.0 3.75q1.0 1.265625 2.78125 1.265625q1.75 0 2.75 -1.265625q1.0 -1.265625 1.0 -3.75zm17.207031 -0.09375q0 1.640625 -0.46875 2.953125q-0.453125 1.3125 -1.234375 2.203125q-0.84375 0.921875 -1.84375 1.390625q-0.984375 0.453125 -2.1875 0.453125q-1.109375 0 -1.9375 -0.265625q-0.828125 -0.265625 -1.640625 -0.703125l-0.140625 0.609375l-2.0625 0l0 -18.234375l2.203125 0l0 6.515625q0.921875 -0.765625 1.96875 -1.25q1.046875 -0.484375 2.34375 -0.484375q2.3125 0 3.65625 1.78125q1.34375 1.78125 1.34375 5.03125zm-2.265625 0.046875q0 -2.34375 -0.78125 -3.546875q-0.765625 -1.21875 -2.5 -1.21875q-0.953125 0 -1.9375 0.421875q-0.984375 0.40625 -1.828125 1.0625l0 7.5q0.9375 0.421875 1.609375 0.59375q0.671875 0.15625 1.53125 0.15625q1.828125 0 2.859375 -1.1875q1.046875 -1.203125 1.046875 -3.78125zm16.65625 0.28125l-9.640625 0q0 1.203125 0.359375 2.109375q0.359375 0.890625 1.0 1.453125q0.609375 0.5625 1.4375 0.84375q0.84375 0.28125 1.859375 0.28125q1.328125 0 2.671875 -0.53125q1.359375 -0.53125 1.9375 -1.046875l0.125 0l0 2.40625q-1.125 0.46875 -2.28125 0.796875q-1.15625 0.3125 -2.4375 0.3125q-3.25 0 -5.078125 -1.765625q-1.828125 -1.765625 -1.828125 -5.015625q0 -3.21875 1.75 -5.09375q1.75 -1.890625 4.609375 -1.890625q2.640625 0 4.078125 1.546875q1.4375 1.546875 1.4375 4.390625l0 1.203125zm-2.140625 -1.6875q-0.015625 -1.734375 -0.875 -2.6875q-0.859375 -0.953125 -2.625 -0.953125q-1.765625 0 -2.8125 1.046875q-1.046875 1.046875 -1.1875 2.59375l7.5 0zm13.65625 -2.6875l-0.125 0q-0.484375 -0.125 -0.953125 -0.171875q-0.46875 -0.046875 -1.09375 -0.046875q-1.015625 0 -1.96875 0.453125q-0.953125 0.4375 -1.828125 1.15625l0 9.296875l-2.203125 0l0 -13.09375l2.203125 0l0 1.9375q1.3125 -1.0625 2.3125 -1.5q1.0 -0.4375 2.046875 -0.4375q0.578125 0 0.828125 0.03125q0.265625 0.03125 0.78125 0.109375l0 2.265625zm13.0234375 4.375l-9.640625 0q0 1.203125 0.359375 2.109375q0.359375 0.890625 1.0 1.453125q0.609375 0.5625 1.4375 0.84375q0.84375 0.28125 1.859375 0.28125q1.328125 0 2.671875 -0.53125q1.359375 -0.53125 1.9375 -1.046875l0.125 0l0 2.40625q-1.125 0.46875 -2.28125 0.796875q-1.15625 0.3125 -2.4375 0.3125q-3.25 0 -5.078125 -1.765625q-1.828125 -1.765625 -1.828125 -5.015625q0 -3.21875 1.75 -5.09375q1.75 -1.890625 4.609375 -1.890625q2.640625 0 4.078125 1.546875q1.4375 1.546875 1.4375 4.390625l0 1.203125zm-2.140625 -1.6875q-0.015625 -1.734375 -0.875 -2.6875q-0.859375 -0.953125 -2.625 -0.953125q-1.765625 0 -2.8125 1.046875q-1.046875 1.046875 -1.1875 2.59375l7.5 0zm16.09375 8.0l-2.203125 0l0 -1.375q-0.9375 0.828125 -1.96875 1.28125q-1.03125 0.453125 -2.25 0.453125q-2.34375 0 -3.71875 -1.796875q-1.375 -1.8125 -1.375 -5.015625q0 -1.65625 0.46875 -2.953125q0.484375 -1.3125 1.296875 -2.21875q0.796875 -0.890625 1.84375 -1.359375q1.0625 -0.46875 2.203125 -0.46875q1.03125 0 1.828125 0.21875q0.796875 0.21875 1.671875 0.671875l0 -5.671875l2.203125 0l0 18.234375zm-2.203125 -3.21875l0 -7.515625q-0.890625 -0.40625 -1.59375 -0.546875q-0.703125 -0.15625 -1.53125 -0.15625q-1.84375 0 -2.875 1.296875q-1.03125 1.28125 -1.03125 3.640625q0 2.34375 0.796875 3.5625q0.796875 1.203125 2.546875 1.203125q0.9375 0 1.890625 -0.40625q0.96875 -0.421875 1.796875 -1.078125zm18.0625 -3.421875q0 1.640625 -0.46875 2.953125q-0.453125 1.3125 -1.234375 2.203125q-0.84375 0.921875 -1.84375 1.390625q-0.984375 0.453125 -2.1875 0.453125q-1.109375 0 -1.9375 -0.265625q-0.828125 -0.265625 -1.640625 -0.703125l-0.140625 0.609375l-2.0625 0l0 -18.234375l2.203125 0l0 6.515625q0.921875 -0.765625 1.96875 -1.25q1.046875 -0.484375 2.34375 -0.484375q2.3125 0 3.65625 1.78125q1.34375 1.78125 1.34375 5.03125zm-2.265625 0.046875q0 -2.34375 -0.78125 -3.546875q-0.765625 -1.21875 -2.5 -1.21875q-0.953125 0 -1.9375 0.421875q-0.984375 0.40625 -1.828125 1.0625l0 7.5q0.9375 0.421875 1.609375 0.59375q0.671875 0.15625 1.53125 0.15625q1.828125 0 2.859375 -1.1875q1.046875 -1.203125 1.046875 -3.78125zm17.015625 -6.5l-7.640625 17.921875l-2.34375 0l2.4375 -5.46875l-5.21875 -12.453125l2.390625 0l4.015625 9.703125l4.0625 -9.703125l2.296875 0zm9.890625 17.921875l-2.671875 0q-2.078125 -2.375 -3.234375 -5.1875q-1.140625 -2.8125 -1.140625 -6.34375q0 -3.53125 1.140625 -6.34375q1.15625 -2.8125 3.234375 -5.1875l2.671875 0l0 0.109375q-0.9375 0.859375 -1.8125 1.984375q-0.859375 1.109375 -1.59375 2.609375q-0.703125 1.4375 -1.140625 3.171875q-0.4375 1.734375 -0.4375 3.65625q0 2.0 0.421875 3.671875q0.4375 1.65625 1.15625 3.15625q0.703125 1.453125 1.609375 2.609375q0.90625 1.171875 1.796875 1.984375l0 0.109375zm17.226562 -10.203125q0 1.3125 -0.5 2.3125q-0.484375 0.984375 -1.3125 1.625q-0.984375 0.78125 -2.171875 1.109375q-1.171875 0.328125 -2.984375 0.328125l-6.1875 0l0 -17.453125l5.171875 0q1.90625 0 2.859375 0.140625q0.953125 0.140625 1.8125 0.59375q0.96875 0.5 1.390625 1.296875q0.4375 0.78125 0.4375 1.890625q0 1.234375 -0.640625 2.109375q-0.625 0.875 -1.671875 1.40625l0 0.09375q1.765625 0.359375 2.78125 1.546875q1.015625 1.1875 1.015625 3.0zm-3.890625 -7.859375q0 -0.625 -0.21875 -1.0625q-0.203125 -0.4375 -0.671875 -0.703125q-0.5625 -0.3125 -1.34375 -0.390625q-0.78125 -0.078125 -1.9375 -0.078125l-2.765625 0l0 5.03125l3.0 0q1.078125 0 1.71875 -0.109375q0.65625 -0.109375 1.203125 -0.453125q0.546875 -0.359375 0.78125 -0.90625q0.234375 -0.5625 0.234375 -1.328125zm1.484375 7.953125q0 -1.046875 -0.328125 -1.671875q-0.3125 -0.625 -1.140625 -1.046875q-0.5625 -0.296875 -1.375 -0.375q-0.796875 -0.09375 -1.9375 -0.09375l-3.640625 0l0 6.484375l3.0625 0q1.53125 0 2.5 -0.15625q0.96875 -0.15625 1.59375 -0.578125q0.65625 -0.453125 0.953125 -1.03125q0.3125 -0.59375 0.3125 -1.53125zm10.09375 1.9375l-3.296875 7.6875l-1.71875 0l2.046875 -7.6875l2.96875 0zm18.105469 3.34375l-2.484375 0l-1.703125 -4.859375l-7.546875 0l-1.71875 4.859375l-2.34375 0l6.34375 -17.453125l3.09375 0l6.359375 17.453125zm-4.90625 -6.859375l-3.0625 -8.5625l-3.0625 8.5625l6.125 0zm13.984375 0.15625q0 3.53125 -1.15625 6.34375q-1.140625 2.8125 -3.21875 5.1875l-2.6875 0l0 -0.109375q0.90625 -0.8125 1.8125 -1.984375q0.90625 -1.15625 1.609375 -2.609375q0.71875 -1.5 1.140625 -3.15625q0.4375 -1.671875 0.4375 -3.671875q0 -1.921875 -0.4375 -3.65625q-0.4375 -1.734375 -1.140625 -3.171875q-0.75 -1.5 -1.609375 -2.609375q-0.859375 -1.125 -1.8125 -1.984375l0 -0.109375l2.6875 0q2.078125 2.375 3.21875 5.1875q1.15625 2.8125 1.15625 6.34375z" fill-rule="nonzero"/><path fill="#ffffff" d="m333.83203 301.87927l0 0c0 -24.039612 19.487946 -43.527557 43.527557 -43.527557l0 0c11.54422 0 22.615631 4.585907 30.778625 12.748932c8.162994 8.162994 12.748932 19.234406 12.748932 30.778625l0 0c0 24.039612 -19.487946 43.527557 -43.527557 43.527557l0 0c-24.039612 0 -43.527557 -19.487946 -43.527557 -43.527557z" fill-rule="evenodd"/><path stroke="#666666" stroke-width="3.0" stroke-linejoin="round" stroke-linecap="butt" d="m333.83203 301.87927l0 0c0 -24.039612 19.487946 -43.527557 43.527557 -43.527557l0 0c11.54422 0 22.615631 4.585907 30.778625 12.748932c8.162994 8.162994 12.748932 19.234406 12.748932 30.778625l0 0c0 24.039612 -19.487946 43.527557 -43.527557 43.527557l0 0c-24.039612 0 -43.527557 -19.487946 -43.527557 -43.527557z" fill-rule="evenodd"/><path fill="#666666" d="m387.0627 306.44302q0 1.734375 -0.65625 3.0625q-0.65625 1.328125 -1.765625 2.1875q-1.3125 1.03125 -2.890625 1.46875q-1.5625 0.4375 -3.984375 0.4375l-8.25 0l0 -23.265625l6.890625 0q2.546875 0 3.8125 0.1875q1.265625 0.1875 2.421875 0.78125q1.28125 0.671875 1.859375 1.734375q0.578125 1.046875 0.578125 2.515625q0 1.65625 -0.84375 2.828125q-0.84375 1.15625 -2.25 1.859375l0 0.125q2.359375 0.484375 3.71875 2.078125q1.359375 1.578125 1.359375 4.0zm-5.203125 -10.484375q0 -0.84375 -0.28125 -1.421875q-0.28125 -0.578125 -0.90625 -0.9375q-0.734375 -0.421875 -1.78125 -0.515625q-1.046875 -0.109375 -2.59375 -0.109375l-3.6875 0l0 6.71875l4.0 0q1.453125 0 2.3125 -0.140625q0.859375 -0.15625 1.59375 -0.625q0.734375 -0.46875 1.03125 -1.203125q0.3125 -0.75 0.3125 -1.765625zm1.984375 10.609375q0 -1.40625 -0.421875 -2.234375q-0.421875 -0.828125 -1.53125 -1.40625q-0.75 -0.390625 -1.828125 -0.5q-1.0625 -0.125 -2.59375 -0.125l-4.859375 0l0 8.65625l4.09375 0q2.03125 0 3.328125 -0.203125q1.296875 -0.21875 2.125 -0.78125q0.875 -0.609375 1.28125 -1.390625q0.40625 -0.78125 0.40625 -2.015625z" fill-rule="nonzero"/><path fill="#ffffff" d="m351.24933 301.87927l0 0c0 -14.420288 11.689972 -26.11023 26.11026 -26.11023l0 0c6.9248657 0 13.566101 2.750885 18.462708 7.6474915c4.896637 4.896637 7.647522 11.537872 7.647522 18.462738l0 0c0 14.420288 -11.689941 26.11023 -26.11023 26.11023l0 0c-14.420288 0 -26.11026 -11.689941 -26.11026 -26.11023z" fill-rule="evenodd"/><path stroke="#666666" stroke-width="3.0" stroke-linejoin="round" stroke-linecap="butt" d="m351.24933 301.87927l0 0c0 -14.420288 11.689972 -26.11023 26.11026 -26.11023l0 0c6.9248657 0 13.566101 2.750885 18.462708 7.6474915c4.896637 4.896637 7.647522 11.537872 7.647522 18.462738l0 0c0 14.420288 -11.689941 26.11023 -26.11023 26.11023l0 0c-14.420288 0 -26.11026 -11.689941 -26.11026 -26.11023z" fill-rule="evenodd"/><path fill="#666666" d="m385.26584 310.41925l-2.484375 0l-1.703125 -4.859375l-7.546875 0l-1.71875 4.859375l-2.34375 0l6.34375 -17.453125l3.09375 0l6.359375 17.453125zm-4.90625 -6.859375l-3.0625 -8.5625l-3.0625 8.5625l6.125 0z" fill-rule="nonzero"/><path fill="#efefef" d="m785.6457 301.87927l0 0c0 -14.420288 11.689941 -26.11023 26.11023 -26.11023l0 0c6.9248657 0 13.566101 2.750885 18.462708 7.6474915c4.8966064 4.896637 7.647522 11.537872 7.647522 18.462738l0 0c0 14.420288 -11.689941 26.11023 -26.11023 26.11023l0 0c-14.420288 0 -26.11023 -11.689941 -26.11023 -26.11023z" fill-rule="evenodd"/><path stroke="#666666" stroke-width="3.0" stroke-linejoin="round" stroke-linecap="butt" d="m785.6457 301.87927l0 0c0 -14.420288 11.689941 -26.11023 26.11023 -26.11023l0 0c6.9248657 0 13.566101 2.750885 18.462708 7.6474915c4.8966064 4.896637 7.647522 11.537872 7.647522 18.462738l0 0c0 14.420288 -11.689941 26.11023 -26.11023 26.11023l0 0c-14.420288 0 -26.11023 -11.689941 -26.11023 -26.11023z" fill-rule="evenodd"/><path fill="#666666" d="m819.02936 305.04425q0 1.3125 -0.5 2.3125q-0.484375 0.984375 -1.3125 1.625q-0.984375 0.78125 -2.171875 1.109375q-1.171875 0.328125 -2.984375 0.328125l-6.1875 0l0 -17.453125l5.171875 0q1.90625 0 2.859375 0.140625q0.953125 0.140625 1.8125 0.59375q0.96875 0.5 1.390625 1.296875q0.4375 0.78125 0.4375 1.890625q0 1.234375 -0.640625 2.109375q-0.625 0.875 -1.671875 1.40625l0 0.09375q1.765625 0.359375 2.78125 1.546875q1.015625 1.1875 1.015625 3.0zm-3.890625 -7.859375q0 -0.625 -0.21875 -1.0625q-0.203125 -0.4375 -0.671875 -0.703125q-0.5625 -0.3125 -1.34375 -0.390625q-0.78125 -0.078125 -1.9375 -0.078125l-2.765625 0l0 5.03125l3.0 0q1.078125 0 1.71875 -0.109375q0.65625 -0.109375 1.203125 -0.453125q0.546875 -0.359375 0.78125 -0.90625q0.234375 -0.5625 0.234375 -1.328125zm1.484375 7.953125q0 -1.046875 -0.328125 -1.671875q-0.3125 -0.625 -1.140625 -1.046875q-0.5625 -0.296875 -1.375 -0.375q-0.796875 -0.09375 -1.9375 -0.09375l-3.640625 0l0 6.484375l3.0625 0q1.53125 0 2.5 -0.15625q0.96875 -0.15625 1.59375 -0.578125q0.65625 -0.453125 0.953125 -1.03125q0.3125 -0.59375 0.3125 -1.53125z" fill-rule="nonzero"/></g></svg>