<?xml version="1.0" standalone="no"?>
<!DOCTYPE svg PUBLIC "-//W3C//DTD SVG 20010904//EN"
 "http://www.w3.org/TR/2001/REC-SVG-20010904/DTD/svg10.dtd">
<svg version="1.0" xmlns="http://www.w3.org/2000/svg"
 width="1366.000000pt" height="609.000000pt" viewBox="0 0 1366.000000 609.000000"
 preserveAspectRatio="xMidYMid meet">
<metadata>
Created by potrace 1.15, written by Peter Selinger 2001-2017
</metadata>
<g transform="translate(0.000000,609.000000) scale(0.100000,-0.100000)"
fill="#000000" stroke="none">
<path d="M10200 5990 l-55 -5 -1 -162 c-1 -88 -4 -168 -7 -175 -4 -12 -78 -15
-459 -17 l-453 -2 -16 39 c-39 93 -173 94 -214 1 -10 -21 -23 -40 -29 -42 -6
-2 -114 -5 -241 -7 -126 -1 -257 -3 -290 -5 -33 -1 -289 -5 -570 -9 -280 -3
-644 -9 -807 -11 l-298 -5 -1 97 c0 54 -1 125 -2 157 l-2 60 -320 -3 c-176 -1
-323 -5 -327 -7 -4 -3 -8 -72 -8 -154 0 -82 -4 -151 -8 -154 -11 -7 -175 -14
-487 -21 -143 -3 -291 -8 -328 -10 l-69 -3 -14 33 c-25 61 -91 97 -141 78 -15
-6 -13 -8 11 -13 22 -4 30 -11 31 -28 2 -28 36 -56 47 -39 5 9 12 7 24 -4 11
-11 12 -19 5 -23 -6 -4 -11 -2 -11 5 0 7 -3 10 -6 7 -3 -4 2 -17 11 -31 21
-33 6 -41 -31 -16 -16 10 -26 19 -22 19 9 0 -16 26 -47 50 -16 12 -16 10 3
-14 29 -38 21 -45 -15 -12 -15 14 -31 26 -35 26 -13 0 -9 48 5 53 9 4 9 6 -1
6 -19 1 -52 -60 -52 -99 0 -36 32 -100 50 -100 5 0 0 10 -12 22 -21 21 -21 23
-5 26 26 5 56 -25 50 -49 -5 -16 0 -19 36 -19 46 0 70 18 95 73 l17 34 256 6
c347 9 493 9 493 -2 0 -5 -28 -18 -62 -31 -35 -12 -79 -29 -98 -38 -47 -21
-93 -39 -164 -63 -33 -10 -64 -23 -70 -28 -6 -4 -49 -21 -96 -36 -47 -15 -90
-31 -95 -36 -15 -11 -149 -59 -167 -59 -8 0 -23 9 -34 21 -16 18 -27 20 -78
17 -49 -4 -63 -9 -83 -32 -12 -15 -23 -38 -23 -51 0 -31 -10 -55 -22 -55 -6 0
-24 -6 -41 -14 -18 -8 -102 -40 -187 -71 -85 -31 -178 -67 -206 -80 -69 -32
-80 -32 -147 -7 -63 24 -87 27 -87 13 0 -6 21 -16 46 -23 69 -19 57 -35 -56
-76 -30 -11 -116 -44 -190 -73 -128 -50 -317 -121 -460 -174 -239 -88 -327
-121 -505 -189 -110 -42 -207 -80 -215 -85 -9 -5 -30 -12 -48 -15 l-31 -7 -3
153 -3 153 -305 0 c-168 1 -316 -3 -329 -7 l-24 -9 6 -154 6 -155 -30 -15
c-16 -9 -68 -44 -115 -78 -47 -34 -96 -69 -108 -77 -13 -8 -34 -23 -47 -33
-25 -18 -32 -23 -155 -105 -40 -26 -165 -110 -279 -187 -114 -77 -217 -147
-230 -155 -13 -8 -57 -38 -97 -65 -274 -189 -418 -285 -427 -285 -7 0 -11 27
-12 68 -1 81 -4 112 -13 133 -7 16 5 35 81 131 64 81 128 161 242 309 58 74
108 136 111 139 3 3 19 23 36 45 16 22 49 65 72 95 24 30 49 62 55 70 7 8 46
61 88 116 42 56 85 110 95 121 11 11 46 55 79 98 33 44 75 95 93 116 17 20 32
39 32 43 0 4 28 41 63 84 34 42 82 103 106 136 24 32 50 66 58 75 16 18 68 83
133 166 25 31 60 75 78 97 18 23 37 49 43 59 5 11 16 19 24 19 12 0 15 -25 17
-132 l3 -133 250 -3 c138 -2 283 0 323 3 l72 7 0 124 c0 68 3 124 8 124 9 -1
141 -178 197 -265 22 -35 56 -87 76 -116 19 -30 46 -71 60 -91 210 -318 252
-378 261 -378 14 0 9 16 -23 61 -61 88 -205 302 -223 332 -11 18 -55 83 -98
145 -77 110 -107 162 -77 135 7 -7 17 -13 22 -13 5 0 -12 24 -37 54 -54 62
-57 74 -16 49 17 -9 30 -22 30 -27 0 -5 3 -6 7 -3 3 4 -13 23 -36 43 -51 44
-46 57 9 20 22 -14 40 -22 40 -17 0 6 -21 23 -48 38 -73 44 -24 41 104 -5 60
-22 163 -57 229 -80 66 -22 212 -72 325 -112 113 -39 252 -86 310 -104 58 -18
116 -39 130 -46 50 -27 200 -69 200 -56 0 7 -24 18 -54 25 -29 6 -69 20 -88
30 -19 9 -62 25 -94 35 -32 9 -84 26 -114 37 -30 11 -68 24 -85 29 -16 5 -75
25 -130 45 -55 20 -113 40 -130 45 -16 4 -75 24 -130 44 -55 21 -122 44 -150
53 -27 8 -59 19 -70 24 -11 5 -76 27 -145 50 -139 46 -163 56 -156 68 3 4 265
11 583 15 318 3 641 9 718 11 77 3 264 7 415 10 152 3 279 10 285 16 12 12
-231 11 -585 -1 -272 -9 -1069 -24 -1355 -25 l-160 0 -5 165 -5 165 -313 5
c-173 3 -318 2 -324 -1 -6 -4 -9 -73 -9 -172 1 -138 -1 -170 -14 -184 -20 -23
-127 -164 -140 -185 -5 -9 -48 -62 -95 -118 -47 -56 -97 -119 -113 -139 -15
-20 -34 -44 -43 -54 -13 -16 -144 -187 -271 -356 -24 -31 -54 -69 -69 -86 -41
-49 -195 -248 -213 -275 -8 -14 -18 -27 -21 -30 -9 -9 -103 -125 -145 -180
-22 -29 -62 -81 -90 -115 -27 -35 -68 -86 -90 -115 -93 -121 -172 -215 -181
-215 -5 0 -10 54 -12 120 -1 66 -6 123 -11 128 -9 9 -156 -119 -476 -415 -16
-15 -34 -28 -39 -28 -4 0 -5 -93 -2 -207 3 -115 9 -406 12 -648 3 -242 8 -442
11 -445 2 -3 11 4 19 15 58 79 183 240 252 323 34 41 62 79 62 84 0 23 -26 0
-87 -78 -37 -48 -84 -105 -103 -128 -19 -23 -53 -65 -74 -93 -22 -29 -42 -50
-46 -48 -7 4 -15 276 -26 893 l-6 303 60 57 c32 31 97 91 143 132 45 41 103
93 128 116 25 23 67 60 92 83 25 22 51 41 57 41 6 0 12 -46 14 -122 3 -111 -2
-153 -22 -168 -3 -3 -14 -16 -23 -29 -17 -25 -53 -70 -115 -142 -19 -21 -32
-45 -30 -54 2 -9 32 22 78 81 121 155 120 155 120 11 l-1 -102 -42 -30 c-23
-16 -53 -36 -67 -43 -44 -23 -94 -66 -83 -69 6 -2 31 9 54 25 73 50 216 145
273 182 30 19 89 60 132 90 44 30 147 100 229 155 83 55 152 102 155 105 3 3
138 95 300 203 162 109 340 230 395 268 55 39 109 76 120 84 48 33 50 30 55
-130 l5 -150 300 -3 c165 -1 310 0 323 3 22 5 23 9 22 108 -2 155 -1 177 9
177 5 0 57 -55 117 -122 60 -68 123 -139 140 -158 17 -19 73 -81 123 -138 51
-57 106 -120 124 -139 18 -20 37 -41 42 -47 63 -72 105 -113 105 -103 0 7 -34
50 -76 97 -42 47 -101 114 -133 149 -31 35 -69 78 -86 96 -16 19 -52 59 -80
91 -27 32 -67 76 -88 98 -38 40 -63 76 -52 76 3 0 18 -8 33 -17 l27 -17 -30
33 c-16 18 -43 39 -58 47 -22 12 -27 20 -21 37 9 30 9 30 34 17 12 -6 29 -13
38 -15 9 -2 44 -13 76 -24 33 -12 69 -21 80 -20 23 1 19 2 -74 30 -25 7 -69
23 -99 35 -47 18 -50 22 -30 27 13 4 151 7 306 7 177 0 284 4 288 10 4 7 -104
10 -316 10 -250 0 -320 3 -311 12 6 6 65 31 129 54 65 24 161 59 213 79 142
54 181 68 183 64 1 -2 38 -57 82 -122 92 -136 118 -175 160 -241 17 -26 47
-71 67 -99 56 -79 206 -300 268 -396 21 -32 92 -138 208 -308 40 -59 98 -148
115 -177 11 -17 27 -40 36 -51 10 -11 32 -44 49 -73 31 -51 32 -53 15 -78 -9
-14 -23 -38 -32 -54 -67 -120 -139 -220 -159 -220 -6 0 -28 21 -49 47 -21 26
-47 56 -58 68 -11 11 -47 52 -80 90 -33 37 -73 82 -88 99 -15 16 -49 54 -75
85 -26 30 -63 71 -82 91 -19 20 -53 58 -75 85 -77 95 -245 273 -245 260 0 -5
32 -46 71 -90 40 -44 99 -111 132 -150 33 -38 99 -112 146 -163 46 -51 94
-105 105 -120 12 -15 35 -41 51 -58 55 -56 189 -210 229 -263 12 -14 66 -74
127 -138 19 -21 48 -55 63 -75 24 -33 56 -51 56 -32 0 10 -84 106 -143 163
-31 30 -57 61 -57 68 0 7 16 35 35 62 19 26 35 51 35 55 0 4 17 33 39 64 21
31 46 69 55 85 9 15 23 27 30 27 16 0 65 -66 113 -150 41 -71 92 -131 93 -109
0 9 -7 22 -15 29 -8 7 -15 18 -15 24 0 7 -11 23 -25 36 -14 13 -25 27 -25 31
0 4 -25 44 -55 90 -30 46 -55 86 -55 91 0 4 17 33 39 65 67 100 136 208 140
218 4 12 112 186 124 200 4 6 37 57 72 115 35 58 72 116 82 130 10 14 25 37
32 53 14 27 44 36 56 17 10 -16 93 -12 122 7 23 16 53 67 53 93 0 5 -10 10
-22 11 -13 0 -17 3 -11 6 8 3 3 15 -17 36 -33 35 -38 49 -15 41 8 -4 15 -10
15 -15 0 -5 5 -9 12 -9 6 0 2 10 -10 23 -12 13 -22 27 -22 33 0 9 49 86 70
111 5 7 10 15 10 18 0 3 23 41 51 84 l50 79 247 2 c136 1 265 2 287 3 22 1 42
-2 45 -7 5 -9 -34 -24 -119 -46 -23 -6 -41 -13 -38 -16 5 -5 75 10 144 32 53
16 66 1 18 -22 -19 -9 -38 -20 -41 -25 -3 -5 21 4 52 21 32 16 60 27 62 25 8
-8 -29 -45 -78 -78 -45 -31 -62 -48 -55 -55 2 -3 17 8 33 22 15 15 38 33 49
39 12 7 40 27 62 45 54 44 56 18 3 -41 -21 -23 -49 -58 -62 -77 -14 -19 -65
-82 -115 -140 -49 -58 -101 -119 -115 -137 -61 -77 -148 -181 -182 -218 -20
-22 -47 -53 -59 -70 -13 -16 -53 -64 -89 -107 -36 -42 -103 -122 -149 -177
-61 -74 -89 -100 -100 -95 -35 14 -50 15 -88 5 -30 -8 -44 -20 -61 -50 -22
-39 -22 -74 3 -132 4 -12 -12 -39 -57 -89 -35 -40 -79 -94 -98 -121 -19 -26
-63 -80 -98 -121 -80 -93 -110 -129 -216 -258 -48 -58 -104 -125 -124 -149
-49 -57 -104 -124 -173 -208 -105 -127 -174 -209 -221 -264 -25 -30 -65 -76
-88 -104 -23 -27 -56 -68 -75 -90 -19 -22 -89 -105 -156 -185 -67 -80 -141
-167 -165 -195 -72 -84 -187 -219 -229 -270 -22 -27 -49 -58 -60 -69 -12 -12
-40 -46 -63 -76 -61 -81 -130 -156 -137 -149 -3 3 10 29 30 57 19 28 35 54 35
56 0 3 31 52 68 108 38 57 79 121 92 143 12 22 37 63 55 90 18 28 54 84 81
125 26 41 58 88 71 104 13 15 30 42 38 60 8 17 34 61 57 98 24 37 67 106 97
155 30 48 58 92 63 98 5 5 21 30 37 55 73 116 127 200 162 252 22 32 39 60 39
63 0 3 19 34 42 69 43 63 60 91 108 171 14 23 37 58 53 78 15 20 27 38 27 42
0 3 20 36 45 72 24 37 42 69 40 71 -12 12 -36 -13 -70 -75 -21 -37 -70 -117
-109 -178 -74 -114 -85 -131 -114 -178 -9 -16 -48 -77 -87 -136 -38 -59 -90
-140 -115 -180 -62 -99 -147 -232 -163 -256 -8 -11 -43 -67 -78 -125 -56 -92
-198 -311 -247 -380 -9 -13 -19 -29 -22 -35 -11 -23 -68 -115 -115 -186 -27
-42 -62 -96 -77 -120 -98 -157 -140 -219 -149 -219 -10 0 -11 22 -9 140 2 121
35 110 -325 110 -212 0 -316 -3 -320 -11 -4 -6 -6 -73 -6 -150 2 -137 -5 -164
-29 -120 -5 11 -16 25 -23 33 -17 17 -145 174 -232 284 -38 49 -96 120 -128
159 -61 73 -64 76 -137 164 -25 30 -54 67 -65 81 -20 28 -157 193 -197 240
-12 14 -51 61 -86 104 -35 44 -72 89 -83 100 -10 12 -57 68 -105 126 -131 159
-255 308 -290 349 -117 134 -215 251 -297 355 -61 77 -63 80 -71 68 -3 -6 29
-50 71 -99 43 -49 103 -120 133 -158 58 -72 142 -173 263 -314 40 -47 103
-123 141 -170 38 -47 77 -95 87 -106 10 -11 77 -92 149 -180 72 -88 140 -171
153 -184 12 -14 31 -37 42 -52 11 -15 48 -61 82 -103 35 -41 69 -83 77 -93 8
-10 59 -72 113 -138 54 -66 130 -160 168 -209 66 -83 166 -206 234 -287 30
-36 30 -36 35 -190 3 -85 5 -158 6 -162 0 -10 625 -5 636 5 3 4 6 77 5 162
l-2 155 308 3 c169 2 627 3 1018 3 l710 0 14 -30 c33 -72 96 -108 151 -87 38
15 70 50 77 83 3 16 9 31 13 34 4 3 213 8 464 11 l456 7 1 -74 c1 -111 8 -242
14 -257 4 -10 71 -12 310 -12 169 1 313 4 321 7 11 4 14 35 14 164 0 119 3
161 13 164 30 9 2131 20 2146 11 5 -4 12 -19 16 -35 7 -33 27 -52 72 -70 64
-26 141 14 157 81 l6 28 98 1 c248 4 833 0 842 -6 6 -4 10 -66 10 -159 0 -118
3 -156 14 -165 9 -8 105 -11 332 -9 l319 3 3 171 2 171 50 59 c27 33 60 73 74
89 14 17 40 50 58 74 18 24 49 65 68 91 34 46 91 119 155 199 17 21 51 65 76
99 26 34 53 68 60 75 8 8 21 25 29 38 8 12 30 39 48 59 17 21 32 40 32 44 0 4
9 17 21 29 12 12 33 38 47 57 15 19 38 49 52 66 14 17 32 41 40 54 16 24 97
127 118 148 6 7 12 17 12 21 0 4 8 16 18 27 10 10 44 53 76 94 32 41 76 99 99
129 23 29 51 66 62 81 11 15 47 62 80 104 33 42 74 98 92 123 18 25 36 49 40
52 5 3 20 22 33 41 13 19 29 40 35 46 5 6 21 25 35 43 14 18 40 52 58 74 99
126 159 205 202 264 19 26 40 55 48 63 7 8 23 29 35 46 73 103 160 214 168
214 5 0 9 -48 10 -107 1 -176 6 -254 17 -265 6 -6 77 -6 203 1 107 6 273 13
369 17 96 3 180 10 185 14 6 5 8 80 4 212 -4 111 -7 296 -8 409 -1 179 -3 208
-17 213 -9 3 -20 4 -24 1 -5 -3 -169 -9 -366 -15 -268 -7 -360 -13 -366 -22
-5 -7 -6 -92 -3 -190 6 -176 0 -215 -26 -167 -6 12 -23 34 -38 49 -27 28 -75
85 -113 135 -12 17 -31 39 -41 50 -11 11 -31 36 -46 55 -14 19 -71 89 -126
156 -55 66 -116 140 -135 164 -34 43 -65 79 -105 124 -11 13 -42 51 -70 86
-88 110 -193 235 -226 269 -8 9 -26 32 -39 51 -13 19 -40 53 -59 76 -20 23
-55 63 -78 90 -22 27 -72 85 -110 129 -37 44 -95 114 -127 155 -33 41 -76 94
-95 116 -20 23 -50 59 -68 80 -17 22 -51 62 -75 89 -42 49 -178 212 -208 249
-42 53 -92 113 -104 126 -8 8 -39 46 -71 85 l-56 69 2 161 c1 89 -1 167 -5
174 -6 9 -71 11 -279 9 -150 -2 -297 -5 -327 -8z m578 -19 c17 -10 18 -609 2
-626 -7 -6 -120 -11 -315 -13 l-305 -3 -2 73 c-1 40 -1 114 0 163 1 50 1 161
2 247 l0 158 163 2 c89 2 225 4 302 5 77 2 146 -1 153 -6z m-4040 -397 l2
-311 -76 -7 c-43 -3 -181 -6 -309 -6 l-232 0 -5 103 c-3 56 -5 197 -4 312 l1
210 130 5 c72 3 211 5 310 5 l180 0 3 -311z m-3944 247 c3 -5 8 -142 10 -305
4 -223 2 -297 -7 -303 -18 -11 -587 -17 -598 -6 -11 11 -25 582 -16 607 6 14
40 16 306 16 165 0 302 -4 305 -9z m6316 -120 c3 -1 -2 -5 -10 -11 -8 -5 -12
-10 -10 -12 3 -2 22 -16 43 -31 20 -16 41 -26 46 -23 5 3 11 -6 14 -20 4 -21
1 -25 -14 -21 -11 3 -17 1 -13 -4 3 -5 -6 -21 -20 -36 -15 -15 -26 -22 -26
-15 0 6 -6 12 -14 12 -8 0 -21 8 -28 18 -7 10 -20 22 -28 27 -13 8 -13 7 0
-11 8 -10 24 -27 34 -36 10 -10 14 -18 8 -18 -6 0 -14 5 -17 10 -4 6 -24 22
-46 36 -40 25 -50 44 -24 44 8 0 15 5 15 10 0 6 -4 10 -10 10 -5 0 -10 5 -10
10 0 21 30 9 52 -21 13 -17 29 -28 38 -26 19 5 50 -25 32 -31 -14 -4 -6 -22 9
-22 6 0 8 4 5 9 -4 5 -1 11 6 13 8 3 0 17 -20 36 -36 36 -40 44 -14 36 9 -3 0
9 -20 26 -53 45 -49 53 22 41z m82 -46 c4 -5 2 -13 -5 -17 -18 -12 -27 -9 -27
7 0 8 -6 15 -14 15 -8 0 -18 5 -22 12 -5 7 -3 8 6 3 9 -6 10 -2 5 16 l-7 24
28 -25 c16 -14 32 -29 36 -35z m-4051 -28 c-1 -4 -1 -14 -1 -23 0 -9 -5 -14
-12 -12 -14 5 -24 29 -11 27 20 -4 27 2 13 12 -10 7 -11 9 -2 7 8 -2 13 -7 13
-11z m3839 -41 c0 -8 17 -30 37 -50 33 -31 44 -36 87 -36 43 0 53 4 82 36 19
19 34 41 34 49 0 7 10 15 23 19 35 9 787 7 787 -3 0 -9 -14 -15 -105 -47 -27
-10 -54 -21 -60 -24 -5 -4 -41 -17 -80 -30 -38 -12 -75 -26 -80 -30 -6 -5 -55
-24 -110 -43 -113 -39 -214 -76 -295 -107 -86 -34 -89 -34 -114 -11 -28 26
-102 37 -136 19 -31 -17 -70 -74 -70 -104 0 -13 -2 -24 -4 -24 -2 0 -41 -14
-87 -31 -46 -17 -131 -48 -189 -69 -58 -21 -130 -48 -160 -60 -66 -26 -78 -26
-150 -1 -30 10 -84 29 -120 41 -36 12 -110 38 -165 57 -55 19 -122 41 -150 49
-27 7 -142 46 -255 85 -113 39 -225 77 -250 85 -70 21 -313 103 -335 114 -11
5 -65 24 -120 41 -141 45 -148 56 -44 63 46 3 293 8 549 11 964 11 1455 18
1459 21 7 6 21 -7 21 -20z m-3932 -31 c22 -19 42 -32 45 -28 4 3 9 -2 13 -11
3 -9 11 -13 17 -9 5 3 7 1 3 -5 -3 -6 -2 -13 4 -17 5 -3 10 -10 10 -16 0 -16
-26 -10 -45 11 -10 11 -23 20 -28 20 -6 0 -3 -8 6 -18 24 -26 21 -39 -3 -17
-12 10 -19 24 -16 31 2 6 -11 27 -30 45 -59 57 -37 70 24 14z m5834 -27 c29
-35 71 -86 91 -115 21 -28 41 -53 45 -55 4 -2 29 -30 56 -63 28 -33 69 -82 93
-110 24 -27 57 -66 73 -85 72 -87 124 -147 144 -170 13 -14 39 -47 60 -74 53
-71 108 -138 131 -162 31 -33 94 -108 195 -229 50 -60 99 -119 108 -130 9 -11
40 -48 69 -82 29 -34 53 -65 53 -68 0 -3 10 -16 23 -28 12 -12 38 -42 57 -67
19 -25 45 -56 56 -70 68 -80 114 -135 154 -186 25 -31 74 -91 110 -133 36 -41
92 -109 125 -151 33 -42 95 -120 139 -174 43 -53 76 -99 73 -102 -5 -5 -278
154 -354 207 -23 16 -44 29 -46 29 -3 0 -56 31 -119 70 -62 38 -160 97 -218
131 -58 34 -127 76 -155 94 -27 18 -84 53 -125 78 -41 25 -94 58 -118 72 -23
15 -69 40 -102 57 -33 16 -62 34 -66 39 -3 5 -22 18 -42 29 -41 22 -62 35
-107 65 -36 24 -79 49 -120 69 -16 8 -41 23 -55 33 -14 11 -32 23 -40 26 -8 4
-55 32 -105 62 -49 30 -103 61 -118 67 -37 17 -41 39 -33 189 3 70 3 134 0
143 -5 14 -43 16 -324 16 -175 0 -325 -3 -334 -6 -14 -5 -16 -28 -16 -149 0
-164 -1 -166 -77 -135 -57 23 -180 67 -391 141 -138 48 -152 55 -146 73 6 19
48 87 67 111 5 6 21 29 35 51 88 136 267 401 279 412 8 8 23 30 33 51 11 20
28 47 39 61 10 14 44 64 76 113 32 48 63 87 70 87 11 0 13 -25 10 -114 -1 -62
1 -119 5 -126 10 -17 637 -15 657 2 9 7 13 46 13 139 0 71 4 129 9 129 5 0 33
-28 63 -62z m-4782 -137 c0 -105 4 -152 12 -157 6 -4 61 -7 122 -5 250 4 511
13 518 17 5 3 8 71 8 152 l1 147 20 -25 c55 -69 99 -131 118 -166 12 -21 46
-73 76 -114 30 -41 68 -97 85 -125 17 -27 51 -77 75 -110 24 -33 56 -80 71
-105 83 -135 177 -270 185 -265 5 3 1 18 -9 33 -65 102 -184 280 -196 292 -16
18 -266 390 -266 396 0 13 30 1 43 -18 9 -13 16 -18 16 -13 0 6 -15 27 -34 49
-51 56 -31 65 25 12 27 -26 52 -46 57 -46 7 0 -34 39 -102 98 -51 43 -39 51
18 12 25 -16 49 -30 53 -30 11 0 -42 50 -53 50 -14 1 -58 38 -52 44 3 4 57
-11 120 -33 63 -21 267 -91 454 -156 187 -64 434 -148 548 -186 115 -38 225
-76 245 -84 72 -27 239 -83 342 -116 58 -17 112 -36 120 -40 8 -4 44 -17 80
-29 156 -50 180 -61 180 -85 0 -38 11 -55 34 -55 22 0 46 -17 46 -33 0 -4 -6
-5 -12 -2 -7 4 -4 -1 7 -10 25 -20 67 -15 118 14 48 27 56 27 157 -9 47 -17
126 -44 175 -60 130 -42 318 -108 335 -118 8 -5 53 -21 100 -36 88 -28 118
-41 109 -50 -4 -4 -405 -14 -611 -16 -42 0 -68 -4 -68 -11 0 -7 99 -10 328 -8
194 1 328 -1 330 -7 1 -5 -6 -10 -18 -12 -11 -2 -20 -8 -20 -13 0 -5 -8 -9
-17 -9 -10 0 -56 -11 -103 -26 -117 -37 -141 -46 -137 -50 2 -2 64 14 138 35
74 22 136 38 138 35 2 -2 -11 -11 -28 -21 -18 -10 -40 -24 -49 -31 -15 -11
-13 -11 13 -6 l30 6 -31 -29 c-17 -15 -55 -46 -84 -68 -29 -22 -64 -51 -79
-64 -14 -12 -38 -29 -53 -37 -15 -8 -33 -22 -40 -32 -7 -10 -29 -28 -48 -40
-19 -11 -48 -33 -65 -47 -35 -31 -57 -49 -145 -114 -66 -49 -110 -91 -95 -91
4 0 27 17 51 38 23 20 69 57 100 82 58 45 79 61 114 90 10 8 44 33 76 55 31
22 76 57 99 78 23 20 47 37 53 37 6 0 15 6 19 13 13 20 203 160 210 154 6 -7
-102 -138 -247 -301 -25 -28 -75 -85 -110 -126 -36 -41 -68 -77 -71 -80 -3 -3
-36 -41 -75 -86 -111 -129 -214 -245 -265 -299 -26 -27 -68 -77 -95 -110 -74
-92 -74 -92 -138 -97 -53 -4 -63 -9 -89 -39 -25 -30 -28 -40 -24 -87 l4 -54
-82 -91 c-44 -51 -92 -105 -106 -121 -49 -60 -68 -76 -83 -70 -9 3 -16 12 -16
19 0 7 -16 32 -35 55 -19 23 -35 47 -35 53 0 5 -17 33 -38 61 -21 28 -44 61
-50 73 -7 12 -19 29 -28 37 -14 15 -13 22 20 80 19 34 42 69 51 76 8 7 27 34
42 61 14 27 30 49 35 49 4 0 8 4 8 10 0 8 22 44 87 140 9 14 73 109 141 212
l125 186 52 -5 c47 -5 55 -3 87 26 44 38 55 84 33 137 -23 56 -19 71 40 160
30 46 55 87 55 93 0 5 4 11 9 13 7 2 50 66 183 266 10 14 15 28 13 31 -8 7
-65 -51 -65 -65 0 -7 -15 -32 -33 -56 -19 -24 -47 -66 -63 -93 -16 -27 -35
-57 -44 -67 -8 -9 -42 -59 -75 -112 l-60 -95 -58 1 c-66 0 -90 -15 -114 -71
-17 -40 -9 -107 14 -115 23 -9 28 1 11 21 -21 26 -29 51 -17 59 6 3 16 1 22
-5 19 -19 31 -12 13 8 -14 16 -14 51 2 51 16 0 142 -108 142 -122 0 -21 -31
-3 -83 48 -32 31 -61 53 -65 49 -4 -3 1 -13 12 -20 10 -8 15 -18 12 -23 -7
-11 17 -34 27 -27 4 3 5 2 2 -2 -3 -4 7 -19 22 -35 31 -33 20 -38 -14 -6 -13
12 -26 18 -30 15 -3 -4 2 -14 13 -23 18 -15 18 -15 -3 -5 -25 12 -53 5 -53
-14 0 -7 -17 -34 -39 -59 -21 -26 -47 -62 -57 -81 -10 -19 -49 -78 -85 -132
-36 -54 -90 -134 -119 -178 -62 -93 -75 -112 -206 -308 -54 -81 -110 -165
-124 -187 -14 -21 -44 -67 -67 -102 -24 -34 -43 -70 -43 -78 1 -23 34 22 143
192 34 54 67 98 72 98 9 0 72 -88 140 -195 44 -69 117 -178 126 -189 6 -6 23
-30 37 -53 15 -22 64 -96 109 -163 l82 -121 -5 -62 c-6 -60 -5 -63 27 -99 25
-27 46 -39 79 -45 45 -9 45 -9 147 -163 56 -85 118 -177 138 -205 45 -64 65
-93 160 -240 43 -66 81 -122 84 -125 6 -4 50 -70 76 -111 23 -36 87 -132 96
-142 18 -23 59 -88 59 -96 0 -4 11 -18 25 -31 14 -13 25 -28 25 -35 0 -6 13
-26 30 -45 16 -19 29 -38 30 -42 0 -4 23 -41 50 -81 28 -41 50 -77 50 -80 0
-19 -22 -1 -65 50 -52 64 -156 183 -195 222 -14 14 -37 42 -52 61 -15 19 -41
51 -60 71 -109 120 -175 194 -188 214 -8 12 -29 37 -47 56 -34 36 -177 193
-223 244 -41 46 -42 51 -20 87 11 18 20 46 20 62 0 39 -38 103 -69 115 -36 15
-91 12 -120 -6 -23 -15 -25 -13 -65 33 -57 67 -275 315 -351 399 -35 39 -76
86 -92 105 -15 19 -42 48 -59 65 -18 16 -114 125 -215 240 -101 116 -195 222
-209 236 -14 15 -34 37 -44 50 -11 13 -50 58 -86 99 -37 41 -78 88 -91 104
-54 66 -112 132 -129 146 -10 8 -39 40 -64 70 -26 30 -59 69 -74 85 -15 17
-47 55 -72 84 -25 30 -90 104 -145 165 -122 136 -336 381 -365 419 -18 22 -19
27 -6 27 9 0 24 -8 34 -17 9 -10 42 -36 72 -58 30 -21 57 -42 60 -45 3 -3 23
-18 45 -33 l40 -28 -45 42 c-25 23 -66 56 -91 73 -82 56 -128 91 -129 98 0 7
128 -48 148 -64 8 -7 12 -7 12 1 0 7 -28 25 -62 41 -35 16 -74 39 -88 50 l-25
21 38 -7 c55 -9 45 2 -18 21 -30 8 -55 19 -55 24 0 14 71 18 370 20 165 1 289
6 295 12 6 6 -105 9 -308 8 -175 -1 -320 1 -324 5 -7 7 36 26 177 76 58 21
153 56 213 79 59 23 117 44 128 46 12 2 26 8 33 13 6 5 29 15 51 22 22 7 63
23 90 35 28 13 91 36 140 50 50 15 101 33 115 40 14 7 48 21 75 30 28 10 64
23 80 31 17 7 71 27 120 44 233 82 280 100 283 109 2 6 0 11 -5 11 -12 0 -172
-54 -214 -73 -19 -8 -52 -21 -74 -30 -209 -80 -255 -97 -425 -156 -58 -20
-125 -46 -150 -57 -25 -12 -65 -28 -90 -35 -25 -7 -50 -16 -55 -20 -6 -4 -37
-17 -70 -29 -33 -12 -98 -37 -145 -55 -197 -76 -381 -137 -395 -131 -12 4 -15
30 -15 156 l0 150 -325 0 -325 0 -1 -27 c-1 -16 0 -83 1 -149 1 -78 -2 -124
-9 -128 -10 -6 -243 65 -376 115 -27 10 -81 28 -120 40 -38 11 -80 25 -92 30
-27 10 -30 41 -7 59 8 8 23 30 33 49 25 51 130 218 211 336 31 44 81 123 115
181 16 28 55 89 86 135 31 46 73 110 93 142 19 31 40 57 46 57 6 0 10 -55 10
-149z m3858 139 c-2 -6 -48 -39 -103 -75 -55 -36 -95 -65 -89 -65 10 0 105 57
114 69 9 12 81 51 93 51 6 0 -1 -12 -16 -26 -16 -14 -25 -29 -22 -32 4 -4 11
1 16 11 6 9 14 17 19 17 19 0 10 -24 -20 -54 -79 -81 -110 -115 -110 -123 0
-4 36 30 80 76 44 46 80 88 80 92 0 5 5 9 10 9 21 0 8 -28 -45 -100 -30 -41
-55 -78 -55 -82 0 -4 -31 -51 -68 -105 -38 -54 -77 -111 -86 -128 -17 -30 -70
-109 -103 -154 -10 -13 -31 -45 -48 -71 -106 -168 -119 -181 -158 -162 -12 6
-68 25 -124 42 l-103 32 0 45 c0 39 -5 50 -35 79 -62 58 -113 55 -185 -12
l-25 -23 -80 25 c-44 14 -104 36 -133 49 -29 14 -58 25 -65 25 -28 0 -177 53
-177 64 0 6 28 21 63 32 34 12 121 42 192 68 213 78 196 75 236 32 82 -89 212
-36 212 86 0 38 1 40 66 70 36 17 98 41 136 53 39 13 133 46 210 75 77 29 175
65 219 81 43 15 81 31 84 34 9 9 24 5 20 -5z m-4018 -30 c0 -6 -31 -30 -68
-55 -38 -24 -74 -51 -82 -60 -16 -19 116 59 147 87 12 11 27 18 35 16 8 -3 -2
-17 -26 -39 -88 -79 -170 -161 -130 -130 23 17 45 31 48 31 12 0 -16 -45 -43
-68 -14 -13 -18 -19 -8 -14 20 9 147 152 147 165 0 4 5 7 10 7 6 0 10 -5 10
-10 0 -12 -98 -171 -206 -335 -39 -60 -115 -178 -167 -261 -137 -217 -146
-229 -165 -226 -30 7 -166 53 -198 67 -26 12 -32 22 -37 54 -16 121 -143 166
-211 77 -23 -31 -29 -34 -53 -26 -116 38 -376 130 -413 147 l-45 20 30 12 c17
6 39 16 50 23 11 6 54 24 95 39 41 15 129 48 194 73 l119 45 27 -29 c53 -56
118 -65 167 -22 40 34 56 98 27 108 -27 10 -64 45 -64 61 0 22 17 15 44 -19
17 -22 26 -28 26 -17 0 11 12 19 34 23 19 4 92 29 163 57 70 27 153 59 183 70
67 25 100 39 122 50 10 5 25 9 34 9 9 0 33 9 53 20 27 15 108 47 149 59 1 1 2
-4 2 -9z m3182 -187 c2 -5 19 -20 40 -35 30 -23 36 -33 35 -63 -1 -19 -5 -35
-10 -35 -5 0 -6 -7 -3 -16 5 -13 2 -15 -14 -11 -13 3 -20 0 -20 -9 0 -8 -6
-11 -15 -8 -11 5 -13 2 -9 -11 6 -14 4 -16 -8 -9 -26 15 -118 104 -118 114 0
11 49 8 70 -5 8 -4 5 3 -7 17 -29 30 -32 59 -5 35 10 -10 23 -17 28 -17 5 0 1
5 -9 11 -9 6 -15 15 -12 20 4 5 11 7 16 4 5 -4 12 1 15 9 6 17 20 21 26 9z
m-77 -63 c3 -5 2 -10 -4 -10 -5 0 -13 5 -16 10 -3 6 -2 10 4 10 5 0 13 -4 16
-10z m-3915 -132 c-1 -15 -90 79 -90 95 0 6 20 -10 45 -35 25 -26 45 -53 45
-60z m34 47 c11 -8 15 -15 10 -15 -6 0 -19 7 -30 15 -10 8 -14 14 -9 14 6 0
19 -6 29 -14z m-684 -240 c9 -8 77 -35 151 -60 360 -120 333 -108 345 -150 5
-21 23 -51 39 -66 23 -24 37 -29 75 -29 32 0 55 6 73 20 14 11 32 20 41 20 33
0 237 -73 234 -84 -3 -11 -61 -102 -179 -285 -31 -47 -75 -119 -98 -158 -32
-56 -48 -74 -69 -79 -91 -20 -115 -51 -111 -147 3 -57 0 -66 -34 -117 -20 -30
-37 -59 -37 -64 0 -5 -17 -32 -39 -60 -21 -28 -47 -67 -57 -86 -10 -19 -25
-43 -33 -53 -8 -9 -19 -26 -25 -37 -18 -33 -103 -167 -193 -302 -49 -75 -89
-125 -96 -122 -7 3 -23 22 -36 42 -14 20 -44 66 -67 102 -24 36 -52 79 -64 95
-11 17 -49 73 -84 125 -150 226 -219 326 -237 346 -10 11 -19 24 -19 30 0 5
-18 33 -40 61 -22 29 -49 70 -60 90 -23 41 -56 92 -91 136 -27 35 -129 188
-129 194 0 2 -5 9 -10 16 -13 16 -51 73 -112 170 -45 72 -52 97 -27 97 6 0 29
8 52 18 23 10 60 26 82 34 22 9 69 27 105 41 36 15 94 36 130 48 36 12 93 34
128 50 35 16 67 29 72 29 10 0 232 86 285 110 95 44 110 47 135 25z m4663 -95
c56 -45 68 -60 45 -60 -14 1 -128 102 -128 114 0 10 19 -2 83 -54z m-34 -15
c57 -48 80 -75 62 -75 -4 0 -27 18 -52 41 -24 22 -54 47 -66 56 -23 15 -32 38
-13 31 5 -1 37 -25 69 -53z m-3976 -6 c26 -30 15 -34 -13 -4 -13 14 -19 25
-14 25 5 0 18 -9 27 -21z m-43 1 c0 -5 -4 -10 -10 -10 -5 0 -10 5 -10 10 0 6
5 10 10 10 6 0 10 -4 10 -10z m3956 -61 c31 -33 12 -28 -36 10 -18 15 -21 21
-9 21 8 0 28 -14 45 -31z m-3941 -77 c-8 -8 -75 66 -75 82 0 6 19 -8 41 -32
23 -24 38 -46 34 -50z m5684 35 c7 -19 8 -139 2 -519 l-1 -98 -315 0 -315 0 0
314 c0 242 3 315 13 319 6 3 146 5 310 6 298 0 298 0 306 -22z m-4045 -104 c3
-42 6 -181 6 -310 0 -213 -2 -234 -17 -241 -10 -4 -148 -7 -306 -7 -245 0
-289 2 -297 15 -8 13 -15 606 -7 612 6 5 386 13 493 10 l121 -3 7 -76z m-3936
28 c1 -1 1 -139 0 -308 l-3 -308 -298 -3 -297 -2 -8 22 c-10 29 -16 583 -7
599 5 8 91 9 309 6 165 -3 302 -6 304 -6z m2789 -96 c54 -20 167 -59 250 -88
84 -29 153 -55 153 -58 0 -3 -55 -9 -122 -12 -141 -8 -538 -9 -538 -2 0 3 27
48 61 100 40 63 67 95 79 95 10 0 62 -16 117 -35z m5373 -230 c74 -43 146 -85
160 -95 14 -9 50 -30 80 -46 30 -16 89 -52 130 -79 42 -28 98 -62 125 -77 28
-14 75 -42 105 -62 30 -20 65 -39 78 -42 12 -4 22 -9 22 -13 0 -4 12 -14 28
-21 15 -8 58 -34 95 -57 37 -24 70 -43 73 -43 3 0 29 -15 57 -34 59 -39 307
-190 351 -215 17 -9 39 -24 50 -33 11 -10 29 -21 40 -24 11 -4 65 -37 121 -73
55 -37 130 -84 168 -106 37 -21 67 -43 67 -48 0 -5 -51 -6 -112 -3 -62 3 -221
6 -353 7 -132 1 -323 6 -424 11 -119 6 -187 6 -194 -1 -16 -16 58 -20 513 -26
448 -6 590 -12 590 -26 0 -4 -10 -10 -22 -14 -13 -3 -32 -10 -43 -15 -11 -5
-60 -21 -110 -35 -49 -15 -103 -33 -120 -40 -16 -8 -75 -28 -130 -45 -55 -17
-113 -37 -130 -45 -16 -7 -43 -17 -60 -20 -16 -4 -50 -14 -75 -23 -25 -8 -108
-37 -185 -64 -77 -27 -166 -56 -197 -65 -32 -8 -58 -19 -58 -24 0 -15 20 -10
125 27 55 19 129 44 165 55 36 12 83 29 105 39 22 11 74 29 115 40 41 12 104
32 140 45 128 47 382 127 450 142 l25 6 -27 -22 c-14 -11 -30 -21 -36 -21 -5
0 -17 -9 -28 -21 -10 -12 -35 -30 -55 -40 -21 -10 -43 -24 -50 -31 -8 -8 -52
-38 -99 -69 -47 -30 -96 -63 -110 -72 -14 -10 -52 -35 -85 -57 -33 -22 -69
-46 -80 -55 -11 -9 -63 -43 -115 -76 -52 -33 -104 -66 -115 -74 -30 -22 -207
-137 -253 -165 -41 -25 -53 -40 -31 -40 9 0 378 239 416 270 6 5 60 41 120 79
59 39 115 77 123 84 8 8 29 22 45 32 56 35 290 190 295 196 5 7 47 32 103 64
16 9 31 15 33 12 2 -2 -22 -37 -53 -78 -125 -164 -149 -196 -177 -236 -16 -24
-31 -43 -35 -43 -3 0 -19 -21 -36 -48 -16 -26 -37 -53 -46 -59 -10 -7 -28 -30
-40 -50 -13 -21 -27 -41 -31 -44 -5 -3 -23 -26 -41 -51 -18 -25 -51 -70 -74
-99 -67 -86 -200 -258 -258 -334 -29 -38 -80 -106 -114 -150 -34 -44 -88 -114
-119 -155 -71 -94 -80 -105 -117 -149 -17 -20 -39 -49 -50 -66 -10 -16 -41
-57 -70 -90 -28 -33 -62 -76 -75 -95 -14 -19 -52 -68 -85 -109 -33 -40 -73
-92 -89 -115 -16 -22 -54 -73 -85 -111 -94 -118 -139 -175 -262 -337 -47 -62
-96 -122 -108 -132 l-21 -19 0 146 0 147 -247 1 c-137 0 -282 2 -323 5 -41 2
-81 0 -89 -5 -12 -8 -14 -35 -12 -135 1 -69 -2 -126 -7 -126 -9 0 -36 39 -207
300 -60 91 -112 167 -115 170 -4 3 -17 24 -30 48 -13 23 -27 42 -30 42 -4 0
-24 28 -45 63 -21 34 -42 64 -46 67 -4 3 -20 26 -35 51 -16 26 -46 72 -66 103
-21 31 -38 61 -38 66 0 5 -6 13 -13 17 -12 7 -40 49 -142 208 -52 81 -87 134
-133 199 -74 105 -112 165 -112 174 0 5 11 21 24 37 47 54 38 144 -18 180 -30
20 -110 22 -132 4 -21 -17 -29 -7 -160 187 l-118 175 17 32 c10 18 45 61 78
97 33 36 72 81 87 100 15 19 37 46 49 59 23 23 24 23 43 6 14 -12 41 -20 79
-23 57 -4 58 -4 90 37 39 49 43 94 12 147 -12 19 -21 41 -21 48 0 6 34 48 75
91 41 44 74 83 75 88 0 4 15 24 34 45 38 40 169 191 256 292 30 35 69 78 85
96 37 39 105 115 156 174 22 25 50 56 63 70 13 14 49 57 81 95 70 84 157 175
167 175 5 0 8 -59 8 -130 0 -126 1 -131 23 -138 12 -4 162 -5 332 -2 l310 5 3
145 c2 146 6 175 19 167 5 -2 69 -39 143 -82z m-4858 -127 l3 -153 43 0 c23 1
168 2 322 3 l280 2 0 151 c0 137 2 150 17 147 10 -2 61 -54 115 -117 80 -93
196 -224 243 -275 6 -6 35 -40 65 -76 30 -36 57 -67 61 -70 5 -5 70 -77 163
-181 23 -25 59 -67 81 -93 22 -27 57 -67 78 -90 22 -22 64 -70 95 -106 138
-158 348 -398 373 -425 59 -64 206 -232 234 -267 17 -20 72 -83 124 -140 52
-56 113 -123 135 -148 36 -39 97 -109 218 -250 33 -38 140 -159 174 -197 19
-21 21 -28 12 -64 -22 -83 43 -157 128 -145 36 5 46 2 57 -15 8 -11 46 -55 85
-97 38 -42 92 -102 118 -133 38 -44 211 -241 279 -315 5 -7 24 -28 40 -48 17
-20 46 -53 65 -74 19 -21 60 -67 90 -102 30 -35 71 -82 91 -104 42 -47 64 -86
50 -86 -5 0 -13 5 -16 10 -6 10 -20 20 -120 87 -22 14 -46 32 -53 40 -7 7 -23
18 -35 25 -12 6 -49 32 -82 57 -33 25 -85 63 -115 83 -30 21 -82 57 -115 82
-66 50 -115 80 -121 74 -3 -4 159 -125 245 -184 25 -17 118 -82 206 -144 88
-62 180 -127 205 -144 25 -17 48 -35 52 -41 14 -19 -12 -17 -44 3 -35 22 -177
94 -268 136 -30 15 -66 33 -80 41 -14 8 -41 23 -61 32 -20 10 -83 42 -139 71
-57 28 -105 50 -107 48 -7 -7 116 -72 362 -193 39 -18 79 -39 90 -45 11 -7 47
-25 80 -41 33 -15 71 -35 85 -43 14 -8 40 -22 58 -31 17 -9 32 -20 32 -24 0
-7 -169 33 -188 45 -6 3 -77 24 -159 45 -81 21 -179 48 -218 59 -99 28 -131
35 -122 26 4 -4 36 -16 70 -25 34 -9 76 -22 92 -28 17 -6 86 -25 155 -42 69
-17 132 -34 140 -39 14 -7 152 -42 214 -55 82 -17 -28 -24 -404 -26 l-415 -2
-18 31 c-16 28 -61 57 -97 63 -28 4 -75 -21 -110 -60 l-35 -39 -989 -4 c-989
-3 -1057 -1 -964 30 31 10 31 10 -12 5 -25 -3 -43 -3 -40 0 3 3 47 26 98 52
50 26 92 48 92 50 0 6 -64 -17 -77 -27 -19 -15 -127 -67 -131 -63 -7 6 33 54
44 55 12 0 91 60 80 60 -4 0 -34 -18 -66 -40 -81 -53 -78 -29 8 62 37 40 92
102 122 138 30 36 57 67 60 70 8 7 262 297 351 401 83 97 398 457 494 564 34
39 75 86 91 105 16 19 31 37 34 40 3 3 41 46 84 95 43 50 89 101 102 115 37
39 107 121 123 142 22 32 1 35 -26 3 -14 -16 -42 -48 -61 -70 -20 -22 -50 -56
-65 -75 -52 -63 -105 -125 -139 -161 -18 -19 -53 -59 -78 -88 -25 -29 -54 -63
-65 -75 -56 -62 -151 -171 -224 -256 -44 -52 -95 -111 -113 -131 -18 -19 -53
-59 -78 -88 -25 -30 -54 -63 -65 -75 -12 -11 -65 -73 -119 -136 -99 -116 -161
-186 -220 -250 -18 -19 -48 -53 -67 -75 -19 -23 -55 -65 -81 -95 -26 -30 -58
-68 -72 -85 -42 -52 -37 -22 9 51 122 191 211 328 221 338 6 7 19 28 29 46 9
19 26 45 37 57 11 12 36 48 56 81 56 91 178 274 199 297 9 11 25 33 33 50 26
48 96 157 124 191 14 18 26 34 26 37 0 4 27 45 60 92 33 47 60 89 60 92 0 3 7
13 16 22 8 9 32 44 52 78 38 63 139 217 189 287 34 48 47 67 100 150 28 44 38
68 31 73 -7 3 -13 2 -15 -3 -2 -6 -31 -52 -66 -104 -54 -81 -139 -210 -231
-351 -54 -84 -74 -114 -112 -173 -22 -32 -52 -80 -69 -106 -16 -25 -45 -65
-62 -87 -18 -23 -33 -45 -33 -50 0 -6 -9 -21 -20 -34 -11 -13 -43 -59 -70
-101 -28 -43 -72 -113 -100 -155 -27 -43 -64 -97 -82 -120 -17 -23 -39 -55
-47 -71 -9 -16 -38 -62 -66 -102 -27 -40 -54 -80 -60 -89 -5 -9 -26 -41 -46
-71 -126 -190 -215 -328 -227 -350 -7 -14 -21 -34 -31 -45 -10 -11 -28 -37
-40 -58 -13 -20 -27 -35 -32 -31 -5 3 -9 63 -9 135 l0 129 -330 0 -330 0 0
-122 0 -123 -20 25 c-20 25 -106 150 -125 182 -5 9 -59 89 -120 178 -118 173
-143 210 -190 283 -16 26 -69 104 -117 173 -49 69 -88 128 -88 131 0 2 -19 32
-42 66 -24 34 -49 71 -56 82 -31 50 -72 113 -91 140 -12 17 -32 45 -44 63 -12
18 -48 69 -79 115 -75 108 -76 111 -38 127 44 18 64 53 64 112 0 45 -4 54 -37
84 -27 26 -46 34 -73 34 -35 0 -94 -26 -94 -42 0 -16 -31 -8 -37 10 -3 9 -18
33 -33 52 -24 30 -54 76 -128 192 -16 27 -32 36 -32 20 0 -7 93 -150 166 -253
20 -28 33 -61 36 -90 7 -61 33 -97 85 -120 24 -10 43 -23 43 -29 0 -6 20 -40
45 -74 25 -35 45 -67 45 -70 0 -7 21 -39 144 -220 34 -48 66 -96 71 -105 6 -9
42 -63 80 -120 39 -57 75 -111 81 -121 5 -10 18 -29 27 -42 19 -26 128 -188
167 -247 14 -21 43 -64 65 -96 78 -112 114 -170 114 -185 0 -9 -9 -3 -21 14
-13 16 -36 44 -53 61 -16 17 -48 54 -70 81 -22 27 -65 76 -95 109 -47 51 -119
132 -241 270 -15 17 -80 91 -145 165 -65 74 -124 141 -132 149 -7 8 -11 21 -8
30 29 88 30 99 12 140 -29 64 -99 88 -161 55 -30 -15 -30 -15 -68 28 -21 24
-42 48 -48 53 -5 6 -41 48 -81 95 -40 47 -80 92 -89 100 -9 8 -55 61 -102 116
l-86 102 67 77 c37 42 74 87 82 100 8 12 42 53 75 91 34 38 76 89 95 114 19
24 42 52 50 61 8 8 22 26 30 39 8 12 32 41 52 63 30 32 41 38 50 29 7 -7 31
-12 55 -12 33 0 50 7 78 32 35 30 36 34 32 82 -3 28 -8 63 -12 78 -6 23 2 37
61 106 38 43 91 105 117 138 27 32 64 77 83 99 19 22 88 105 154 185 66 80
135 163 154 185 19 22 45 53 57 69 12 16 32 39 43 51 12 12 62 73 111 135 88
112 142 170 157 170 4 0 9 -69 10 -152z m3017 -124 c11 -15 18 -30 15 -35 -7
-11 -34 7 -57 37 -17 23 -17 24 2 24 11 0 29 -12 40 -26z m-4030 -129 c13 -14
19 -25 14 -25 -5 0 -20 11 -33 25 -13 14 -19 25 -14 25 5 0 20 -12 33 -25z
m8469 -317 c12 -16 32 -759 21 -772 -11 -12 -711 -38 -722 -27 -4 4 -10 118
-12 252 -3 134 -7 294 -10 355 -7 148 -1 172 39 179 17 3 166 9 331 13 165 5
310 10 321 10 12 1 26 -4 32 -10z m-4498 -408 c0 -5 -2 -10 -4 -10 -3 0 -8 5
-11 10 -3 6 -1 10 4 10 6 0 11 -4 11 -10z m3 -50 c7 -6 25 -21 42 -35 16 -13
26 -27 23 -30 -3 -3 -25 12 -49 34 -24 23 -40 41 -36 41 4 0 13 -5 20 -10z
m-14 -74 c19 -20 30 -36 25 -36 -6 0 -21 12 -35 26 -13 14 -33 30 -44 35 -13
7 -10 2 8 -13 15 -13 27 -27 27 -31 0 -15 -20 -6 -44 19 -19 21 -21 30 -13 39
15 16 32 7 76 -39z m-4051 19 c-3 -3 -9 2 -12 12 -6 14 -5 15 5 6 7 -7 10 -15
7 -18z m4022 -80 c-7 -8 -16 -15 -20 -15 -4 0 -10 7 -14 15 -4 11 2 15 21 15
21 0 24 -2 13 -15z m-4508 -624 c13 -18 118 -139 173 -198 17 -18 50 -56 75
-84 25 -29 73 -84 108 -122 43 -48 61 -75 57 -86 -26 -64 -10 -122 44 -160 21
-15 44 -21 84 -21 34 0 61 -5 69 -14 14 -14 18 -19 108 -126 57 -68 250 -288
285 -325 44 -46 167 -185 186 -209 11 -14 34 -40 51 -58 56 -60 84 -93 106
-122 12 -15 50 -60 84 -99 101 -113 113 -137 43 -86 -22 16 -49 33 -60 38 -11
6 -38 26 -60 45 -22 20 -43 36 -47 36 -3 0 -14 8 -23 17 -10 9 -47 38 -84 64
-36 27 -86 64 -111 83 -157 123 -310 231 -310 219 0 -5 37 -35 83 -68 45 -33
87 -63 92 -68 36 -30 265 -197 271 -197 4 0 14 -8 23 -18 9 -10 39 -34 66 -52
28 -19 55 -39 61 -45 6 -5 34 -26 62 -45 57 -39 73 -61 39 -52 -12 2 -29 10
-37 17 -8 7 -42 25 -75 41 -33 15 -71 36 -85 45 -14 9 -36 20 -50 24 -14 4
-56 26 -95 48 -38 23 -118 65 -178 95 -59 30 -110 58 -113 63 -6 11 -34 12
-34 1 0 -4 15 -15 33 -23 17 -8 100 -50 182 -93 83 -43 168 -87 190 -98 22
-10 56 -28 75 -38 19 -11 77 -41 128 -67 77 -40 89 -49 70 -54 -23 -6 -22 -6
4 -14 15 -4 32 -13 39 -21 10 -12 -19 -14 -197 -14 -115 0 -313 -3 -441 -7
l-232 -6 -12 27 c-17 36 -68 66 -114 66 -32 0 -45 -7 -79 -44 l-41 -44 -960
-5 c-827 -5 -956 -4 -930 8 17 8 36 14 43 15 6 0 12 5 12 10 0 13 0 13 -48 -4
-48 -17 -60 -11 -29 15 21 18 21 18 2 19 -17 0 -16 3 8 18 40 25 33 35 -8 11
-49 -29 -44 -11 18 57 28 33 70 82 92 109 49 62 176 213 270 321 38 45 86 101
105 125 19 24 69 82 110 129 41 48 93 109 115 135 22 27 58 70 80 95 22 26 63
75 90 109 28 34 61 75 75 90 54 60 270 318 292 348 55 77 214 262 225 263 6 0
18 -8 25 -19z m556 -81 c31 -30 47 -50 38 -50 -9 0 -16 4 -16 9 0 5 -8 12 -18
15 -11 4 -25 18 -32 31 -7 14 -19 25 -26 25 -7 0 -16 5 -19 10 -17 27 26 4 73
-40z m-19 -27 c19 -18 40 -33 48 -33 7 0 13 -9 13 -20 0 -18 -3 -19 -20 -10
-11 6 -20 15 -20 20 0 6 -5 10 -11 10 -6 0 -8 -9 -3 -22 6 -23 6 -23 -15 1
-25 29 -26 32 -6 25 28 -11 15 11 -25 45 -22 18 -40 38 -40 43 0 12 23 -5 79
-59z m-84 -3 c3 -5 -1 -10 -10 -10 -9 0 -13 5 -10 10 3 6 8 10 10 10 2 0 7 -4
10 -10z m45 -11 c0 -6 -4 -7 -10 -4 -5 3 -10 11 -10 16 0 6 5 7 10 4 6 -3 10
-11 10 -16z m4101 -51 c13 -25 -1 -50 -21 -38 -12 8 -11 10 5 10 16 0 9 10
-30 46 l-50 45 43 -23 c24 -12 48 -31 53 -40z m-130 32 c54 -46 90 -82 85 -87
-3 -3 -12 2 -21 10 -8 9 -23 19 -33 22 -20 7 -78 75 -65 75 6 0 21 -9 34 -20z
m-3967 -26 c7 -19 2 -18 -19 6 -16 17 -16 20 -3 15 9 -4 19 -13 22 -21z m79
-303 c17 -11 25 -21 18 -25 -12 -8 -61 21 -61 35 0 14 12 11 43 -10z m4024
-45 c40 -35 21 -44 -26 -13 -22 15 -47 24 -56 21 -8 -3 -15 -1 -15 5 0 21 68
12 97 -13z m0 -75 c12 -9 23 -22 23 -29 0 -8 -15 -2 -37 15 -47 35 -63 50 -63
58 0 7 29 -10 77 -44z m-101 -26 c53 -48 38 -53 -16 -5 -25 22 -40 39 -34 40
6 0 29 -16 50 -35z m69 4 c19 -17 35 -36 35 -42 0 -5 -13 3 -28 19 -16 16 -38
34 -48 41 -10 6 -14 12 -7 12 7 1 28 -13 48 -30z m1673 -927 c10 -7 13 -75 13
-312 0 -166 -3 -305 -7 -309 -7 -7 -590 -4 -610 3 -11 4 -14 61 -14 309 0 167
3 307 7 311 9 9 596 7 611 -2z m-4024 -20 c8 -13 10 -597 2 -610 -11 -18 -591
-17 -603 0 -9 15 -18 581 -9 603 5 13 46 15 305 15 165 0 302 -3 305 -8z
m-3879 -13 c4 -6 10 -146 12 -310 l5 -299 -119 0 c-65 0 -198 -2 -296 -4 -163
-3 -178 -2 -187 15 -10 18 -14 591 -5 601 3 3 136 6 295 7 212 2 290 -1 295
-10z m6202 -199 c14 -11 31 -20 37 -20 6 0 2 7 -8 15 -16 12 -17 15 -4 15 21
0 43 -27 27 -32 -8 -3 -4 -13 12 -28 l24 -24 -25 17 c-14 10 -42 28 -62 42
-36 24 -46 35 -32 35 3 0 17 -9 31 -20z m-42 -38 c-3 -3 -11 0 -18 7 -9 10 -8
11 6 5 10 -3 15 -9 12 -12z m45 3 c7 -9 8 -15 2 -15 -5 0 -12 7 -16 15 -3 8
-4 15 -2 15 2 0 9 -7 16 -15z m-25 -75 c30 -24 52 -46 50 -49 -6 -5 -42 20
-90 64 -56 50 -26 39 40 -15z m-3990 -30 c10 -11 15 -20 11 -20 -4 0 -16 9
-28 20 -12 11 -17 20 -11 20 5 0 18 -9 28 -20z m3953 -9 c22 -12 30 -31 13
-31 -17 0 -61 42 -55 52 4 6 9 7 13 1 3 -6 16 -15 29 -22z m-3938 -36 c7 -8 8
-15 2 -15 -5 0 -15 7 -22 15 -7 8 -8 15 -2 15 5 0 15 -7 22 -15z"/>
<path d="M10400 5801 c-77 -5 -85 -8 -88 -27 -2 -12 6 -37 17 -55 27 -44 26
-65 -4 -118 -48 -83 -32 -93 118 -84 85 6 89 7 113 38 27 36 29 48 11 64 -10
8 -20 4 -42 -19 -26 -28 -34 -30 -97 -30 l-69 0 18 30 c9 17 21 30 25 30 15 0
8 20 -21 67 -16 26 -27 51 -25 55 3 4 33 8 67 8 51 0 66 -4 80 -21 22 -25 51
-21 55 6 3 25 -33 66 -56 63 -9 -1 -55 -4 -102 -7z"/>
<path d="M10610 5560 c-25 -19 -22 -24 13 -21 13 2 17 -5 17 -33 0 -19 -7 -41
-15 -50 -23 -23 -18 -36 14 -36 31 0 49 14 31 25 -5 3 -10 35 -10 71 0 70 -8
77 -50 44z"/>
<path d="M6296 5773 c-13 -13 -5 -23 18 -23 14 0 27 -3 29 -7 3 -5 8 -71 12
-148 4 -77 9 -143 12 -148 14 -23 21 17 22 133 0 72 5 139 11 150 8 15 21 20
50 20 21 0 42 -4 45 -10 3 -5 8 -69 9 -142 5 -161 3 -148 21 -148 13 0 15 23
15 145 l0 145 25 6 c14 3 25 12 25 20 0 11 -29 13 -144 13 -79 0 -146 -3 -150
-6z"/>
<path d="M6615 5510 c-29 -19 -28 -24 8 -21 35 4 17 -86 -19 -95 -41 -10 -26
-24 25 -24 57 0 68 9 41 32 -14 13 -17 25 -13 56 3 22 1 47 -4 56 -8 14 -12
13 -38 -4z"/>
<path d="M2336 5596 c-62 -75 -38 -144 58 -164 l41 -8 -3 -57 c-1 -33 2 -57 8
-57 6 0 10 26 10 60 0 55 2 61 28 74 40 21 78 70 92 121 17 60 9 75 -37 75
-57 0 -81 -21 -88 -78 -14 -108 -15 -112 -37 -112 -30 0 -88 47 -88 71 0 26
16 57 48 92 14 15 21 27 15 27 -7 0 -28 -20 -47 -44z m220 8 c11 -45 -57 -144
-90 -131 -27 11 -14 101 20 138 25 28 62 25 70 -7z"/>
<path d="M2566 5385 c-14 -22 -15 -25 -1 -25 22 0 21 -79 -2 -96 -16 -12 -15
-13 14 -14 33 0 51 14 33 25 -5 3 -10 35 -10 71 0 69 -8 78 -34 39z"/>
<path d="M7037 5396 c15 -13 30 -22 33 -19 5 5 -41 42 -53 43 -4 0 5 -11 20
-24z"/>
<path d="M7125 5345 c22 -14 45 -25 50 -25 6 1 -8 12 -30 25 -22 14 -44 25
-50 25 -5 -1 8 -12 30 -25z"/>
<path d="M7060 5311 c0 -5 12 -17 28 -26 l27 -18 -24 27 c-26 28 -31 31 -31
17z"/>
<path d="M7200 5295 c0 -5 56 -35 65 -35 3 0 4 4 1 9 -6 10 -66 33 -66 26z"/>
<path d="M7030 5273 c0 -6 26 -38 58 -70 31 -33 64 -69 72 -79 24 -29 140
-139 140 -132 0 3 -52 59 -115 124 -63 65 -115 121 -115 124 0 4 -9 15 -20 25
-11 10 -20 13 -20 8z"/>
<path d="M7135 5250 c10 -11 20 -20 23 -20 3 0 -3 9 -13 20 -10 11 -20 20 -23
20 -3 0 3 -9 13 -20z"/>
<path d="M7390 5181 c36 -22 90 -54 120 -72 30 -17 65 -39 78 -47 15 -9 22
-10 22 -3 0 6 -8 15 -17 18 -10 4 -69 37 -132 75 -62 37 -119 68 -125 68 -6 0
18 -18 54 -39z"/>
<path d="M7292 5116 c40 -36 75 -63 78 -60 3 3 -9 15 -25 27 -17 12 -48 39
-70 59 -21 21 -43 38 -47 38 -5 0 24 -29 64 -64z"/>
<path d="M7423 5006 c39 -37 60 -49 37 -21 -7 9 -27 25 -44 37 -27 18 -26 16
7 -16z"/>
<path d="M7352 4923 c80 -84 132 -140 166 -181 38 -46 58 -51 22 -5 -34 43
-209 223 -217 223 -4 0 9 -17 29 -37z"/>
<path d="M7530 4915 c28 -25 54 -45 58 -45 10 1 -88 90 -99 90 -5 0 13 -20 41
-45z"/>
<path d="M7420 4580 c0 -5 37 -63 83 -127 46 -65 96 -139 113 -164 16 -26 46
-72 67 -103 20 -31 37 -61 37 -66 0 -5 6 -13 13 -17 7 -4 24 -26 39 -48 15
-22 65 -96 113 -165 83 -122 366 -542 474 -704 30 -44 56 -75 58 -68 5 13
-175 289 -202 312 -8 7 -15 19 -15 26 0 8 -4 14 -10 14 -5 0 -10 5 -10 10 0 6
-35 61 -79 123 -43 62 -86 127 -95 145 -9 18 -23 35 -31 38 -7 3 -16 13 -19
22 -3 9 -14 29 -23 43 -71 103 -119 174 -128 188 -5 9 -31 45 -56 81 -26 36
-54 79 -63 95 -9 17 -34 54 -55 84 -22 29 -37 59 -35 66 4 9 64 13 242 14 130
0 433 4 673 7 l437 7 20 -46 c16 -35 29 -50 57 -62 69 -28 115 -12 155 54 21
33 30 41 57 41 30 0 52 15 39 27 -3 3 -23 5 -46 5 -27 -1 -40 4 -40 13 0 7
-15 30 -34 49 -27 29 -41 36 -72 36 -64 0 -83 -10 -110 -56 l-26 -44 -156 0
c-87 0 -218 -2 -292 -4 -74 -3 -317 -6 -539 -7 l-404 -3 -26 46 c-37 65 -95
148 -103 148 -5 0 -8 -4 -8 -10z m1642 -150 c12 -17 33 -38 47 -46 22 -15 24
-15 18 0 -6 14 -3 15 13 6 11 -6 20 -18 20 -28 0 -15 -2 -15 -10 -2 -8 12 -10
10 -10 -9 0 -22 -4 -21 -47 22 -26 26 -51 47 -55 47 -4 0 -12 9 -18 20 -18 33
16 25 42 -10z m-47 -70 c27 -30 11 -35 -21 -6 -21 18 -24 25 -13 26 9 0 24 -9
34 -20z m53 -12 c14 -14 16 -28 2 -28 -5 0 -14 9 -20 20 -12 22 -1 27 18 8z"/>
<path d="M6981 4296 c2 -2 18 -6 34 -10 22 -5 26 -4 15 4 -14 9 -59 15 -49 6z"/>
<path d="M7060 4270 c8 -5 22 -9 30 -9 10 0 8 3 -5 9 -27 12 -43 12 -25 0z"/>
<path d="M7110 4259 c0 -10 77 -32 91 -27 6 2 -12 10 -40 19 -28 9 -51 12 -51
8z"/>
<path d="M9670 4253 l-35 -14 35 6 c19 3 39 10 44 15 13 13 0 11 -44 -7z"/>
<path d="M9885 4260 c-3 -5 -2 -10 4 -10 5 0 13 5 16 10 3 6 2 10 -4 10 -5 0
-13 -4 -16 -10z"/>
<path d="M9808 4225 c-26 -14 -50 -30 -54 -36 -8 -14 -6 -13 64 24 48 25 63
38 45 37 -5 -1 -29 -12 -55 -25z"/>
<path d="M9556 4224 c-26 -9 -46 -17 -44 -19 2 -2 31 4 63 14 33 11 53 19 45
19 -8 1 -37 -6 -64 -14z"/>
<path d="M7275 4210 c11 -5 27 -9 35 -9 9 0 8 4 -5 9 -11 5 -27 9 -35 9 -9 0
-8 -4 5 -9z"/>
<path d="M7145 4152 c116 -66 216 -115 222 -109 3 3 -26 20 -63 38 -38 18 -82
42 -99 54 -27 20 -42 27 -110 50 -11 3 12 -11 50 -33z"/>
<path d="M7370 4180 c0 -5 5 -10 11 -10 5 0 7 5 4 10 -3 6 -8 10 -11 10 -2 0
-4 -4 -4 -10z"/>
<path d="M9450 4181 c-8 -5 -36 -12 -62 -15 -26 -4 -50 -11 -53 -17 -8 -12 -5
-12 70 7 36 9 65 20 65 25 0 11 -1 11 -20 0z"/>
<path d="M9704 4165 c-10 -8 -14 -15 -8 -15 5 0 19 7 30 15 10 8 14 15 8 15
-5 0 -19 -7 -30 -15z"/>
<path d="M7450 4156 c40 -17 85 -21 60 -7 -8 5 -33 12 -55 15 l-40 6 35 -14z"/>
<path d="M9638 4131 c-14 -11 -45 -28 -69 -37 -24 -10 -55 -25 -69 -34 -14
-10 -50 -30 -80 -45 -69 -35 -132 -76 -125 -83 2 -3 31 11 64 31 32 21 64 37
70 37 6 0 11 3 11 8 0 4 45 29 100 57 100 50 154 84 134 85 -6 0 -22 -9 -36
-19z"/>
<path d="M7210 4026 c0 -3 15 -16 34 -28 27 -18 151 -111 254 -191 8 -6 12 -6
12 1 0 6 -21 26 -47 44 -27 18 -57 41 -68 51 -11 10 -33 26 -49 34 -17 9 -37
23 -45 33 -18 20 -91 65 -91 56z"/>
<path d="M7439 3995 c36 -19 67 -33 69 -30 7 6 7 6 -60 38 -80 38 -85 33 -9
-8z"/>
<path d="M8579 2618 c-40 -46 -82 -93 -93 -105 -11 -13 -17 -25 -14 -29 6 -5
62 51 103 103 11 14 37 42 58 61 36 35 46 52 28 52 -5 0 -42 -37 -82 -82z"/>
<path d="M9856 5395 c-14 -13 -26 -27 -26 -30 0 -4 14 6 30 22 17 15 30 29 30
30 0 7 -9 1 -34 -22z"/>
<path d="M9654 5325 c-18 -13 -18 -14 4 -8 12 3 25 9 28 14 8 14 -10 11 -32
-6z"/>
<path d="M9777 5333 c-4 -3 -7 -11 -7 -17 0 -6 5 -5 12 2 6 6 9 14 7 17 -3 3
-9 2 -12 -2z"/>
<path d="M9615 5300 c-3 -5 -28 -21 -54 -34 -43 -22 -83 -56 -67 -56 6 0 117
71 135 87 2 1 2 6 -1 9 -3 3 -9 0 -13 -6z"/>
<path d="M9776 5238 c-68 -75 -69 -84 -2 -14 31 33 55 61 53 63 -2 2 -25 -20
-51 -49z"/>
<path d="M9617 5194 c-43 -36 -76 -68 -74 -71 6 -5 40 22 112 89 71 67 54 59
-38 -18z"/>
<path d="M9646 5099 c-31 -34 -54 -64 -51 -68 6 -6 86 78 105 112 18 29 6 20
-54 -44z"/>
<path d="M5676 5315 c-11 -8 -16 -15 -10 -15 5 0 18 7 28 15 11 8 16 15 10 15
-5 0 -18 -7 -28 -15z"/>
<path d="M5753 5277 c-7 -7 -32 -28 -55 -49 -80 -68 -153 -138 -146 -138 9 0
211 180 216 192 5 11 -1 9 -15 -5z"/>
<path d="M5745 5198 l-40 -43 43 40 c39 36 47 45 39 45 -2 0 -21 -19 -42 -42z"/>
<path d="M5473 5188 c-13 -6 -23 -15 -23 -20 0 -8 17 -1 50 22 20 13 1 12 -27
-2z"/>
<path d="M5646 5090 c-33 -33 -56 -64 -52 -67 3 -4 13 3 21 14 8 12 33 40 55
62 36 36 47 51 37 51 -2 0 -29 -27 -61 -60z"/>
<path d="M5520 5075 c-7 -9 -11 -18 -8 -20 3 -3 11 1 18 10 7 9 11 18 8 20 -3
3 -11 -1 -18 -10z"/>
<path d="M9068 5199 c22 -25 72 -45 72 -29 0 4 -11 15 -25 24 -23 15 -24 15
-18 -1 5 -14 -1 -12 -23 7 l-29 25 23 -26z"/>
<path d="M5030 4453 c-18 -15 -39 -42 -46 -60 l-14 -33 -198 -1 c-108 -1 -215
-3 -237 -4 -22 -1 -230 -3 -462 -4 -364 -2 -468 -7 -423 -23 5 -1 306 1 667 5
618 8 659 7 668 -9 29 -50 61 -74 106 -80 43 -6 49 -4 88 31 22 21 41 43 41
50 0 7 11 16 25 19 28 7 25 26 -5 26 -11 0 -25 14 -37 37 -10 20 -25 39 -33
41 -12 4 -13 2 -2 -9 19 -20 14 -31 -9 -19 -13 7 -19 19 -17 33 3 19 -2 22
-38 25 -33 2 -48 -2 -74 -25z"/>
<path d="M10360 4583 c-53 -9 -53 -10 -25 -61 15 -26 36 -56 46 -68 27 -29 24
-41 -20 -108 -22 -33 -38 -63 -35 -67 2 -4 54 -7 114 -6 l110 2 30 45 c34 51
25 78 -14 41 -20 -19 -33 -22 -82 -19 -33 2 -58 7 -57 13 1 6 8 25 15 43 11
30 10 37 -10 72 -12 21 -22 44 -22 49 0 7 25 11 61 11 51 0 64 -4 79 -22 18
-22 20 -22 36 -6 16 16 15 18 -7 47 -21 27 -30 30 -80 30 -31 1 -69 3 -85 5
-16 2 -40 2 -54 -1z"/>
<path d="M10630 4357 c0 -13 -11 -46 -25 -73 -14 -27 -25 -51 -25 -54 0 -4
101 -6 124 -2 6 1 2 8 -8 15 -14 10 -15 17 -7 40 14 36 15 32 -19 67 -35 36
-40 37 -40 7z"/>
<path d="M6310 4540 c-17 -11 -5 -26 25 -32 19 -3 20 -13 25 -143 4 -116 8
-140 20 -140 12 0 15 21 16 125 1 69 2 133 3 143 1 15 9 18 54 15 l52 -3 5
-130 c3 -71 9 -136 13 -143 21 -31 28 7 25 136 l-3 137 25 0 c18 0 26 6 28 23
3 22 3 22 -135 22 -76 0 -145 -5 -153 -10z"/>
<path d="M6617 4353 c-4 -3 -7 -12 -7 -20 0 -17 26 -17 33 1 8 21 -11 35 -26
19z"/>
<path d="M6610 4216 c0 -52 -3 -66 -15 -66 -8 0 -15 7 -15 15 0 8 -4 15 -10
15 -11 0 -13 -20 -4 -44 7 -19 35 -21 52 -4 15 15 16 134 2 143 -6 4 -10 -18
-10 -59z"/>
<path d="M2345 4422 c-38 -58 -41 -92 -12 -120 14 -13 42 -30 64 -37 38 -13
38 -13 41 -74 4 -79 22 -80 22 -1 l0 59 53 25 c35 17 56 35 65 54 17 39 18 98
2 117 -15 18 -74 20 -87 3 -16 -22 -41 -91 -48 -131 -6 -36 -8 -38 -33 -32
-75 18 -94 70 -47 131 27 36 30 44 15 44 -5 0 -21 -17 -35 -38z m223 -33 c3
-41 0 -49 -28 -73 -34 -28 -86 -36 -77 -12 3 8 11 34 17 58 19 67 28 80 58 76
24 -3 27 -7 30 -49z"/>
<path d="M2605 4291 c-3 -5 -1 -12 5 -16 5 -3 10 1 10 9 0 18 -6 21 -15 7z"/>
<path d="M2580 4222 c0 -4 5 -13 11 -19 8 -8 6 -20 -6 -43 -21 -40 -17 -75 9
-75 11 0 21 6 24 13 2 6 -3 12 -12 12 -19 0 -19 -2 -1 50 20 56 19 70 -5 70
-11 0 -20 -4 -20 -8z"/>
<path d="M10454 3326 c-75 -33 -49 -147 30 -132 64 13 86 78 40 121 -31 29
-29 28 -70 11z m54 -32 c26 -18 28 -41 5 -66 -18 -20 -63 -24 -81 -6 -18 18
-15 65 6 77 24 15 44 13 70 -5z"/>
<path d="M9545 3046 c-105 -46 -161 -324 -94 -462 26 -55 49 -71 122 -85 51
-9 61 -8 95 11 45 26 85 80 80 112 -5 40 -32 32 -51 -16 -19 -47 -35 -56 -97
-56 -47 0 -75 21 -106 81 -39 78 -34 193 11 295 19 42 31 54 64 68 57 22 63
21 101 -20 29 -32 34 -34 47 -21 18 18 11 46 -22 81 -20 21 -33 26 -72 26 -26
-1 -62 -7 -78 -14z"/>
<path d="M9810 2705 c0 -8 7 -15 15 -15 8 0 15 7 15 15 0 8 -7 15 -15 15 -8 0
-15 -7 -15 -15z"/>
<path d="M9910 2572 c0 -83 -2 -93 -26 -121 -28 -34 -26 -36 26 -21 25 7 43 7
63 -1 21 -9 31 -8 44 2 14 13 13 15 -13 19 -25 5 -29 10 -28 35 0 17 4 45 8
62 7 29 5 34 -18 44 -15 7 -26 21 -28 37 -2 14 -9 27 -15 30 -10 3 -13 -19
-13 -86z"/>
<path d="M9824 2570 c7 -89 -3 -113 -33 -86 -21 19 -21 19 -21 -1 0 -48 59
-57 71 -11 9 36 2 135 -11 156 -8 13 -10 -3 -6 -58z"/>
<path d="M10423 2494 c-22 -9 -36 -70 -22 -96 16 -30 28 -38 62 -38 32 0 64
29 73 65 12 50 -56 92 -113 69z m75 -26 c7 -7 12 -24 12 -38 0 -34 -17 -50
-52 -50 -37 0 -57 38 -40 75 13 27 58 35 80 13z"/>
<path d="M10430 1690 c-20 -20 -25 -55 -14 -97 9 -34 68 -42 99 -13 36 34 38
69 5 102 -33 33 -62 36 -90 8z m77 -22 c29 -27 29 -39 -2 -68 -21 -20 -30 -22
-53 -14 -35 12 -42 54 -13 83 27 27 39 26 68 -1z"/>
<path d="M6391 3234 c-28 -35 -26 -59 5 -91 20 -20 31 -24 57 -19 40 8 44 13
52 57 6 30 3 40 -16 58 -32 29 -73 27 -98 -5z m88 -3 c8 -5 14 -24 14 -41 0
-54 -59 -70 -89 -25 -33 51 23 99 75 66z"/>
<path d="M5655 2988 c-2 -7 -11 -58 -20 -113 -18 -118 -56 -255 -70 -255 -13
1 -69 84 -90 133 -8 20 -22 37 -30 37 -19 0 -52 -52 -65 -102 -6 -20 -16 -40
-22 -44 -13 -9 -38 23 -38 48 0 11 -9 38 -20 62 -10 24 -29 74 -41 112 -35
113 -35 114 -70 114 -26 0 -30 -3 -24 -17 4 -10 24 -66 46 -125 21 -60 49
-132 62 -160 14 -29 33 -79 43 -110 10 -32 21 -58 25 -58 21 0 39 14 39 30 0
10 6 33 13 51 8 19 22 55 31 82 10 26 23 47 29 47 7 -1 21 -20 33 -43 49 -101
80 -147 94 -145 19 4 82 196 116 358 20 95 19 110 -11 110 -14 0 -27 -6 -30
-12z"/>
<path d="M5810 2660 c0 -5 5 -10 10 -10 6 0 10 5 10 10 0 6 -4 10 -10 10 -5 0
-10 -4 -10 -10z"/>
<path d="M5786 2559 c-20 -33 -15 -49 9 -29 20 16 27 -3 23 -61 -3 -39 -6 -44
-25 -41 -17 2 -21 -1 -17 -12 6 -17 31 -21 51 -8 19 12 26 78 13 132 -14 58
-28 63 -54 19z"/>
<path d="M5656 2571 c-3 -5 3 -11 14 -14 24 -6 25 -31 4 -82 -8 -21 -13 -44
-10 -51 7 -17 28 -18 44 -2 9 9 8 14 -4 22 -13 10 -13 18 -3 58 10 38 10 49 0
62 -15 18 -37 21 -45 7z"/>
<path d="M6397 2442 c-29 -30 -36 -76 -13 -85 11 -5 13 0 6 23 -6 20 -4 35 7
49 27 39 93 20 93 -27 0 -39 -14 -55 -49 -55 -16 0 -28 -4 -25 -9 9 -14 41 -9
62 10 32 27 38 76 13 101 -29 29 -62 26 -94 -7z"/>
<path d="M6381 1634 c-12 -15 -21 -32 -21 -39 0 -7 9 -24 21 -39 41 -52 122
-23 122 44 0 42 -19 60 -63 60 -30 0 -43 -6 -59 -26z m89 -4 c11 -11 20 -27
20 -35 0 -18 -35 -55 -53 -55 -22 0 -57 31 -57 51 0 23 34 59 55 59 8 0 24 -9
35 -20z"/>
<path d="M7449 1048 c-13 -13 -44 -37 -67 -52 -24 -15 -42 -30 -39 -32 6 -6
123 72 133 87 13 22 -5 19 -27 -3z"/>
<path d="M7266 912 c-27 -20 -61 -46 -76 -57 -15 -11 -57 -42 -94 -68 -36 -27
-66 -53 -66 -58 0 -8 54 29 112 76 9 7 40 29 70 48 63 43 127 96 113 96 -5 0
-32 -16 -59 -37z"/>
<path d="M7480 903 c-64 -36 -257 -133 -265 -133 -4 0 -19 -10 -33 -21 l-27
-21 25 7 c14 4 30 12 36 17 19 14 231 118 243 118 6 0 11 4 11 8 0 4 16 14 35
21 19 7 35 17 35 22 0 13 -10 10 -60 -18z"/>
<path d="M7560 768 c-41 -11 -88 -25 -105 -33 -16 -7 -73 -23 -125 -35 -102
-25 -172 -53 -145 -58 9 -2 21 0 28 5 7 5 30 15 52 21 211 60 297 85 340 95
28 7 46 15 40 19 -5 3 -44 -3 -85 -14z"/>
<path d="M7126 714 c-11 -8 -16 -14 -10 -14 13 0 39 18 34 24 -3 2 -14 -2 -24
-10z"/>
<path d="M7077 625 c-27 -7 -51 -16 -55 -19 -7 -8 50 3 103 20 53 17 13 16
-48 -1z"/>
<path d="M13104 3367 c-2 -7 -3 -71 -2 -143 l3 -129 33 -3 c39 -4 89 17 118
49 15 17 19 36 19 99 0 73 -2 81 -29 109 -26 27 -37 31 -83 31 -35 0 -55 -5
-59 -13z m115 -34 c35 -35 46 -86 28 -139 -17 -46 -64 -79 -102 -70 -25 6 -25
8 -25 115 0 59 3 111 7 114 16 17 65 5 92 -20z"/>
<path d="M3625 1080 c-21 -17 -42 -34 -45 -38 -3 -4 -14 -12 -24 -18 -11 -6
-22 -17 -25 -25 -2 -8 11 -2 30 13 19 14 56 40 82 58 26 17 47 33 47 36 0 12
-29 0 -65 -26z"/>
<path d="M3465 953 c-22 -19 -31 -31 -20 -25 27 15 80 62 69 62 -5 -1 -27 -17
-49 -37z"/>
<path d="M3725 970 c-4 -6 -24 -20 -47 -31 -22 -11 -38 -23 -35 -25 5 -6 127
53 127 61 0 9 -39 5 -45 -5z"/>
<path d="M3383 894 l-28 -26 33 22 c29 20 39 30 28 30 -3 0 -18 -12 -33 -26z"/>
<path d="M3600 900 c-8 -5 -10 -10 -5 -10 6 0 17 5 25 10 8 5 11 10 5 10 -5 0
-17 -5 -25 -10z"/>
<path d="M3505 848 c-33 -17 -62 -33 -65 -37 -3 -4 -18 -12 -34 -19 -16 -7
-26 -15 -23 -19 3 -3 21 4 39 15 18 12 62 37 98 56 80 43 68 47 -15 4z"/>
<path d="M3300 829 c-36 -32 -26 -28 24 9 16 12 25 22 19 22 -5 0 -24 -14 -43
-31z"/>
<path d="M3224 775 c-16 -14 -33 -25 -38 -25 -5 0 -7 -3 -4 -6 7 -6 78 37 78
49 0 11 -5 9 -36 -18z"/>
<path d="M3780 790 c-44 -14 -253 -78 -329 -101 -41 -12 -86 -28 -100 -35 -14
-8 -33 -14 -41 -14 -23 0 -138 -39 -118 -39 22 -1 158 36 203 54 18 8 75 26
126 40 110 30 108 30 134 39 73 28 94 34 130 40 51 9 82 26 45 25 -14 0 -36
-4 -50 -9z"/>
<path d="M5355 780 c11 -5 83 -27 160 -50 77 -23 196 -59 265 -81 69 -22 143
-42 165 -45 24 -3 2 7 -55 26 -154 49 -263 82 -300 90 -19 5 -75 22 -123 39
-49 17 -98 31 -110 30 -21 0 -21 -1 -2 -9z"/>
<path d="M3314 745 c-10 -8 -14 -15 -8 -15 6 0 17 7 24 15 16 19 9 19 -16 0z"/>
<path d="M3139 710 c-13 -10 -19 -19 -13 -20 6 0 19 9 29 20 23 26 14 26 -16
0z"/>
<path d="M3167 667 c-65 -34 -114 -63 -110 -64 5 -2 29 8 54 22 24 13 74 40
112 60 37 19 67 37 67 40 0 7 4 9 -123 -58z"/>
<path d="M3084 675 c-10 -8 -14 -15 -8 -15 6 0 17 7 24 15 16 19 9 19 -16 0z"/>
<path d="M3125 590 l-20 -9 20 0 c11 0 27 4 35 9 13 9 13 10 0 9 -8 0 -24 -4
-35 -9z"/>
<path d="M10393 723 c-110 -4 -111 -6 -53 -97 22 -35 40 -66 40 -70 0 -5 -18
-33 -40 -65 -64 -91 -63 -91 98 -90 l137 0 27 38 c20 29 24 41 16 49 -18 18
-46 14 -53 -7 -8 -25 -17 -27 -97 -23 -75 4 -82 12 -44 53 27 30 26 51 -7 106
-24 41 -16 53 37 53 30 0 48 -6 61 -20 19 -21 50 -26 60 -10 4 6 1 26 -5 44
-11 33 -35 48 -70 44 -8 -1 -57 -4 -107 -5z"/>
<path d="M10610 350 c0 -48 15 -59 32 -23 19 39 36 40 30 2 -3 -20 0 -34 9
-40 24 -15 26 -11 25 44 l-1 52 -48 1 -47 2 0 -38z"/>
<path d="M6313 722 c-32 -5 -29 -20 5 -28 15 -3 32 -7 38 -9 15 -5 25 -86 23
-200 -1 -62 3 -100 11 -110 27 -32 32 -2 25 135 -9 180 -9 182 63 178 l57 -3
3 -144 c2 -136 9 -171 33 -171 5 0 9 69 9 153 l0 152 30 13 c47 21 36 32 -32
33 -182 4 -245 4 -265 1z"/>
<path d="M6600 412 c0 -5 7 -15 15 -22 9 -7 14 -20 11 -29 -14 -54 -16 -71 -5
-71 6 0 13 9 16 20 6 24 23 16 23 -11 0 -28 18 -23 22 6 2 14 8 25 13 25 6 -1
9 -12 7 -25 -2 -17 1 -25 11 -25 10 0 16 16 20 50 8 71 4 77 -51 76 -26 0 -55
3 -64 8 -11 5 -18 4 -18 -2z"/>
<path d="M2522 603 c-17 -7 -52 -87 -52 -119 0 -18 -5 -24 -23 -24 -49 0 -59
37 -27 100 23 46 7 56 -23 15 -31 -43 -32 -78 -2 -113 15 -18 35 -32 46 -32
17 0 19 -8 19 -61 0 -77 24 -78 28 -1 3 49 5 53 42 72 95 49 122 171 37 169
-18 0 -38 -3 -45 -6z m68 -43 c0 -43 -19 -77 -51 -90 -40 -17 -49 -7 -37 42
11 52 33 78 65 78 19 0 23 -5 23 -30z"/>
<path d="M2552 346 c3 -46 24 -59 34 -22 9 36 22 32 26 -6 4 -40 19 -38 34 4
16 48 34 47 34 -1 0 -34 3 -41 20 -41 11 0 20 5 20 10 0 6 -4 10 -9 10 -6 0
-11 19 -13 43 l-3 42 -73 0 -73 0 3 -39z"/>
<path d="M3067 5339 c7 -7 15 -10 18 -7 3 3 -2 9 -12 12 -14 6 -15 5 -6 -5z"/>
<path d="M3047 5289 c18 -18 35 -31 37 -28 3 3 -12 18 -32 33 l-37 29 32 -34z"/>
<path d="M3134 5291 c4 -6 26 -21 49 -32 23 -12 51 -29 62 -37 l20 -16 -20 21
c-23 24 -121 81 -111 64z"/>
<path d="M3090 5246 c0 -2 7 -7 16 -10 8 -3 12 -2 9 4 -6 10 -25 14 -25 6z"/>
<path d="M3130 5224 c0 -5 17 -23 37 -39 20 -17 46 -39 57 -50 11 -11 32 -29
47 -40 15 -11 75 -62 134 -113 58 -52 109 -92 111 -89 5 4 -68 69 -195 175
-53 44 -125 107 -163 141 -16 14 -28 20 -28 15z"/>
<path d="M3284 5201 c4 -6 16 -16 28 -22 15 -8 18 -8 14 0 -4 6 -16 16 -28 22
-15 8 -18 8 -14 0z"/>
<path d="M3127 5134 c11 -16 31 -38 44 -49 16 -14 13 -6 -10 22 -38 49 -65 71
-34 27z"/>
<path d="M3375 5143 c26 -27 124 -83 107 -61 -7 9 -27 23 -45 32 -18 9 -43 24
-57 33 l-25 17 20 -21z"/>
<path d="M3206 5057 c3 -10 9 -15 12 -12 3 3 0 11 -7 18 -10 9 -11 8 -5 -6z"/>
<path d="M3231 5023 c5 -16 302 -334 307 -328 2 2 -16 26 -41 52 -24 26 -73
79 -108 116 -35 38 -86 92 -113 120 -26 29 -47 47 -45 40z"/>
<path d="M5670 4260 c-14 -4 -71 -22 -127 -40 -57 -18 -103 -36 -103 -41 0
-12 6 -11 38 5 15 7 70 26 122 42 52 15 99 31 105 36 11 10 -1 9 -35 -2z"/>
<path d="M2945 4250 c3 -5 11 -10 16 -10 6 0 7 5 4 10 -3 6 -11 10 -16 10 -6
0 -7 -4 -4 -10z"/>
<path d="M2980 4235 c0 -8 73 -36 78 -30 3 3 3 5 0 5 -3 0 -22 7 -42 15 -20 8
-36 13 -36 10z"/>
<path d="M3210 4202 c19 -10 71 -28 115 -42 44 -13 89 -30 100 -37 25 -17 64
-18 48 -2 -14 14 -110 48 -136 49 -10 0 -44 11 -77 25 -67 28 -103 33 -50 7z"/>
<path d="M5755 4210 c-3 -6 1 -7 9 -4 18 7 21 14 7 14 -6 0 -13 -4 -16 -10z"/>
<path d="M3086 4178 c7 -11 74 -41 80 -35 2 2 -16 13 -41 24 -24 11 -42 16
-39 11z"/>
<path d="M5784 4142 c-16 -16 -36 -33 -45 -38 -9 -5 -32 -21 -50 -36 -19 -15
-54 -42 -78 -60 -25 -18 -46 -39 -49 -46 -2 -7 38 20 89 60 96 76 178 147 168
148 -3 0 -18 -13 -35 -28z"/>
<path d="M5644 4144 c-18 -14 -18 -14 6 -3 31 14 36 19 24 19 -6 0 -19 -7 -30
-16z"/>
<path d="M3059 4126 c14 -15 26 -26 28 -26 9 0 -24 40 -37 45 -8 4 -4 -5 9
-19z"/>
<path d="M3195 4121 c16 -15 285 -149 285 -141 0 3 -24 17 -52 30 -29 13 -64
32 -78 41 -32 21 -168 83 -155 70z"/>
<path d="M5553 4094 c-18 -9 -33 -21 -33 -26 0 -7 54 19 79 39 12 9 -18 0 -46
-13z"/>
<path d="M3125 4076 c17 -14 34 -26 38 -26 13 0 -16 25 -43 39 -22 11 -21 9 5
-13z"/>
<path d="M3195 4023 c13 -13 126 -97 145 -108 20 -11 6 3 -50 46 -47 38 -112
80 -95 62z"/>
<path d="M5180 3980 c0 -5 5 -10 11 -10 5 0 7 5 4 10 -3 6 -8 10 -11 10 -2 0
-4 -4 -4 -10z"/>
<path d="M3504 3955 c26 -19 42 -19 26 0 -7 8 -20 15 -29 15 -13 -1 -13 -3 3
-15z"/>
<path d="M3379 3886 c26 -28 31 -31 31 -17 0 5 -12 17 -27 26 l-28 18 24 -27z"/>
<path d="M3421 3857 c2 -1 13 -9 24 -17 19 -14 19 -14 6 3 -7 9 -18 17 -24 17
-6 0 -8 -1 -6 -3z"/>
<path d="M3487 3802 c26 -27 83 -65 89 -59 5 4 -91 77 -101 77 -3 0 2 -8 12
-18z"/>
<path d="M2500 3253 c-28 -36 -23 -80 13 -107 26 -19 29 -19 55 -4 17 10 31
30 36 52 8 31 6 39 -14 61 -31 33 -63 32 -90 -2z m87 -22 c23 -30 -5 -81 -43
-81 -33 0 -58 39 -45 73 5 14 16 27 23 30 19 8 51 -3 65 -22z"/>
<path d="M660 3154 c0 -67 4 -103 10 -99 6 3 10 50 10 106 0 59 -4 99 -10 99
-6 0 -10 -42 -10 -106z"/>
<path d="M955 3069 c-44 -4 -168 -15 -275 -24 -107 -9 -199 -21 -205 -27 -7
-7 22 -7 88 -3 l97 7 0 -61 c0 -34 4 -61 10 -61 6 0 10 28 10 64 l0 63 158 13
c208 16 202 16 203 24 1 12 -2 12 -86 5z"/>
<path d="M501 2910 c17 -10 81 -27 329 -86 80 -19 154 -38 165 -44 37 -17 63
-21 70 -10 3 5 -2 10 -12 10 -11 0 -23 4 -29 9 -8 7 -121 36 -224 56 -19 4
-80 20 -135 35 -115 32 -189 46 -164 30z"/>
<path d="M660 2819 c0 -51 -42 -77 -70 -44 -7 8 -17 15 -22 15 -18 0 14 -31
52 -50 l36 -18 12 39 c15 47 15 79 2 79 -5 0 -10 -9 -10 -21z"/>
<path d="M500 2821 c0 -10 39 -36 45 -29 2 2 -8 11 -21 21 -13 10 -24 13 -24
8z"/>
<path d="M676 2712 c18 -17 213 -132 222 -132 5 0 33 -17 63 -39 58 -41 118
-67 89 -38 -14 14 -96 63 -291 174 -71 40 -106 55 -83 35z"/>
<path d="M560 2665 c-13 -14 -20 -28 -17 -32 8 -7 57 35 57 49 0 15 -16 8 -40
-17z"/>
<path d="M2518 2433 c-39 -45 -24 -113 25 -113 21 0 21 1 -3 13 -30 15 -39 67
-16 86 25 21 69 10 80 -21 8 -23 6 -32 -14 -53 -19 -20 -20 -25 -7 -25 37 0
51 85 19 113 -24 22 -65 22 -84 0z"/>
<path d="M353 2298 l-33 -23 0 -137 c0 -86 4 -138 10 -138 6 0 10 29 10 68 0
102 44 149 74 80 8 -18 21 -42 30 -53 23 -30 20 0 -6 53 -20 43 -20 46 -4 77
10 18 16 45 14 61 -2 24 -8 29 -33 32 -19 2 -42 -6 -62 -20z m77 -27 c0 -21
-73 -85 -84 -74 -3 3 -6 19 -6 34 0 21 8 32 28 43 38 21 62 20 62 -3z"/>
<path d="M2538 1666 c-29 -24 -36 -62 -18 -96 11 -20 50 -33 74 -24 25 10 19
22 -8 17 -36 -7 -67 27 -57 64 8 30 28 38 67 29 20 -5 24 -13 24 -41 0 -42 15
-46 23 -7 5 21 0 33 -24 55 -36 33 -46 34 -81 3z"/>
</g>
</svg>
