<?xml version="1.0" standalone="no"?>
<!DOCTYPE svg PUBLIC "-//W3C//DTD SVG 20010904//EN"
 "http://www.w3.org/TR/2001/REC-SVG-20010904/DTD/svg10.dtd">
<svg version="1.0" xmlns="http://www.w3.org/2000/svg"
 width="671.000000pt" height="327.000000pt" viewBox="0 0 671.000000 327.000000"
 preserveAspectRatio="xMidYMid meet">
<g transform="translate(0.000000,327.000000) scale(0.100000,-0.100000)"
fill="#000000" stroke="none">
<path d="M6590 3259 c0 -5 5 -7 10 -4 6 3 10 8 10 11 0 2 -4 4 -10 4 -5 0 -10
-5 -10 -11z"/>
<path d="M2386 3231 c-4 -7 -5 -15 -2 -18 9 -9 19 4 14 18 -4 11 -6 11 -12 0z"/>
<path d="M6470 3219 c0 -5 -4 -8 -8 -5 -4 2 -14 1 -22 -5 -11 -6 -9 -9 11 -9
15 0 29 7 33 15 3 8 1 15 -4 15 -6 0 -10 -5 -10 -11z"/>
<path d="M6617 3213 c-4 -3 -7 -11 -7 -17 0 -6 5 -5 12 2 6 6 9 14 7 17 -3 3
-9 2 -12 -2z"/>
<path d="M6647 3213 c-14 -13 -6 -18 30 -20 l36 -2 -28 15 c-32 16 -30 16 -38
7z"/>
<path d="M2646 3195 c-19 -15 -19 -15 2 -15 13 0 22 6 22 15 0 18 0 18 -24 0z"/>
<path d="M14 3174 c-18 -14 -18 -14 6 -3 31 14 36 19 24 19 -6 0 -19 -7 -30
-16z"/>
<path d="M6438 3183 c7 -3 16 -2 19 1 4 3 -2 6 -13 5 -11 0 -14 -3 -6 -6z"/>
<path d="M6621 3166 c-8 -10 -9 -16 -1 -21 5 -3 10 -1 10 5 0 6 5 8 10 5 6 -3
10 1 10 9 0 20 -14 21 -29 2z"/>
<path d="M5478 3163 c7 -3 16 -2 19 1 4 3 -2 6 -13 5 -11 0 -14 -3 -6 -6z"/>
<path d="M6417 3148 c20 -23 23 -23 23 1 0 13 -6 19 -20 18 -18 -1 -18 -2 -3
-19z"/>
<path d="M2253 3115 c0 -22 2 -30 4 -17 2 12 2 30 0 40 -3 9 -5 -1 -4 -23z"/>
<path d="M5580 3136 c-6 -6 -10 -14 -10 -20 0 -6 5 -5 12 2 14 14 38 16 38 3
0 -19 -65 -80 -90 -84 -15 -3 -9 -5 18 -6 27 0 41 3 37 9 -9 14 56 90 78 90 9
0 17 -6 17 -12 0 -9 4 -8 10 2 5 8 10 17 10 20 0 9 -111 5 -120 -4z"/>
<path d="M5880 3140 c-22 -5 -27 -8 -13 -9 l22 -1 -20 -46 c-12 -25 -19 -47
-17 -49 2 -2 31 20 63 49 48 42 67 53 98 54 20 1 37 -2 37 -6 0 -19 -66 -92
-83 -92 -19 0 -18 4 15 53 11 15 15 27 9 27 -6 0 -11 -4 -11 -8 0 -4 -15 -25
-34 -45 l-34 -37 92 0 c56 0 86 4 77 9 -11 7 -7 17 20 51 19 23 43 46 54 51
12 5 -26 8 -97 8 -65 1 -117 -2 -117 -6 4 -22 -4 -34 -32 -54 l-31 -22 7 24
c4 13 14 32 23 42 8 9 13 16 11 16 -2 -1 -20 -5 -39 -9z m233 -14 c-19 -32
-74 -86 -88 -86 -22 0 -19 11 17 58 22 28 40 42 56 42 17 0 21 -4 15 -14z"/>
<path d="M2320 3130 c0 -5 5 -10 10 -10 6 0 10 5 10 10 0 6 -4 10 -10 10 -5 0
-10 -4 -10 -10z"/>
<path d="M5221 3133 c11 -3 15 -12 13 -26 l-5 -22 12 22 c6 12 19 24 28 26 9
3 -2 5 -24 5 -22 0 -33 -2 -24 -5z"/>
<path d="M5271 3099 c-23 -27 -37 -36 -42 -28 -4 8 -13 1 -23 -20 -9 -17 -14
-31 -10 -31 3 0 34 25 69 55 58 51 85 66 85 47 0 -4 -20 -29 -43 -55 -24 -26
-38 -47 -31 -47 7 0 27 19 46 43 49 63 56 69 78 65 19 -3 18 -5 -10 -38 -16
-19 -30 -38 -30 -41 0 -3 -10 -11 -22 -18 -23 -11 -23 -11 1 -5 26 7 49 30 78
77 21 33 71 41 53 8 -5 -11 -15 -23 -20 -26 -6 -3 -10 -12 -10 -18 1 -7 15 4
33 25 18 20 41 38 52 41 11 3 -34 5 -100 5 l-120 0 -34 -39z"/>
<path d="M6573 3112 c-19 -23 -20 -27 -5 -38 14 -10 13 -13 -6 -23 -12 -6 -22
-17 -21 -24 0 -9 2 -9 6 1 2 6 11 12 19 12 8 0 14 5 14 10 0 6 9 19 20 30 18
18 19 23 8 39 -13 18 -14 18 -35 -7z m22 -21 c-3 -6 -11 -8 -17 -5 -6 4 -5 9
3 15 16 10 23 4 14 -10z"/>
<path d="M4875 3113 c-5 -15 -4 -16 6 -5 13 12 49 17 49 6 0 -13 -67 -87 -85
-94 -12 -5 4 -7 40 -4 75 6 81 8 95 33 9 18 8 21 -10 21 -11 0 -28 -9 -37 -20
-16 -18 -43 -28 -43 -14 0 3 14 23 32 45 32 39 53 49 60 27 3 -7 7 -6 11 5 6
15 -1 17 -52 17 -47 0 -60 -4 -66 -17z m93 -65 c-3 -7 -13 -15 -24 -17 -16 -3
-17 -1 -5 13 16 19 34 21 29 4z"/>
<path d="M5754 3103 c-10 -15 -22 -35 -28 -43 -6 -8 -1 -6 12 4 25 22 42 15
22 -9 -8 -10 -9 -15 -2 -15 6 0 16 9 22 20 9 16 8 22 -5 26 -12 5 -13 9 -4 20
7 8 9 17 6 20 -3 3 -13 -7 -23 -23z"/>
<path d="M4680 3101 c-5 -11 -10 -26 -10 -35 0 -20 -38 -46 -67 -46 -26 0 -29
10 -10 29 10 11 9 13 -3 9 -8 -3 -16 -14 -18 -26 -3 -18 2 -22 22 -22 44 0 73
20 90 62 13 35 19 40 41 36 14 -3 28 -1 31 3 3 5 -11 9 -30 9 -25 0 -38 -6
-46 -19z"/>
<path d="M6377 3082 c-32 -33 -36 -54 -6 -26 20 18 44 54 36 54 -2 0 -15 -13
-30 -28z"/>
<path d="M6439 3094 c-10 -13 -10 -17 2 -25 21 -13 40 -7 57 19 14 21 13 22
-16 22 -16 0 -35 -7 -43 -16z m45 -9 c-6 -16 -34 -21 -34 -7 0 13 11 22 26 22
8 0 11 -6 8 -15z"/>
<path d="M2092 3088 c-15 -15 -16 -28 -2 -28 6 0 10 7 10 15 0 8 6 15 14 15
10 0 15 -18 18 -60 5 -64 14 -83 28 -60 6 9 5 17 -2 21 -11 7 -16 28 -17 82
-1 29 -27 37 -49 15z"/>
<path d="M4186 3084 c-9 -8 -16 -20 -16 -25 0 -6 -4 -8 -9 -5 -5 3 -20 -3 -32
-15 l-24 -20 23 11 c32 16 36 8 12 -18 l-21 -22 33 1 c25 0 28 2 14 8 -17 7
-17 9 6 36 46 59 51 65 40 65 -6 0 -18 -7 -26 -16z"/>
<path d="M4463 3076 c-12 -14 -30 -23 -40 -22 -10 2 -12 1 -5 -1 26 -9 1 -43
-32 -43 -16 0 -17 3 -8 12 7 7 12 15 12 20 0 4 -12 -4 -26 -19 -29 -29 -41
-25 -24 9 11 21 10 20 -14 -4 -29 -30 -52 -37 -42 -13 3 8 1 15 -4 15 -6 0
-10 -9 -10 -19 0 -17 8 -19 80 -17 66 1 80 4 80 17 0 9 9 24 21 35 20 18 44
54 36 54 -2 0 -13 -11 -24 -24z"/>
<path d="M6198 3081 c11 -7 9 -17 -12 -49 -14 -22 -33 -45 -43 -51 -13 -7 -14
-10 -4 -11 8 0 31 17 52 38 20 20 47 45 59 55 12 10 19 21 16 25 -4 3 -13 -4
-22 -16 -8 -12 -20 -22 -26 -22 -6 0 -3 9 7 20 18 20 17 20 -11 20 -20 0 -25
-3 -16 -9z"/>
<path d="M3327 3073 c-6 -10 59 -10 69 0 4 4 -9 7 -29 7 -20 0 -38 -3 -40 -7z"/>
<path d="M5062 3073 c1 -5 -3 -18 -10 -30 -7 -13 -10 -23 -6 -23 7 0 43 43 44
53 0 4 -7 7 -15 7 -8 0 -14 -3 -13 -7z"/>
<path d="M5111 3075 c2 -5 -2 -20 -9 -32 -12 -22 -11 -23 20 -22 25 1 27 3 10
6 -19 4 -21 7 -11 19 10 12 10 17 0 27 -7 7 -11 8 -10 2z"/>
<path d="M5420 3062 c0 -13 -8 -22 -22 -25 -14 -3 -8 -5 15 -6 36 -1 37 0 26
22 -17 32 -19 33 -19 9z"/>
<path d="M5625 3060 c-27 -29 -9 -38 60 -30 50 6 53 7 20 9 -36 1 -38 3 -22
15 9 7 17 16 17 20 0 4 -14 -4 -31 -19 -17 -14 -34 -23 -38 -20 -3 4 5 15 18
26 15 12 18 19 9 19 -8 0 -23 -9 -33 -20z"/>
<path d="M2058 3064 c-2 -5 -1 -25 2 -44 l6 -35 7 28 c7 26 -5 69 -15 51z"/>
<path d="M2243 3020 c0 -30 2 -43 4 -27 2 15 2 39 0 55 -2 15 -4 2 -4 -28z"/>
<path d="M3950 3055 c-7 -8 -22 -16 -34 -16 -17 -1 -17 -2 -4 -6 16 -4 16 -6
3 -19 -23 -23 -18 -34 13 -33 17 1 21 3 9 6 -22 6 -18 24 9 38 10 6 20 18 20
28 2 21 0 21 -16 2z"/>
<path d="M4726 3061 c-3 -4 6 -6 19 -3 14 2 25 6 25 8 0 8 -39 4 -44 -5z"/>
<path d="M5013 3045 c-6 -14 -9 -25 -6 -25 7 0 32 33 33 43 0 16 -16 5 -27
-18z"/>
<path d="M6516 3055 c-3 -8 -1 -15 3 -15 5 0 11 7 15 15 3 8 1 15 -3 15 -5 0
-11 -7 -15 -15z"/>
<path d="M3270 3014 c-33 -52 -30 -68 9 -61 14 3 35 7 46 9 11 2 29 14 41 28
12 14 25 22 29 18 4 -3 -3 -16 -14 -27 -12 -12 -17 -21 -13 -21 12 0 42 34 42
48 0 20 -38 13 -54 -10 -9 -12 -16 -19 -16 -15 0 5 -10 1 -22 -7 -23 -16 -58
-22 -58 -9 0 3 11 26 25 50 34 58 22 55 -15 -3z"/>
<path d="M4238 3053 c7 -3 16 -2 19 1 4 3 -2 6 -13 5 -11 0 -14 -3 -6 -6z"/>
<path d="M4305 3050 c-3 -6 1 -7 9 -4 18 7 21 14 7 14 -6 0 -13 -4 -16 -10z"/>
<path d="M6418 3052 c-51 -6 -29 -17 27 -14 30 2 55 7 55 10 0 7 -38 9 -82 4z"/>
<path d="M1660 3040 c0 -5 7 -10 16 -10 8 0 12 5 9 10 -3 6 -10 10 -16 10 -5
0 -9 -4 -9 -10z"/>
<path d="M5485 3040 c-3 -5 -1 -10 4 -10 6 0 11 5 11 10 0 6 -2 10 -4 10 -3 0
-8 -4 -11 -10z"/>
<path d="M6635 3040 c4 -6 11 -8 16 -5 14 9 11 15 -7 15 -8 0 -12 -5 -9 -10z"/>
<path d="M2090 3025 c0 -8 4 -15 10 -15 5 0 7 7 4 15 -4 8 -8 15 -10 15 -2 0
-4 -7 -4 -15z"/>
<path d="M3696 3026 c3 -7 -2 -19 -11 -26 -22 -18 -19 -30 8 -29 12 0 16 3 9
6 -10 4 -10 10 2 28 13 20 13 24 1 29 -9 3 -12 0 -9 -8z"/>
<path d="M3741 3011 c-12 -16 -21 -32 -21 -35 0 -11 39 -6 46 6 5 8 2 9 -9 5
-10 -3 -17 -2 -17 3 0 5 9 12 20 15 11 3 20 13 20 21 0 23 -17 16 -39 -15z"/>
<path d="M3809 3031 c12 -8 13 -12 1 -25 -7 -9 -10 -19 -7 -22 3 -3 13 6 22
20 10 14 24 26 31 26 12 0 12 -4 -1 -24 -13 -20 -13 -24 -2 -29 8 -3 20 -1 28
5 11 8 10 9 -3 4 -19 -6 -25 9 -8 19 6 3 10 13 10 21 0 10 -12 14 -42 14 -30
0 -39 -3 -29 -9z"/>
<path d="M4697 3034 c-11 -12 3 -24 28 -24 13 0 27 5 31 11 4 8 -1 9 -16 4
-13 -4 -25 -3 -29 4 -4 6 -10 8 -14 5z"/>
<path d="M1862 3016 c7 -8 15 -12 17 -11 5 6 -10 25 -20 25 -5 0 -4 -6 3 -14z"/>
<path d="M3497 3014 c2 -6 -3 -17 -12 -24 -8 -7 -15 -18 -15 -24 0 -6 10 1 23
15 23 27 57 45 57 30 0 -5 -7 -14 -15 -21 -8 -7 -15 -16 -15 -21 0 -14 27 -10
28 4 0 6 2 20 4 31 2 15 -4 19 -28 20 -19 1 -30 -3 -27 -10z"/>
<path d="M3589 3021 c12 -8 13 -12 1 -25 -7 -9 -11 -19 -8 -22 3 -2 13 7 22
21 9 14 24 25 33 25 14 0 14 -2 -2 -20 -10 -11 -16 -23 -13 -26 3 -3 16 9 28
25 l21 31 -48 0 c-33 0 -43 -3 -34 -9z"/>
<path d="M4202 3018 c-19 -19 -14 -28 16 -27 18 1 21 3 9 6 -11 3 -16 11 -13
19 7 17 4 18 -12 2z"/>
<path d="M4795 3020 c-3 -5 -1 -10 4 -10 6 0 11 5 11 10 0 6 -2 10 -4 10 -3 0
-8 -4 -11 -10z"/>
<path d="M2160 3010 c0 -5 7 -7 15 -4 8 4 15 8 15 10 0 2 -7 4 -15 4 -8 0 -15
-4 -15 -10z"/>
<path d="M3438 3013 c10 -4 9 -9 -4 -24 -9 -11 -15 -21 -12 -24 2 -3 17 8 31
25 l27 30 -27 -1 c-16 0 -22 -3 -15 -6z"/>
<path d="M4085 3010 c-3 -5 -17 -10 -31 -10 -13 0 -24 -4 -24 -8 0 -4 15 -6
33 -4 21 2 34 9 34 18 0 17 -4 18 -12 4z"/>
<path d="M2187 2993 c-10 -9 -9 -23 1 -23 5 0 9 7 9 15 0 17 -1 18 -10 8z"/>
<path d="M6525 2990 c3 -5 8 -10 11 -10 2 0 4 5 4 10 0 6 -5 10 -11 10 -5 0
-7 -4 -4 -10z"/>
<path d="M2092 2965 c0 -16 2 -22 5 -12 2 9 2 23 0 30 -3 6 -5 -1 -5 -18z"/>
<path d="M6230 2967 c-141 -94 -179 -116 -210 -122 -60 -11 -103 -28 -149 -57
-24 -16 -68 -35 -98 -43 -56 -15 -146 -60 -195 -99 -63 -50 -75 -59 -110 -77
-21 -10 -67 -26 -103 -34 -70 -16 -135 -44 -135 -56 0 -5 22 3 49 18 44 22 54
24 88 14 31 -9 32 -10 7 -6 -39 5 -76 -4 -68 -17 3 -5 0 -9 -7 -7 -26 3 -36
-1 -36 -16 0 -8 4 -15 9 -15 5 0 6 -4 3 -10 -3 -5 -15 -10 -26 -10 -10 0 -19
-7 -19 -15 0 -19 14 -19 31 1 7 8 26 22 43 29 l31 14 -30 -6 c-64 -12 -8 16
72 36 92 24 104 25 83 10 -13 -9 -13 -10 0 -6 8 2 15 14 15 26 0 12 7 26 15
31 21 14 32 12 24 -2 -4 -8 -3 -10 2 -5 5 5 10 13 10 18 1 5 3 11 4 14 1 3 3
8 4 13 3 15 18 32 28 32 6 0 5 -7 -3 -17 -11 -15 -11 -16 1 -5 18 15 34 16 24
0 -4 -7 -3 -8 5 -4 6 4 9 12 6 17 -4 5 -1 9 5 9 7 0 10 7 6 15 -3 10 9 23 38
40 46 27 61 31 51 15 -3 -6 1 -13 9 -16 9 -3 14 -10 11 -15 -5 -7 59 13 119
36 17 8 17 9 -5 22 -24 14 -24 14 -1 10 13 -3 20 -1 16 5 -4 6 -1 8 7 6 8 -3
13 -10 12 -16 -2 -7 4 -9 14 -5 11 4 13 8 5 11 -23 7 -1 22 24 16 14 -4 24 -2
24 5 0 6 -8 8 -17 5 -14 -5 -15 -4 -4 4 8 6 9 12 3 16 -14 8 -43 -4 -36 -15 3
-5 -2 -6 -11 -3 -12 5 -6 12 25 30 50 28 47 28 47 10 0 -8 -7 -12 -16 -9 -11
3 -10 0 3 -11 11 -9 25 -16 30 -16 7 0 8 3 1 8 -23 16 -15 32 12 27 l28 -6
-25 16 c-18 12 -19 14 -5 9 11 -3 31 -9 45 -11 21 -4 22 -3 10 7 -13 10 -13
11 3 6 25 -8 47 3 40 22 -4 13 -3 14 5 3 7 -10 15 -10 29 -3 10 6 28 10 38 9
11 -1 20 4 20 12 0 8 6 16 14 19 9 3 11 0 6 -8 -4 -7 4 -4 19 5 31 20 35 30 6
15 -14 -7 -20 -7 -20 0 0 9 17 14 48 13 10 -1 10 2 1 13 -11 14 -2 19 24 15 5
-1 6 3 2 9 -6 10 6 14 35 11 13 -2 13 0 1 8 -8 5 -21 6 -30 3 -14 -5 -14 -3
-2 11 18 23 12 21 -29 -6z m20 -11 c0 -2 -7 -7 -16 -10 -8 -3 -12 -2 -9 4 6
10 25 14 25 6z m-40 -21 c0 -3 -18 -16 -41 -30 -36 -23 -39 -28 -27 -43 12
-15 11 -16 -4 -3 -15 11 -21 11 -33 1 -8 -7 -15 -10 -15 -7 0 6 109 87 117 87
1 0 3 -2 3 -5z m-360 -181 c0 -3 -14 -10 -31 -16 l-32 -11 23 -12 c22 -12 21
-13 -28 -29 -37 -13 -56 -15 -69 -7 -14 8 -15 10 -3 11 12 0 12 2 2 9 -10 6
-6 11 15 18 30 11 116 41 121 42 1 1 2 -1 2 -5z m-255 -124 c-3 -5 -11 -10
-16 -10 -6 0 -7 5 -4 10 3 6 11 10 16 10 6 0 7 -4 4 -10z m-70 -49 c-6 -5 -28
-18 -50 -30 -28 -15 -34 -21 -20 -22 18 0 18 -1 -3 -9 -12 -5 -37 -7 -54 -3
l-32 6 50 15 c27 8 60 22 74 33 26 19 52 27 35 10z"/>
<path d="M5735 2710 c-13 -6 -15 -9 -5 -9 13 -1 13 -2 0 -12 -12 -8 -10 -9 8
-5 61 16 65 18 51 27 -17 10 -28 10 -54 -1z m42 -6 c-3 -3 -12 -4 -19 -1 -8 3
-5 6 6 6 11 1 17 -2 13 -5z"/>
<path d="M2060 2968 c0 -7 5 -20 10 -28 8 -12 10 -9 10 13 0 15 -4 27 -10 27
-5 0 -10 -6 -10 -12z"/>
<path d="M1720 2933 l-23 -38 -9 28 c-9 26 -48 40 -48 17 0 -6 8 -10 18 -8 19
3 22 -27 8 -69 -11 -33 7 -28 21 5 7 15 26 42 43 60 32 35 35 42 21 42 -5 0
-19 -17 -31 -37z"/>
<path d="M1873 2946 c-20 -13 -42 -14 -59 -3 -7 4 -17 0 -24 -8 -10 -12 -16
-13 -26 -4 -11 9 -14 8 -14 -5 0 -9 8 -16 20 -16 11 0 20 5 20 10 0 6 15 8 38
4 29 -4 41 -2 52 11 12 15 15 15 20 2 4 -12 7 -13 17 -2 16 18 -19 27 -44 11z"/>
<path d="M1966 2945 c-3 -8 -16 -15 -28 -15 -18 0 -20 -2 -8 -10 9 -6 19 -5
28 2 10 9 16 8 22 -1 5 -9 8 -4 8 13 0 28 -13 35 -22 11z"/>
<path d="M6600 2891 c0 -5 5 -13 10 -16 6 -3 10 -2 10 4 0 5 -4 13 -10 16 -5
3 -10 2 -10 -4z"/>
<path d="M2227 2841 c-3 -27 -2 -62 3 -77 6 -22 8 -11 9 49 1 42 -1 77 -3 77
-2 0 -6 -22 -9 -49z"/>
<path d="M3305 2855 c-3 -8 -7 -22 -10 -30 -8 -25 3 -17 19 15 8 17 10 30 5
30 -5 0 -12 -7 -14 -15z"/>
<path d="M3238 2848 c-3 -7 -1 -24 3 -38 7 -24 7 -23 8 7 1 17 7 34 14 36 7 4
6 6 -4 6 -9 1 -19 -5 -21 -11z"/>
<path d="M2176 2834 c-10 -25 2 -30 20 -8 8 10 13 15 11 9 -11 -22 -15 -112
-7 -125 12 -18 11 -21 13 68 2 61 -1 72 -14 72 -9 0 -20 -7 -23 -16z"/>
<path d="M2622 2838 c-27 -27 -6 -98 29 -98 26 0 59 18 59 32 0 6 -9 3 -19 -6
-30 -27 -55 -17 -59 24 -3 24 2 38 14 47 14 10 15 13 3 13 -8 0 -20 -5 -27
-12z"/>
<path d="M2680 2841 c0 -6 5 -13 10 -16 6 -3 10 1 10 9 0 9 -4 16 -10 16 -5 0
-10 -4 -10 -9z"/>
<path d="M6279 2830 c-13 -10 -20 -19 -14 -20 5 0 -1 -7 -13 -16 -12 -8 -19
-20 -16 -26 4 -6 3 -9 -2 -6 -5 3 -31 -4 -59 -16 -38 -17 -46 -24 -32 -29 11
-4 16 -3 12 3 -3 6 -2 10 4 10 20 0 21 -19 2 -29 -23 -13 -34 -14 -28 -3 3 4
-6 7 -19 7 -13 0 -24 -3 -24 -6 0 -3 -14 -6 -31 -6 -18 0 -37 -7 -44 -16 -7
-9 -18 -17 -26 -17 -11 0 -11 -2 1 -10 11 -7 11 -10 2 -10 -7 0 -10 -4 -7 -10
7 -12 26 -14 24 -2 -4 26 2 31 27 22 35 -14 113 21 191 86 32 26 77 56 101 67
23 12 42 25 42 30 0 4 -4 6 -9 3 -5 -4 -11 -1 -13 5 -3 9 -10 9 -27 -1 -15 -7
-21 -8 -17 -1 11 17 1 13 -25 -9z m-69 -89 c0 -14 -29 -21 -36 -9 -4 6 -3 8 4
4 6 -3 13 -2 17 4 8 12 15 13 15 1z m-130 -61 c8 -5 12 -11 10 -14 -3 -2 -14
2 -24 10 -22 15 -10 19 14 4z m-26 -15 c11 -8 15 -15 10 -15 -6 0 -19 7 -30
15 -10 8 -14 14 -9 14 6 0 19 -6 29 -14z"/>
<path d="M1690 2837 c0 -1 -4 -17 -9 -35 -5 -17 -6 -32 -1 -32 4 0 11 11 14
25 4 14 10 25 15 25 12 0 22 -41 13 -54 -9 -15 -13 -34 -17 -91 -2 -27 -1 -37
1 -22 l5 28 25 -26 c14 -15 27 -26 28 -24 2 2 11 18 19 34 l16 30 1 -27 c0
-15 4 -29 10 -33 5 -3 8 7 5 25 -2 18 1 30 8 31 7 0 2 4 -10 9 -13 5 -23 13
-23 18 0 5 -7 9 -15 9 -8 0 -15 -4 -15 -9 0 -4 7 -8 15 -8 15 0 11 -23 -8 -47
-7 -10 -12 -10 -21 0 -25 25 -27 49 -5 68 12 11 17 19 11 19 -7 0 -12 8 -12
18 1 20 28 59 38 54 3 -2 8 1 10 7 7 20 -23 11 -37 -11 l-14 -22 -8 22 c-5 12
-15 22 -24 22 -8 0 -15 -1 -15 -3z"/>
<path d="M2252 2815 c0 -16 2 -22 5 -12 2 9 2 23 0 30 -3 6 -5 -1 -5 -18z"/>
<path d="M1650 2810 c0 -11 4 -20 8 -20 4 0 8 9 9 20 1 11 -2 20 -8 20 -5 0
-9 -9 -9 -20z"/>
<path d="M3263 2796 c0 -13 -8 -49 -18 -80 -10 -31 -15 -59 -12 -62 6 -6 33
75 43 129 4 22 2 37 -4 37 -5 0 -9 -11 -9 -24z"/>
<path d="M6060 2805 c-14 -8 -20 -14 -14 -15 5 0 19 7 30 15 24 18 16 19 -16
0z"/>
<path d="M1895 2800 c3 -5 11 -10 16 -10 6 0 7 5 4 10 -3 6 -11 10 -16 10 -6
0 -7 -4 -4 -10z"/>
<path d="M3417 2774 c-10 -13 -14 -24 -10 -24 9 0 36 40 31 45 -2 2 -11 -8
-21 -21z"/>
<path d="M3698 2791 c9 -5 12 -20 8 -47 l-6 -39 14 35 c14 35 6 60 -18 60 -7
0 -6 -4 2 -9z"/>
<path d="M1925 2780 c-16 -4 -50 -8 -75 -10 -25 -1 -54 -5 -65 -10 -23 -10
102 -2 143 9 26 7 115 -7 140 -23 9 -5 9 -11 -2 -22 -18 -17 -30 -18 -20 -1 4
6 -2 4 -14 -6 -12 -11 -26 -16 -33 -11 -7 4 -10 3 -5 -4 9 -15 67 -12 73 5 3
7 13 13 22 13 22 1 56 28 47 37 -4 5 -13 0 -20 -9 -15 -20 -27 -14 -19 10 5
11 2 14 -10 9 -8 -3 -30 -2 -49 3 -61 15 -83 17 -113 10z"/>
<path d="M3646 2766 c-18 -28 -22 -61 -5 -51 6 4 14 17 19 29 8 19 9 19 9 -6
1 -16 5 -28 9 -28 11 0 6 60 -6 72 -6 6 -15 0 -26 -16z"/>
<path d="M6008 2783 c7 -3 16 -2 19 1 4 3 -2 6 -13 5 -11 0 -14 -3 -6 -6z"/>
<path d="M2251 2775 c0 -13 28 -50 33 -44 3 2 -4 15 -14 29 -11 14 -20 21 -19
15z"/>
<path d="M3560 2761 c-7 -15 -7 -21 0 -21 12 0 25 28 17 36 -3 3 -10 -4 -17
-15z"/>
<path d="M3470 2750 c0 -12 -32 -50 -43 -50 -4 0 -11 10 -16 22 -8 21 -8 21
-13 -4 -3 -15 -1 -33 3 -40 7 -10 9 -8 9 5 0 10 5 15 10 12 6 -4 7 -11 4 -17
-4 -6 -2 -8 4 -4 6 3 13 -2 15 -11 4 -16 5 -16 6 -1 1 19 23 25 63 20 26 -4
27 -5 11 -28 -8 -13 -25 -24 -37 -24 -17 0 -18 -2 -6 -10 12 -7 12 -12 -4 -29
-17 -18 -17 -21 -3 -27 9 -3 22 -4 29 -1 8 3 6 6 -5 6 -15 1 -12 11 22 59 23
32 41 61 41 65 0 4 -11 5 -24 1 -13 -3 -27 -1 -31 5 -4 8 -12 8 -25 1 -14 -8
-18 -6 -16 5 1 8 8 21 14 27 15 15 16 28 2 28 -5 0 -10 -4 -10 -10z"/>
<path d="M1686 2735 c-3 -8 -1 -15 4 -15 6 0 10 7 10 15 0 8 -2 15 -4 15 -2 0
-6 -7 -10 -15z"/>
<path d="M5011 2733 c7 -12 15 -20 18 -17 3 2 -3 12 -13 22 -17 16 -18 16 -5
-5z"/>
<path d="M3280 2728 c0 -21 22 -45 48 -51 12 -3 20 -1 16 4 -3 5 0 9 5 9 6 0
11 5 11 10 0 7 -7 7 -20 0 -23 -12 -40 -6 -40 15 0 8 -4 17 -10 20 -5 3 -10 0
-10 -7z"/>
<path d="M2347 2723 c-3 -4 1 -17 9 -28 10 -13 14 -15 14 -4 0 20 -16 43 -23
32z"/>
<path d="M1925 2695 c-24 -29 -35 -32 -35 -7 0 11 -8 18 -20 19 -11 1 -20 -3
-20 -8 0 -6 5 -7 10 -4 6 3 10 -1 10 -10 0 -9 -4 -13 -10 -10 -5 3 -10 2 -10
-3 0 -16 58 -8 80 11 11 9 26 17 33 17 8 0 7 -3 -3 -10 -8 -5 -11 -12 -7 -17
11 -10 27 17 20 34 -8 20 -26 15 -48 -12z"/>
<path d="M2120 2711 c0 -16 28 -20 40 -5 10 12 8 14 -14 14 -14 0 -26 -4 -26
-9z"/>
<path d="M2275 2711 c-3 -5 -1 -12 5 -16 5 -3 10 1 10 9 0 18 -6 21 -15 7z"/>
<path d="M2231 2689 c0 -13 3 -19 5 -12 3 7 13 9 22 6 18 -7 17 -5 -10 16 -16
12 -18 11 -17 -10z"/>
<path d="M2167 2693 c-4 -6 0 -13 8 -17 8 -3 15 -16 15 -30 0 -28 -15 -43 -23
-24 -3 8 -6 6 -6 -4 -1 -10 3 -18 7 -18 15 0 32 24 32 45 0 27 -25 62 -33 48z"/>
<path d="M3626 2691 c-8 -12 23 -43 37 -38 6 2 11 13 12 25 1 11 -2 19 -7 16
-4 -3 -8 -12 -8 -20 0 -8 -5 -12 -10 -9 -6 4 -8 10 -5 15 3 5 1 11 -4 14 -5 4
-12 2 -15 -3z"/>
<path d="M3717 2683 c-4 -3 -7 -11 -7 -17 0 -6 5 -5 12 2 6 6 9 14 7 17 -3 3
-9 2 -12 -2z"/>
<path d="M5077 2669 c7 -7 15 -10 18 -7 3 3 -2 9 -12 12 -14 6 -15 5 -6 -5z"/>
<path d="M5635 2659 c-16 -12 -22 -19 -12 -15 9 3 17 1 17 -4 0 -6 -5 -10 -12
-10 -6 0 -8 -3 -5 -6 9 -9 38 16 32 27 -3 4 3 12 12 18 10 6 14 10 8 11 -5 0
-23 -10 -40 -21z"/>
<path d="M2010 2653 c8 -3 24 -13 35 -22 20 -16 20 -16 1 7 -11 12 -26 22 -35
21 -14 0 -14 -1 -1 -6z"/>
<path d="M3690 2650 c0 -5 5 -10 11 -10 5 0 7 5 4 10 -3 6 -8 10 -11 10 -2 0
-4 -4 -4 -10z"/>
<path d="M3765 2640 c10 -11 20 -20 23 -20 3 0 -3 9 -13 20 -10 11 -20 20 -23
20 -3 0 3 -9 13 -20z"/>
<path d="M5912 2640 c-18 -11 -38 -20 -46 -20 -7 0 -21 -9 -31 -20 -9 -10 -22
-18 -27 -17 -6 1 -13 -5 -15 -13 -4 -13 -3 -13 6 0 6 8 11 12 11 7 0 -4 11 0
25 9 14 9 25 12 25 8 0 -12 -91 -67 -98 -59 -3 3 -1 5 5 5 5 0 10 7 10 15 0
19 1 20 -33 -11 -16 -15 -24 -23 -17 -20 6 3 14 3 17 -2 3 -5 0 -9 -7 -10 -47
-6 -107 -26 -107 -36 0 -6 29 3 45 14 6 3 21 7 35 7 14 1 19 -1 13 -4 -7 -2
-15 -4 -18 -4 -3 1 -14 -8 -25 -19 -13 -13 -28 -18 -43 -15 -12 3 -31 -1 -42
-10 l-20 -15 20 7 c18 6 18 5 7 -10 -13 -15 -16 -15 -38 0 -16 10 -24 11 -24
4 0 -7 -4 -9 -10 -6 -11 7 -47 -10 -42 -19 7 -16 0 -23 -21 -19 -27 5 -94 -23
-163 -68 -28 -19 -60 -39 -70 -46 -17 -10 -17 -11 6 -6 20 4 22 3 10 -7 -13
-10 -13 -11 0 -7 8 2 15 10 15 17 0 7 6 15 14 18 9 3 11 0 6 -8 -6 -9 -3 -9
14 -1 24 13 28 23 6 15 -27 -11 -16 3 25 30 45 30 49 31 46 14 -3 -20 -16 -38
-27 -38 -6 0 -7 5 -3 12 5 7 3 8 -5 4 -7 -5 -10 -11 -6 -14 10 -11 -109 -80
-125 -72 -8 4 -28 10 -45 13 l-30 6 30 -15 c27 -14 28 -14 5 -11 -14 3 -32 7
-40 11 -9 3 -38 -12 -75 -39 -33 -25 -65 -45 -72 -45 -7 0 -13 -4 -13 -10 0
-6 9 -6 26 1 29 11 40 7 29 -11 -4 -6 -13 -9 -21 -6 -7 3 -16 1 -20 -5 -4 -6
-13 -4 -25 7 -18 17 -20 16 -33 -1 -7 -10 -17 -15 -23 -12 -5 3 -24 -3 -41
-14 -18 -10 -34 -19 -37 -19 -2 0 -12 24 -21 53 -14 45 -22 56 -48 65 -17 6
-42 9 -56 6 -17 -4 -21 -3 -12 4 23 16 -11 22 -52 10 -25 -8 -32 -14 -24 -20
18 -11 30 -10 23 2 -8 13 2 12 45 -6 26 -11 28 -13 9 -9 -34 6 -99 -19 -74
-29 22 -8 27 -8 21 2 -2 4 14 8 36 8 22 1 35 -2 29 -6 -7 -3 1 -7 17 -7 16 0
29 6 29 12 0 7 -9 10 -21 8 -16 -4 -18 -2 -7 5 11 8 11 10 0 15 -11 4 -11 6 1
6 8 0 26 -6 40 -14 15 -9 19 -14 10 -15 -10 0 -11 -3 -4 -8 6 -4 16 -17 23
-29 11 -21 8 -25 -34 -45 -30 -15 -41 -25 -32 -30 6 -4 17 -8 22 -8 6 0 4 4
-3 8 -8 6 -1 13 23 25 l35 16 8 -32 c6 -21 5 -37 -2 -46 -8 -11 -8 -13 2 -7
18 11 15 -5 -5 -21 -16 -13 -15 -13 7 -2 35 16 70 50 64 61 -3 5 0 8 7 7 14
-2 101 34 174 73 22 11 63 33 90 47 28 14 51 29 53 33 2 4 9 5 17 2 17 -7 87
28 152 77 68 51 130 85 171 94 26 5 31 10 23 18 -8 8 -14 8 -19 2 -11 -16 -41
-15 -35 1 3 8 15 12 31 9 48 -7 57 -8 75 -7 10 1 16 6 13 10 -3 5 5 8 17 8 14
-1 21 4 19 13 -2 9 3 11 13 7 9 -3 24 3 35 14 31 31 138 102 203 134 39 20 53
32 45 38 -10 6 -10 8 0 8 7 0 10 5 7 10 -9 14 -15 13 -53 -10z m35 -5 c0 -17
-13 -20 -21 -6 -4 5 0 12 6 14 7 3 13 6 14 6 0 1 1 -6 1 -14z m-310 -191 c-3
-3 -12 -4 -19 -1 -8 3 -5 6 6 6 11 1 17 -2 13 -5z m-177 -74 c-19 -13 -30 -13
-30 0 0 6 10 10 23 10 18 0 19 -2 7 -10z m-55 -19 c3 -5 1 -12 -5 -16 -5 -3
-10 1 -10 9 0 18 6 21 15 7z m-250 -153 c-18 -11 -38 -1 -29 14 4 7 2 8 -5 4
-6 -4 -9 -12 -6 -17 6 -9 -56 -51 -72 -50 -20 2 -4 24 36 50 37 25 47 28 68
18 20 -9 21 -12 8 -19z m-189 -90 c4 -6 3 -8 -4 -5 -14 9 -43 -3 -36 -14 3 -5
-2 -6 -11 -3 -9 4 -15 3 -13 -2 3 -9 -5 -14 -23 -14 -5 0 -7 5 -3 12 4 7 3 8
-5 4 -7 -4 -11 -17 -9 -28 2 -14 -3 -22 -14 -24 -12 -1 -18 4 -18 17 0 22 55
60 75 53 7 -3 16 -1 20 5 8 14 32 14 41 -1z"/>
<path d="M5068 2178 c-13 -13 -17 -17 -8 -10 9 6 22 12 28 12 6 0 14 5 17 10
11 19 -14 10 -37 -12z"/>
<path d="M3431 2596 c-14 -25 -7 -51 10 -40 5 3 7 9 4 14 -3 5 -1 19 5 30 6
11 7 20 2 20 -5 0 -14 -11 -21 -24z"/>
<path d="M2076 2602 c-3 -5 1 -9 9 -9 8 0 15 4 15 9 0 4 -4 8 -9 8 -6 0 -12
-4 -15 -8z"/>
<path d="M2170 2580 c0 -5 5 -10 10 -10 6 0 10 5 10 10 0 6 -4 10 -10 10 -5 0
-10 -4 -10 -10z"/>
<path d="M2970 2581 c66 -6 69 -8 25 -9 -30 -2 -45 -6 -37 -10 7 -5 41 -5 75
0 42 6 73 5 98 -3 27 -8 56 -8 110 -1 l74 11 -90 -4 c-58 -2 -78 0 -55 5 l35
7 -45 2 c-25 0 -94 3 -155 5 -89 3 -96 2 -35 -3z"/>
<path d="M4628 2583 c7 -3 16 -2 19 1 4 3 -2 6 -13 5 -11 0 -14 -3 -6 -6z"/>
<path d="M2046 2563 c-4 -9 -2 -21 4 -27 7 -7 10 -2 10 17 0 31 -5 34 -14 10z"/>
<path d="M2765 2564 c-33 -10 -80 -14 -140 -11 -49 2 -106 0 -125 -4 -26 -6
-20 -7 25 -4 43 3 54 2 40 -5 -14 -6 -1 -8 42 -3 75 7 169 -5 138 -18 -12 -4
-14 -8 -5 -8 8 0 24 4 35 8 17 7 16 9 -9 15 -16 4 -26 9 -23 12 3 4 22 1 41
-6 44 -14 68 -4 40 18 -17 13 -14 14 31 8 28 -4 58 -9 68 -12 9 -3 17 -1 17 4
0 9 -74 23 -109 21 -9 0 -38 -7 -66 -15z m50 -14 c13 -6 15 -9 5 -9 -8 0 -22
4 -30 9 -18 12 -2 12 25 0z"/>
<path d="M2080 2550 c-9 -6 -10 -10 -3 -10 6 0 15 5 18 10 8 12 4 12 -15 0z"/>
<path d="M3030 2550 l-45 -7 58 -1 c32 -1 57 2 57 8 0 11 -1 11 -70 0z"/>
<path d="M3285 2550 c-39 -6 -39 -6 -10 -12 23 -4 20 -5 -12 -4 -50 1 -44 -12
7 -14 58 -3 72 -1 64 11 -4 8 1 9 17 4 27 -8 24 -2 -6 12 -11 5 -38 6 -60 3z"/>
<path d="M2863 2543 c9 -2 25 -2 35 0 9 3 1 5 -18 5 -19 0 -27 -2 -17 -5z"/>
<path d="M2310 2525 c-36 -7 -53 -13 -39 -14 15 -1 42 -3 60 -6 27 -4 30 -3
14 4 -15 8 -6 9 31 5 29 -4 54 -2 57 3 4 6 30 9 59 7 l53 -3 -50 9 c-66 11
-106 10 -185 -5z m108 -2 c-10 -2 -26 -2 -35 0 -10 3 -2 5 17 5 19 0 27 -2 18
-5z"/>
<path d="M3158 2533 c12 -2 30 -2 40 0 9 3 -1 5 -23 4 -22 0 -30 -2 -17 -4z"/>
<path d="M2157 2523 c-4 -3 -28 -12 -54 -19 -42 -11 -44 -13 -18 -14 24 -2 19
-5 -25 -16 l-55 -13 50 5 c51 5 95 -9 65 -21 -8 -3 -35 -10 -60 -15 l-45 -9
44 3 c45 5 46 -9 1 -17 -23 -4 -23 -4 5 -6 26 -2 27 -3 10 -11 -17 -7 -17 -9
-2 -9 9 -1 17 -8 17 -16 0 -9 -6 -15 -12 -14 -7 1 -33 0 -58 -1 l-45 -3 55 -7
55 -7 -50 -3 -50 -3 50 -7 50 -7 -40 -3 -40 -3 35 -7 35 -7 -40 -3 -40 -3 40
-7 40 -7 -40 -3 -40 -3 50 -7 50 -7 -40 -3 c-40 -2 -40 -2 -10 -11 21 -6 9 -7
-39 -4 -38 3 -71 6 -73 9 -4 4 13 114 23 149 3 10 16 17 32 18 l27 1 -30 8
c-28 7 -29 8 -5 10 23 1 23 2 5 9 l-20 8 20 5 20 6 -20 1 c-17 1 -18 3 -5 12
12 8 10 9 -10 5 -14 -3 -38 -6 -55 -6 -31 0 -25 -15 10 -23 28 -6 -28 2 -66 9
-18 4 -29 3 -26 -2 3 -5 -40 -9 -96 -9 -96 0 -106 -2 -182 -37 -44 -20 -94
-48 -111 -62 -34 -27 -177 -224 -177 -243 0 -7 -3 -11 -5 -8 -9 9 -42 -27 -35
-39 3 -6 3 -8 -2 -4 -4 4 -32 -13 -61 -37 -30 -24 -80 -56 -112 -71 -31 -16
-60 -32 -63 -36 -3 -5 -12 -7 -20 -5 -8 2 -11 2 -7 0 18 -11 -7 -33 -36 -32
l-31 1 30 9 c23 6 16 7 -25 4 -39 -3 -51 -2 -40 6 12 8 10 9 -10 7 -14 -2 -24
-9 -23 -16 2 -9 -33 -12 -145 -11 -96 1 -138 4 -122 10 18 6 12 7 -20 2 -25
-3 -63 -12 -85 -21 -22 -8 -84 -17 -138 -21 -108 -7 -137 -25 -42 -27 l60 -1
-60 7 -60 7 53 1 c29 1 63 -4 75 -10 20 -12 14 -14 -48 -19 l-70 -5 70 -2 c49
-1 102 6 170 24 83 22 116 26 195 22 52 -2 115 -1 140 2 32 5 19 7 -48 7 -50
0 -95 3 -99 6 -3 4 32 7 79 7 47 0 101 2 119 5 28 4 30 3 14 -5 -15 -8 -8 -9
30 -5 87 10 109 16 94 26 -10 7 -6 8 12 4 32 -8 69 22 47 37 -9 7 -8 8 5 4 10
-3 22 -6 25 -6 4 0 0 -5 -8 -11 -11 -8 -8 -9 15 -5 l30 6 -35 -20 c-26 -14
-30 -19 -15 -20 35 0 2 -18 -65 -33 -36 -8 -56 -16 -45 -16 26 -1 114 23 145
39 41 21 100 71 95 79 -2 5 8 19 22 32 l27 24 -18 -30 c-12 -20 -1 -13 33 23
64 68 142 163 113 138 -12 -11 -22 -14 -22 -8 0 6 4 14 10 17 5 3 26 30 46 60
37 56 51 69 40 38 -3 -10 11 1 32 23 20 23 47 47 59 53 13 6 22 17 20 24 -1 6
9 13 23 14 22 2 23 2 5 -6 -13 -6 -15 -10 -5 -10 15 0 91 38 77 39 -5 0 -17
-5 -29 -11 -11 -6 -22 -8 -25 -6 -3 3 8 12 24 21 46 25 19 18 -49 -13 -70 -32
-111 -60 -89 -61 11 0 10 -5 -4 -20 -22 -24 -34 -18 -14 7 12 15 12 16 -1 8
-9 -5 -8 0 4 13 20 23 9 31 -13 10 -10 -11 -11 -10 -6 5 4 9 12 18 19 18 6 1
18 3 26 4 31 3 49 17 42 33 -5 15 -4 15 11 3 17 -13 22 -7 18 21 0 4 6 5 14 2
8 -4 12 -10 9 -15 -3 -5 2 -6 11 -3 13 5 13 9 3 22 -10 12 -10 14 -1 8 7 -4
22 -2 34 5 12 6 74 12 138 14 81 2 107 0 86 -6 -16 -5 -55 -7 -85 -4 -41 4
-50 3 -35 -5 15 -7 6 -8 -32 -4 -28 3 -58 2 -67 -3 -8 -4 35 -8 104 -8 65 0
114 3 108 6 -5 3 5 9 22 13 43 8 60 7 35 -4 l-20 -9 20 0 c17 -1 17 -3 5 -11
-9 -6 -10 -10 -3 -10 8 0 11 -16 10 -45 -2 -45 -2 -46 -51 -60 -27 -8 -59 -16
-70 -16 -15 -1 -12 -4 9 -9 21 -5 24 -8 9 -9 -33 -2 -162 -48 -212 -76 -25
-14 -47 -23 -49 -21 -11 10 77 56 147 77 41 12 70 24 65 26 -6 2 -44 -8 -84
-22 -84 -28 -159 -80 -218 -151 -38 -46 -39 -50 -23 -66 15 -17 18 -15 54 21
21 22 35 44 32 49 -3 6 -2 13 4 17 5 3 10 11 10 16 0 6 -4 7 -10 4 -5 -3 -10
-2 -10 4 0 17 22 24 31 10 5 -8 3 -20 -6 -29 -9 -10 -11 -20 -5 -30 9 -14 15
-6 10 15 -1 6 2 7 6 3 4 -4 13 -3 21 4 7 6 16 9 19 6 5 -6 -67 -63 -80 -63 -5
0 -10 -8 -12 -18 -3 -23 -14 -36 -14 -17 0 9 -6 8 -20 -5 -11 -10 -20 -14 -20
-10 0 4 -9 0 -21 -11 -12 -10 -24 -18 -28 -17 -3 0 -5 -3 -4 -8 2 -5 -3 -8
-10 -6 -11 2 -13 -3 -16 -45 0 -10 -6 -18 -11 -18 -7 0 -7 6 0 20 16 29 -5 25
-29 -6 -11 -14 -17 -32 -14 -40 4 -11 8 -12 13 -4 5 8 9 6 14 -6 6 -15 9 -16
16 -4 5 8 6 19 3 25 -4 5 -2 6 2 2 5 -4 59 42 120 102 64 64 133 123 165 140
30 17 48 31 40 32 -18 1 17 17 40 18 13 1 13 0 0 -10 -19 -13 13 -5 88 22 29
10 62 19 73 19 11 0 22 6 24 13 4 8 33 12 98 12 84 0 97 3 149 32 67 36 123
48 158 33 24 -10 24 -10 -5 -5 -16 3 -43 1 -60 -4 -29 -9 -29 -9 13 -10 24 -1
75 4 114 11 55 9 87 8 149 -1 68 -12 88 -11 153 3 124 28 272 25 396 -7 79
-20 112 -25 135 -18 17 5 25 10 19 10 -7 1 -15 13 -19 29 l-8 27 -13 -32 c-8
-18 -20 -33 -27 -33 -8 0 -7 4 3 11 12 8 8 9 -15 5 l-30 -5 29 13 28 13 -48
12 c-31 8 -44 15 -35 20 9 6 3 12 -20 20 -43 15 -51 13 -14 -4 30 -14 30 -14
5 -15 -21 -2 -20 -3 10 -12 35 -10 35 -10 10 -20 -30 -11 -74 -2 -64 14 5 7
-8 9 -42 5 -56 -7 -48 -1 17 13 l44 9 -55 -4 c-30 -3 -80 -5 -110 -6 -39 0
-49 -3 -35 -9 12 -5 -8 -7 -55 -6 -87 3 -128 -3 -109 -14 6 -5 -28 -6 -77 -3
-49 3 -91 7 -93 9 -2 2 29 4 70 5 41 0 83 4 94 8 22 9 -122 3 -200 -8 -27 -4
-63 -4 -80 0 -23 5 -14 7 35 9 51 3 56 4 25 8 -35 3 -70 -1 -210 -24 -23 -4
-26 -3 -15 5 12 8 8 11 -17 11 -17 0 -34 -4 -37 -9 -4 -5 4 -7 16 -4 13 3 -3
-9 -36 -26 -32 -18 -60 -30 -62 -28 -3 2 11 12 31 21 19 9 35 19 35 21 0 6
-32 -6 -47 -17 -7 -6 -17 -8 -23 -6 -17 5 69 51 110 59 31 6 32 7 7 8 -15 0
-46 -8 -68 -20 -22 -11 -46 -18 -52 -16 -7 2 12 14 41 27 29 12 51 25 48 27
-3 3 -18 -2 -34 -10 -29 -14 -30 -13 -41 9 -9 20 -8 24 7 25 10 0 12 3 5 6
-26 10 -11 21 49 33 34 8 57 15 51 17 -7 3 -28 0 -47 -6 -22 -5 -38 -6 -42 0
-3 5 3 9 13 9 15 0 16 2 3 10 -8 5 -12 11 -9 14 10 10 152 26 188 21 32 -4 33
-4 8 4 -15 5 -62 13 -105 17 -74 8 -75 9 -32 15 l45 6 -41 1 c-22 1 -44 -1
-47 -5z m51 -24 l37 -1 -40 -9 c-45 -9 -96 -11 -61 -2 15 4 16 7 5 15 -11 8
-10 9 4 4 10 -3 35 -7 55 -7z m-761 -176 c1 -10 3 -30 6 -45 2 -15 1 -25 -3
-23 -12 8 -105 -115 -105 -140 0 -16 -35 -61 -35 -45 0 9 -8 6 -25 -10 -28
-26 -26 -41 2 -19 10 7 5 -1 -11 -18 -15 -17 -34 -29 -42 -26 -8 3 -17 -2 -20
-11 -3 -9 -11 -16 -16 -16 -6 0 -4 8 3 18 12 15 12 16 -2 4 -9 -7 -15 -23 -14
-37 3 -19 -6 -32 -38 -55 -47 -34 -69 -40 -42 -10 16 18 16 20 1 26 -9 3 -13
11 -9 17 4 6 0 8 -10 4 -10 -3 -17 -5 -17 -3 0 6 73 48 85 50 19 3 35 17 30
26 -6 9 12 23 32 26 6 1 9 -5 7 -14 -3 -10 10 0 30 22 20 21 34 42 31 46 -2 3
10 23 26 43 17 20 27 41 24 47 -4 6 -1 9 7 8 7 -2 13 5 13 14 0 10 4 18 9 17
12 -1 55 64 49 74 -3 5 3 17 13 28 21 23 19 23 21 2z m102 3 c-2 -2 -15 -9
-29 -16 -23 -12 -24 -12 -11 3 7 10 20 17 29 17 8 0 13 -2 11 -4z m846 -26
l20 -9 -20 1 c-11 0 -31 4 -45 8 l-25 8 25 0 c14 0 34 -3 45 -8z m750 -10
c-11 -5 -27 -9 -35 -9 -13 -1 -13 0 0 9 8 5 24 9 35 9 l20 0 -20 -9z m-512 -7
c-13 -2 -33 -2 -45 0 -13 2 -3 4 22 4 25 0 35 -2 23 -4z m-738 -13 c-13 -6
-15 -9 -5 -9 13 -1 13 -2 0 -11 -13 -8 -13 -10 2 -10 9 0 19 6 21 13 4 9 6 9
6 -1 1 -8 -8 -16 -20 -19 -16 -5 -18 -8 -7 -15 8 -5 2 -6 -17 -2 -23 4 -27 3
-15 -5 12 -9 10 -10 -10 -6 -14 3 -43 -1 -65 -10 l-40 -15 35 6 c27 4 31 3 20
-5 -8 -6 -31 -9 -50 -6 -21 3 -45 -1 -60 -10 -16 -9 -19 -15 -10 -15 8 -1 -2
-10 -23 -21 -21 -11 -42 -17 -48 -14 -5 4 -16 1 -24 -5 -11 -9 -14 -7 -12 10
2 36 92 80 242 120 42 11 60 19 45 20 l-25 2 25 8 c34 11 60 11 35 0z m-368
-170 c-2 -11 -10 -26 -17 -33 -12 -10 -12 -9 -1 6 9 11 10 17 3 17 -6 0 -16
-9 -22 -20 -6 -11 -8 -20 -4 -20 3 0 1 -7 -6 -15 -22 -27 -35 0 -14 27 49 62
66 72 61 38z m-27 -103 c0 -2 -15 -16 -32 -33 l-33 -29 29 33 c28 30 36 37 36
29z m-73 -63 c-3 -3 -12 -4 -19 -1 -8 3 -5 6 6 6 11 1 17 -2 13 -5z m-397 -29
c-7 -9 -15 -13 -17 -11 -7 7 7 26 19 26 6 0 6 -6 -2 -15z m-513 -41 c-3 -3
-12 -4 -19 -1 -8 3 -5 6 6 6 11 1 17 -2 13 -5z m53 -15 c-36 -4 -85 -15 -109
-23 -24 -9 -55 -15 -70 -15 -22 1 -21 3 9 9 26 6 29 8 11 9 -30 1 -25 6 14 15
22 5 26 4 15 -4 -21 -14 -3 -12 50 4 25 8 68 14 95 14 49 -1 48 -1 -15 -9z"/>
<path d="M1394 2235 c-9 -14 -21 -22 -27 -18 -6 3 -7 1 -3 -6 4 -6 -2 -26 -14
-44 l-22 -32 30 35 c33 38 66 90 58 90 -3 0 -13 -11 -22 -25z"/>
<path d="M1304 2108 l-19 -23 23 19 c21 18 27 26 19 26 -2 0 -12 -10 -23 -22z"/>
<path d="M1319 2093 c-13 -16 -12 -17 4 -4 9 7 17 15 17 17 0 8 -8 3 -21 -13z"/>
<path d="M1196 2021 c-3 -5 1 -11 9 -14 9 -4 12 -1 8 9 -6 16 -10 17 -17 5z"/>
<path d="M1246 2013 c-6 -14 -5 -15 5 -6 7 7 10 15 7 18 -3 3 -9 -2 -12 -12z"/>
<path d="M1124 1959 c-16 -10 -24 -19 -17 -19 6 0 15 5 18 10 3 6 12 10 18 10
7 -1 2 -9 -10 -19 -20 -17 -21 -20 -6 -25 9 -4 22 0 30 9 7 8 8 10 1 5 -7 -6
-17 -10 -22 -10 -6 1 2 11 17 24 37 30 13 43 -29 15z"/>
<path d="M1835 2233 c-58 -12 -204 -67 -225 -85 -14 -11 -19 -17 -12 -13 6 3
12 1 12 -6 0 -7 3 -9 8 -5 4 4 7 13 7 19 0 10 124 57 225 85 35 10 24 14 -15
5z"/>
<path d="M2628 2523 c17 -2 47 -2 65 0 17 2 3 4 -33 4 -36 0 -50 -2 -32 -4z"/>
<path d="M2928 2523 c29 -2 74 -2 100 0 26 2 2 3 -53 3 -55 0 -76 -1 -47 -3z"/>
<path d="M4790 2515 c-7 -9 -10 -19 -6 -23 4 -4 14 1 21 12 16 21 35 13 35
-15 0 -10 5 -19 10 -19 6 0 10 -7 10 -17 0 -9 3 -13 7 -10 3 4 2 17 -4 30 -6
12 -14 30 -17 40 -7 21 -39 22 -56 2z"/>
<path d="M2800 2510 c-20 -6 -21 -8 -5 -8 11 0 34 4 50 8 27 7 27 8 5 8 -14 0
-36 -4 -50 -8z"/>
<path d="M3108 2513 c12 -2 32 -2 45 0 12 2 2 4 -23 4 -25 0 -35 -2 -22 -4z"/>
<path d="M3360 2511 c11 -8 4 -10 -27 -7 -34 4 -43 1 -48 -14 -5 -16 -11 -17
-38 -9 -17 5 -45 8 -62 8 -19 -1 -11 -5 24 -10 30 -5 56 -11 58 -12 1 -2 -9
-31 -23 -66 -14 -34 -23 -65 -20 -69 3 -3 6 0 6 7 0 7 4 10 9 7 4 -3 13 6 19
19 7 14 20 25 29 25 15 0 16 -2 3 -10 -8 -5 -10 -10 -5 -10 6 0 17 5 25 10 13
9 13 10 0 10 -13 0 -13 1 0 10 11 8 7 9 -15 4 -20 -4 -26 -3 -17 4 8 5 14 13
14 17 0 4 -6 12 -14 16 -10 7 -9 9 5 9 9 0 18 5 18 10 1 6 2 16 3 22 0 7 10
14 21 15 l20 3 -20 -9 -20 -10 20 -1 c20 -1 20 -2 1 -9 -19 -7 -19 -8 2 -13
12 -4 32 -3 44 0 22 5 22 6 -7 19 l-30 14 30 -6 c19 -4 25 -2 17 3 -8 5 -13
13 -12 18 1 5 -4 10 -12 12 -9 2 -8 0 2 -7z"/>
<path d="M2473 2503 c15 -2 37 -2 50 0 12 2 0 4 -28 4 -27 0 -38 -2 -22 -4z"/>
<path d="M2608 2503 c23 -2 59 -2 80 0 20 2 1 4 -43 4 -44 0 -61 -2 -37 -4z"/>
<path d="M2911 2506 c2 -2 45 -5 94 -8 50 -3 77 -2 60 2 -30 8 -162 13 -154 6z"/>
<path d="M3218 2503 c12 -2 32 -2 45 0 12 2 2 4 -23 4 -25 0 -35 -2 -22 -4z"/>
<path d="M4470 2495 c7 -9 15 -13 17 -11 7 7 -7 26 -19 26 -6 0 -6 -6 2 -15z"/>
<path d="M2388 2493 c6 -2 18 -2 25 0 6 3 1 5 -13 5 -14 0 -19 -2 -12 -5z"/>
<path d="M2748 2493 c7 -3 16 -2 19 1 4 3 -2 6 -13 5 -11 0 -14 -3 -6 -6z"/>
<path d="M2810 2490 c-16 -6 -6 -7 30 -3 30 3 57 7 59 9 8 7 -64 2 -89 -6z"/>
<path d="M3411 2489 c11 -7 11 -9 -1 -9 -13 0 -13 -1 0 -10 8 -5 20 -10 25
-10 6 0 3 5 -5 10 -22 14 5 13 32 -1 15 -8 19 -8 14 0 -4 6 -2 11 3 11 18 0
13 -18 -9 -33 -11 -8 -17 -17 -12 -22 4 -4 -4 -4 -18 0 -24 7 -24 7 -5 -8 19
-15 19 -16 2 -22 -14 -6 -15 -10 -6 -21 7 -8 9 -17 5 -21 -3 -3 -6 0 -6 8 0 9
-7 5 -19 -10 -18 -24 -19 -24 -65 -8 -27 9 -44 12 -40 5 5 -7 -2 -9 -20 -4
-48 12 -27 -2 40 -25 49 -18 61 -25 47 -30 -10 -4 -12 -8 -5 -8 18 -1 15 -31
-4 -31 -8 0 -13 -4 -10 -9 4 -5 -4 -7 -16 -4 -23 4 -23 4 1 -10 17 -10 20 -16
10 -19 -8 -3 9 -10 37 -16 29 -6 77 -23 108 -36 31 -14 60 -25 64 -26 27 -2
232 -237 232 -266 0 -4 13 -28 30 -53 16 -26 36 -72 44 -104 16 -63 23 -177
12 -196 -5 -7 5 -11 29 -11 20 0 34 4 31 8 -2 4 21 5 52 1 31 -4 80 -8 108 -8
l51 -1 1 60 c1 70 31 146 80 202 27 30 30 37 17 48 -8 6 -19 9 -25 5 -24 -15
-7 6 22 26 17 13 28 16 23 8 -13 -20 -15 -38 -5 -44 11 -7 80 26 75 36 -3 4 3
5 14 2 28 -7 128 14 209 44 55 21 72 32 72 47 0 10 8 25 18 32 16 13 16 14 -3
8 l-20 -6 20 17 c20 17 20 17 -2 11 -19 -6 -23 -2 -32 31 -12 46 -9 71 10 84
10 7 7 8 -11 4 -20 -5 -27 0 -37 22 -7 15 -13 33 -13 41 0 9 -6 12 -16 8 -9
-3 -38 -6 -65 -6 -28 0 -48 -3 -46 -7 3 -5 -39 -8 -94 -8 -54 0 -99 4 -99 9 0
4 -21 5 -47 2 -34 -5 -44 -4 -33 3 24 17 -22 14 -61 -4 l-34 -15 40 5 40 5
-40 -13 -40 -13 44 -7 c24 -4 46 -5 49 -2 3 3 -6 5 -19 6 l-24 1 25 8 c14 4
36 8 50 8 22 1 23 0 5 -7 -15 -6 -10 -9 25 -15 34 -5 41 -9 30 -17 -15 -10
115 -11 153 -1 26 7 21 17 -10 20 -14 1 -29 5 -32 8 -3 4 28 3 69 -1 41 -4 83
-7 92 -8 31 -2 5 -15 -52 -26 -49 -9 -50 -10 -10 -6 25 2 60 7 78 11 35 7 42
-5 16 -30 -13 -14 -13 -16 -1 -16 9 0 17 6 20 13 2 6 8 -6 12 -27 7 -37 6 -42
-25 -68 -36 -30 -123 -63 -139 -54 -12 8 -23 -26 -15 -47 3 -9 13 -18 22 -20
10 -2 -1 -2 -23 0 -30 3 -36 2 -25 -6 20 -14 13 -14 -46 3 -47 13 -98 17 -88
7 2 -3 -10 -20 -28 -39 -18 -19 -27 -32 -20 -28 6 4 12 2 12 -4 0 -6 5 -8 13
-3 6 4 -2 -11 -20 -33 -17 -22 -33 -47 -35 -55 -2 -8 -7 -17 -12 -20 -4 -4
-11 -28 -14 -55 -4 -38 -7 -44 -14 -29 -6 16 -7 13 -5 -12 2 -18 0 -30 -5 -27
-4 3 -8 0 -8 -5 0 -6 5 -11 11 -11 5 0 8 -4 5 -9 -3 -5 -46 -9 -96 -10 l-90
-2 -2 43 -1 43 -7 -45 c-4 -25 -8 -38 -9 -30 -1 13 -2 13 -11 0 -8 -13 -10
-12 -11 5 -5 56 -4 101 2 110 12 18 19 94 10 99 -5 3 -7 -4 -5 -16 2 -13 -2
-7 -9 12 -8 19 -19 35 -26 35 -6 0 -21 15 -32 33 -22 34 -16 45 7 15 13 -17
14 -17 8 0 -11 32 5 17 26 -23 11 -22 23 -40 25 -40 7 0 -18 49 -55 107 -17
26 -30 42 -30 37 0 -6 7 -19 15 -30 20 -27 19 -36 -4 -22 -10 6 -17 17 -14 24
3 7 -8 25 -24 40 -27 25 -40 64 -21 64 5 0 -6 18 -23 40 -18 22 -37 40 -42 40
-6 0 0 -11 12 -24 18 -19 20 -24 7 -22 -9 1 -17 6 -17 12 0 5 -10 19 -21 32
-12 12 -18 22 -14 22 5 0 3 6 -3 13 -6 8 -7 17 -3 21 4 4 0 6 -8 4 -8 -1 -14
2 -13 8 1 6 -17 29 -40 50 l-42 39 34 -37 c21 -22 29 -38 21 -38 -8 0 -3 -12
15 -30 16 -16 25 -30 20 -30 -4 0 0 -10 11 -22 l19 -23 -22 19 c-13 10 -21 21
-19 25 6 9 -21 31 -29 23 -4 -4 -5 -2 -3 5 2 6 -1 11 -6 11 -5 0 -13 7 -17 15
-5 8 -21 13 -39 12 -16 -1 -28 1 -25 4 3 3 -5 11 -17 18 -15 8 -18 12 -8 13 9
0 26 -7 38 -16 13 -9 26 -14 29 -10 8 7 -50 32 -119 51 -32 9 -58 20 -58 25 0
11 143 -33 175 -54 14 -9 25 -21 25 -26 0 -6 6 -10 13 -10 30 1 -68 69 -116
80 -29 7 -59 16 -67 21 -22 13 69 -1 108 -17 17 -7 32 -11 32 -8 0 9 -65 32
-112 38 -26 4 -47 10 -47 14 3 21 -3 32 -18 32 -10 0 -25 5 -33 11 -11 8 -8 9
15 4 17 -3 38 -16 47 -28 20 -25 24 -16 7 15 -8 15 -8 19 0 14 6 -4 11 -1 11
6 0 9 3 9 11 -2 9 -13 10 -13 8 0 -3 32 1 42 17 36 10 -4 14 -2 11 6 -2 7 -9
12 -15 11 -7 -2 -9 4 -5 14 4 11 8 13 11 5 2 -7 10 -12 18 -12 9 0 13 -4 9 -9
-3 -5 0 -13 6 -17 8 -4 9 -3 5 4 -4 7 -3 12 3 12 6 0 8 7 4 16 -4 12 7 9 48
-11 30 -15 61 -33 69 -40 8 -7 38 -22 66 -33 51 -19 129 -71 120 -79 -2 -2
-24 8 -48 23 -57 37 -201 106 -193 94 3 -6 -1 -10 -9 -10 -8 0 -18 5 -21 10
-3 6 -11 10 -18 10 -17 0 28 -29 97 -62 33 -17 75 -40 91 -53 36 -27 115 -68
121 -62 2 2 -15 14 -39 26 -75 40 -152 91 -137 91 8 0 33 -11 55 -25 74 -45
117 -67 110 -56 -9 15 -4 14 66 -9 34 -12 83 -22 109 -23 26 -1 43 -5 37 -9
-19 -12 5 -10 43 4 30 10 31 12 14 19 -10 4 -30 5 -44 2 -18 -3 -21 -2 -11 5
20 14 -20 25 -62 17 -24 -5 -28 -4 -17 4 12 9 10 11 -10 12 -14 1 -36 1 -50 0
-18 -1 -21 1 -11 8 11 7 10 10 -6 15 -11 4 -44 24 -73 46 -30 22 -58 40 -64
40 -5 0 -1 -7 10 -15 22 -17 12 -20 -18 -4 -15 8 -19 8 -14 0 10 -16 -24 -13
-54 4 -25 14 -25 15 10 9 l35 -5 -33 13 c-19 7 -34 18 -34 23 0 14 -99 84
-120 85 -9 0 -18 -6 -21 -12 -2 -7 -8 -10 -12 -6 -4 4 -3 14 4 22 9 11 8 15
-6 21 -27 11 -98 14 -82 4z m191 -82 c15 -11 25 -24 22 -29 -8 -12 -24 -10
-21 3 1 6 -4 14 -12 17 -9 3 -11 0 -6 -8 4 -6 -11 -1 -34 12 -25 14 -35 24
-26 26 8 2 12 8 9 14 -8 12 31 -8 68 -35z m-265 -73 c-3 -3 -12 -4 -19 -1 -8
3 -5 6 6 6 11 1 17 -2 13 -5z m284 -10 c17 -8 29 -18 26 -20 -6 -6 -67 23 -67
31 0 8 10 6 41 -11z m214 -42 c44 -29 46 -33 20 -27 -24 5 -21 2 15 -16 31
-15 63 -22 105 -22 50 0 55 -2 30 -9 -57 -16 -140 11 -228 75 -46 33 -47 35
-20 33 16 0 51 -16 78 -34z m-388 -78 c-3 -3 -12 -4 -19 -1 -8 3 -5 6 6 6 11
1 17 -2 13 -5z m33 -8 c0 -2 -7 -7 -16 -10 -8 -3 -12 -2 -9 4 6 10 25 14 25 6z
m547 -2 c-3 -3 -12 -4 -19 -1 -8 3 -5 6 6 6 11 1 17 -2 13 -5z m298 -44 c3 -5
-1 -10 -9 -10 -8 0 -18 5 -21 10 -3 6 1 10 9 10 8 0 18 -4 21 -10z m178 3 c-7
-2 -19 -2 -25 0 -7 3 -2 5 12 5 14 0 19 -2 13 -5z m-230 -10 c-7 -2 -19 -2
-25 0 -7 3 -2 5 12 5 14 0 19 -2 13 -5z m70 -20 c-13 -2 -35 -2 -50 0 -16 2
-5 4 22 4 28 0 40 -2 28 -4z m-588 -133 c2 -19 1 -19 -17 -3 -14 12 -15 18 -6
24 15 10 21 4 23 -21z m851 -45 c-8 -21 -60 -45 -84 -38 -32 8 -15 25 18 18
17 -4 31 -2 36 6 5 9 2 10 -10 6 -10 -4 -15 -3 -11 4 4 5 15 7 26 4 13 -4 19
-2 19 9 0 20 -5 20 -38 2 -15 -8 -45 -21 -67 -30 -22 -8 -34 -15 -27 -15 17
-1 43 -27 35 -35 -10 -10 -25 -7 -18 3 3 6 -9 7 -30 4 -22 -4 -35 -2 -35 5 0
6 7 9 15 6 8 -4 15 -3 15 0 0 4 -10 11 -22 16 -23 9 -23 9 2 10 14 0 57 16 95
34 57 27 72 30 78 19 5 -8 6 -20 3 -28z m-296 -85 c11 -7 11 -10 2 -10 -7 0
-10 -4 -7 -10 4 -6 -1 -7 -11 -3 -13 5 -15 3 -9 -7 6 -9 4 -11 -5 -5 -10 6 -9
11 4 21 13 9 14 13 4 17 -7 3 -8 6 -3 6 6 0 17 -4 25 -9z m-413 -172 c-3 -8
-6 -5 -6 6 -1 11 2 17 5 13 3 -3 4 -12 1 -19z"/>
<path d="M3540 2426 c0 -3 9 -10 20 -16 11 -6 20 -8 20 -6 0 3 -9 10 -20 16
-11 6 -20 8 -20 6z"/>
<path d="M3770 2306 c0 -3 15 -15 33 -27 23 -17 28 -18 18 -6 -14 18 -51 42
-51 33z"/>
<path d="M2018 2483 c6 -2 18 -2 25 0 6 3 1 5 -13 5 -14 0 -19 -2 -12 -5z"/>
<path d="M2428 2483 c-21 -2 -38 -8 -38 -12 0 -5 19 -5 43 0 23 4 98 7 167 7
l125 -2 -105 -6 -105 -6 100 -1 c55 0 114 2 130 6 l30 7 -40 7 c-41 7 -239 7
-307 0z"/>
<path d="M4642 2478 c-7 -7 -12 -18 -12 -26 0 -10 -8 -12 -29 -7 -17 3 -32 2
-36 -4 -11 -19 -25 -12 -25 14 0 14 -4 25 -9 25 -4 0 -6 -12 -3 -26 3 -19 1
-25 -7 -20 -6 4 -11 2 -11 -3 0 -6 5 -11 11 -11 5 0 7 -4 4 -10 -9 -15 5 -12
22 5 14 14 17 14 28 -2 7 -10 17 -14 21 -10 5 4 2 12 -6 17 -16 10 -8 14 23
11 9 -1 20 6 24 16 4 10 11 21 17 25 6 4 8 9 5 12 -3 3 -11 0 -17 -6z"/>
<path d="M4810 2477 c0 -11 -5 -14 -16 -10 -12 4 -15 1 -13 -12 6 -29 28 -29
35 0 3 14 4 29 0 32 -3 4 -6 -1 -6 -10z"/>
<path d="M5418 2483 c7 -3 16 -2 19 1 4 3 -2 6 -13 5 -11 0 -14 -3 -6 -6z"/>
<path d="M2278 2473 c6 -2 18 -2 25 0 6 3 1 5 -13 5 -14 0 -19 -2 -12 -5z"/>
<path d="M2348 2463 c6 -2 18 -2 25 0 6 3 1 5 -13 5 -14 0 -19 -2 -12 -5z"/>
<path d="M5161 2424 c-29 -24 -61 -44 -70 -44 -10 0 -18 -7 -18 -15 0 -18 9
-19 25 -3 9 9 12 9 12 0 0 -6 7 -9 17 -5 11 4 14 3 9 -6 -4 -6 -13 -11 -19
-10 -7 1 -21 1 -32 0 -18 -2 -18 -3 3 -11 37 -15 84 25 52 45 -5 3 11 24 36
46 26 22 49 38 52 35 2 -3 -6 -14 -19 -25 -16 -14 -19 -20 -9 -21 11 0 11 -3
2 -12 -17 -17 -15 -29 3 -21 9 3 15 15 13 26 -2 13 5 25 17 32 28 15 29 33 1
33 -12 0 -46 -20 -75 -44z"/>
<path d="M5348 2463 c7 -3 16 -2 19 1 4 3 -2 6 -13 5 -11 0 -14 -3 -6 -6z"/>
<path d="M2088 2453 c7 -3 16 -2 19 1 4 3 -2 6 -13 5 -11 0 -14 -3 -6 -6z"/>
<path d="M2183 2453 c9 -2 23 -2 30 0 6 3 -1 5 -18 5 -16 0 -22 -2 -12 -5z"/>
<path d="M2268 2453 c12 -2 32 -2 45 0 12 2 2 4 -23 4 -25 0 -35 -2 -22 -4z"/>
<path d="M2418 2453 c6 -2 18 -2 25 0 6 3 1 5 -13 5 -14 0 -19 -2 -12 -5z"/>
<path d="M3440 2450 c-8 -5 -10 -10 -5 -10 6 0 17 5 25 10 8 5 11 10 5 10 -5
0 -17 -5 -25 -10z"/>
<path d="M2038 2443 c6 -2 18 -2 25 0 6 3 1 5 -13 5 -14 0 -19 -2 -12 -5z"/>
<path d="M2348 2443 c6 -2 18 -2 25 0 6 3 1 5 -13 5 -14 0 -19 -2 -12 -5z"/>
<path d="M3380 2439 c11 -8 8 -9 -15 -5 -35 7 -15 -7 25 -18 19 -6 21 -5 10 3
-13 10 -13 11 0 11 13 0 13 1 0 10 -20 13 -39 12 -20 -1z"/>
<path d="M4481 2443 c0 -6 -4 -20 -7 -30 -5 -14 -4 -15 5 -7 7 7 11 20 8 30
-3 11 -5 14 -6 7z"/>
<path d="M4650 2428 c0 -19 2 -20 10 -8 13 19 13 30 0 30 -5 0 -10 -10 -10
-22z"/>
<path d="M4706 2433 c-6 -15 -8 -15 -16 -3 -8 13 -10 12 -10 -2 0 -11 7 -16
20 -15 12 1 20 8 20 19 0 23 -6 23 -14 1z"/>
<path d="M4835 2440 c3 -5 8 -10 11 -10 2 0 4 5 4 10 0 6 -5 10 -11 10 -5 0
-7 -4 -4 -10z"/>
<path d="M2293 2433 c9 -2 23 -2 30 0 6 3 -1 5 -18 5 -16 0 -22 -2 -12 -5z"/>
<path d="M3315 2420 c27 -12 43 -12 25 0 -8 5 -22 9 -30 9 -10 0 -8 -3 5 -9z"/>
<path d="M1808 2393 c7 -3 16 -2 19 1 4 3 -2 6 -13 5 -11 0 -14 -3 -6 -6z"/>
<path d="M1983 2393 c9 -2 25 -2 35 0 9 3 1 5 -18 5 -19 0 -27 -2 -17 -5z"/>
<path d="M3340 2390 c13 -9 13 -11 0 -20 -8 -5 -10 -10 -5 -10 6 0 17 5 25 10
13 9 13 11 0 20 -8 5 -19 10 -25 10 -5 0 -3 -5 5 -10z"/>
<path d="M5155 2391 c-3 -5 -1 -12 4 -15 5 -3 11 1 15 9 6 16 -9 21 -19 6z"/>
<path d="M1691 2386 c8 -8 88 -10 95 -3 4 4 -17 7 -46 7 -29 0 -51 -2 -49 -4z"/>
<path d="M1868 2383 c7 -3 16 -2 19 1 4 3 -2 6 -13 5 -11 0 -14 -3 -6 -6z"/>
<path d="M2913 2383 c15 -2 39 -2 55 0 15 2 2 4 -28 4 -30 0 -43 -2 -27 -4z"/>
<path d="M4455 2380 c4 -6 11 -8 16 -5 14 9 11 15 -7 15 -8 0 -12 -5 -9 -10z"/>
<path d="M1975 2370 c-3 -5 3 -10 14 -10 11 0 23 5 26 10 3 6 -3 10 -14 10
-11 0 -23 -4 -26 -10z"/>
<path d="M2795 2370 c11 -5 27 -9 35 -9 13 -1 13 0 0 9 -8 5 -24 9 -35 9 l-20
0 20 -9z"/>
<path d="M2368 2363 c7 -3 16 -2 19 1 4 3 -2 6 -13 5 -11 0 -14 -3 -6 -6z"/>
<path d="M2400 2363 c0 -5 -17 -14 -37 -19 -28 -7 4 -9 122 -9 88 -1 133 1
100 3 -39 2 -63 8 -68 18 -4 8 -18 14 -30 13 -21 0 -21 -1 -2 -10 15 -7 10 -8
-18 -4 -21 4 -45 9 -53 12 -8 3 -14 1 -14 -4z"/>
<path d="M2603 2363 c9 -2 23 -2 30 0 6 3 -1 5 -18 5 -16 0 -22 -2 -12 -5z"/>
<path d="M2961 2366 c12 -10 59 -15 59 -6 0 5 -14 10 -32 10 -17 0 -29 -2 -27
-4z"/>
<path d="M4967 2345 c-30 -14 -44 -25 -35 -29 7 -3 0 -4 -15 -1 -21 4 -46 -4
-93 -30 -36 -19 -74 -35 -86 -35 -21 0 -21 0 -2 -15 10 -8 15 -15 9 -15 -11 0
16 -20 28 -20 4 0 4 12 1 26 -5 20 -3 25 7 22 8 -3 28 2 44 10 17 9 61 27 99
41 38 14 69 31 68 36 0 6 9 15 21 22 38 21 4 13 -46 -12z m-67 -42 c-8 -3 -32
-14 -52 -25 -21 -10 -38 -16 -38 -13 0 8 74 44 90 44 13 -1 13 -1 0 -6z"/>
<path d="M5032 2355 c-11 -13 -10 -15 6 -15 10 0 19 7 19 15 0 19 -8 19 -25 0z"/>
<path d="M2268 2353 c12 -2 30 -2 40 0 9 3 -1 5 -23 4 -22 0 -30 -2 -17 -4z"/>
<path d="M2895 2351 c3 -6 22 -11 42 -11 44 0 41 5 -10 14 -27 5 -37 4 -32 -3z"/>
<path d="M3138 2353 c7 -3 16 -2 19 1 4 3 -2 6 -13 5 -11 0 -14 -3 -6 -6z"/>
<path d="M4632 2337 c-26 -27 -28 -37 -7 -37 27 0 16 -20 -22 -37 -21 -10 -39
-26 -41 -36 -4 -22 22 -22 39 1 11 14 11 15 -1 5 -19 -17 -31 -16 -24 1 3 7
32 21 64 30 33 9 62 21 65 26 8 14 -9 12 -22 -1 -24 -24 -34 -4 -13 24 36 45
2 67 -38 24z m34 -3 c-3 -9 -6 -18 -6 -20 0 -2 -7 -4 -15 -4 -13 0 -14 4 -5
20 13 24 35 27 26 4z"/>
<path d="M2660 2346 c0 -2 18 -6 40 -8 22 -2 40 0 40 4 0 5 -18 8 -40 8 -22 0
-40 -2 -40 -4z"/>
<path d="M2785 2340 l-40 -7 40 0 c22 -1 54 3 70 7 l30 8 -30 -1 c-16 0 -48
-3 -70 -7z"/>
<path d="M3178 2343 c7 -3 16 -2 19 1 4 3 -2 6 -13 5 -11 0 -14 -3 -6 -6z"/>
<path d="M2273 2323 c9 -2 25 -2 35 0 9 3 1 5 -18 5 -19 0 -27 -2 -17 -5z"/>
<path d="M3160 2326 c0 -2 7 -7 16 -10 8 -3 12 -2 9 4 -6 10 -25 14 -25 6z"/>
<path d="M3235 2320 c-3 -6 6 -15 20 -20 33 -13 44 -13 25 0 -13 9 -13 10 0 9
8 0 24 -4 35 -8 17 -7 15 -9 -15 -16 l-34 -8 36 -14 c26 -11 42 -12 55 -4 17
9 16 11 -7 20 -22 8 -22 10 -5 11 12 1 -1 9 -30 20 -59 22 -72 23 -80 10z m32
-6 c-3 -3 -12 -4 -19 -1 -8 3 -5 6 6 6 11 1 17 -2 13 -5z m73 -44 c13 -9 13
-10 0 -10 -8 0 -22 5 -30 10 -13 9 -13 10 0 10 8 0 22 -5 30 -10z"/>
<path d="M5040 2319 c12 -8 9 -9 -13 -5 -18 4 -36 1 -50 -9 -14 -10 -17 -15
-7 -15 13 0 13 -2 0 -10 -8 -5 -22 -10 -30 -10 -13 0 -13 1 0 10 27 19 -42 -1
-92 -27 -48 -23 -63 -37 -30 -27 14 5 14 3 -2 -10 -11 -9 -15 -16 -10 -16 6 0
14 4 20 9 5 5 38 20 74 34 36 14 79 33 95 41 17 9 45 19 63 22 24 5 30 9 20
15 -7 5 -22 9 -33 9 -17 0 -18 -2 -5 -11z m-20 -13 c0 -2 -9 -6 -20 -9 -11 -3
-18 -1 -14 4 5 9 34 13 34 5z m-135 -56 c-62 -25 -70 -25 -25 0 19 11 44 19
55 19 11 0 -2 -9 -30 -19z"/>
<path d="M1948 2273 c7 -3 16 -2 19 1 4 3 -2 6 -13 5 -11 0 -14 -3 -6 -6z"/>
<path d="M1948 2253 c7 -3 16 -2 19 1 4 3 -2 6 -13 5 -11 0 -14 -3 -6 -6z"/>
<path d="M3270 2250 c8 -5 22 -10 30 -10 13 0 13 1 0 10 -8 5 -22 10 -30 10
-13 0 -13 -1 0 -10z"/>
<path d="M5190 2250 c8 -5 22 -10 30 -10 13 0 13 1 0 10 -8 5 -22 10 -30 10
-13 0 -13 -1 0 -10z"/>
<path d="M3228 2243 c7 -3 16 -2 19 1 4 3 -2 6 -13 5 -11 0 -14 -3 -6 -6z"/>
<path d="M4700 2230 c8 -5 20 -10 25 -10 6 0 3 5 -5 10 -8 5 -19 10 -25 10 -5
0 -3 -5 5 -10z"/>
<path d="M2730 2201 c0 -18 -4 -40 -9 -49 -5 -10 -6 -33 -2 -52 6 -30 8 -24
15 44 4 43 5 81 2 84 -4 3 -6 -9 -6 -27z"/>
<path d="M3875 2192 c40 -19 165 -46 173 -37 2 2 -6 6 -19 9 -41 8 -153 34
-174 40 -11 4 -2 -2 20 -12z"/>
<path d="M1415 2189 c-4 -6 -5 -12 -2 -15 2 -3 7 2 10 11 7 17 1 20 -8 4z"/>
<path d="M4587 2189 c7 -7 15 -10 18 -7 3 3 -2 9 -12 12 -14 6 -15 5 -6 -5z"/>
<path d="M3856 2170 c6 -6 28 -13 50 -15 21 -2 30 -2 19 1 -11 3 -33 10 -50
15 -21 7 -26 6 -19 -1z"/>
<path d="M1096 2145 c-3 -8 -1 -15 4 -15 6 0 10 7 10 15 0 8 -2 15 -4 15 -2 0
-6 -7 -10 -15z"/>
<path d="M3958 2143 c7 -3 16 -2 19 1 4 3 -2 6 -13 5 -11 0 -14 -3 -6 -6z"/>
<path d="M4635 2130 c3 -5 8 -10 11 -10 2 0 4 5 4 10 0 6 -5 10 -11 10 -5 0
-7 -4 -4 -10z"/>
<path d="M3680 2116 c0 -2 8 -10 18 -17 15 -13 16 -12 3 4 -13 16 -21 21 -21
13z"/>
<path d="M4145 2105 c28 -8 68 -14 90 -13 39 1 39 1 -10 8 -27 4 -68 10 -90
14 -36 5 -35 4 10 -9z"/>
<path d="M4640 2105 l-25 -13 29 -8 29 -7 -24 -13 c-32 -18 -19 -17 25 1 33
14 53 31 23 19 -7 -2 -24 0 -38 5 -16 7 -18 10 -7 10 9 1 20 6 23 11 8 14 -5
12 -35 -5z"/>
<path d="M4712 2111 c-11 -6 -10 -10 4 -15 9 -3 19 -4 22 -1 3 3 -1 5 -9 5
-11 0 -11 2 1 10 8 5 11 10 5 10 -5 0 -16 -4 -23 -9z"/>
<path d="M4300 2090 c-9 -6 6 -7 45 -3 33 3 62 7 64 9 10 9 -95 3 -109 -6z"/>
<path d="M3740 2066 c0 -2 8 -10 18 -17 15 -13 16 -12 3 4 -13 16 -21 21 -21
13z"/>
<path d="M2374 2048 c-7 -12 -4 -15 20 -20 10 -1 21 2 23 8 5 14 -35 26 -43
12z"/>
<path d="M2722 2035 c0 -16 2 -22 5 -12 2 9 2 23 0 30 -3 6 -5 -1 -5 -18z"/>
<path d="M4558 2038 c-19 -19 -13 -24 11 -9 7 5 12 13 10 18 -2 5 -12 1 -21
-9z"/>
<path d="M4655 2041 c-9 -15 13 -23 32 -11 15 9 14 10 -6 4 -16 -4 -21 -3 -17
5 4 6 5 11 2 11 -3 0 -7 -4 -11 -9z"/>
<path d="M3770 2026 c0 -2 8 -10 18 -17 15 -13 16 -12 3 4 -13 16 -21 21 -21
13z"/>
<path d="M4627 2019 c7 -7 15 -10 18 -7 3 3 -2 9 -12 12 -14 6 -15 5 -6 -5z"/>
<path d="M4690 2015 c-14 -8 -20 -14 -15 -14 6 0 21 6 35 14 14 8 21 14 15 14
-5 0 -21 -6 -35 -14z"/>
<path d="M4755 2020 c-3 -6 1 -7 9 -4 18 7 21 14 7 14 -6 0 -13 -4 -16 -10z"/>
<path d="M1407 2001 c4 -3 10 -10 14 -14 3 -4 11 -2 18 6 9 12 7 15 -14 15
-14 0 -22 -3 -18 -7z"/>
<path d="M4690 1990 c-8 -5 -10 -10 -5 -10 6 0 17 5 25 10 8 5 11 10 5 10 -5
0 -17 -5 -25 -10z"/>
<path d="M1362 1955 c-38 -42 -42 -58 -6 -24 24 22 49 59 41 59 -2 0 -18 -16
-35 -35z"/>
<path d="M3813 1976 c4 -6 7 -17 7 -25 0 -12 -5 -10 -18 7 -17 22 -18 22 -19
3 -1 -11 1 -20 5 -20 4 1 9 0 12 -1 18 -7 40 -7 40 0 0 4 -8 16 -17 27 -10 10
-15 14 -10 9z"/>
<path d="M4700 1970 c-13 -9 -13 -10 0 -10 13 0 13 -1 0 -10 -8 -5 -22 -10
-30 -10 -13 0 -13 1 0 10 8 5 11 10 5 10 -5 0 -17 -5 -25 -10 -11 -7 -11 -10
-2 -10 7 0 10 -5 7 -10 -4 -6 7 -5 25 2 17 7 31 17 30 22 -1 5 4 13 12 17 7 5
9 9 3 9 -5 0 -17 -5 -25 -10z"/>
<path d="M3855 1896 c10 -14 19 -26 22 -26 7 0 -17 39 -28 46 -6 3 -3 -5 6
-20z"/>
<path d="M4358 1913 c6 -2 18 -2 25 0 6 3 1 5 -13 5 -14 0 -19 -2 -12 -5z"/>
<path d="M1281 1864 c-43 -66 -39 -78 5 -14 19 28 34 54 31 56 -2 3 -19 -16
-36 -42z"/>
<path d="M4351 1891 c-8 -5 -21 -7 -30 -4 -14 4 -14 3 1 -6 9 -6 30 -8 48 -5
22 5 28 9 18 15 -16 11 -20 11 -37 0z"/>
<path d="M673 1883 c20 -2 54 -2 75 0 20 2 3 4 -38 4 -41 0 -58 -2 -37 -4z"/>
<path d="M1008 1865 c-2 -3 -56 -14 -119 -26 -90 -16 -135 -19 -214 -14 -91 5
-111 3 -215 -24 -63 -17 -103 -30 -89 -31 15 0 66 11 114 25 77 23 98 25 189
19 80 -5 126 -1 220 15 111 20 177 40 135 41 -9 0 -18 -2 -21 -5z"/>
<path d="M1292 1836 c-12 -18 -22 -41 -21 -52 0 -18 1 -18 10 1 7 15 8 10 4
-20 -2 -22 -7 -67 -9 -100 -5 -50 -4 -54 4 -25 5 19 11 67 12 107 2 39 6 69
10 67 11 -7 28 31 20 43 -5 8 -16 0 -30 -21z"/>
<path d="M4202 1850 c-41 -38 -102 -138 -116 -190 -6 -20 -5 -22 4 -10 9 12
10 3 7 -40 -4 -43 -3 -50 5 -30 5 14 8 45 5 70 -2 25 -2 39 1 31 4 -11 6 -11
13 0 6 9 7 1 4 -21 -6 -33 -5 -32 13 11 11 26 32 64 48 85 16 22 22 33 13 26
-14 -10 -18 -10 -23 4 -5 12 4 28 26 51 35 36 35 46 0 13z m-31 -87 c-1 -5 -6
-8 -13 -8 -6 0 -13 -6 -16 -14 -3 -8 0 -11 7 -7 8 5 8 0 -1 -19 -8 -18 -14
-22 -20 -13 -6 10 -8 10 -8 -1 0 -8 -3 -12 -6 -8 -4 3 6 28 22 54 23 40 38 47
35 16z"/>
<path d="M3904 1809 c13 -27 27 -53 31 -57 8 -8 -10 39 -30 78 -25 49 -26 34
-1 -21z"/>
<path d="M1326 1821 c-17 -32 -13 -38 14 -21 13 9 13 10 0 11 -12 0 -11 2 2 7
12 5 14 11 9 21 -7 11 -13 7 -25 -18z"/>
<path d="M2713 1815 c-6 -19 -8 -35 -3 -35 8 0 23 60 17 67 -2 1 -8 -13 -14
-32z"/>
<path d="M6138 1843 c6 -2 12 -10 12 -15 0 -6 -3 -8 -7 -5 -8 8 -43 -22 -43
-37 0 -6 5 -5 12 2 15 15 64 16 73 2 3 -5 11 -10 17 -10 7 0 6 6 -2 15 -7 8
-18 15 -25 15 -7 0 -15 9 -18 20 -3 11 -11 20 -19 19 -10 0 -10 -2 0 -6z"/>
<path d="M850 1809 c-25 -4 -103 -8 -175 -8 -76 0 -142 -4 -160 -11 -61 -24
-142 -39 -212 -40 -40 0 -73 -3 -73 -7 0 -8 150 0 220 12 32 5 33 4 10 -6 -14
-6 -72 -17 -130 -25 l-105 -13 90 5 c64 4 86 2 75 -5 -8 -6 -31 -11 -50 -11
-19 -1 -53 -5 -75 -10 -28 -6 -15 -7 45 -3 47 3 116 16 154 29 58 19 92 22
225 24 105 0 176 6 218 17 35 8 62 18 59 20 -2 2 -31 -3 -64 -11 -42 -11 -107
-16 -214 -16 -88 0 -169 -5 -187 -11 -18 -6 -34 -9 -37 -6 -3 2 18 12 45 21
38 12 83 15 193 14 121 -2 158 1 243 22 55 13 94 25 88 27 -7 3 -50 -5 -95
-17 -67 -18 -115 -23 -248 -24 -91 -2 -176 -6 -190 -10 -18 -5 -16 -3 5 7 21
10 85 16 200 20 94 3 184 10 200 15 36 12 10 13 -55 1z"/>
<path d="M3225 1800 c-15 -6 -9 -7 20 -6 22 0 51 -2 65 -6 19 -6 18 -4 -5 7
-34 16 -51 17 -80 5z"/>
<path d="M1690 1784 c0 -3 6 -12 14 -19 17 -17 30 -7 15 12 -12 13 -29 18 -29
7z"/>
<path d="M1306 1758 c-3 -13 -6 -36 -6 -52 0 -16 -6 -58 -12 -95 -11 -58 -13
-62 -19 -36 -4 18 -7 -5 -6 -55 0 -65 1 -76 7 -45 l7 40 1 -35 c0 -19 -3 -53
-7 -75 -8 -37 -9 -38 -11 -10 -1 17 -6 41 -11 55 -6 19 -7 15 -3 -15 3 -22 7
-63 9 -92 3 -49 24 -109 25 -73 0 13 1 13 10 0 13 -20 13 -33 -1 -25 -6 4 1
-15 14 -41 26 -50 77 -107 77 -85 0 7 5 9 11 6 5 -4 8 -12 6 -18 -2 -7 10 -33
27 -58 17 -26 36 -55 43 -65 12 -18 12 -18 6 1 -6 18 -5 18 10 6 9 -7 17 -9
17 -3 0 5 -6 15 -14 21 -11 9 -15 9 -20 -1 -3 -7 -3 -2 0 11 4 16 2 21 -5 17
-6 -4 -9 -1 -8 6 2 7 2 9 -1 5 -5 -10 -32 12 -32 25 0 6 6 5 14 -2 12 -9 15
-8 13 9 -1 12 -6 21 -12 21 -17 0 -79 70 -109 121 -28 49 -32 64 -16 54 13 -8
13 1 -1 28 -10 21 -10 21 5 3 9 -11 14 -28 11 -38 -4 -9 2 -29 11 -43 22 -34
30 -24 9 12 -17 28 -17 28 2 5 55 -70 76 -91 84 -86 11 6 12 -9 2 -20 -4 -3
-22 10 -40 31 -18 20 -33 32 -33 27 0 -6 19 -28 41 -49 23 -22 38 -33 34 -25
-6 11 -5 12 4 4 11 -10 18 -29 20 -57 1 -5 5 -6 9 -3 14 8 53 -51 46 -69 -5
-12 -2 -16 12 -13 10 2 19 -3 19 -9 0 -17 43 -46 56 -38 5 4 26 -1 45 -10 19
-9 45 -14 57 -11 12 3 16 3 8 0 -10 -5 -6 -10 15 -20 16 -7 23 -13 16 -13 -7
-1 -10 -5 -7 -11 3 -6 1 -10 -5 -10 -6 0 -9 -4 -6 -9 3 -4 -7 -6 -22 -2 -27 5
-27 5 -3 9 20 3 14 7 -29 22 -29 10 -58 17 -64 16 -6 -2 -8 -1 -3 1 9 6 -1 23
-14 23 -6 0 -7 -4 -4 -10 3 -5 2 -10 -4 -10 -14 0 -23 18 -11 22 6 2 0 9 -12
17 -22 13 -22 13 -8 -4 13 -16 13 -18 0 -13 -8 2 -15 12 -15 22 0 18 -24 38
-37 30 -5 -3 -6 -10 -2 -15 3 -5 10 -6 16 -3 6 4 8 3 5 -3 -13 -20 96 -92 165
-108 15 -4 33 -14 40 -23 7 -9 8 -13 2 -9 -7 4 -17 -5 -24 -23 -19 -45 -36
-55 -67 -41 -23 10 -25 10 -14 -2 9 -12 9 -16 -1 -21 -7 -3 0 -3 16 1 28 6 28
6 10 -16 -11 -12 -20 -17 -22 -11 -2 6 -11 6 -25 -2 -19 -10 -20 -9 -9 4 10
13 10 17 -3 22 -9 3 -13 2 -10 -4 3 -6 3 -10 -2 -10 -13 0 -35 16 -35 26 0 12
-78 78 -78 67 0 -5 4 -13 10 -19 5 -5 5 -15 1 -23 -6 -9 -11 -10 -15 -2 -4 6
-2 11 5 11 8 0 8 4 -1 15 -11 13 -15 13 -23 3 -6 -9 -7 -8 -3 4 3 10 1 17 -3
15 -5 -1 -10 3 -11 8 -1 6 -6 16 -12 23 -7 8 -7 12 2 12 9 0 8 5 -3 18 -26 29
-20 38 8 12 24 -23 35 -47 15 -35 -5 3 -10 2 -10 -2 0 -10 21 -33 30 -33 12 0
7 35 -7 52 -8 9 -12 22 -7 29 4 8 3 10 -4 5 -7 -4 -18 -4 -24 1 -7 4 -17 8
-22 8 -5 0 -11 6 -14 14 -3 8 0 11 7 7 6 -4 11 -3 11 3 0 5 -4 13 -10 16 -5 3
-10 1 -10 -5 0 -6 -5 -8 -11 -5 -6 4 -8 14 -4 22 3 9 -2 24 -11 34 -9 10 -16
30 -16 44 0 17 -5 24 -13 21 -7 -2 -18 1 -25 7 -10 9 -11 9 -5 -3 5 -8 13 -21
19 -29 12 -16 16 -61 5 -61 -4 0 -10 6 -12 13 -4 9 -6 8 -6 -2 -1 -8 -9 -3
-22 12 -16 22 -18 30 -9 47 10 18 6 27 -22 60 -46 54 -58 50 -14 -5 21 -25 33
-45 28 -45 -15 0 -69 84 -64 99 3 9 0 11 -8 6 -10 -6 -12 -4 -7 8 4 10 2 16
-5 14 -6 -1 -13 4 -16 12 -3 9 0 11 8 6 7 -4 6 4 -4 23 -9 17 -20 34 -26 37
-5 3 -10 11 -10 17 0 6 10 3 23 -8 l22 -19 -18 22 c-11 12 -26 19 -35 17 -12
-4 -11 -2 2 7 17 10 23 8 43 -15 24 -28 31 -52 11 -40 -7 4 -8 3 -4 -5 4 -6
11 -9 16 -6 5 3 23 -15 41 -40 18 -25 34 -45 36 -45 12 0 -72 116 -121 168
-48 51 -157 132 -177 132 -8 -1 -2 -8 14 -16 29 -16 37 -30 11 -20 -14 5 -15
4 -4 -9 16 -19 0 -20 -26 0 -15 11 -16 15 -4 15 9 0 5 6 -10 15 -15 9 -19 14
-10 15 13 0 13 1 0 10 -21 13 -39 12 -20 -1 12 -8 9 -9 -10 -4 -146 36 -163
38 -425 42 -148 3 -267 2 -264 -1 3 -3 108 -6 233 -6 228 -1 325 -11 445 -46
33 -9 50 -19 42 -23 -8 -5 12 -23 56 -51 68 -44 163 -132 163 -151 0 -6 -11 3
-25 18 -13 15 -25 23 -25 17 0 -6 9 -19 20 -29 11 -10 20 -22 20 -27 0 -4 -19
11 -42 35 -24 24 -52 49 -63 55 -11 6 -17 13 -14 17 4 3 21 -6 38 -21 18 -14
34 -24 37 -21 6 5 -107 97 -120 97 -5 0 -3 -6 3 -13 6 -8 9 -16 6 -18 -2 -3
30 -36 72 -74 41 -38 82 -83 89 -102 8 -18 19 -32 25 -30 6 1 13 -2 15 -8 3
-7 -197 -9 -591 -7 -327 1 -595 -1 -595 -5 0 -5 265 -8 588 -8 l588 0 53 -62
c30 -34 66 -83 82 -110 25 -43 169 -196 169 -180 0 4 9 -2 20 -13 12 -12 25
-18 30 -15 4 3 10 1 12 -5 3 -11 164 -71 268 -100 46 -13 69 -16 83 -8 10 5
16 12 13 16 -4 3 -12 0 -18 -6 -7 -7 -16 -12 -22 -12 -5 0 -1 7 10 15 17 13
15 14 -28 10 -38 -3 -48 -1 -48 11 0 32 22 42 65 28 22 -8 28 -11 13 -9 -14 3
-37 0 -50 -5 l-23 -10 25 4 c14 3 63 -8 109 -24 46 -15 91 -26 100 -23 13 4
13 3 -1 -6 -10 -7 -25 -8 -40 -3 -43 16 -84 24 -68 12 12 -8 12 -10 -5 -8 -11
2 -21 -1 -23 -7 -2 -5 32 -21 75 -36 43 -14 107 -38 143 -53 36 -15 79 -30 95
-32 17 -3 45 -10 63 -15 18 -6 57 -12 86 -12 30 -1 52 -5 49 -9 -2 -5 3 -8 11
-8 9 0 55 -11 102 -25 82 -24 99 -25 340 -25 207 0 254 3 261 14 4 8 22 16 38
19 24 3 21 5 -15 7 l-45 3 35 7 c23 5 28 8 13 9 -16 1 -23 7 -23 20 0 16 8 21
43 24 l42 4 -42 1 c-31 1 -43 6 -43 17 0 12 12 15 53 14 38 -1 45 -3 27 -8
-25 -7 -25 -7 -2 -13 35 -10 26 -28 -15 -29 l-38 -2 40 -7 c30 -5 33 -8 15
-10 l-25 -2 25 -8 c14 -4 19 -8 13 -9 -7 -1 -13 -6 -13 -12 0 -5 5 -7 10 -4 6
3 10 1 10 -4 0 -6 -21 -12 -47 -13 l-48 -1 44 -4 c25 -3 97 5 160 16 64 11
156 25 205 32 68 10 83 15 66 21 -13 5 -39 6 -59 3 -35 -5 -35 -5 -6 5 21 7
45 7 78 -1 41 -10 60 -8 114 6 35 10 67 24 70 31 3 8 10 14 17 14 25 0 228
178 219 193 -3 5 -1 7 4 4 12 -7 67 32 59 41 -3 2 -13 -1 -23 -9 -11 -9 -14
-10 -9 -2 4 7 16 18 28 24 13 7 18 7 14 1 -12 -20 11 -22 48 -4 20 10 33 22
29 27 -4 4 0 5 10 2 9 -4 30 -2 45 4 15 6 63 14 107 18 79 6 79 6 89 39 7 25
14 32 35 33 14 1 37 5 51 9 18 7 11 8 -25 5 l-50 -5 45 13 c84 25 74 31 -16
10 -14 -3 -24 1 -28 12 -3 9 -2 13 4 10 6 -3 10 -1 10 4 0 6 8 11 18 11 13 0
14 2 4 9 -17 10 -12 43 7 49 9 3 11 0 6 -8 -6 -9 -4 -11 4 -5 9 5 10 10 2 18
-7 7 -26 7 -63 -1 -29 -7 -64 -14 -78 -16 -14 -2 2 -4 34 -3 42 1 61 -3 64
-12 3 -8 0 -11 -6 -7 -11 7 -28 -42 -34 -99 -3 -28 -6 -30 -53 -36 l-50 -5 45
-6 c26 -3 16 -4 -25 -2 -51 2 -66 0 -55 -7 11 -8 9 -9 -12 -5 -29 7 -61 -2
-53 -14 3 -5 -4 -6 -16 -3 -19 5 -17 7 12 20 19 8 50 18 69 23 l35 8 -30 2
c-30 2 -30 2 -5 10 20 6 21 8 5 8 -11 0 -29 -3 -40 -8 l-20 -9 20 -1 c11 0
-13 -14 -54 -31 -40 -16 -76 -27 -79 -25 -2 3 6 10 19 15 13 5 40 16 59 24 34
16 34 16 5 11 l-30 -5 25 15 c28 17 19 22 -11 5 -11 -5 -17 -14 -14 -19 7 -11
-32 -23 -46 -14 -8 4 -9 3 -5 -4 4 -8 -3 -16 -18 -22 -32 -12 -34 -24 -3 -15
14 4 9 -3 -16 -20 -21 -15 -41 -24 -44 -21 -9 9 -61 -33 -59 -47 1 -6 5 -17 9
-24 5 -7 1 -10 -10 -8 -10 2 -22 4 -27 4 -6 1 -1 8 10 16 10 8 15 15 10 15 -6
0 -20 -9 -32 -21 -12 -11 -29 -21 -37 -23 -29 -4 -147 -91 -142 -104 3 -9 -1
-11 -13 -8 -9 3 -50 -5 -89 -17 -56 -18 -70 -26 -61 -35 7 -7 21 -12 32 -11
12 0 15 3 9 6 -26 10 -12 22 20 18 23 -4 27 -3 12 3 -17 8 -17 9 9 16 16 4 31
5 34 1 3 -3 -1 -5 -9 -5 -11 0 -11 -2 1 -10 8 -5 22 -9 30 -9 10 0 8 3 -5 9
-11 5 -15 9 -8 9 6 1 19 4 29 8 12 4 15 3 10 -5 -10 -17 7 -15 30 4 18 14 18
15 -6 9 -17 -5 -11 2 20 23 25 16 58 43 74 61 34 35 59 43 30 8 -10 -12 -4 -9
14 7 17 17 32 24 32 17 0 -7 5 -9 12 -5 7 5 8 3 4 -5 -5 -7 -11 -10 -14 -7 -8
9 -33 -15 -26 -25 3 -5 -2 -6 -10 -3 -10 4 -16 1 -16 -7 0 -11 -2 -11 -8 -1
-6 9 -13 7 -28 -10 -18 -22 -18 -22 0 -8 17 13 19 13 14 0 -3 -8 -13 -15 -24
-16 -35 -2 -39 -4 -25 -13 9 -6 -5 -18 -52 -41 -54 -26 -78 -32 -148 -35 -82
-3 -254 -22 -274 -30 -5 -3 26 -3 70 0 76 4 77 3 25 -6 -30 -5 -73 -7 -96 -4
-22 3 -51 1 -65 -4 -13 -5 -17 -10 -9 -11 13 0 13 -1 0 -10 -8 -5 -19 -10 -25
-10 -5 0 -3 5 5 10 13 9 13 10 0 10 -30 1 20 21 88 35 l67 15 -60 -5 c-45 -3
-54 -2 -35 5 24 9 23 10 -5 6 -16 -3 -37 -7 -46 -11 -12 -4 -18 1 -23 21 -4
14 -4 29 -1 32 3 3 43 14 88 23 45 9 73 17 62 18 -11 0 -48 -5 -83 -13 -34 -7
-59 -9 -55 -5 4 4 44 15 88 23 130 26 213 74 333 192 104 103 134 123 62 41
-22 -25 -40 -48 -40 -52 0 -11 84 91 103 127 l18 33 -20 -24 c-13 -14 -21 -18
-21 -10 0 8 -9 3 -20 -11 -10 -14 -22 -21 -26 -17 -4 4 5 21 21 37 16 16 26
32 23 35 -3 4 -16 -8 -28 -25 -12 -17 -25 -29 -27 -26 -9 8 47 77 57 71 5 -3
14 5 21 17 10 19 10 21 -2 12 -8 -6 -22 -14 -32 -17 -14 -5 -16 -3 -8 12 6 10
7 22 3 27 -4 5 0 3 10 -4 11 -9 18 -10 23 -2 3 6 10 8 15 5 5 -3 14 12 21 32
16 52 20 57 31 42 7 -11 8 -9 4 4 -3 10 -6 24 -7 30 0 7 -9 -6 -20 -28 -24
-52 -24 -34 0 29 10 28 20 43 23 35 10 -27 28 69 22 115 -8 56 -14 54 -19 -5
-2 -31 -1 -38 5 -24 8 18 9 17 9 -7 1 -20 -3 -26 -14 -22 -12 5 -15 23 -14 83
1 57 3 70 10 51 7 -21 8 -19 5 12 -4 31 -2 36 11 31 12 -5 15 -2 10 10 -4 11
-2 14 7 11 9 -3 13 -19 11 -42 -2 -27 -1 -29 2 -7 5 27 6 28 14 10 7 -15 8
-12 4 12 -5 34 13 43 27 13 5 -12 7 -12 7 3 1 9 5 17 10 17 5 0 12 -8 14 -17
4 -17 5 -17 6 0 0 9 8 17 17 17 8 0 12 -4 9 -10 -3 -5 -1 -10 4 -10 6 0 11 5
11 10 0 6 9 10 20 10 11 0 20 -6 20 -13 0 -18 24 -67 33 -67 4 0 7 -5 7 -11 0
-5 -4 -7 -10 -4 -6 3 -10 -4 -10 -17 0 -13 -5 -29 -11 -35 -7 -7 -9 -25 -4
-50 l7 -38 14 28 c16 30 28 36 20 9 -7 -22 30 -85 46 -76 6 4 8 3 5 -3 -11
-17 20 -38 36 -25 8 7 65 11 151 10 80 0 132 -4 124 -9 -10 -7 -9 -9 4 -9 9 0
20 5 23 10 11 18 35 11 35 -10 0 -11 3 -20 8 -20 4 0 6 20 4 45 -2 25 -8 45
-14 45 -5 0 -7 -8 -3 -19 5 -18 -3 -19 -173 -20 -161 -2 -180 0 -195 16 -21
24 -49 91 -42 103 3 4 0 10 -6 12 -9 3 -9 13 0 40 6 19 9 55 6 79 -4 32 -3 39
4 24 10 -20 10 -20 10 0 1 20 -4 21 -111 19 -62 -1 -115 -3 -118 -4 -3 -1 -16
-1 -29 0 -13 1 -21 -3 -17 -8 3 -6 -2 -8 -13 -5 -18 5 -19 -1 -20 -94 0 -54
-2 -105 -4 -113 -2 -8 -7 -27 -11 -42 l-8 -28 -1164 -2 c-640 -2 -1164 -1
-1164 2 0 7 -74 92 -109 126 -13 13 -24 34 -25 46 -1 13 -7 22 -15 20 -9 -2
-11 3 -7 13 3 9 2 14 -3 11 -13 -9 -22 22 -15 52 5 22 3 24 -6 12 -9 -12 -10
-7 -5 23 4 27 3 37 -4 32 -8 -4 -11 20 -9 75 0 51 4 76 10 68 5 -8 6 3 3 27
-5 30 -4 36 4 25 9 -11 10 -4 6 30 -4 32 -3 39 4 25 7 -15 9 -4 8 37 -2 60
-10 74 -21 36z m-239 -398 c29 -23 53 -45 53 -51 0 -6 -20 6 -45 27 -25 20
-45 32 -45 27 0 -5 12 -16 26 -23 14 -8 30 -23 36 -34 10 -18 8 -17 -18 2 -16
12 -42 33 -59 48 -29 25 -29 25 -5 19 24 -7 24 -7 5 9 -45 35 2 13 52 -24z
m218 0 c-9 -41 -17 -33 -9 9 4 17 9 30 11 27 3 -2 2 -19 -2 -36z m2833 -22 c6
-16 8 -28 3 -28 -4 0 -13 16 -19 37 -12 40 -3 34 16 -9z m-3103 -28 c3 -5 1
-10 -4 -10 -6 0 -11 5 -11 10 0 6 2 10 4 10 3 0 8 -4 11 -10z m285 -25 c0 -5
-5 -3 -10 5 -8 12 -10 12 -10 1 0 -8 -2 -12 -5 -9 -3 3 -2 13 1 22 5 14 9 15
15 4 5 -7 9 -17 9 -23z m58 -127 c14 -16 21 -28 15 -28 -18 0 -74 82 -73 107
1 4 8 -5 17 -22 8 -16 27 -42 41 -57z m2762 65 c0 -5 -7 -17 -15 -27 -14 -19
-15 -19 -15 7 0 17 5 27 15 27 8 0 15 -3 15 -7z m-240 -73 c0 -13 -5 -18 -15
-14 -8 4 -15 10 -15 16 0 5 5 6 10 3 6 -3 10 -1 10 4 0 6 2 11 5 11 3 0 5 -9
5 -20z m-39 -51 c-5 -13 -10 -19 -10 -12 -1 15 10 45 15 40 3 -2 0 -15 -5 -28z
m-2596 -67 c-7 -7 -34 18 -47 42 -8 16 -3 14 21 -8 17 -16 29 -32 26 -34z
m2562 45 c4 -6 1 -13 -5 -15 -7 -2 -12 -10 -12 -18 0 -18 -19 -49 -92 -145
-56 -75 -72 -103 -45 -80 8 6 17 8 20 4 4 -3 7 -2 8 3 2 27 9 48 19 58 8 8 10
6 5 -9 -7 -20 -7 -20 9 0 9 11 15 24 12 31 -2 6 2 11 10 11 20 0 17 -11 -11
-45 -27 -32 -34 -52 -11 -33 11 9 15 8 20 -4 8 -22 -36 -78 -112 -140 -88 -73
-147 -103 -250 -125 -49 -11 -97 -22 -106 -26 -9 -3 -16 -2 -16 4 0 10 4 12
121 35 76 16 106 28 188 81 26 17 39 31 33 35 -7 4 1 17 23 35 22 18 31 34 28
44 -5 11 -2 14 10 9 8 -3 21 1 27 8 7 8 16 13 20 10 4 -3 14 3 21 13 13 15 12
16 -3 3 -14 -10 -18 -10 -18 -1 0 10 -3 10 -15 0 -8 -7 -15 -9 -15 -5 0 4 -6
3 -12 -3 -13 -10 -19 -12 -38 -12 -5 0 -10 -5 -10 -11 0 -5 6 -7 13 -3 8 5 8
2 -2 -9 -15 -19 -26 -23 -15 -6 4 7 1 10 -7 7 -8 -3 -13 -11 -11 -17 1 -7 -2
-10 -7 -7 -5 4 -15 0 -23 -7 -7 -7 -27 -22 -45 -32 -18 -10 -29 -23 -26 -29 4
-5 -1 -7 -11 -3 -11 4 -15 3 -10 -4 4 -7 0 -9 -12 -5 -11 3 -26 1 -34 -4 -12
-8 -12 -10 3 -16 20 -7 89 25 81 38 -3 4 2 5 10 2 23 -9 20 -13 -20 -30 -20
-8 -34 -18 -31 -21 9 -8 72 31 73 45 1 7 2 17 3 22 0 6 8 10 17 10 9 0 12 5 8
13 -4 6 -4 9 1 5 4 -4 17 -3 29 3 12 6 7 -3 -14 -22 -19 -17 -27 -29 -17 -26
9 4 17 3 17 -1 0 -18 -158 -90 -220 -101 -36 -6 -74 -14 -85 -17 -17 -4 -21
-1 -21 19 0 17 4 23 14 20 11 -5 11 -7 0 -14 -7 -5 -10 -9 -7 -9 16 0 193 41
198 46 3 4 -5 4 -19 0 -63 -16 -98 -18 -105 -6 -5 9 -4 11 3 6 7 -4 29 -4 49
0 37 7 37 7 14 18 -18 8 -25 8 -29 -2 -2 -7 -7 -10 -11 -8 -4 3 -45 -2 -92
-10 -46 -8 -110 -15 -141 -15 -32 -1 -56 -4 -54 -8 2 -3 -64 -7 -147 -9 -84
-1 -186 -4 -227 -6 -44 -3 -61 -2 -40 2 35 8 35 8 -20 16 -30 5 -71 8 -90 8
-25 -1 -31 2 -20 9 11 7 6 8 -15 3 -24 -4 -27 -3 -15 6 13 10 13 11 -2 6 -10
-3 -18 -2 -18 3 0 5 -18 16 -40 25 -45 18 -63 21 -40 6 20 -13 0 -12 -39 1
-25 9 -30 14 -19 21 9 6 6 7 -9 3 -14 -4 -23 -2 -23 5 0 7 -8 9 -20 5 -11 -4
-20 -2 -20 4 0 6 -10 11 -22 11 -12 0 -51 13 -87 29 -36 15 -104 43 -151 60
-47 18 -104 41 -128 52 -24 11 -41 15 -38 10 4 -5 -4 -13 -16 -17 -21 -6 -20
-8 13 -25 19 -10 28 -18 21 -19 -7 0 -26 7 -43 16 -16 8 -39 12 -49 9 -12 -4
-20 -2 -20 5 0 6 5 8 12 4 7 -5 9 -2 6 7 -4 10 1 15 15 17 17 1 19 -1 7 -8
-17 -11 -9 -13 15 -4 13 5 10 10 -14 25 -17 10 -38 16 -47 12 -11 -4 -15 -2
-11 4 9 14 -41 35 -65 27 -11 -3 -18 -2 -15 3 3 5 -4 10 -15 10 -12 1 -24 6
-27 10 -3 5 -23 19 -43 33 -21 14 -43 37 -49 53 -6 15 -16 27 -21 27 -5 0 -7
4 -4 8 8 13 2305 12 2313 -1z m20 -73 c2 -10 0 -13 -3 -6 -5 10 -10 9 -21 -5
-14 -17 -14 -17 -9 0 3 10 6 23 6 29 0 18 25 2 27 -18z m-2477 -36 c0 -5 -4
-6 -10 -3 -19 11 -10 -7 25 -57 25 -35 33 -53 27 -64 -7 -13 -16 -7 -44 33
-19 26 -41 59 -48 73 -12 22 -12 24 2 12 13 -10 17 -10 22 4 3 9 3 21 -1 27
-4 7 1 6 10 -2 9 -7 17 -18 17 -23z m301 -93 c34 -16 34 -16 4 -10 -16 4 -34
11 -39 16 -14 13 -3 11 35 -6z m228 -14 c19 -12 -4 -24 -30 -16 -17 6 -19 9
-8 16 17 11 21 11 38 0z m119 -46 c24 -10 41 -20 38 -23 -3 -2 -20 2 -38 11
-18 8 -45 19 -61 22 -15 4 -29 11 -32 15 -6 10 32 0 93 -25z m-168 5 c19 -11
29 -19 22 -20 -7 0 -10 -5 -7 -10 3 -6 -1 -13 -9 -16 -9 -3 -13 -11 -10 -16 4
-6 -2 -8 -17 -3 -22 6 -23 6 -6 -7 17 -13 17 -15 -6 -42 -21 -24 -28 -26 -43
-17 -18 11 -18 12 1 6 16 -4 21 0 22 15 1 11 -3 20 -8 20 -6 0 -7 -5 -3 -11 4
-8 -1 -9 -16 -4 -15 5 -20 4 -16 -4 4 -6 1 -11 -6 -11 -7 -1 3 -9 22 -20 19
-11 29 -19 22 -20 -7 0 -10 -4 -7 -10 3 -5 1 -10 -5 -10 -6 0 -9 -4 -6 -9 3
-5 -20 1 -51 12 -31 12 -51 23 -44 25 6 2 8 8 5 14 -4 6 2 8 17 3 23 -7 24 -7
4 9 -20 15 -19 15 8 16 15 0 27 5 27 11 0 6 -9 8 -20 4 -15 -5 -18 -3 -14 9 3
8 14 18 24 21 10 3 17 13 16 22 -4 28 25 53 53 47 20 -4 23 -3 11 5 -25 18 3
12 40 -9z m158 -24 c31 -13 68 -27 82 -30 l25 -7 -25 16 -25 15 30 -6 c69 -15
132 -64 82 -64 -8 0 -8 3 1 9 11 6 10 9 -5 13 -10 3 -27 9 -38 13 -13 4 -12 1
5 -9 17 -10 20 -16 10 -17 -8 0 3 -7 25 -14 22 -7 51 -11 65 -9 20 3 21 3 6
-4 -14 -6 6 -16 85 -39 57 -17 143 -45 192 -63 137 -49 300 -59 547 -35 45 4
45 4 10 -6 -19 -6 -116 -14 -215 -19 l-180 -8 180 3 c99 2 196 6 215 9 26 5
30 4 15 -3 -20 -10 -20 -10 0 -10 19 -1 21 -8 21 -72 l1 -71 -61 7 c-123 16
-354 11 -451 -9 -29 -6 -29 -6 -5 5 14 6 58 13 98 16 39 3 72 9 72 14 0 8 -92
2 -155 -12 -50 -10 -58 -4 -14 10 l34 11 -40 -5 c-32 -3 -36 -2 -22 6 11 6 32
9 47 7 16 -2 27 -1 24 4 -3 4 -19 8 -35 8 -17 0 -28 4 -24 10 3 5 0 7 -9 4 -8
-3 -30 -1 -50 5 -20 5 -34 6 -31 1 2 -4 -14 -8 -38 -8 -23 0 -58 -2 -77 -6
-28 -4 -30 -4 -10 3 21 8 22 9 5 10 -29 2 -104 30 -81 31 11 0 17 3 13 6 -3 4
-19 2 -36 -4 -23 -8 -32 -7 -41 3 -8 10 -8 14 1 17 7 2 -11 14 -40 26 -28 11
-49 17 -46 12 8 -13 -16 -13 -35 0 -12 8 -12 10 -1 10 8 0 12 2 9 5 -3 3 -13
2 -23 -1 -15 -6 -12 -10 16 -25 39 -21 53 -24 43 -8 -4 8 1 9 17 4 36 -11 44
-23 12 -18 l-28 4 30 -15 c17 -8 23 -15 15 -15 -13 -1 -13 -2 0 -11 13 -8 12
-10 -4 -10 -13 0 -16 5 -12 16 5 13 1 15 -16 11 -13 -4 -30 -2 -38 3 -13 9
-13 10 0 10 8 1 3 7 -13 16 -20 11 -32 12 -47 4 -14 -8 -20 -8 -20 0 0 7 -9 9
-22 5 -18 -5 -20 -4 -8 4 8 6 26 8 40 5 17 -4 21 -3 12 4 -11 7 -10 11 5 16
15 6 12 11 -22 28 -21 11 -84 36 -140 54 -55 18 -92 33 -82 34 10 0 22 12 27
26 6 14 14 22 20 19 5 -3 10 -1 10 5 0 6 6 17 13 24 11 11 24 9 72 -9 33 -12
53 -24 45 -27 -11 -3 -10 -6 4 -11 9 -4 15 -3 11 2 -3 5 2 11 12 13 9 2 -15
14 -53 27 -67 23 -98 40 -91 48 3 2 42 -12 88 -30 46 -19 98 -37 114 -41 46
-10 10 9 -61 32 -67 22 -127 51 -106 52 7 0 38 -11 70 -24z m2194 -13 c-6 -2
-9 -10 -6 -15 5 -7 2 -8 -6 -3 -7 4 -16 2 -20 -5 -5 -9 -9 -9 -14 -1 -7 10 26
30 49 30 6 -1 4 -3 -3 -6z m-2663 -32 c22 -17 22 -18 5 -25 -10 -4 -15 -4 -12
0 4 3 -3 15 -15 25 -29 24 -9 24 22 0z m2521 -31 c0 -5 -5 -10 -11 -10 -5 0
-7 5 -4 10 3 6 8 10 11 10 2 0 4 -4 4 -10z m-1706 -41 c37 -11 75 -18 84 -15
9 3 24 1 32 -5 11 -8 9 -9 -10 -3 -49 13 -9 -10 57 -33 41 -14 80 -21 98 -18
23 4 25 3 10 -4 -39 -16 87 -26 230 -17 l60 4 -55 -8 c-41 -6 -26 -7 60 -5 94
3 107 1 70 -7 -25 -5 -108 -7 -185 -4 -145 5 -241 23 -340 66 -27 12 -80 30
-119 40 -65 19 -92 30 -69 30 6 0 41 -9 77 -21z m1696 6 c0 -8 -4 -15 -10 -15
-5 0 -10 7 -10 15 0 8 5 15 10 15 6 0 10 -7 10 -15z m-2035 -75 c22 -11 31
-18 20 -14 -11 3 -35 10 -52 16 -18 5 -33 11 -33 13 0 10 27 4 65 -15z m1332
4 c-3 -3 -12 -4 -19 -1 -8 3 -5 6 6 6 11 1 17 -2 13 -5z m548 -4 c-10 -16 -96
-72 -102 -67 -3 3 13 17 35 31 22 14 43 30 47 36 3 5 11 10 16 10 6 0 7 -4 4
-10z m-697 -7 c-10 -2 -28 -2 -40 0 -13 2 -5 4 17 4 22 1 32 -1 23 -4z m-171
-9 c-3 -3 -12 -4 -19 -1 -8 3 -5 6 6 6 11 1 17 -2 13 -5z m209 -1 c-3 -4 -25
-10 -49 -14 -39 -8 -39 -8 11 -4 29 2 52 0 52 -5 0 -6 -15 -11 -32 -11 -32 -2
-32 -2 7 -10 37 -7 36 -7 -14 -5 -48 3 -70 15 -71 38 0 4 19 9 43 11 23 2 46
4 51 5 5 1 6 -1 2 -5z m-148 -10 c-10 -2 -26 -2 -35 0 -10 3 -2 5 17 5 19 0
27 -2 18 -5z m-1080 -12 c19 -12 -8 -22 -38 -14 -16 4 -18 8 -8 14 17 11 29
11 46 0z m1215 -42 c15 0 27 -4 27 -9 0 -17 -90 -11 -108 6 -15 16 -14 16 18
10 19 -4 47 -7 63 -7z m544 -5 c-3 -3 -12 -4 -19 -1 -8 3 -5 6 6 6 11 1 17 -2
13 -5z m-630 -26 c-3 -8 -6 -5 -6 6 -1 11 2 17 5 13 3 -3 4 -12 1 -19z m-807
-28 c12 -1 -27 -20 -40 -20 -13 0 -13 1 0 10 13 8 13 10 -2 10 -9 0 -19 4 -23
9 -3 6 7 6 27 0 18 -5 35 -9 38 -9z m110 -25 c-46 -18 -64 -17 -25 0 17 8 37
14 45 14 8 0 -1 -7 -20 -14z m118 6 c21 -5 18 -8 -23 -20 -25 -7 -49 -11 -52
-7 -4 3 2 6 13 6 10 0 26 5 34 11 11 8 6 9 -20 5 -25 -4 -31 -3 -20 4 17 11
34 11 68 1z m809 -37 c-3 -3 -12 -4 -19 -1 -8 3 -5 6 6 6 11 1 17 -2 13 -5z
m-682 -34 c-3 -5 -18 -9 -33 -9 l-27 1 30 8 c17 4 31 8 33 9 2 0 0 -3 -3 -9z
m48 3 c-7 -2 -19 -2 -25 0 -7 3 -2 5 12 5 14 0 19 -2 13 -5z m242 -3 c-26 -9
-196 -12 -172 -2 9 4 56 8 105 8 48 1 78 -2 67 -6z m101 -8 c-21 -2 -42 0 -47
5 -4 4 13 6 39 3 l47 -5 -39 -3z"/>
<path d="M3490 1072 c0 -5 7 -13 16 -16 10 -4 14 -1 12 6 -5 15 -28 23 -28 10z"/>
<path d="M3680 785 c-7 -8 -17 -12 -23 -8 -6 4 -7 1 -2 -6 4 -8 -5 -23 -26
-41 -19 -16 -29 -29 -23 -30 13 0 98 89 92 96 -3 2 -11 -2 -18 -11z"/>
<path d="M1320 946 c0 -15 29 -62 51 -81 25 -22 19 -10 -23 49 -15 21 -28 36
-28 32z"/>
<path d="M1760 810 c13 -9 13 -10 0 -10 -13 0 -13 -1 0 -10 8 -5 20 -10 25
-10 6 0 3 5 -5 10 -13 9 -13 10 0 10 13 0 13 1 0 10 -8 5 -19 10 -25 10 -5 0
-3 -5 5 -10z"/>
<path d="M1803 785 c0 -17 6 -18 25 -6 11 7 10 10 -3 15 -22 8 -22 8 -22 -9z"/>
<path d="M1752 761 c-11 -6 -10 -10 4 -15 9 -3 19 -4 22 -1 3 3 -1 5 -9 5 -11
0 -11 2 1 10 8 5 11 10 5 10 -5 0 -16 -4 -23 -9z"/>
<path d="M1720 740 c8 -5 20 -10 25 -10 6 0 3 5 -5 10 -8 5 -19 10 -25 10 -5
0 -3 -5 5 -10z"/>
<path d="M1720 670 c8 -5 20 -10 25 -10 6 0 3 5 -5 10 -8 5 -19 10 -25 10 -5
0 -3 -5 5 -10z"/>
<path d="M1690 660 c8 -5 20 -10 25 -10 6 0 3 5 -5 10 -8 5 -19 10 -25 10 -5
0 -3 -5 5 -10z"/>
<path d="M1920 745 c14 -8 32 -14 40 -14 8 0 0 6 -19 14 -42 19 -54 19 -21 0z"/>
<path d="M2058 723 c7 -3 16 -2 19 1 4 3 -2 6 -13 5 -11 0 -14 -3 -6 -6z"/>
<path d="M2037 709 c7 -7 15 -10 18 -7 3 3 -2 9 -12 12 -14 6 -15 5 -6 -5z"/>
<path d="M2070 697 c0 -3 24 -13 53 -23 28 -9 57 -21 63 -26 7 -5 16 -8 20 -7
14 4 88 -18 217 -62 65 -23 120 -39 122 -37 3 2 -21 12 -52 22 -34 11 -51 21
-44 26 13 8 -72 45 -124 54 -22 4 -19 2 10 -8 54 -19 112 -45 100 -45 -8 0
-70 19 -347 106 -10 3 -18 3 -18 0z"/>
<path d="M2165 686 c17 -8 32 -12 34 -10 7 7 -3 12 -34 18 l-30 6 30 -14z"/>
<path d="M2220 670 c8 -5 22 -9 30 -9 10 0 8 3 -5 9 -27 12 -43 12 -25 0z"/>
<path d="M2485 580 c11 -5 27 -9 35 -9 9 0 8 4 -5 9 -11 5 -27 9 -35 9 -9 0
-8 -4 5 -9z"/>
<path d="M2575 555 c22 -8 51 -13 65 -13 14 0 0 6 -30 13 -69 18 -88 17 -35 0z"/>
<path d="M2575 530 c11 -5 34 -8 50 -8 l30 0 -30 8 c-16 4 -39 8 -50 8 l-20 1
20 -9z"/>
<path d="M3013 523 c9 -2 23 -2 30 0 6 3 -1 5 -18 5 -16 0 -22 -2 -12 -5z"/>
<path d="M2662 515 c7 -7 138 -9 144 -2 3 3 -29 5 -72 6 -42 0 -75 -2 -72 -4z"/>
<path d="M2863 513 c26 -2 67 -2 90 0 23 2 2 3 -48 3 -49 0 -68 -1 -42 -3z"/>
<path d="M2328 493 c6 -2 18 -2 25 0 6 3 1 5 -13 5 -14 0 -19 -2 -12 -5z"/>
<path d="M2385 490 c3 -5 8 -10 11 -10 2 0 4 5 4 10 0 6 -5 10 -11 10 -5 0 -7
-4 -4 -10z"/>
<path d="M3058 443 c7 -3 16 -2 19 1 4 3 -2 6 -13 5 -11 0 -14 -3 -6 -6z"/>
<path d="M2673 433 c9 -2 23 -2 30 0 6 3 -1 5 -18 5 -16 0 -22 -2 -12 -5z"/>
<path d="M2950 431 c-23 -7 -23 -8 -5 -14 34 -10 153 -17 125 -8 -14 5 -43 10
-65 11 l-40 3 40 7 40 7 -35 1 c-19 0 -46 -3 -60 -7z"/>
<path d="M2798 423 c23 -2 61 -2 85 0 23 2 4 4 -43 4 -47 0 -66 -2 -42 -4z"/>
<path d="M3058 423 c6 -2 18 -2 25 0 6 3 1 5 -13 5 -14 0 -19 -2 -12 -5z"/>
<path d="M3159 1753 l-24 -28 28 24 c25 23 32 31 24 31 -2 0 -14 -12 -28 -27z"/>
<path d="M263 1763 c15 -2 39 -2 55 0 15 2 2 4 -28 4 -30 0 -43 -2 -27 -4z"/>
<path d="M1244 1740 c1 -40 20 -48 23 -10 2 22 2 23 -6 5 -8 -18 -9 -17 -14
10 -4 27 -5 27 -3 -5z"/>
<path d="M2713 1725 c0 -22 2 -30 4 -17 2 12 2 30 0 40 -3 9 -5 -1 -4 -23z"/>
<path d="M3941 1714 c0 -11 3 -14 6 -6 3 7 2 16 -1 19 -3 4 -6 -2 -5 -13z"/>
<path d="M3923 1670 c0 -25 2 -35 4 -22 2 12 2 32 0 45 -2 12 -4 2 -4 -23z"/>
<path d="M1232 1680 c0 -14 2 -19 5 -12 2 6 2 18 0 25 -3 6 -5 1 -5 -13z"/>
<path d="M2697 1673 c-4 -3 -7 -13 -7 -22 1 -13 3 -13 11 2 11 19 8 33 -4 20z"/>
<path d="M1251 1648 c0 -18 -7 -28 -16 -28 -11 0 -15 -10 -13 -37 1 -38 1 -38
5 -5 2 18 9 30 14 27 12 -8 22 18 16 47 -4 21 -4 20 -6 -4z"/>
<path d="M3952 1620 c0 -14 2 -19 5 -12 2 6 2 18 0 25 -3 6 -5 1 -5 -13z"/>
<path d="M5123 1593 c25 -4 27 -8 27 -53 0 -45 -2 -49 -27 -53 -21 -4 -19 -4
7 -3 35 1 35 1 38 54 3 46 6 52 25 52 44 0 60 -82 19 -93 -16 -4 -16 -5 0 -6
28 -2 50 29 43 58 -11 45 -23 51 -94 50 -36 -1 -54 -4 -38 -6z"/>
<path d="M4071 1574 c0 -11 3 -14 6 -6 3 7 2 16 -1 19 -3 4 -6 -2 -5 -13z"/>
<path d="M3961 1554 c0 -11 3 -14 6 -6 3 7 2 16 -1 19 -3 4 -6 -2 -5 -13z"/>
<path d="M1243 1515 c0 -22 2 -30 4 -17 2 12 2 30 0 40 -3 9 -5 -1 -4 -23z"/>
<path d="M2660 1511 c0 -5 -3 -18 -6 -28 -5 -15 -4 -15 5 -3 6 8 11 13 12 10
0 -3 2 -13 4 -23 2 -13 -1 -16 -15 -12 -13 4 -19 -1 -24 -19 -4 -15 -15 -26
-29 -29 -12 -2 -5 -5 18 -5 26 -1 35 1 26 7 -18 12 -5 31 21 31 16 0 19 -5 15
-21 -4 -15 -2 -19 10 -15 8 3 22 6 31 7 13 0 12 2 -4 9 -12 5 -25 25 -32 49
-12 37 -32 65 -32 42z"/>
<path d="M570 1499 c133 -4 224 -12 260 -22 60 -17 82 -15 28 2 -69 22 -168
31 -328 29 l-165 -1 205 -8z"/>
<path d="M1211 1494 c0 -11 3 -14 6 -6 3 7 2 16 -1 19 -3 4 -6 -2 -5 -13z"/>
<path d="M4210 1493 c0 -10 4 -14 8 -8 4 6 11 13 16 18 5 4 2 7 -7 7 -10 0
-17 -8 -17 -17z"/>
<path d="M4557 1503 c-4 -3 -7 -11 -7 -17 0 -6 5 -5 12 2 6 6 9 14 7 17 -3 3
-9 2 -12 -2z"/>
<path d="M4276 1485 c4 -8 8 -15 10 -15 2 0 4 7 4 15 0 8 -4 15 -10 15 -5 0
-7 -7 -4 -15z"/>
<path d="M4236 1468 c-4 -15 -15 -29 -24 -31 -16 -4 -16 -5 0 -6 9 0 20 4 23
9 13 21 35 10 36 -17 l1 -28 7 30 c5 24 3 31 -11 33 -9 2 -19 11 -21 20 -3 12
-6 9 -11 -10z"/>
<path d="M3772 1457 c-28 -30 -28 -47 1 -46 17 0 19 2 5 7 -14 6 -14 10 -4 24
7 10 16 15 19 11 4 -3 7 1 7 10 0 22 -2 21 -28 -6z"/>
<path d="M195 1460 c-3 -5 0 -10 7 -10 11 0 10 -2 0 -9 -20 -12 92 -23 164
-15 45 4 56 3 44 -6 -13 -9 -12 -10 5 -6 27 7 156 11 235 7 36 -2 77 -1 90 3
14 3 19 3 13 0 -7 -3 -13 -11 -13 -17 0 -5 2 -8 5 -5 16 16 144 -26 194 -64
29 -22 48 -24 31 -3 -7 8 -9 15 -4 15 5 0 -11 13 -34 29 -29 19 -39 31 -30 34
7 4 0 3 -16 0 -22 -5 -27 -3 -21 7 6 10 4 12 -10 6 -10 -3 -34 -3 -54 0 -29 6
-32 8 -16 14 31 11 -93 20 -352 25 -153 4 -234 2 -238 -5z m418 -19 c10 -10
-233 -4 -328 8 -49 6 -12 7 125 4 107 -3 199 -8 203 -12z m74 -2 c-14 -8 -22
-8 -30 0 -8 8 -3 11 19 11 25 -1 27 -2 11 -11z m223 -59 c19 -11 31 -19 25
-19 -5 0 -26 8 -45 19 -19 11 -30 19 -25 19 6 0 26 -8 45 -19z"/>
<path d="M4550 1425 c0 -14 4 -25 9 -25 4 0 6 11 3 25 -2 14 -6 25 -8 25 -2 0
-4 -11 -4 -25z"/>
<path d="M4570 1432 c0 -8 9 -11 25 -8 18 3 25 0 25 -11 0 -9 3 -14 6 -10 3 3
3 14 0 25 -7 22 -56 26 -56 4z"/>
<path d="M818 1433 c7 -3 16 -2 19 1 4 3 -2 6 -13 5 -11 0 -14 -3 -6 -6z"/>
<path d="M1222 1425 c0 -11 3 -29 8 -40 11 -25 11 1 0 35 -6 20 -8 21 -8 5z"/>
<path d="M4317 1433 c-12 -11 -8 -33 6 -33 8 0 22 9 32 20 18 19 17 20 -7 20
-13 0 -28 -3 -31 -7z m23 -13 c0 -5 -5 -10 -11 -10 -5 0 -7 5 -4 10 3 6 8 10
11 10 2 0 4 -4 4 -10z"/>
<path d="M4385 1421 c-2 -4 11 -8 30 -9 19 -1 36 2 39 6 3 5 -11 9 -30 9 -19
1 -36 -2 -39 -6z"/>
<path d="M3891 1324 c0 -11 3 -14 6 -6 3 7 2 16 -1 19 -3 4 -6 -2 -5 -13z"/>
<path d="M4061 1303 c0 -13 3 -23 8 -23 5 0 12 -8 14 -17 3 -10 5 0 5 22 0 30
-1 35 -7 20 l-8 -20 -5 20 c-5 18 -6 18 -7 -2z"/>
<path d="M4639 1318 c-1 -2 -3 -13 -4 -26 -2 -16 1 -20 8 -13 7 7 14 5 22 -6
8 -11 14 -13 19 -5 4 7 2 12 -4 12 -6 0 -8 5 -5 10 3 6 -1 10 -10 10 -9 0 -13
5 -10 10 3 6 1 10 -4 10 -6 0 -12 -1 -12 -2z"/>
<path d="M3907 1253 c-4 -4 -5 -21 -1 -38 3 -18 1 -49 -4 -69 -7 -24 -7 -34
-1 -30 6 3 9 -2 7 -12 -3 -16 6 -18 100 -17 84 1 104 -2 113 -16 9 -14 10 -13
4 4 -6 18 -4 17 19 -4 13 -13 22 -29 19 -37 -3 -8 0 -14 7 -14 6 0 9 4 6 9
-12 18 21 18 54 0 26 -15 29 -18 10 -13 -14 4 -22 3 -18 -1 18 -19 180 -22
207 -4 16 10 -38 7 -99 -6 -15 -3 -11 0 10 9 25 10 29 15 15 15 -11 1 -46 12
-77 25 -40 16 -60 20 -67 13 -13 -13 -77 44 -87 76 -5 15 -8 16 -14 7 -10 -16
-2 -42 10 -35 5 3 11 1 14 -4 3 -5 -42 -9 -105 -10 l-111 -2 7 23 c5 18 4 20
-4 8 -7 -11 -8 6 -4 58 6 69 4 80 -10 65z m278 -201 c-6 -6 -35 18 -35 29 0 5
9 1 20 -8 11 -9 17 -19 15 -21z m40 7 c-4 -6 -1 -9 6 -8 8 1 34 -4 58 -11 37
-12 40 -15 22 -22 -25 -9 -53 0 -45 14 4 6 1 8 -7 6 -18 -7 -51 10 -44 23 4 5
8 9 11 9 3 0 2 -5 -1 -11z"/>
<path d="M2330 1220 c0 -5 5 -10 11 -10 5 0 7 5 4 10 -3 6 -8 10 -11 10 -2 0
-4 -4 -4 -10z"/>
<path d="M4061 1214 c0 -11 3 -14 6 -6 3 7 2 16 -1 19 -3 4 -6 -2 -5 -13z"/>
<path d="M1180 1201 c0 -5 7 -15 17 -22 15 -13 15 -12 4 9 -12 23 -21 28 -21
13z"/>
<path d="M3931 1174 c0 -11 3 -14 6 -6 3 7 2 16 -1 19 -3 4 -6 -2 -5 -13z"/>
<path d="M1241 1116 c18 -28 35 -44 37 -38 3 10 7 10 20 0 10 -9 13 -9 9 -1
-5 8 6 13 35 16 l43 4 -44 1 c-25 1 -54 10 -65 19 -12 10 -15 11 -8 3 6 -8 12
-19 12 -24 -1 -6 -17 7 -36 29 l-36 40 33 -49z"/>
<path d="M4838 1142 c-10 -2 -18 -7 -18 -11 0 -16 13 -20 33 -10 17 10 19 9
15 -9 -7 -24 -1 -32 32 -53 22 -14 27 -14 39 -2 7 8 10 17 6 21 -3 3 -9 1 -13
-5 -12 -19 -52 4 -52 30 0 29 -18 45 -42 39z"/>
<path d="M4662 1120 c-9 -15 -24 -20 -55 -21 -23 0 -36 -3 -29 -6 6 -2 12 -16
12 -30 0 -25 20 -28 28 -3 3 7 0 10 -7 6 -6 -4 -11 -2 -11 3 0 24 31 7 49 -27
7 -12 17 -20 22 -16 6 3 3 11 -7 18 -11 9 -14 19 -10 34 6 18 11 20 27 11 29
-15 40 -50 23 -70 -15 -17 -9 -29 15 -29 13 0 13 2 3 9 -12 7 -12 12 -1 30 11
17 12 25 1 42 -13 20 -12 21 42 17 33 -2 56 1 56 7 0 6 -30 9 -76 7 -73 -4
-76 -3 -69 17 8 26 3 27 -13 1z"/>
<path d="M4836 1085 c4 -8 8 -15 10 -15 2 0 4 7 4 15 0 8 -4 15 -10 15 -5 0
-7 -7 -4 -15z"/>
<path d="M4893 1093 c10 -9 1808 -10 1814 0 2 4 -406 7 -908 7 -502 0 -909 -3
-906 -7z"/>
<path d="M4810 1060 c0 -15 21 -23 32 -12 6 6 2 11 -11 15 -12 3 -21 1 -21 -3z"/>
<path d="M1470 1054 c1 -12 39 -61 40 -51 0 5 -9 20 -20 34 -11 14 -20 22 -20
17z"/>
<path d="M1279 1033 c12 -24 31 -39 31 -25 0 5 -10 17 -21 28 -22 19 -22 19
-10 -3z"/>
<path d="M4870 1040 c0 -5 5 -10 10 -10 6 0 10 5 10 10 0 6 -4 10 -10 10 -5 0
-10 -4 -10 -10z"/>
<path d="M1260 1022 c0 -5 7 -15 15 -22 8 -7 15 -8 15 -2 0 5 -7 15 -15 22 -8
7 -15 8 -15 2z"/>
<path d="M1346 1017 c3 -10 9 -15 12 -12 3 3 0 11 -7 18 -10 9 -11 8 -5 -6z"/>
<path d="M4195 1021 c-3 -5 -2 -12 3 -15 5 -3 9 1 9 9 0 17 -3 19 -12 6z"/>
<path d="M6537 1006 c-4 -10 -5 -21 -2 -24 9 -9 17 6 13 25 -3 17 -4 17 -11
-1z"/>
<path d="M3872 985 c-17 -37 -14 -45 4 -12 9 16 14 31 11 33 -2 2 -9 -7 -15
-21z"/>
<path d="M3827 945 c-15 -30 -25 -55 -22 -55 7 0 57 101 53 106 -2 2 -16 -21
-31 -51z"/>
<path d="M4398 963 c7 -3 16 -2 19 1 4 3 -2 6 -13 5 -11 0 -14 -3 -6 -6z"/>
<path d="M4629 963 c-1 -5 -1 -12 0 -17 1 -5 -4 -6 -12 -3 -7 3 -14 -1 -14 -9
0 -7 4 -11 8 -8 4 2 10 0 14 -6 3 -6 -4 -10 -17 -10 -13 0 -30 -5 -38 -10 -11
-8 -7 -9 15 -4 23 4 26 3 15 -5 -8 -6 -10 -11 -5 -11 6 0 1 -7 -9 -15 -15 -11
-16 -15 -5 -16 8 0 6 -4 -6 -9 -13 -6 -15 -9 -5 -9 13 -1 13 -2 0 -11 -13 -9
-13 -10 0 -10 13 0 13 -1 0 -10 -12 -8 -12 -10 5 -11 l20 0 -20 -10 c-14 -6 3
-8 55 -7 41 0 82 -2 90 -5 8 -3 44 -15 80 -27 36 -11 94 -41 130 -65 74 -51
239 -108 361 -125 41 -6 105 -20 144 -31 68 -19 89 -27 139 -50 13 -6 30 -8
37 -4 8 5 10 4 5 -4 -8 -13 101 -66 197 -97 44 -14 62 -15 79 -7 13 7 30 14
38 17 8 3 -2 4 -23 0 -21 -3 -46 -8 -54 -11 -10 -4 -14 -2 -10 4 5 7 -1 9 -15
6 l-23 -4 23 14 c23 13 23 13 -13 25 -25 7 -46 8 -64 1 -24 -9 -25 -8 -7 6 20
15 20 15 0 17 -10 0 -27 0 -37 0 -11 -1 -15 2 -11 9 4 7 -2 6 -17 -2 -22 -11
-23 -11 -10 5 12 14 12 16 -4 10 -13 -5 -16 -4 -11 4 4 8 2 10 -8 6 -9 -3 -17
3 -21 17 -7 21 -8 21 -20 5 -12 -15 -14 -16 -29 -1 -9 9 -14 20 -11 25 3 5 0
12 -6 16 -7 4 -9 3 -6 -3 4 -6 1 -13 -7 -16 -8 -3 -17 0 -20 8 -3 8 0 15 7 18
6 2 3 6 -7 10 -10 4 -15 3 -11 -3 8 -13 -5 -13 -25 0 -13 9 -13 10 0 10 10 1
8 4 -5 9 -33 13 -81 22 -67 13 9 -6 6 -12 -12 -20 -14 -6 -28 -7 -31 -2 -3 4
3 11 12 13 15 4 15 5 -2 6 -12 0 -26 -4 -33 -11 -6 -6 -15 -9 -19 -5 -3 4 2
14 13 21 18 14 18 15 1 21 -9 4 -39 2 -65 -4 -83 -21 -88 -21 -57 -5 l30 15
-45 -6 c-28 -3 -40 -2 -32 4 10 6 7 10 -14 15 -22 6 -25 9 -13 17 10 8 8 9
-10 4 -14 -4 -21 -3 -18 2 4 6 -4 8 -18 5 -14 -2 -28 -8 -31 -13 -3 -5 -12 -9
-20 -9 -26 0 -5 18 29 26 28 6 29 8 12 15 -28 11 -43 10 -25 -1 34 -22 -18
-10 -64 15 -26 14 -45 21 -41 16 3 -5 1 -12 -5 -16 -5 -3 -10 -1 -10 4 0 6 -7
11 -15 11 -11 0 -14 7 -11 25 3 15 1 23 -5 20 -5 -4 -7 -11 -4 -16 7 -10 -6
-12 -30 -3 -12 5 -13 9 -5 14 8 5 1 12 -18 21 -22 9 -27 16 -19 22 7 5 3 6
-10 2 -13 -4 -23 -2 -23 4 0 6 -7 7 -17 4 -10 -4 -14 -2 -9 5 4 8 -3 8 -26 1
-42 -12 -57 -11 -38 2 15 9 -37 5 -82 -8 -10 -2 -18 0 -18 6 0 5 17 12 38 14
l37 4 -42 1 c-24 1 -43 7 -43 13 0 7 15 9 43 5 39 -5 40 -5 10 5 -18 5 -33 14
-33 19 0 5 -8 7 -17 4 -17 -5 -17 -5 0 6 9 6 17 17 17 25 0 7 9 17 20 20 11 3
20 10 20 15 0 5 10 11 23 13 19 4 18 4 -5 6 -18 0 -28 7 -28 16 0 15 -29 22
-31 8z m-25 -159 c3 -8 2 -12 -4 -9 -6 3 -10 10 -10 16 0 14 7 11 14 -7z m236
-55 c53 -27 22 -22 -35 7 -27 13 -39 21 -25 18 14 -4 41 -15 60 -25z m192
-110 c-18 -7 -46 0 -38 9 3 3 -2 11 -12 18 -10 8 0 7 25 -4 31 -13 37 -19 25
-23z m107 -23 c15 -8 20 -16 12 -20 -6 -4 -11 -2 -11 4 0 7 -7 9 -16 6 -9 -4
-13 -2 -8 5 4 8 -1 9 -17 4 -19 -5 -21 -4 -9 4 19 13 20 13 49 -3z m173 -42
c-24 -8 -49 -13 -55 -11 -14 5 48 25 78 26 11 0 1 -7 -23 -15z m138 -29 c-14
-7 -27 -11 -30 -9 -6 7 22 24 40 23 9 0 5 -6 -10 -14z m60 -25 c12 -7 10 -9
-8 -7 -12 0 -22 5 -22 9 0 11 12 10 30 -2z m220 -94 c0 -3 -4 -8 -10 -11 -5
-3 -10 -1 -10 4 0 6 5 11 10 11 6 0 10 -2 10 -4z m60 -20 c0 -2 -7 -7 -16 -10
-8 -3 -12 -2 -9 4 6 10 25 14 25 6z m20 -16 c-8 -5 -19 -10 -25 -10 -5 0 -3 5
5 10 8 5 20 10 25 10 6 0 3 -5 -5 -10z"/>
<path d="M4680 960 c-12 -9 -9 -10 12 -6 15 3 30 2 33 -4 3 -5 18 -10 33 -10
18 0 23 3 16 10 -16 16 -77 22 -94 10z"/>
<path d="M4520 948 c0 -12 -8 -18 -22 -18 -12 0 -19 -3 -16 -6 3 -3 23 -2 44
2 22 4 32 9 24 12 -8 3 -18 10 -22 16 -5 7 -8 4 -8 -6z"/>
<path d="M4796 944 c-5 -13 -1 -15 24 -12 16 2 31 2 32 -1 7 -14 104 -58 117
-53 9 3 11 0 6 -8 -6 -10 -4 -12 8 -7 11 4 14 2 10 -9 -3 -7 0 -15 6 -15 6 -1
16 -2 23 -3 14 -1 20 -36 6 -36 -6 0 -8 6 -5 13 4 10 -4 13 -25 12 -18 -1 -52
10 -82 26 -28 16 -55 29 -61 29 -5 0 17 -15 50 -33 85 -47 105 -60 105 -73 0
-6 6 -11 13 -12 37 -3 65 -10 85 -21 17 -9 32 -10 55 -2 29 10 30 9 13 -4 -19
-15 -19 -15 2 -15 12 0 22 5 22 10 0 6 4 10 10 10 5 0 7 -7 4 -15 -7 -16 13
-19 54 -8 20 5 11 10 -45 28 -37 12 -83 29 -102 39 -23 12 -31 13 -25 4 4 -7
-12 8 -37 33 -41 43 -109 88 -109 72 0 -4 -7 2 -16 13 -8 10 -13 12 -9 4 4 -8
-1 -6 -9 4 -9 11 -16 16 -16 10 0 -5 -4 -3 -9 5 -5 8 -23 14 -40 14 -17 0 -31
4 -31 9 0 14 -18 9 -24 -8z m209 -134 c3 -5 2 -10 -4 -10 -5 0 -13 5 -16 10
-3 6 -2 10 4 10 5 0 13 -4 16 -10z m60 -19 c5 -9 62 -41 72 -41 2 0 1 4 -2 10
-3 6 1 7 10 4 12 -5 13 -10 6 -17 -8 -8 -23 -4 -52 11 -46 25 -53 27 -43 11 4
-7 -1 -7 -16 1 -18 10 -20 14 -9 21 18 11 26 11 34 0z"/>
<path d="M1400 936 c0 -2 7 -9 15 -16 13 -11 14 -10 9 4 -5 14 -24 23 -24 12z"/>
<path d="M1605 923 c14 -14 91 -43 113 -43 9 1 -5 9 -33 19 -27 10 -59 22 -70
26 -13 5 -17 5 -10 -2z"/>
<path d="M4755 919 c51 -10 92 -10 50 1 -16 4 -43 8 -60 8 -25 0 -24 -2 10 -9z"/>
<path d="M4698 903 c12 -2 30 -2 40 0 9 3 -1 5 -23 4 -22 0 -30 -2 -17 -4z"/>
<path d="M4884 885 c27 -14 51 -23 54 -21 5 6 -73 46 -90 46 -7 0 9 -11 36
-25z"/>
<path d="M4760 896 c0 -2 13 -6 29 -8 17 -2 28 -1 25 4 -5 8 -54 12 -54 4z"/>
<path d="M4640 880 c0 -5 5 -10 11 -10 5 0 7 5 4 10 -3 6 -8 10 -11 10 -2 0
-4 -4 -4 -10z"/>
<path d="M4568 873 c7 -3 16 -2 19 1 4 3 -2 6 -13 5 -11 0 -14 -3 -6 -6z"/>
<path d="M4343 863 c15 -2 37 -2 50 0 12 2 0 4 -28 4 -27 0 -38 -2 -22 -4z"/>
<path d="M4473 853 c9 -2 23 -2 30 0 6 3 -1 5 -18 5 -16 0 -22 -2 -12 -5z"/>
<path d="M4957 849 c7 -7 15 -10 18 -7 3 3 -2 9 -12 12 -14 6 -15 5 -6 -5z"/>
<path d="M4353 843 c15 -2 37 -2 50 0 12 2 0 4 -28 4 -27 0 -38 -2 -22 -4z"/>
<path d="M1502 823 c17 -18 98 -69 98 -60 0 2 -26 21 -57 42 -32 21 -50 29
-41 18z"/>
<path d="M4473 833 c9 -2 23 -2 30 0 6 3 -1 5 -18 5 -16 0 -22 -2 -12 -5z"/>
<path d="M1460 828 c0 -8 101 -81 105 -76 3 2 -17 20 -43 39 -49 35 -62 43
-62 37z"/>
<path d="M4528 823 c7 -3 16 -2 19 1 4 3 -2 6 -13 5 -11 0 -14 -3 -6 -6z"/>
<path d="M4468 813 c6 -2 18 -2 25 0 6 3 1 5 -13 5 -14 0 -19 -2 -12 -5z"/>
<path d="M4718 813 c7 -3 16 -2 19 1 4 3 -2 6 -13 5 -11 0 -14 -3 -6 -6z"/>
<path d="M4045 760 c4 -6 11 -8 16 -5 14 9 11 15 -7 15 -8 0 -12 -5 -9 -10z"/>
<path d="M4528 743 c7 -3 16 -2 19 1 4 3 -2 6 -13 5 -11 0 -14 -3 -6 -6z"/>
<path d="M4485 720 c-3 -5 -17 -10 -31 -10 -13 0 -24 -4 -24 -10 0 -5 7 -7 15
-4 23 9 18 -10 -10 -40 -27 -30 -65 -35 -65 -9 0 12 -3 14 -11 6 -17 -17 -2
-33 29 -33 32 1 50 13 82 60 13 19 29 38 35 42 6 5 6 8 -2 8 -6 0 -15 -4 -18
-10z"/>
<path d="M5296 715 c-23 -10 -25 -13 -11 -18 24 -10 37 -8 30 3 -7 12 12 12
40 0 18 -8 18 -9 -5 -10 -22 -2 -21 -3 9 -11 21 -7 49 -7 79 0 55 11 69 6 21
-8 -25 -7 -28 -9 -12 -10 22 -1 77 -19 140 -47 37 -17 46 -18 38 -4 -9 15 7
12 29 -5 23 -17 40 -20 31 -5 -4 6 1 7 11 3 15 -6 15 -7 -1 -15 -9 -5 -23 -7
-31 -4 -8 3 -13 2 -9 -3 3 -5 -1 -11 -7 -14 -7 -2 1 -4 17 -5 130 -4 154 -6
143 -14 -16 -10 0 -9 27 1 17 7 15 9 -15 16 -19 4 -60 19 -90 32 -30 14 -66
27 -80 29 -13 1 -26 7 -28 13 -2 5 -10 7 -19 4 -11 -4 -14 -2 -9 5 5 8 1 10
-10 5 -12 -5 -15 -3 -9 6 6 10 2 11 -15 6 -15 -5 -20 -4 -16 3 9 15 -67 34
-100 26 -21 -5 -25 -4 -19 6 6 10 4 12 -10 7 -9 -4 -24 -2 -31 4 -7 6 -18 8
-24 4 -6 -4 -16 -2 -23 3 -8 6 -22 5 -41 -3z m117 -32 c-7 -2 -19 -2 -25 0 -7
3 -2 5 12 5 14 0 19 -2 13 -5z m108 -10 c-9 -3 10 -15 45 -29 78 -30 57 -30
-26 0 -46 17 -59 25 -45 29 27 7 43 7 26 0z m203 -94 c-4 -8 1 -9 17 -5 18 5
20 5 8 -3 -8 -6 -26 -7 -38 -4 -17 4 -19 8 -9 14 19 12 30 11 22 -2z"/>
<path d="M3633 671 c-29 -27 -80 -63 -114 -80 -34 -17 -56 -31 -48 -31 35 0
187 107 213 149 12 19 3 12 -51 -38z"/>
<path d="M3919 673 c-13 -16 -12 -17 4 -4 9 7 17 15 17 17 0 8 -8 3 -21 -13z"/>
<path d="M5451 636 c2 -2 20 -6 39 -10 25 -4 31 -3 20 4 -14 9 -69 15 -59 6z"/>
<path d="M1285 610 c-3 -6 1 -7 9 -4 18 7 21 14 7 14 -6 0 -13 -4 -16 -10z"/>
<path d="M5228 613 c7 -3 16 -2 19 1 4 3 -2 6 -13 5 -11 0 -14 -3 -6 -6z"/>
<path d="M1300 600 c-1 -3 -3 -13 -5 -23 -2 -10 -10 -33 -18 -50 -9 -18 -18
-45 -22 -62 -5 -24 0 -20 22 21 40 72 56 92 84 103 13 5 17 10 9 10 -9 1 -25
-6 -37 -14 -20 -14 -22 -13 -26 2 -3 10 -6 16 -7 13z"/>
<path d="M6280 570 c0 -5 7 -10 16 -10 8 0 12 5 9 10 -3 6 -10 10 -16 10 -5 0
-9 -4 -9 -10z"/>
<path d="M5835 536 l-30 -12 45 -12 c25 -6 57 -8 73 -5 16 3 27 1 27 -6 0 -13
28 -10 55 8 18 11 16 12 -18 7 -25 -3 -35 -1 -31 6 4 6 -1 8 -16 3 -27 -9 -89
-9 -97 -1 -4 3 3 6 15 6 12 0 22 5 22 10 0 13 -8 12 -45 -4z"/>
<path d="M1641 532 c-23 -4 -64 -42 -55 -51 2 -3 11 5 20 17 19 28 39 30 24 2
-10 -18 -8 -20 22 -19 25 1 27 3 10 6 -23 4 -23 5 -6 24 20 22 18 26 -15 21z"/>
<path d="M5886 531 c-4 -5 3 -7 14 -4 23 6 26 13 6 13 -8 0 -17 -4 -20 -9z"/>
<path d="M1342 496 c-7 -17 -17 -24 -27 -20 -11 5 -14 2 -9 -10 6 -15 9 -15
30 -1 27 17 38 19 29 5 -12 -20 5 -26 59 -20 40 4 56 3 56 -6 0 -11 29 -28 36
-21 9 9 -37 49 -50 44 -8 -3 -17 -1 -20 6 -3 9 -8 8 -15 -3 -9 -13 -11 -13
-11 0 0 11 -3 11 -12 2 -14 -14 -32 -16 -23 -3 3 6 -1 13 -8 18 -8 4 -16 14
-18 22 -3 8 -9 4 -17 -13z"/>
<path d="M5580 500 c0 -5 5 -10 10 -10 6 0 10 5 10 10 0 6 -4 10 -10 10 -5 0
-10 -4 -10 -10z"/>
<path d="M6017 504 c-9 -3 -15 -10 -12 -15 3 -5 15 -3 27 4 15 8 22 9 25 1 2
-6 15 -9 28 -6 18 3 25 0 25 -12 0 -9 8 -16 18 -16 14 0 15 2 2 10 -12 8 -12
10 -1 10 16 0 7 13 -12 16 -40 9 -84 12 -100 8z"/>
<path d="M3549 495 c-3 -2 -21 -6 -39 -9 -19 -2 -46 -9 -60 -15 -22 -10 -21
-11 15 -6 80 9 115 17 109 26 -6 10 -18 12 -25 4z"/>
<path d="M4058 491 c-78 -8 -80 -17 -2 -15 38 1 64 -2 64 -8 0 -6 6 -5 15 2 8
7 15 16 15 21 0 10 -3 10 -92 0z"/>
<path d="M4501 491 c-9 -6 -10 -10 -2 -12 7 -3 1 -19 -16 -42 -14 -20 -24 -39
-22 -42 5 -4 79 89 79 100 0 8 -23 6 -39 -4z"/>
<path d="M1688 473 c-20 -23 -32 -63 -19 -63 5 0 11 12 13 27 3 28 23 42 31
21 2 -7 3 -5 2 5 -4 20 6 22 24 5 11 -11 13 -10 9 2 -7 22 -42 24 -60 3z"/>
<path d="M3378 473 c7 -3 16 -2 19 1 4 3 -2 6 -13 5 -11 0 -14 -3 -6 -6z"/>
<path d="M6160 470 c13 -9 13 -10 0 -10 -8 -1 0 -9 18 -18 18 -10 30 -21 26
-24 -3 -4 4 -4 15 -1 12 3 24 10 27 15 4 6 -2 8 -14 4 -11 -4 -23 -2 -27 3 -3
7 0 8 9 5 9 -3 16 -2 16 4 0 16 -26 22 -40 9 -9 -9 -11 -9 -7 -1 4 7 0 15 -9
18 -24 9 -31 7 -14 -4z"/>
<path d="M4046 435 c-10 -19 -22 -33 -25 -30 -4 2 -8 -6 -8 -18 -2 -19 1 -18
23 10 15 20 30 30 39 26 8 -3 15 0 15 6 0 6 -7 11 -16 11 -14 0 -14 3 -4 15 7
8 8 15 3 15 -4 0 -17 -16 -27 -35z"/>
<path d="M1530 429 c0 -9 10 -19 23 -23 26 -7 88 -7 70 0 -7 3 -9 13 -6 22 6
16 5 15 -14 0 -24 -22 -37 -23 -29 -3 6 17 -9 20 -20 4 -4 -8 -9 -7 -15 2 -7
11 -9 11 -9 -2z"/>
<path d="M4191 414 c-26 -33 -26 -40 -2 -47 12 -3 27 6 45 29 32 40 32 44 2
44 -15 0 -33 -11 -45 -26z m32 -9 c-18 -25 -50 -36 -37 -12 15 26 27 37 41 37
11 0 10 -5 -4 -25z"/>
<path d="M1700 410 c-12 -23 -5 -26 16 -6 16 17 18 26 4 26 -5 0 -14 -9 -20
-20z"/>
<path d="M4135 421 c3 -5 1 -12 -5 -16 -19 -12 -10 -35 13 -35 17 0 19 2 7 10
-12 7 -12 12 -2 22 16 16 15 28 -4 28 -8 0 -13 -4 -9 -9z"/>
<path d="M5820 420 c8 -5 22 -9 30 -9 10 0 8 3 -5 9 -27 12 -43 12 -25 0z"/>
<path d="M6266 419 c2 -4 -5 -9 -17 -11 -16 -2 -13 -5 15 -14 22 -7 33 -7 29
-1 -4 6 0 8 10 4 11 -4 14 -2 10 8 -3 8 -9 12 -14 9 -5 -3 -9 -1 -9 4 0 5 -7
9 -15 9 -8 0 -12 -4 -9 -8z"/>
<path d="M1737 402 c-23 -25 1 -25 27 0 16 14 16 18 4 18 -8 0 -22 -8 -31 -18z"/>
<path d="M4585 400 c3 -5 10 -10 16 -10 5 0 9 5 9 10 0 6 -7 10 -16 10 -8 0
-12 -4 -9 -10z"/>
<path d="M3920 387 c0 -31 60 -52 75 -27 4 7 -2 9 -19 4 -33 -8 -51 3 -35 22
9 11 8 14 -5 14 -9 0 -16 -6 -16 -13z"/>
<path d="M4325 390 c-3 -5 -2 -10 4 -10 5 0 13 5 16 10 3 6 2 10 -4 10 -5 0
-13 -4 -16 -10z"/>
<path d="M5918 393 c7 -3 16 -2 19 1 4 3 -2 6 -13 5 -11 0 -14 -3 -6 -6z"/>
<path d="M6324 386 c-11 -12 -1 -29 19 -34 4 -1 21 -9 38 -17 24 -13 34 -14
45 -4 12 10 13 9 7 -7 -6 -16 -5 -17 9 -6 11 9 18 10 23 2 3 -5 1 -10 -6 -10
-19 0 -5 -10 27 -19 25 -7 30 -6 30 10 0 14 -4 15 -18 8 -13 -7 -16 -6 -12 4
3 8 -3 17 -13 20 -31 9 -128 52 -133 58 -3 4 -10 1 -16 -5z m58 -34 c11 -13 8
-12 -19 2 -18 9 -33 18 -33 20 0 9 41 -8 52 -22z"/>
<path d="M1670 380 c0 -5 5 -10 11 -10 5 0 7 5 4 10 -3 6 -8 10 -11 10 -2 0
-4 -4 -4 -10z"/>
<path d="M5988 383 c7 -3 16 -2 19 1 4 3 -2 6 -13 5 -11 0 -14 -3 -6 -6z"/>
<path d="M5470 366 c0 -2 7 -9 15 -16 9 -7 15 -8 15 -2 0 5 -7 12 -15 16 -8 3
-15 4 -15 2z"/>
<path d="M5935 363 c-44 -11 -40 -25 5 -19 25 3 53 7 63 8 9 1 17 6 17 10 0 8
-52 9 -85 1z"/>
<path d="M1760 350 c0 -5 5 -10 11 -10 5 0 7 5 4 10 -3 6 -8 10 -11 10 -2 0
-4 -4 -4 -10z"/>
<path d="M1835 350 c3 -5 13 -10 21 -10 8 0 12 5 9 10 -3 6 -13 10 -21 10 -8
0 -12 -4 -9 -10z"/>
<path d="M4162 338 c-43 -21 -50 -28 -20 -21 21 6 22 5 9 -11 -8 -9 -23 -22
-34 -27 -17 -10 -18 -8 -12 13 7 20 6 21 -9 9 -9 -7 -16 -20 -16 -27 0 -25 36
-15 70 21 19 20 48 37 67 41 18 3 33 10 33 15 0 5 -11 4 -24 -1 -14 -5 -26 -6
-28 -2 -2 4 -18 0 -36 -10z"/>
<path d="M6056 353 c-3 -4 -23 -9 -43 -13 l-38 -8 42 -1 c23 0 45 4 48 9 3 6
12 10 18 10 7 0 6 -4 -3 -10 -11 -7 -3 -14 34 -29 26 -12 57 -21 67 -21 11 0
17 -4 14 -10 -3 -6 4 -10 18 -10 14 0 30 -7 37 -14 6 -8 28 -20 48 -27 20 -7
53 -22 72 -34 20 -12 69 -30 109 -39 41 -9 89 -23 109 -31 44 -19 43 -19 38 7
-2 20 -10 23 -47 24 -24 1 -55 7 -69 13 -25 11 -24 11 5 7 17 -3 24 -3 17 0
-6 3 -10 9 -7 13 2 5 -7 6 -22 3 -14 -3 -23 -1 -20 4 3 5 -12 9 -34 9 -36 0
-38 1 -22 14 19 14 14 14 -30 -4 -7 -3 -21 2 -32 11 -11 8 -14 13 -7 9 6 -3
12 -3 12 2 -1 15 -74 43 -81 32 -4 -6 -16 -8 -28 -4 -20 6 -20 25 0 25 6 0 7
-4 4 -10 -3 -5 -1 -10 5 -10 20 0 4 25 -16 26 -10 1 -35 2 -54 3 -27 1 -31 4
-20 11 13 9 13 10 0 11 -8 1 -23 0 -34 -1 -11 -1 -15 3 -12 9 4 6 2 11 -4 11
-6 0 -9 3 -7 8 6 8 -58 13 -67 5z m64 -17 c0 -11 -19 -15 -25 -6 -3 5 1 10 9
10 9 0 16 -2 16 -4z m194 -82 c3 -8 2 -12 -4 -9 -6 3 -10 10 -10 16 0 14 7 11
14 -7z m151 -64 c15 -6 11 -8 -18 -8 -24 1 -33 4 -25 9 15 10 17 10 43 -1z
m152 -46 c-3 -3 -12 -4 -19 -1 -8 3 -5 6 6 6 11 1 17 -2 13 -5z"/>
<path d="M1450 326 c0 -8 4 -17 9 -20 5 -4 7 3 4 14 -6 23 -13 26 -13 6z"/>
<path d="M2383 333 c25 -4 27 -8 27 -47 0 -37 -4 -45 -22 -49 -31 -9 -19 -16
17 -10 29 4 30 6 27 54 -3 40 -1 49 12 49 18 0 21 -15 6 -25 -14 -9 -12 -25 3
-23 7 2 12 -8 12 -24 -1 -16 3 -28 7 -28 15 0 21 31 10 53 -5 12 -13 30 -16
40 -4 14 -16 17 -58 16 -29 -1 -41 -4 -25 -6z"/>
<path d="M1978 323 c6 -2 18 -2 25 0 6 3 1 5 -13 5 -14 0 -19 -2 -12 -5z"/>
<path d="M3173 276 c-24 -42 -28 -56 -17 -60 21 -8 -10 -70 -45 -91 -11 -6
-13 -4 -7 11 6 15 4 16 -5 7 -6 -6 -9 -19 -5 -28 5 -15 11 -13 40 12 18 15 31
31 29 36 -2 4 1 7 6 7 6 0 11 9 11 20 0 10 12 31 28 47 l27 27 -23 6 -24 5 22
28 c14 18 17 27 8 27 -7 0 -27 -25 -45 -54z m31 -30 c-7 -19 -34 -29 -34 -12
0 16 10 26 26 26 8 0 11 -6 8 -14z"/>
<path d="M6540 301 c0 -5 7 -11 15 -15 9 -3 15 0 15 9 0 8 -7 15 -15 15 -8 0
-15 -4 -15 -9z"/>
<path d="M6580 290 c0 -4 14 -13 31 -19 38 -13 39 -13 39 -3 0 5 -16 13 -35
19 -19 6 -35 7 -35 3z"/>
<path d="M3596 272 c6 -4 14 -14 17 -22 4 -10 6 -8 6 8 1 15 -5 22 -16 22 -11
0 -14 -3 -7 -8z"/>
<path d="M3080 259 c0 -5 5 -7 10 -4 6 3 10 8 10 11 0 2 -4 4 -10 4 -5 0 -10
-5 -10 -11z"/>
<path d="M3560 255 c-10 -12 -10 -15 4 -15 9 0 16 7 16 15 0 8 -2 15 -4 15 -2
0 -9 -7 -16 -15z"/>
<path d="M3547 223 c-13 -12 -7 -25 8 -19 17 6 20 -5 5 -20 -7 -7 -1 -9 18 -8
39 2 39 2 45 18 4 10 1 13 -9 9 -7 -3 -14 -9 -14 -14 0 -5 -4 -9 -10 -9 -5 0
-10 11 -10 25 0 24 -18 34 -33 18z"/>
<path d="M3456 194 c-9 -24 -7 -31 5 -11 14 25 29 21 29 -7 0 -17 -6 -25 -17
-25 -10 1 -28 -2 -40 -6 -18 -6 -23 -3 -23 10 0 15 -2 15 -15 1 -8 -8 -15 -18
-15 -21 0 -4 7 -5 15 -1 8 3 15 2 15 -3 0 -13 53 -11 69 3 11 8 15 8 18 -1 4
-10 10 -10 31 1 15 7 33 11 40 9 6 -3 12 0 12 6 0 15 -33 14 -48 -1 -9 -9 -12
-9 -12 1 0 7 -4 9 -10 6 -6 -4 -10 7 -10 24 0 24 -4 31 -19 31 -10 0 -22 -7
-25 -16z m14 -54 c0 -5 -5 -10 -11 -10 -5 0 -7 5 -4 10 3 6 8 10 11 10 2 0 4
-4 4 -10z"/>
<path d="M3370 180 c0 -5 5 -10 11 -10 5 0 7 5 4 10 -3 6 -8 10 -11 10 -2 0
-4 -4 -4 -10z"/>
<path d="M3625 180 c-3 -5 -4 -14 0 -19 3 -5 -3 -12 -12 -14 -14 -4 -13 -5 5
-6 12 0 22 3 22 8 0 5 9 11 20 14 11 3 20 11 20 19 0 10 -2 10 -9 -1 -8 -12
-12 -12 -24 -2 -10 8 -17 9 -22 1z"/>
<path d="M3230 118 c-12 -10 -26 -15 -31 -12 -5 3 -9 0 -9 -5 0 -14 27 -14 35
-1 4 6 14 10 23 9 10 -1 30 3 45 10 16 6 33 9 38 6 5 -4 16 -2 25 3 12 7 -1 9
-44 8 -42 0 -67 -6 -82 -18z"/>
<path d="M3016 115 c7 -16 44 -21 44 -5 0 5 -7 7 -15 4 -8 -4 -15 -1 -15 5 0
6 -4 11 -10 11 -5 0 -7 -7 -4 -15z"/>
<path d="M3147 108 c-6 -23 -2 -23 22 1 19 19 19 20 1 18 -10 -1 -21 -9 -23
-19z"/>
<path d="M2191 104 c0 -11 3 -14 6 -6 3 7 2 16 -1 19 -3 4 -6 -2 -5 -13z"/>
<path d="M2191 14 c0 -11 3 -14 6 -6 3 7 2 16 -1 19 -3 4 -6 -2 -5 -13z"/>
</g>
</svg>
